{
  "title" : "",
  "description" : "",
  "author" : "",
  "width" : 960.0,
  "height" : 720.0,
  "version" : "0.5",
  "editRate" : 30,
  "authoringClientName" :  {
    "name" : "Camtasia Studio",
    "platform" : "Windows",
    "version" : "9.0"
  },
  "sourceBin" : [
    {
      "id" : 1,
      "src" : "C:\\Users\\ori.CROW\\Documents\\Camtasia Studio\\Rec 05-22-17 2.trec",
      "rect" : [0, 0, 1676, 1012],
      "lastMod" : "20170522T103152",
      "sourceTracks" : [
        {
          "range" : [0, 5228],
          "type" : 0,
          "editRate" : 30,
          "trackRect" : [0, 0, 1676, 1012],
          "sampleRate" : 26,
          "bitDepth" : 0,
          "numChannels" : 0,
          "metaData" : "Rec 05-22-17 2.trec;"
        },
        {
          "range" : [0, 7674880],
          "type" : 2,
          "editRate" : 44100,
          "trackRect" : [0, 0, 0, 0],
          "sampleRate" : 44100,
          "bitDepth" : 16,
          "numChannels" : 2,
          "metaData" : ""
        }
      ]
    },
    {
      "id" : 2,
      "src" : "C:\\Users\\ori.CROW\\Documents\\Camtasia Studio\\Rec 05-22-17 8.trec",
      "rect" : [0, 0, 1676, 1012],
      "lastMod" : "20170522T151644",
      "sourceTracks" : [
        {
          "range" : [0, 5317],
          "type" : 0,
          "editRate" : 30,
          "trackRect" : [0, 0, 1676, 1012],
          "sampleRate" : 27,
          "bitDepth" : 0,
          "numChannels" : 0,
          "metaData" : "Rec 05-22-17 8.trec;"
        },
        {
          "range" : [0, 7806976],
          "type" : 2,
          "editRate" : 44100,
          "trackRect" : [0, 0, 0, 0],
          "sampleRate" : 44100,
          "bitDepth" : 16,
          "numChannels" : 2,
          "metaData" : ""
        }
      ]
    },
    {
      "id" : 3,
      "src" : "C:\\Users\\ori.CROW\\Documents\\Camtasia Studio\\Rec 05-23-17 6.trec",
      "rect" : [0, 0, 1676, 1012],
      "lastMod" : "20170523T125832",
      "sourceTracks" : [
        {
          "range" : [0, 4056],
          "type" : 0,
          "editRate" : 30,
          "trackRect" : [0, 0, 1676, 1012],
          "sampleRate" : 21,
          "bitDepth" : 0,
          "numChannels" : 0,
          "metaData" : "Rec 05-23-17 6.trec;"
        },
        {
          "range" : [0, 5954560],
          "type" : 2,
          "editRate" : 44100,
          "trackRect" : [0, 0, 0, 0],
          "sampleRate" : 44100,
          "bitDepth" : 16,
          "numChannels" : 2,
          "metaData" : ""
        }
      ]
    },
    {
      "id" : 4,
      "src" : "C:\\Users\\ori.CROW\\Downloads\\Projector_Screen_Flapping.mp3",
      "rect" : [0, 0, 0, 0],
      "lastMod" : "20170524T170018",
      "sourceTracks" : [
        {
          "range" : [0, 76666667],
          "type" : 2,
          "editRate" : 10000000,
          "trackRect" : [0, 0, 0, 0],
          "sampleRate" : 44100,
          "bitDepth" : 0,
          "numChannels" : 2,
          "metaData" : ""
        }
      ]
    },
    {
      "id" : 5,
      "src" : "W:\\Camtasia\\SqlServerVirtualBox-06\\media\\03_Solution\\Slides\\Solution-01.bmp",
      "rect" : [0, 0, 960, 720],
      "lastMod" : "20170529T082505",
      "sourceTracks" : [
        {
          "range" : [0, 1],
          "type" : 1,
          "editRate" : 10000000,
          "trackRect" : [0, 0, 960, 720],
          "sampleRate" : 0,
          "bitDepth" : 8,
          "numChannels" : 0,
          "metaData" : ""
        }
      ]
    },
    {
      "id" : 6,
      "src" : "W:\\Camtasia\\SqlServerVirtualBox-06\\media\\03_Solution\\Slides\\Solution-05.bmp",
      "rect" : [0, 0, 960, 720],
      "lastMod" : "20170529T083006",
      "sourceTracks" : [
        {
          "range" : [0, 1],
          "type" : 1,
          "editRate" : 10000000,
          "trackRect" : [0, 0, 960, 720],
          "sampleRate" : 0,
          "bitDepth" : 24,
          "numChannels" : 0,
          "metaData" : ""
        }
      ]
    },
    {
      "id" : 7,
      "src" : "W:\\Camtasia\\SqlServerVirtualBox-06\\media\\03_Solution\\Audio\\03_solution_audio.WAV",
      "rect" : [0, 0, 0, 0],
      "lastMod" : "20170528T024732",
      "sourceTracks" : [
        {
          "range" : [0, 883000000],
          "type" : 2,
          "editRate" : 10000000,
          "trackRect" : [0, 0, 0, 0],
          "sampleRate" : 44100,
          "bitDepth" : 16,
          "numChannels" : 2,
          "metaData" : ""
        }
      ]
    },
    {
      "id" : 8,
      "src" : "W:\\Camtasia\\SqlServerVirtualBox-06\\media\\02_Introduction\\Audio\\02_introduction_audio.WAV",
      "rect" : [0, 0, 0, 0],
      "lastMod" : "20170528T015100",
      "sourceTracks" : [
        {
          "range" : [0, 319000000],
          "type" : 2,
          "editRate" : 10000000,
          "trackRect" : [0, 0, 0, 0],
          "sampleRate" : 44100,
          "bitDepth" : 16,
          "numChannels" : 2,
          "metaData" : ""
        }
      ]
    },
    {
      "id" : 9,
      "src" : "W:\\Camtasia\\SqlServerVirtualBox-06\\media\\02_Introduction\\Slides\\Introduction-01.bmp",
      "rect" : [0, 0, 960, 720],
      "lastMod" : "20170529T084347",
      "sourceTracks" : [
        {
          "range" : [0, 1],
          "type" : 1,
          "editRate" : 10000000,
          "trackRect" : [0, 0, 960, 720],
          "sampleRate" : 0,
          "bitDepth" : 8,
          "numChannels" : 0,
          "metaData" : ""
        }
      ]
    },
    {
      "id" : 10,
      "src" : "W:\\Camtasia\\SqlServerVirtualBox-06\\media\\02_Introduction\\Slides\\Introduction-02.bmp",
      "rect" : [0, 0, 960, 720],
      "lastMod" : "20170529T084411",
      "sourceTracks" : [
        {
          "range" : [0, 1],
          "type" : 1,
          "editRate" : 10000000,
          "trackRect" : [0, 0, 960, 720],
          "sampleRate" : 0,
          "bitDepth" : 8,
          "numChannels" : 0,
          "metaData" : ""
        }
      ]
    },
    {
      "id" : 11,
      "src" : "W:\\Camtasia\\SqlServerVirtualBox-06\\media\\02_Introduction\\Slides\\Introduction-03.bmp",
      "rect" : [0, 0, 960, 720],
      "lastMod" : "20170529T084433",
      "sourceTracks" : [
        {
          "range" : [0, 1],
          "type" : 1,
          "editRate" : 10000000,
          "trackRect" : [0, 0, 960, 720],
          "sampleRate" : 0,
          "bitDepth" : 24,
          "numChannels" : 0,
          "metaData" : ""
        }
      ]
    },
    {
      "id" : 12,
      "src" : "W:\\Camtasia\\SqlServerVirtualBox-06\\media\\04_Installation\\Audio\\04_Instalation_audio.WAV",
      "rect" : [0, 0, 0, 0],
      "lastMod" : "20170528T025702",
      "sourceTracks" : [
        {
          "range" : [0, 980666667],
          "type" : 2,
          "editRate" : 10000000,
          "trackRect" : [0, 0, 0, 0],
          "sampleRate" : 44100,
          "bitDepth" : 16,
          "numChannels" : 2,
          "metaData" : ""
        }
      ]
    },
    {
      "id" : 13,
      "src" : "W:\\Camtasia\\SqlServerVirtualBox-06\\media\\03_Solution\\Slides\\Solution-02.bmp",
      "rect" : [0, 0, 960, 720],
      "lastMod" : "20170529T095357",
      "sourceTracks" : [
        {
          "range" : [0, 1],
          "type" : 1,
          "editRate" : 10000000,
          "trackRect" : [0, 0, 960, 720],
          "sampleRate" : 0,
          "bitDepth" : 24,
          "numChannels" : 0,
          "metaData" : ""
        }
      ]
    },
    {
      "id" : 14,
      "src" : "W:\\Camtasia\\SqlServerVirtualBox-06\\media\\03_Solution\\Slides\\Solution-03.bmp",
      "rect" : [0, 0, 960, 720],
      "lastMod" : "20170529T095413",
      "sourceTracks" : [
        {
          "range" : [0, 1],
          "type" : 1,
          "editRate" : 10000000,
          "trackRect" : [0, 0, 960, 720],
          "sampleRate" : 0,
          "bitDepth" : 24,
          "numChannels" : 0,
          "metaData" : ""
        }
      ]
    },
    {
      "id" : 15,
      "src" : "W:\\Camtasia\\SqlServerVirtualBox-06\\media\\03_Solution\\Slides\\Solution-04.bmp",
      "rect" : [0, 0, 960, 720],
      "lastMod" : "20170529T095427",
      "sourceTracks" : [
        {
          "range" : [0, 1],
          "type" : 1,
          "editRate" : 10000000,
          "trackRect" : [0, 0, 960, 720],
          "sampleRate" : 0,
          "bitDepth" : 24,
          "numChannels" : 0,
          "metaData" : ""
        }
      ]
    },
    {
      "id" : 16,
      "src" : "W:\\Camtasia\\SqlServerVirtualBox-06\\media\\03_Solution\\Slides\\Solution-06.bmp",
      "rect" : [0, 0, 960, 720],
      "lastMod" : "20170529T095446",
      "sourceTracks" : [
        {
          "range" : [0, 1],
          "type" : 1,
          "editRate" : 10000000,
          "trackRect" : [0, 0, 960, 720],
          "sampleRate" : 0,
          "bitDepth" : 24,
          "numChannels" : 0,
          "metaData" : ""
        }
      ]
    },
    {
      "id" : 17,
      "src" : "W:\\Camtasia\\SqlServerVirtualBox-06\\media\\05_Configuration\\Audio\\05_Configuration_audio.WAV",
      "rect" : [0, 0, 0, 0],
      "lastMod" : "20170528T061446",
      "sourceTracks" : [
        {
          "range" : [0, 695666667],
          "type" : 2,
          "editRate" : 10000000,
          "trackRect" : [0, 0, 0, 0],
          "sampleRate" : 44100,
          "bitDepth" : 16,
          "numChannels" : 2,
          "metaData" : ""
        }
      ]
    },
    {
      "id" : 18,
      "src" : "W:\\Camtasia\\SqlServerVirtualBox-06\\media\\06_Vagrantfile\\Audio\\06_vagrantfile_audio.WAV",
      "rect" : [0, 0, 0, 0],
      "lastMod" : "20170528T072904",
      "sourceTracks" : [
        {
          "range" : [0, 877666667],
          "type" : 2,
          "editRate" : 10000000,
          "trackRect" : [0, 0, 0, 0],
          "sampleRate" : 44100,
          "bitDepth" : 16,
          "numChannels" : 2,
          "metaData" : ""
        }
      ]
    },
    {
      "id" : 19,
      "src" : "W:\\Camtasia\\SqlServerVirtualBox-06\\media\\06_Vagrantfile\\Slides\\Vagrantfile-01.bmp",
      "rect" : [0, 0, 960, 720],
      "lastMod" : "20170529T103322",
      "sourceTracks" : [
        {
          "range" : [0, 1],
          "type" : 1,
          "editRate" : 10000000,
          "trackRect" : [0, 0, 960, 720],
          "sampleRate" : 0,
          "bitDepth" : 8,
          "numChannels" : 0,
          "metaData" : ""
        }
      ]
    },
    {
      "id" : 20,
      "src" : "C:\\Users\\ori.CROW\\Documents\\Camtasia Studio\\Rec 06-27-17 1.trec",
      "rect" : [0, 0, 1676, 1012],
      "lastMod" : "20170627T081007",
      "sourceTracks" : [
        {
          "range" : [0, 758],
          "type" : 0,
          "editRate" : 30,
          "trackRect" : [0, 0, 1676, 1012],
          "sampleRate" : 27,
          "bitDepth" : 0,
          "numChannels" : 0,
          "metaData" : "Rec 06-27-17 1.trec;"
        }
      ]
    },
    {
      "id" : 21,
      "src" : "C:\\ProgramData\\TechSmith\\Camtasia Studio\\Library 3.0\\Group_2017-05-28_174157\\Animated Backgrounds - laptopopen.mp4",
      "rect" : [0, 0, 1920, 1080],
      "lastMod" : "20160810T121352",
      "sourceTracks" : [
        {
          "range" : [0, 229000000],
          "type" : 0,
          "editRate" : 10000000,
          "trackRect" : [0, 0, 1920, 1080],
          "sampleRate" : "10000000/333333",
          "bitDepth" : 24,
          "numChannels" : 0,
          "metaData" : ""
        }
      ]
    },
    {
      "id" : 22,
      "src" : "C:\\ProgramData\\TechSmith\\Camtasia Studio\\Library 3.0\\Group_2017-05-28_174157\\ZOOM0030_LR.WAV",
      "rect" : [0, 0, 0, 0],
      "lastMod" : "20170528T013254",
      "sourceTracks" : [
        {
          "range" : [0, 87333333],
          "type" : 2,
          "editRate" : 10000000,
          "trackRect" : [0, 0, 0, 0],
          "sampleRate" : 44100,
          "bitDepth" : 16,
          "numChannels" : 2,
          "metaData" : ""
        }
      ]
    },
    {
      "id" : 23,
      "src" : "C:\\ProgramData\\TechSmith\\Camtasia Studio\\Library 3.0\\Group_2017-05-28_174157\\Flow.mp3",
      "rect" : [0, 0, 0, 0],
      "lastMod" : "20170524T151205",
      "sourceTracks" : [
        {
          "range" : [0, 1034666667],
          "type" : 2,
          "editRate" : 10000000,
          "trackRect" : [0, 0, 0, 0],
          "sampleRate" : 44100,
          "bitDepth" : 0,
          "numChannels" : 2,
          "metaData" : ""
        }
      ]
    },
    {
      "id" : 24,
      "src" : "C:\\Users\\ori.CROW\\Documents\\Camtasia Studio\\Rec 06-27-17 2.trec",
      "rect" : [0, 0, 1676, 1012],
      "lastMod" : "20170627T083912",
      "sourceTracks" : [
        {
          "range" : [0, 647],
          "type" : 0,
          "editRate" : 30,
          "trackRect" : [0, 0, 1676, 1012],
          "sampleRate" : 28,
          "bitDepth" : 0,
          "numChannels" : 0,
          "metaData" : "Rec 06-27-17 2.trec;"
        }
      ]
    },
    {
      "id" : 25,
      "src" : "C:\\Users\\ori.CROW\\Documents\\Camtasia Studio\\Rec 06-27-17 3.trec",
      "rect" : [0, 0, 1676, 1012],
      "lastMod" : "20170627T084227",
      "sourceTracks" : [
        {
          "range" : [0, 862],
          "type" : 0,
          "editRate" : 30,
          "trackRect" : [0, 0, 1676, 1012],
          "sampleRate" : 26,
          "bitDepth" : 0,
          "numChannels" : 0,
          "metaData" : "Rec 06-27-17 3.trec;"
        }
      ]
    },
    {
      "id" : 26,
      "src" : "C:\\Users\\ori.CROW\\Documents\\Camtasia Studio\\Rec 06-27-17 4.trec",
      "rect" : [0, 0, 1676, 1012],
      "lastMod" : "20170627T084659",
      "sourceTracks" : [
        {
          "range" : [0, 394],
          "type" : 0,
          "editRate" : 30,
          "trackRect" : [0, 0, 1676, 1012],
          "sampleRate" : 27,
          "bitDepth" : 0,
          "numChannels" : 0,
          "metaData" : "Rec 06-27-17 4.trec;"
        }
      ]
    },
    {
      "id" : 27,
      "src" : "C:\\Users\\ori.CROW\\Documents\\Camtasia Studio\\Rec 06-27-17 5.trec",
      "rect" : [0, 0, 1676, 1012],
      "lastMod" : "20170627T084932",
      "sourceTracks" : [
        {
          "range" : [0, 1339],
          "type" : 0,
          "editRate" : 30,
          "trackRect" : [0, 0, 1676, 1012],
          "sampleRate" : 28,
          "bitDepth" : 0,
          "numChannels" : 0,
          "metaData" : "Rec 06-27-17 5.trec;"
        }
      ]
    },
    {
      "id" : 28,
      "src" : "W:\\Camtasia\\SqlServerVirtualBox-06\\media\\07_Spin-Up\\Audio\\07_spin_up_audio.WAV",
      "rect" : [0, 0, 0, 0],
      "lastMod" : "20170528T080206",
      "sourceTracks" : [
        {
          "range" : [0, 542000000],
          "type" : 2,
          "editRate" : 10000000,
          "trackRect" : [0, 0, 0, 0],
          "sampleRate" : 44100,
          "bitDepth" : 16,
          "numChannels" : 2,
          "metaData" : ""
        }
      ]
    },
    {
      "id" : 29,
      "src" : "W:\\Camtasia\\SqlServerVirtualBox-06\\media\\07_Spin-Up\\Slides\\07_Spin-Up.bmp",
      "rect" : [0, 0, 960, 720],
      "lastMod" : "20170627T090633",
      "sourceTracks" : [
        {
          "range" : [0, 1],
          "type" : 1,
          "editRate" : 10000000,
          "trackRect" : [0, 0, 960, 720],
          "sampleRate" : 0,
          "bitDepth" : 8,
          "numChannels" : 0,
          "metaData" : ""
        }
      ]
    },
    {
      "id" : 30,
      "src" : "C:\\Users\\ori.CROW\\Documents\\Camtasia Studio\\Rec 06-27-17 7.trec",
      "rect" : [0, 0, 1676, 1012],
      "lastMod" : "20170627T101830",
      "sourceTracks" : [
        {
          "range" : [0, 2648],
          "type" : 0,
          "editRate" : 30,
          "trackRect" : [0, 0, 1676, 1012],
          "sampleRate" : 27,
          "bitDepth" : 0,
          "numChannels" : 0,
          "metaData" : "Rec 06-27-17 7.trec;"
        }
      ]
    },
    {
      "id" : 31,
      "src" : "C:\\Users\\ori.CROW\\Documents\\Camtasia Studio\\Rec 06-27-17 8.trec",
      "rect" : [0, 0, 1676, 1012],
      "lastMod" : "20170627T102400",
      "sourceTracks" : [
        {
          "range" : [0, 1010],
          "type" : 0,
          "editRate" : 30,
          "trackRect" : [0, 0, 1676, 1012],
          "sampleRate" : 27,
          "bitDepth" : 0,
          "numChannels" : 0,
          "metaData" : "Rec 06-27-17 8.trec;"
        }
      ]
    },
    {
      "id" : 32,
      "src" : "W:\\Camtasia\\SqlServerVirtualBox-06\\media\\08_End\\Slides\\08_TheEnd.bmp",
      "rect" : [0, 0, 960, 720],
      "lastMod" : "20170627T102936",
      "sourceTracks" : [
        {
          "range" : [0, 1],
          "type" : 1,
          "editRate" : 10000000,
          "trackRect" : [0, 0, 960, 720],
          "sampleRate" : 0,
          "bitDepth" : 24,
          "numChannels" : 0,
          "metaData" : ""
        }
      ]
    },
    {
      "id" : 33,
      "src" : "W:\\Camtasia\\SqlServerVirtualBox-06\\media\\08_End\\Audio\\08_finish_audio.WAV",
      "rect" : [0, 0, 0, 0],
      "lastMod" : "20170528T084220",
      "sourceTracks" : [
        {
          "range" : [0, 150000000],
          "type" : 2,
          "editRate" : 10000000,
          "trackRect" : [0, 0, 0, 0],
          "sampleRate" : 44100,
          "bitDepth" : 16,
          "numChannels" : 2,
          "metaData" : ""
        }
      ]
    },
    {
      "id" : 34,
      "src" : "W:\\Camtasia\\SqlServerVirtualBox-06\\media\\03_Solution\\Slides\\Configuration.bmp",
      "rect" : [0, 0, 960, 720],
      "lastMod" : "20170523T100024",
      "sourceTracks" : [
        {
          "range" : [0, 1],
          "type" : 1,
          "editRate" : 10000000,
          "trackRect" : [0, 0, 960, 720],
          "sampleRate" : 0,
          "bitDepth" : 8,
          "numChannels" : 0,
          "metaData" : ""
        }
      ]
    }
  ],
  "timeline" : {
    "id" : 35,
    "sceneTrack" : {
      "scenes" : [
        {
          "duration" : 533.666666666667,
          "title" : "",
          "type" : "",
          "csml" : {
            "tracks" : [
              {
                "trackIndex" : 0,
                "medias" : [
                  {
                    "id" : 36,
                    "_type" : "Group",
                    "parameters" : {
                      "translation0" : {
                        "type" : "double",
                        "defaultValue" : -28.2644628099343,
                        "interp" : "eioe"
                      },
                      "volume" : 1.0
                    },
                    "tracks" : [
                      {
                        "trackIndex" : 0,
                        "medias" : [
                          {
                            "id" : 37,
                            "_type" : "VMFile",
                            "src" : 21,
                            "trackNumber" : 0,
                            "attributes" : {
                              "ident" : "laptopopen"
                            },
                            "parameters" : {
                              "translation0" : {
                                "type" : "double",
                                "defaultValue" : 28.2644628099343,
                                "interp" : "eioe",
                                "keyframes" : [
                                  {
                                    "time" : -30,
                                    "value" : -1.4210854715202e-14,
                                    "duration" : 30
                                  }
                                ]
                              },
                              "scale0" : {
                                "type" : "double",
                                "defaultValue" : 1.0,
                                "interp" : "eioe",
                                "keyframes" : [
                                  {
                                    "time" : -30,
                                    "value" : 0.5,
                                    "duration" : 30
                                  }
                                ]
                              },
                              "scale1" : {
                                "type" : "double",
                                "defaultValue" : 1.0,
                                "interp" : "eioe",
                                "keyframes" : [
                                  {
                                    "time" : -30,
                                    "value" : 0.5,
                                    "duration" : 30
                                  }
                                ]
                              }
                            },
                            "effects" : [

                            ],
                            "start" : 6,
                            "duration" : 358,
                            "mediaStart" : 0,
                            "mediaDuration" : 358,
                            "scalar" : 1,
                            "metadata" : {
                              "WinSubProjectDisplayName" : "",
                              "clipSpeedAttribute" : false
                            },
                            "animationTracks" : {
                              "visual" : [
                                {
                                  "range" : [ -30, 30]
                                }
                              ]
                            }
                          }
                        ],
                        "transitions" : [
                          {
                            "name" : "RandomBars",
                            "duration" : 36,
                            "useAudioPreRoll" : true,
                            "useVisualPreRoll" : true,
                            "leftMedia" : 37
                          }
                        ],
                          "ident" : "",
                          "audioMuted" : false,
                          "videoHidden" : false,
                          "metadata" : {
                            "IsLocked" : "False",
                            "WinTrackHeight" : "0"
                          }
                      },
                      {
                        "trackIndex" : 1,
                        "medias" : [
                          {
                            "id" : 38,
                            "_type" : "AMFile",
                            "src" : 22,
                            "trackNumber" : 0,
                            "attributes" : {
                              "ident" : "ZOOM0030_LR",
                              "sampleRate" : 44100,
                              "bitDepth" : 16,
                              "gain" : 1.0,
                              "mixToMono" : false
                            },
                              "channelNumber" : "0,1",
                            "effects" : [

                            ],
                            "start" : 150,
                            "duration" : 253,
                            "mediaStart" : 0,
                            "mediaDuration" : 253,
                            "scalar" : 1,
                            "metadata" : {
                              "WinSubProjectDisplayName" : "",
                              "clipSpeedAttribute" : false
                            },
                            "animationTracks" : {

                            }
                          }
                        ],
                          "ident" : "",
                          "audioMuted" : false,
                          "videoHidden" : false,
                          "metadata" : {
                            "IsLocked" : "False",
                            "WinTrackHeight" : "8.59532462496139e-315"
                          }
                      },
                      {
                        "trackIndex" : 2,
                        "medias" : [
                          {
                            "id" : 39,
                            "_type" : "AMFile",
                            "src" : 23,
                            "trackNumber" : 0,
                            "attributes" : {
                              "ident" : "Flow",
                              "sampleRate" : 44100,
                              "bitDepth" : 0,
                              "gain" : 1.0,
                              "mixToMono" : false
                            },
                              "channelNumber" : "0,1",
                            "parameters" : {
                              "volume" : {
                                "type" : "double",
                                "keyframes" : [
                                  {
                                    "time" : 0,
                                    "value" : 1.0,
                                    "duration" : 0
                                  },
                                  {
                                    "time" : 150,
                                    "value" : 1.0,
                                    "duration" : 0
                                  },
                                  {
                                    "time" : 179,
                                    "value" : 0.104463437796771,
                                    "duration" : 0
                                  },
                                  {
                                    "time" : 313,
                                    "value" : 0.104463437796771,
                                    "duration" : 0
                                  },
                                  {
                                    "time" : 403,
                                    "value" : 0.0,
                                    "duration" : 0
                                  },
                                  {
                                    "time" : 404,
                                    "value" : 0.104463437796771,
                                    "duration" : 0
                                  }
                                ]
                              }
                            },
                            "effects" : [

                            ],
                            "start" : 0,
                            "duration" : 403,
                            "mediaStart" : 0,
                            "mediaDuration" : 403,
                            "scalar" : 1,
                            "metadata" : {
                              "WinSubProjectDisplayName" : "",
                              "clipSpeedAttribute" : false
                            },
                            "animationTracks" : {

                            }
                          }
                        ],
                          "ident" : "",
                          "audioMuted" : false,
                          "videoHidden" : false,
                          "metadata" : {
                            "IsLocked" : "False",
                            "WinTrackHeight" : "8.59532462496139e-315"
                          }
                      },
                      {
                        "trackIndex" : 3,
                        "medias" : [
                          {
                            "id" : 40,
                            "_type" : "Callout",
                            "def" : {
                              "kind" : "TypeWinText",
                              "shape" : "",
                              "style" : "",
                              "Style" : {
                                "type" : "double",
                                "defaultValue" : 5.0,
                                "interp" : "linr"
                              },
                              "dimensionTime" : {
                                "type" : "double",
                                "defaultValue" : 0.0,
                                "interp" : "linr"
                              },
                              "height" : {
                                "type" : "double",
                                "defaultValue" : 180.0,
                                "interp" : "linr"
                              },
                              "textIgnoresOpacity" : {
                                "type" : "double",
                                "defaultValue" : 0.0,
                                "interp" : "linr"
                              },
                              "textRectHeight" : {
                                "type" : "double",
                                "defaultValue" : 1.0,
                                "interp" : "linr"
                              },
                              "textRectWidth" : {
                                "type" : "double",
                                "defaultValue" : 1.0,
                                "interp" : "linr"
                              },
                              "textRectX" : {
                                "type" : "double",
                                "defaultValue" : 0.0,
                                "interp" : "linr"
                              },
                              "textRectY" : {
                                "type" : "double",
                                "defaultValue" : 0.0,
                                "interp" : "linr"
                              },
                              "textVerticalAlign" : {
                                "type" : "double",
                                "defaultValue" : 0.0,
                                "interp" : "linr"
                              },
                              "width" : {
                                "type" : "double",
                                "defaultValue" : 240.0,
                                "interp" : "linr"
                              },
                              "filename" : "C:\\Program Files\\TechSmith\\Camtasia 9\\Media\\Studio\\Callouts\\trans_100x100.xml",
                              "horizontal-alignment" : "center",
                              "name" : "Text",
                              "text" : "{\\rtf1\\fbidis\\ansi\\ansicpg1252\\deff0\\deflang1033{\\fonttbl{\\f0\\fnil\\fcharset0 Arial Black;}{\\f1\\fnil\\fcharset177{\\*\\fname Arial;}Arial (Hebrew);}}\r\n{\\colortbl ;\\red0\\green0\\blue0;}\r\n{\\*\\generator Msftedit 5.41.21.2510;}\\viewkind4\\uc1\\pard\\ltrpar\\qc\\cf1\\b\\f0\\fs80 DevOps\\lang1037\\f1\\rtlch\\par\r\n}\r\n",
                              "vertical-alignment" : "center",
                              "xmlContent" : "﻿<?xml version=\"1.0\"?>\n\n<Overlay version=\"1.0.1\">\n\n<Overlay_Filename>trans_100x100.png</Overlay_Filename>\n<Overlay_Name>Text</Overlay_Name>\n<Text_Top>0</Text_Top>\n<Text_Left>0</Text_Left>\n<Text_Bottom>0</Text_Bottom>\n<Text_Right>0</Text_Right>\n<Fill_Color>0</Fill_Color>\n<Border_Color>0</Border_Color>\n<Style>5</Style>\n</Overlay>",
                              "textAttributes" : {
                                "type" : "textAttributeList",
                                "keyframes" : [
                                  {
                                    "time" : 0,
                                    "value" : null,
                                    "duration" : 0
                                  }
                                ]
                              }
                            },
                            "attributes" : {
                              "autoRotateText" : true
                            },
                            "parameters" : {
                              "translation0" : {
                                "type" : "double",
                                "defaultValue" : 51.3493940729989,
                                "interp" : "eioe"
                              },
                              "translation1" : {
                                "type" : "double",
                                "defaultValue" : 58.4210526314917,
                                "interp" : "eioe"
                              },
                              "scale0" : {
                                "type" : "double",
                                "defaultValue" : 1.82706766917262,
                                "interp" : "eioe"
                              },
                              "scale1" : {
                                "type" : "double",
                                "defaultValue" : 1.35087719298269,
                                "interp" : "eioe"
                              }
                            },
                            "effects" : [
                                {
                                  "_type" : "GenericBehaviorEffect",
                                  "effectName" : "sliding",
                                  "start" : -26,
                                  "duration" : 92                                ,
                                  "in" : {
                                    "attributes" : {
                                      "name" : "sliding",
                                      "type" : 0,
                                      "characterOrder" : 7,
                                      "offsetBetweenCharacters" : "3/2",
                                      "suggestedDurationPerCharacter" : 90,
                                      "overlapProportion" : "11/20",
                                      "movement" : 31,
                                      "springDamping" : 5.0,
                                      "springStiffness" : 50.0,
                                      "bounceBounciness" : 0.45
                                    },
                                    "parameters" : {
                                      "direction" : {
                                        "type" : "int",
                                        "valueBounds" : {
                                          "minValue" : 0,
                                          "maxValue" : 3,
                                          "defaultValue" : 0
                                        },
                                        "uiHints" : {
                                          "userInterfaceType" : 2,
                                          "unitType" : 0
                                        },
                                        "keyframes" : [
                                          {
                                            "time" : 0,
                                            "value" : 2,
                                            "duration" : 0
                                          }
                                        ]
                                      }
                                    }
                                  
                                  },
                                  "center" : {
                                    "attributes" : {
                                      "name" : "fading",
                                      "type" : 0,
                                      "characterOrder" : 6,
                                      "offsetBetweenCharacters" : "12/5",
                                      "secondsPerLoop" : 2,
                                      "numberOfLoops" : -1,
                                      "delayBetweenLoops" : 0,
                                      "offsetBetweenCharacters" : "12/5"
                                    },
                                    "parameters" : {
                                      "movement" : {
                                        "type" : "int",
                                        "valueBounds" : {
                                          "minValue" : 0,
                                          "maxValue" : 31,
                                          "defaultValue" : 0
                                        },
                                        "uiHints" : {
                                          "userInterfaceType" : 4,
                                          "unitType" : 0
                                        },
                                        "keyframes" : [
                                          {
                                            "time" : 0,
                                            "value" : 0,
                                            "duration" : 0
                                          }
                                        ]
                                      },
                                      "opacity" : {
                                        "type" : "double",
                                        "defaultValue" : 0.65,
                                        "interp" : "linr",
                                        "valueBounds" : {
                                          "minValue" : 0.0,
                                          "maxValue" : 1.0,
                                          "defaultValue" : 0.65
                                        },
                                        "uiHints" : {
                                          "userInterfaceType" : 1,
                                          "unitType" : 1
                                        }
                                      }
                                    }
                                  
                                  },
                                  "out" : {
                                    "attributes" : {
                                      "name" : "none",
                                      "type" : 0,
                                      "characterOrder" : 6,
                                      "offsetBetweenCharacters" : 0,
                                      "suggestedDurationPerCharacter" : 0,
                                      "overlapProportion" : 0,
                                      "movement" : -1,
                                      "springDamping" : 5.0,
                                      "springStiffness" : 50.0,
                                      "bounceBounciness" : 0.45
                                    }
                                  
                                  }
                                }
                            ],
                            "start" : 58,
                            "duration" : 92,
                            "mediaStart" : -26,
                            "mediaDuration" : 92,
                            "scalar" : 1,
                            "metadata" : {
                              "WinSubProjectDisplayName" : "",
                              "clipSpeedAttribute" : false
                            },
                            "animationTracks" : {

                            }
                          },
                          {
                            "id" : 41,
                            "_type" : "Callout",
                            "def" : {
                              "kind" : "TypeWinText",
                              "shape" : "",
                              "style" : "",
                              "Style" : {
                                "type" : "double",
                                "defaultValue" : 5.0,
                                "interp" : "linr"
                              },
                              "dimensionTime" : {
                                "type" : "double",
                                "defaultValue" : 0.0,
                                "interp" : "linr"
                              },
                              "height" : {
                                "type" : "double",
                                "defaultValue" : 180.0,
                                "interp" : "linr"
                              },
                              "textIgnoresOpacity" : {
                                "type" : "double",
                                "defaultValue" : 0.0,
                                "interp" : "linr"
                              },
                              "textRectHeight" : {
                                "type" : "double",
                                "defaultValue" : 1.0,
                                "interp" : "linr"
                              },
                              "textRectWidth" : {
                                "type" : "double",
                                "defaultValue" : 1.0,
                                "interp" : "linr"
                              },
                              "textRectX" : {
                                "type" : "double",
                                "defaultValue" : 0.0,
                                "interp" : "linr"
                              },
                              "textRectY" : {
                                "type" : "double",
                                "defaultValue" : 0.0,
                                "interp" : "linr"
                              },
                              "textVerticalAlign" : {
                                "type" : "double",
                                "defaultValue" : 0.0,
                                "interp" : "linr"
                              },
                              "width" : {
                                "type" : "double",
                                "defaultValue" : 240.0,
                                "interp" : "linr"
                              },
                              "filename" : "C:\\Program Files\\TechSmith\\Camtasia 9\\Media\\Studio\\Callouts\\trans_100x100.xml",
                              "horizontal-alignment" : "center",
                              "name" : "Text",
                              "text" : "{\\rtf1\\fbidis\\ansi\\ansicpg1252\\deff0\\deflang1033{\\fonttbl{\\f0\\fnil\\fcharset0 Arial Black;}{\\f1\\fnil\\fcharset177{\\*\\fname Arial;}Arial (Hebrew);}}\r\n{\\colortbl ;\\red0\\green0\\blue0;}\r\n{\\*\\generator Msftedit 5.41.21.2510;}\\viewkind4\\uc1\\pard\\ltrpar\\qc\\cf1\\b\\f0\\fs80 DevOps\\lang1037\\f1\\rtlch\\par\r\n}\r\n",
                              "vertical-alignment" : "center",
                              "xmlContent" : "﻿<?xml version=\"1.0\"?>\n\n<Overlay version=\"1.0.1\">\n\n<Overlay_Filename>trans_100x100.png</Overlay_Filename>\n<Overlay_Name>Text</Overlay_Name>\n<Text_Top>0</Text_Top>\n<Text_Left>0</Text_Left>\n<Text_Bottom>0</Text_Bottom>\n<Text_Right>0</Text_Right>\n<Fill_Color>0</Fill_Color>\n<Border_Color>0</Border_Color>\n<Style>5</Style>\n</Overlay>",
                              "textAttributes" : {
                                "type" : "textAttributeList",
                                "keyframes" : [
                                  {
                                    "time" : 0,
                                    "value" : null,
                                    "duration" : 0
                                  }
                                ]
                              }
                            },
                            "attributes" : {
                              "autoRotateText" : true
                            },
                            "parameters" : {
                              "translation0" : {
                                "type" : "double",
                                "defaultValue" : 51.3493940729989,
                                "interp" : "eioe"
                              },
                              "translation1" : {
                                "type" : "double",
                                "defaultValue" : 58.4210526314917,
                                "interp" : "eioe"
                              },
                              "scale0" : {
                                "type" : "double",
                                "defaultValue" : 1.82706766917262,
                                "interp" : "eioe"
                              },
                              "scale1" : {
                                "type" : "double",
                                "defaultValue" : 1.35087719298269,
                                "interp" : "eioe"
                              }
                            },
                            "effects" : [
                                {
                                  "_type" : "GenericBehaviorEffect",
                                  "effectName" : "sliding",
                                  "start" : -26,
                                  "duration" : 86                                ,
                                  "in" : {
                                    "attributes" : {
                                      "name" : "sliding",
                                      "type" : 0,
                                      "characterOrder" : 7,
                                      "offsetBetweenCharacters" : "3/2",
                                      "suggestedDurationPerCharacter" : 90,
                                      "overlapProportion" : "11/20",
                                      "movement" : 31,
                                      "springDamping" : 5.0,
                                      "springStiffness" : 50.0,
                                      "bounceBounciness" : 0.45
                                    },
                                    "parameters" : {
                                      "direction" : {
                                        "type" : "int",
                                        "valueBounds" : {
                                          "minValue" : 0,
                                          "maxValue" : 3,
                                          "defaultValue" : 0
                                        },
                                        "uiHints" : {
                                          "userInterfaceType" : 2,
                                          "unitType" : 0
                                        },
                                        "keyframes" : [
                                          {
                                            "time" : 0,
                                            "value" : 3,
                                            "duration" : 0
                                          }
                                        ]
                                      }
                                    }
                                  
                                  },
                                  "center" : {
                                    "attributes" : {
                                      "name" : "fading",
                                      "type" : 0,
                                      "characterOrder" : 6,
                                      "offsetBetweenCharacters" : "12/5",
                                      "secondsPerLoop" : 2,
                                      "numberOfLoops" : -1,
                                      "delayBetweenLoops" : 0,
                                      "offsetBetweenCharacters" : "12/5"
                                    },
                                    "parameters" : {
                                      "movement" : {
                                        "type" : "int",
                                        "valueBounds" : {
                                          "minValue" : 0,
                                          "maxValue" : 31,
                                          "defaultValue" : 0
                                        },
                                        "uiHints" : {
                                          "userInterfaceType" : 4,
                                          "unitType" : 0
                                        },
                                        "keyframes" : [
                                          {
                                            "time" : 0,
                                            "value" : 0,
                                            "duration" : 0
                                          }
                                        ]
                                      },
                                      "opacity" : {
                                        "type" : "double",
                                        "defaultValue" : 0.65,
                                        "interp" : "linr",
                                        "valueBounds" : {
                                          "minValue" : 0.0,
                                          "maxValue" : 1.0,
                                          "defaultValue" : 0.65
                                        },
                                        "uiHints" : {
                                          "userInterfaceType" : 1,
                                          "unitType" : 1
                                        }
                                      }
                                    }
                                  
                                  },
                                  "out" : {
                                    "attributes" : {
                                      "name" : "hinge",
                                      "type" : 0,
                                      "characterOrder" : 6,
                                      "offsetBetweenCharacters" : "3/2",
                                      "suggestedDurationPerCharacter" : 20,
                                      "overlapProportion" : "1/2",
                                      "movement" : 7,
                                      "springDamping" : 5.0,
                                      "springStiffness" : 50.0,
                                      "bounceBounciness" : 0.45
                                    },
                                    "parameters" : {
                                      "direction" : {
                                        "type" : "int",
                                        "valueBounds" : {
                                          "minValue" : 0,
                                          "maxValue" : 3,
                                          "defaultValue" : 3
                                        },
                                        "uiHints" : {
                                          "userInterfaceType" : 2,
                                          "unitType" : 0
                                        },
                                        "keyframes" : [
                                          {
                                            "time" : 0,
                                            "value" : 3,
                                            "duration" : 0
                                          }
                                        ]
                                      }
                                    }
                                  
                                  }
                                }
                            ],
                            "start" : 236,
                            "duration" : 86,
                            "mediaStart" : -26,
                            "mediaDuration" : 86,
                            "scalar" : 1,
                            "metadata" : {
                              "WinSubProjectDisplayName" : "",
                              "clipSpeedAttribute" : false
                            },
                            "animationTracks" : {

                            }
                          }
                        ],
                          "ident" : "",
                          "audioMuted" : false,
                          "videoHidden" : false,
                          "metadata" : {
                            "IsLocked" : "False",
                            "WinTrackHeight" : "8.59532462496139e-315"
                          }
                      },
                      {
                        "trackIndex" : 4,
                        "medias" : [
                          {
                            "id" : 42,
                            "_type" : "Callout",
                            "def" : {
                              "kind" : "TypeWinText",
                              "shape" : "",
                              "style" : "",
                              "Style" : {
                                "type" : "double",
                                "defaultValue" : 5.0,
                                "interp" : "linr"
                              },
                              "dimensionTime" : {
                                "type" : "double",
                                "defaultValue" : 0.0,
                                "interp" : "linr"
                              },
                              "height" : {
                                "type" : "double",
                                "defaultValue" : 180.0,
                                "interp" : "linr"
                              },
                              "textIgnoresOpacity" : {
                                "type" : "double",
                                "defaultValue" : 0.0,
                                "interp" : "linr"
                              },
                              "textRectHeight" : {
                                "type" : "double",
                                "defaultValue" : 1.0,
                                "interp" : "linr"
                              },
                              "textRectWidth" : {
                                "type" : "double",
                                "defaultValue" : 1.0,
                                "interp" : "linr"
                              },
                              "textRectX" : {
                                "type" : "double",
                                "defaultValue" : 0.0,
                                "interp" : "linr"
                              },
                              "textRectY" : {
                                "type" : "double",
                                "defaultValue" : 0.0,
                                "interp" : "linr"
                              },
                              "textVerticalAlign" : {
                                "type" : "double",
                                "defaultValue" : 0.0,
                                "interp" : "linr"
                              },
                              "width" : {
                                "type" : "double",
                                "defaultValue" : 240.0,
                                "interp" : "linr"
                              },
                              "filename" : "C:\\Program Files\\TechSmith\\Camtasia 9\\Media\\Studio\\Callouts\\trans_100x100.xml",
                              "horizontal-alignment" : "center",
                              "name" : "Text",
                              "text" : "{\\rtf1\\fbidis\\ansi\\ansicpg1252\\deff0\\deflang1033{\\fonttbl{\\f0\\fnil\\fcharset0 Arial Black;}{\\f1\\fnil\\fcharset177{\\*\\fname Arial;}Arial (Hebrew);}}\r\n{\\colortbl ;\\red0\\green0\\blue0;}\r\n{\\*\\generator Msftedit 5.41.21.2510;}\\viewkind4\\uc1\\pard\\ltrpar\\qc\\cf1\\b\\f0\\fs80 SQL \\lang1037\\f1\\rtlch\\par\r\n}\r\n",
                              "vertical-alignment" : "center",
                              "xmlContent" : "﻿<?xml version=\"1.0\"?>\n\n<Overlay version=\"1.0.1\">\n\n<Overlay_Filename>trans_100x100.png</Overlay_Filename>\n<Overlay_Name>Text</Overlay_Name>\n<Text_Top>0</Text_Top>\n<Text_Left>0</Text_Left>\n<Text_Bottom>0</Text_Bottom>\n<Text_Right>0</Text_Right>\n<Fill_Color>0</Fill_Color>\n<Border_Color>0</Border_Color>\n<Style>5</Style>\n</Overlay>",
                              "textAttributes" : {
                                "type" : "textAttributeList",
                                "keyframes" : [
                                  {
                                    "time" : 0,
                                    "value" : null,
                                    "duration" : 0
                                  }
                                ]
                              }
                            },
                            "attributes" : {
                              "autoRotateText" : true
                            },
                            "parameters" : {
                              "translation0" : {
                                "type" : "double",
                                "defaultValue" : -135.946063505826,
                                "interp" : "eioe"
                              },
                              "translation1" : {
                                "type" : "double",
                                "defaultValue" : 58.4210526315333,
                                "interp" : "eioe"
                              },
                              "scale0" : {
                                "type" : "double",
                                "defaultValue" : 1.82706766917262,
                                "interp" : "eioe"
                              },
                              "scale1" : {
                                "type" : "double",
                                "defaultValue" : 1.35087719298269,
                                "interp" : "eioe"
                              }
                            },
                            "effects" : [
                                {
                                  "_type" : "GenericBehaviorEffect",
                                  "effectName" : "sliding",
                                  "start" : -42,
                                  "duration" : 131                                ,
                                  "in" : {
                                    "attributes" : {
                                      "name" : "sliding",
                                      "type" : 0,
                                      "characterOrder" : 7,
                                      "offsetBetweenCharacters" : "3/2",
                                      "suggestedDurationPerCharacter" : 90,
                                      "overlapProportion" : "11/20",
                                      "movement" : 31,
                                      "springDamping" : 5.0,
                                      "springStiffness" : 50.0,
                                      "bounceBounciness" : 0.45
                                    },
                                    "parameters" : {
                                      "direction" : {
                                        "type" : "int",
                                        "valueBounds" : {
                                          "minValue" : 0,
                                          "maxValue" : 3,
                                          "defaultValue" : 0
                                        },
                                        "uiHints" : {
                                          "userInterfaceType" : 2,
                                          "unitType" : 0
                                        },
                                        "keyframes" : [
                                          {
                                            "time" : 0,
                                            "value" : 0,
                                            "duration" : 0
                                          }
                                        ]
                                      }
                                    }
                                  
                                  },
                                  "center" : {
                                    "attributes" : {
                                      "name" : "fading",
                                      "type" : 0,
                                      "characterOrder" : 6,
                                      "offsetBetweenCharacters" : "12/5",
                                      "secondsPerLoop" : 2,
                                      "numberOfLoops" : -1,
                                      "delayBetweenLoops" : 0,
                                      "offsetBetweenCharacters" : "12/5"
                                    },
                                    "parameters" : {
                                      "movement" : {
                                        "type" : "int",
                                        "valueBounds" : {
                                          "minValue" : 0,
                                          "maxValue" : 31,
                                          "defaultValue" : 0
                                        },
                                        "uiHints" : {
                                          "userInterfaceType" : 4,
                                          "unitType" : 0
                                        },
                                        "keyframes" : [
                                          {
                                            "time" : 0,
                                            "value" : 0,
                                            "duration" : 0
                                          }
                                        ]
                                      },
                                      "opacity" : {
                                        "type" : "double",
                                        "defaultValue" : 0.65,
                                        "interp" : "linr",
                                        "valueBounds" : {
                                          "minValue" : 0.0,
                                          "maxValue" : 1.0,
                                          "defaultValue" : 0.65
                                        },
                                        "uiHints" : {
                                          "userInterfaceType" : 1,
                                          "unitType" : 1
                                        }
                                      }
                                    }
                                  
                                  },
                                  "out" : {
                                    "attributes" : {
                                      "name" : "none",
                                      "type" : 0,
                                      "characterOrder" : 6,
                                      "offsetBetweenCharacters" : 0,
                                      "suggestedDurationPerCharacter" : 0,
                                      "overlapProportion" : 0,
                                      "movement" : -1,
                                      "springDamping" : 5.0,
                                      "springStiffness" : 50.0,
                                      "bounceBounciness" : 0.45
                                    }
                                  
                                  }
                                }
                            ],
                            "start" : 19,
                            "duration" : 131,
                            "mediaStart" : -42,
                            "mediaDuration" : 131,
                            "scalar" : 1,
                            "metadata" : {
                              "WinSubProjectDisplayName" : "",
                              "clipSpeedAttribute" : false
                            },
                            "animationTracks" : {

                            }
                          },
                          {
                            "id" : 43,
                            "_type" : "Callout",
                            "def" : {
                              "kind" : "TypeWinText",
                              "shape" : "",
                              "style" : "",
                              "Style" : {
                                "type" : "double",
                                "defaultValue" : 5.0,
                                "interp" : "linr"
                              },
                              "dimensionTime" : {
                                "type" : "double",
                                "defaultValue" : 0.0,
                                "interp" : "linr"
                              },
                              "height" : {
                                "type" : "double",
                                "defaultValue" : 180.0,
                                "interp" : "linr"
                              },
                              "textIgnoresOpacity" : {
                                "type" : "double",
                                "defaultValue" : 0.0,
                                "interp" : "linr"
                              },
                              "textRectHeight" : {
                                "type" : "double",
                                "defaultValue" : 1.0,
                                "interp" : "linr"
                              },
                              "textRectWidth" : {
                                "type" : "double",
                                "defaultValue" : 1.0,
                                "interp" : "linr"
                              },
                              "textRectX" : {
                                "type" : "double",
                                "defaultValue" : 0.0,
                                "interp" : "linr"
                              },
                              "textRectY" : {
                                "type" : "double",
                                "defaultValue" : 0.0,
                                "interp" : "linr"
                              },
                              "textVerticalAlign" : {
                                "type" : "double",
                                "defaultValue" : 0.0,
                                "interp" : "linr"
                              },
                              "width" : {
                                "type" : "double",
                                "defaultValue" : 240.0,
                                "interp" : "linr"
                              },
                              "filename" : "C:\\Program Files\\TechSmith\\Camtasia 9\\Media\\Studio\\Callouts\\trans_100x100.xml",
                              "horizontal-alignment" : "center",
                              "name" : "Text",
                              "text" : "{\\rtf1\\fbidis\\ansi\\ansicpg1252\\deff0\\deflang1033{\\fonttbl{\\f0\\fnil\\fcharset0 Arial Black;}{\\f1\\fnil\\fcharset177{\\*\\fname Arial;}Arial (Hebrew);}}\r\n{\\colortbl ;\\red0\\green0\\blue0;}\r\n{\\*\\generator Msftedit 5.41.21.2510;}\\viewkind4\\uc1\\pard\\ltrpar\\qc\\cf1\\b\\f0\\fs80 SQL \\lang1037\\f1\\rtlch\\par\r\n}\r\n",
                              "vertical-alignment" : "center",
                              "xmlContent" : "﻿<?xml version=\"1.0\"?>\n\n<Overlay version=\"1.0.1\">\n\n<Overlay_Filename>trans_100x100.png</Overlay_Filename>\n<Overlay_Name>Text</Overlay_Name>\n<Text_Top>0</Text_Top>\n<Text_Left>0</Text_Left>\n<Text_Bottom>0</Text_Bottom>\n<Text_Right>0</Text_Right>\n<Fill_Color>0</Fill_Color>\n<Border_Color>0</Border_Color>\n<Style>5</Style>\n</Overlay>",
                              "textAttributes" : {
                                "type" : "textAttributeList",
                                "keyframes" : [
                                  {
                                    "time" : 0,
                                    "value" : null,
                                    "duration" : 0
                                  }
                                ]
                              }
                            },
                            "attributes" : {
                              "autoRotateText" : true
                            },
                            "parameters" : {
                              "translation0" : {
                                "type" : "double",
                                "defaultValue" : -135.946063505826,
                                "interp" : "eioe"
                              },
                              "translation1" : {
                                "type" : "double",
                                "defaultValue" : 58.4210526315333,
                                "interp" : "eioe"
                              },
                              "scale0" : {
                                "type" : "double",
                                "defaultValue" : 1.82706766917262,
                                "interp" : "eioe"
                              },
                              "scale1" : {
                                "type" : "double",
                                "defaultValue" : 1.35087719298269,
                                "interp" : "eioe"
                              }
                            },
                            "effects" : [
                                {
                                  "_type" : "GenericBehaviorEffect",
                                  "effectName" : "sliding",
                                  "start" : -42,
                                  "duration" : 125                                ,
                                  "in" : {
                                    "attributes" : {
                                      "name" : "sliding",
                                      "type" : 0,
                                      "characterOrder" : 7,
                                      "offsetBetweenCharacters" : "3/2",
                                      "suggestedDurationPerCharacter" : 90,
                                      "overlapProportion" : "11/20",
                                      "movement" : 31,
                                      "springDamping" : 5.0,
                                      "springStiffness" : 50.0,
                                      "bounceBounciness" : 0.45
                                    },
                                    "parameters" : {
                                      "direction" : {
                                        "type" : "int",
                                        "valueBounds" : {
                                          "minValue" : 0,
                                          "maxValue" : 3,
                                          "defaultValue" : 0
                                        },
                                        "uiHints" : {
                                          "userInterfaceType" : 2,
                                          "unitType" : 0
                                        },
                                        "keyframes" : [
                                          {
                                            "time" : 0,
                                            "value" : 1,
                                            "duration" : 0
                                          }
                                        ]
                                      }
                                    }
                                  
                                  },
                                  "center" : {
                                    "attributes" : {
                                      "name" : "fading",
                                      "type" : 0,
                                      "characterOrder" : 6,
                                      "offsetBetweenCharacters" : "12/5",
                                      "secondsPerLoop" : 2,
                                      "numberOfLoops" : -1,
                                      "delayBetweenLoops" : 0,
                                      "offsetBetweenCharacters" : "12/5"
                                    },
                                    "parameters" : {
                                      "movement" : {
                                        "type" : "int",
                                        "valueBounds" : {
                                          "minValue" : 0,
                                          "maxValue" : 31,
                                          "defaultValue" : 0
                                        },
                                        "uiHints" : {
                                          "userInterfaceType" : 4,
                                          "unitType" : 0
                                        },
                                        "keyframes" : [
                                          {
                                            "time" : 0,
                                            "value" : 0,
                                            "duration" : 0
                                          }
                                        ]
                                      },
                                      "opacity" : {
                                        "type" : "double",
                                        "defaultValue" : 0.65,
                                        "interp" : "linr",
                                        "valueBounds" : {
                                          "minValue" : 0.0,
                                          "maxValue" : 1.0,
                                          "defaultValue" : 0.65
                                        },
                                        "uiHints" : {
                                          "userInterfaceType" : 1,
                                          "unitType" : 1
                                        }
                                      }
                                    }
                                  
                                  },
                                  "out" : {
                                    "attributes" : {
                                      "name" : "hinge",
                                      "type" : 0,
                                      "characterOrder" : 6,
                                      "offsetBetweenCharacters" : "3/2",
                                      "suggestedDurationPerCharacter" : 20,
                                      "overlapProportion" : "1/2",
                                      "movement" : 7,
                                      "springDamping" : 5.0,
                                      "springStiffness" : 50.0,
                                      "bounceBounciness" : 0.45
                                    },
                                    "parameters" : {
                                      "direction" : {
                                        "type" : "int",
                                        "valueBounds" : {
                                          "minValue" : 0,
                                          "maxValue" : 3,
                                          "defaultValue" : 3
                                        },
                                        "uiHints" : {
                                          "userInterfaceType" : 2,
                                          "unitType" : 0
                                        },
                                        "keyframes" : [
                                          {
                                            "time" : 0,
                                            "value" : 3,
                                            "duration" : 0
                                          }
                                        ]
                                      }
                                    }
                                  
                                  }
                                }
                            ],
                            "start" : 197,
                            "duration" : 125,
                            "mediaStart" : -42,
                            "mediaDuration" : 125,
                            "scalar" : 1,
                            "metadata" : {
                              "WinSubProjectDisplayName" : "",
                              "clipSpeedAttribute" : false
                            },
                            "animationTracks" : {

                            }
                          }
                        ],
                          "ident" : "",
                          "audioMuted" : false,
                          "videoHidden" : false,
                          "metadata" : {
                            "IsLocked" : "False",
                            "WinTrackHeight" : "8.59532462496139e-315"
                          }
                      }
                    ],
                    "attributes" : {
                      "ident" : "clip-laptop-02",
                      "gain" : 1.0,
                      "mixToMono" : false
                    },
                    "effects" : [

                    ],
                    "start" : 0,
                    "duration" : 403,
                    "mediaStart" : 0.0,
                    "mediaDuration" : 403.0,
                    "scalar" : 1,
                    "metadata" : {
                      "IsGroupExpanded" : "False",
                      "WinSubProjectDisplayName" : "clip"
                    },
                    "animationTracks" : {

                    }
                  },
                  {
                    "id" : 44,
                    "_type" : "Group",
                    "parameters" : {
                      "volume" : 1.0
                    },
                    "tracks" : [
                      {
                        "trackIndex" : 0,
                        "medias" : [
                          {
                            "id" : 45,
                            "_type" : "IMFile",
                            "src" : 9,
                            "trackNumber" : 0,
                            "trimStartSum" : 0,
                            "attributes" : {
                              "ident" : "Introduction-01"
                            },
                            "effects" : [

                            ],
                            "start" : 0,
                            "duration" : 282,
                            "mediaStart" : 0,
                            "mediaDuration" : 1,
                            "scalar" : 1,
                            "metadata" : {
                              "WinSubProjectDisplayName" : "",
                              "clipSpeedAttribute" : false
                            },
                            "animationTracks" : {

                            }
                          },
                          {
                            "id" : 46,
                            "_type" : "IMFile",
                            "src" : 10,
                            "trackNumber" : 0,
                            "trimStartSum" : 53,
                            "attributes" : {
                              "ident" : "Introduction-02"
                            },
                            "effects" : [

                            ],
                            "start" : 282,
                            "duration" : 305,
                            "mediaStart" : 0,
                            "mediaDuration" : 1,
                            "scalar" : 1,
                            "metadata" : {
                              "WinSubProjectDisplayName" : "",
                              "clipSpeedAttribute" : false
                            },
                            "animationTracks" : {

                            }
                          },
                          {
                            "id" : 47,
                            "_type" : "IMFile",
                            "src" : 11,
                            "trackNumber" : 0,
                            "trimStartSum" : 0,
                            "attributes" : {
                              "ident" : "Introduction-03"
                            },
                            "effects" : [

                            ],
                            "start" : 587,
                            "duration" : 317,
                            "mediaStart" : 0,
                            "mediaDuration" : 1,
                            "scalar" : 1,
                            "metadata" : {
                              "WinSubProjectDisplayName" : "",
                              "clipSpeedAttribute" : false
                            },
                            "animationTracks" : {

                            }
                          }
                        ],
                        "transitions" : [
                          {
                            "name" : "Flip",
                            "duration" : 28,
                            "useAudioPreRoll" : true,
                            "useVisualPreRoll" : true,
                            "rightMedia" : 45
                          },
                          {
                            "name" : "Flip",
                            "duration" : 27,
                            "useAudioPreRoll" : true,
                            "useVisualPreRoll" : true,
                            "leftMedia" : 47
                          }
                        ],
                          "ident" : "",
                          "audioMuted" : false,
                          "videoHidden" : false,
                          "metadata" : {
                            "IsLocked" : "False",
                            "WinTrackHeight" : "0"
                          }
                      },
                      {
                        "trackIndex" : 1,
                        "medias" : [
                          {
                            "id" : 48,
                            "_type" : "StitchedMedia",
                            "minMediaStart" : 0,
                            "attributes" : {
                              "ident" : "02_introduction_audio",
                              "gain" : 1.0,
                              "mixToMono" : false
                            },
                            "parameters" : {
                              "volume" : {
                                "type" : "double",
                                "keyframes" : [
                                  {
                                    "time" : -1,
                                    "value" : 1.0,
                                    "duration" : 0
                                  },
                                  {
                                    "time" : 0,
                                    "value" : 0.0,
                                    "duration" : 0
                                  },
                                  {
                                    "time" : 90,
                                    "value" : 1.0,
                                    "duration" : 0
                                  },
                                  {
                                    "time" : 814,
                                    "value" : 1.0,
                                    "duration" : 0
                                  },
                                  {
                                    "time" : 904,
                                    "value" : 0.0,
                                    "duration" : 0
                                  },
                                  {
                                    "time" : 905,
                                    "value" : 1.0,
                                    "duration" : 0
                                  }
                                ]
                              },
                              "cursorOpacity" : 1.0,
                              "cursorScale" : 1.0
                            },
                            "medias" : [
                                {
                                  "id" : 49,
                                  "_type" : "AMFile",
                                  "src" : 8,
                                  "trackNumber" : 0,
                                  "attributes" : {
                                    "ident" : "02_introduction_audio",
                                    "sampleRate" : 44100,
                                    "bitDepth" : 16,
                                    "gain" : 1.0,
                                    "mixToMono" : false
                                  },
                                    "channelNumber" : "0,1",
                                  "effects" : [

                                  ],
                                  "start" : 0,
                                  "duration" : 309,
                                  "mediaStart" : 0,
                                  "mediaDuration" : 309,
                                  "scalar" : 1,
                                  "metadata" : {
                                    "WinSubProjectDisplayName" : "",
                                    "clipSpeedAttribute" : false
                                  },
                                  "animationTracks" : {

                                  }
                                },
                                {
                                  "id" : 50,
                                  "_type" : "AMFile",
                                  "src" : 8,
                                  "trackNumber" : 0,
                                  "attributes" : {
                                    "ident" : "02_introduction_audio",
                                    "sampleRate" : 44100,
                                    "bitDepth" : 16,
                                    "gain" : 1.0,
                                    "mixToMono" : false
                                  },
                                    "channelNumber" : "0,1",
                                  "effects" : [

                                  ],
                                  "start" : 309,
                                  "duration" : 595,
                                  "mediaStart" : 362,
                                  "mediaDuration" : 595,
                                  "scalar" : 1,
                                  "metadata" : {
                                    "WinSubProjectDisplayName" : "",
                                    "clipSpeedAttribute" : false
                                  },
                                  "animationTracks" : {

                                  }
                                }
                            ],
                            "effects" : [
                                {
                                  "effectName" : "NoiseReduction",
                                  "parameters" : {
                                    "denoiserAmount" : 20.0,
                                    "denoiserThreshold" : 0.0,
                                    "noiseProfile" : "Ac8eQm0z5kKeWEpDMvzrQ/IpK0TKyO1DjK8oRAbhFETqDwtENt8ZRPdJe0LaTDFC7AfsQJiZukCM\r\n405Bpo0mQbEO0kDEZqFAN5kfQPESyD8IpoY/3tm+P1CL6j+JcAxA1mVXP1Wp5z6ci7U+kfDoPm5B\r\nkT5jbhM+HTlbPnAEYj4Bs1c+QGQ7PvrQNT740as9wwjCPQI9MT5HfXM98gB4PTctbj2MZwg9nRZW\r\nPYAPCD1xgRM93ogqPXMHND08J1A93KU7PRdltD1rFHs9KcANPqCRHj78r4I92hZlPSZB8DyVZOM8\r\npBgiPcBwsjxsLEw9C+LIPKySHTxcTYI82itKPHiWxDw+tk480g1fPKBJaDybbnw8YHfwPGCtiDzd\r\n7KE8fj0UPNMiQDzjiGI8nGtMPGloFzyiJ7Y7dN0NPFvTEDwKNvg7MU/BOyp5pTsckTU8a1SLOwy9\r\n7DshCLo7CmvmO0hWAjzYUAc8HAkfPH5j1zv/slU8qcYNPCYmVzx8yv47rR9yPMMcfTseVTg8DakR\r\nPIDu5Dv0Wao7iLpEPPqVUjyWCds7dKwdPKxDqDt3vuU7QgKnO3PvPzutDIQ7LBXoO5IIVjsAksw7\r\nVGY/O1U7DTx3FJg7exWcO8c55jvMpW07KkexO0yRoDtHHBQ7Hp2VO4O+ETs2g3s7IkSyO05obDty\r\n/sY7FxmQOwaklTvr6CY7kyOmOzGlAzuB5Hc7+mlpO2KsoTs4p2g7CRROO8sPdTv83oU7W66RO8Lc\r\ndzv4/uo6MIO6OhF4+TtJahM7IDFgO0X88TuklX07rnt0O0L3SzsJrYM72mhuO9zdZztEIw07KgoQ\r\nO0mAbjsN4Uw7JGcpO2h2Rzvx9lQ7gMo7O/MaPTvijzY7wWcyO2FRDDt4oPU6yxEqO6AQVzsieQc7\r\ny7ggOwi37ToNNyo77rA3O54NNTukwig7HtQAO/nnQjsHbMk6tIUROxnJbTvywIE7gFtKO2TBujzJ\r\ni8k6+tw0OjYc9DofxQQ75dunOpaYmDrZLJw65CoJO1ExCDvKA7g6zjm4OhLB0DrSpMY63kHdOob1\r\nszr8wHE6WOnSOnTWIzuMaaY6IFXeOhIZxTrQaXQ6UjMTO2nf/DqemrM65p/4OodZwjrVTRg76wbj\r\nOszCyTr6XuM6Sf+tOg38xTrbkoM6P/+tOjNBoDqKhGc6rJzVOlyu4jq/H3A66r+QOqcMlzqOs6Y6\r\n42yMOnaXyzrsfu06WOZPOsSVWjqMFKs6TXiFOvD2hjrj+oM64ZiGOg+g1DoBv0U6YXSqOszD1zp2\r\n2ZI6hiJQOjZ4qTp7RaQ6TeWhOjaqjzoIAk46sUKNOqTepjq8M506EJm7OuoDrTq/TbQ6eXm4OpyB\r\niDqpa0Q6cHBKOne8tzpKu3Y6BS4POnXAijr81Lw6HO9TOs/5kDo8UbM6kgF4OuRZqzq+PIE6qziC\r\nOgb0ljqS1J46XiMaOvy6bjqNMS86wrirOhkQYTrGo7g6MNeAOvhOyTqGz5c6iuGqOtzkpjoKNTY6\r\nM0iIOjBciTpEk6o6DjdUOoLZkTqqvLo5K3+LOhosTDqRXJc6UqdwOpLELTruZT46doGJOrzRYzpB\r\npW46QHsIOimujTpw3kY6fwwtOhCUMjrhXiM6s8QrOg8iHzq2UW46/FmWOtJFOTrQjWo6++yWOtu4\r\nRjr2uTg6FMt9OkLMVjpCHjY6CL3lOTCkcDqgw4s6tDBmOqakGTroJTo6YrsqOoB+8Dn8m1U6J3Qp\r\nOrwzajrQwJs6jOQ4Oovubzq5HvA566c6OsFUQjoEYK05SsUdOnwJlzl5X2Y6qthKOqv7JTqi0UA6\r\nwDo9Ogl9XzoPghI6cuq/OVT4Ojpi6gM6wlgoOrRRHTrkyx86JrAVOl15CTpy4LM5Ot49OtUQXjmk\r\ne7k5hCogOp4uSTrTfRg68A4DOk4J9TloGtw5bi0XOj63Fzo8nTE6tGv1ORQXoTlIkU86RnxAOvsq\r\n7TlQtSA6JDciOuRv7zmltxE6m9DYOcCRHDq5cwM6J+OMOQ6UuDn1yaw5kPEGOl/ErDlSYiA6LIET\r\nOsE0bjnk/uc5/4wmOvkTkTl5Myc6/rATOr47PDpZPc856/MCOm74HTqaVqk5wWMNOvveLjpfUfo4\r\n+qv5OZ5G7TnsoNg5wGcHOiMQwTk6oKE5ltsFOqaWnjk6xgk6TOiwOaS42zmCXBg6/WHmOQnhwjmq\r\nw3M59BnMOd2hsDlTntw5UvQTOrMStTmd0Ik5TAbYORrLGTpgZx86RprPOQEnzjm39PM5mEPQOfrJ\r\n/Dmsj0E6+uzQOeLVvjl/mrI5AnULOrwT6TmH9h464OLSOVc86jmcxT06cX0/Oo+ycTkgzdg5vJPF\r\nOS5MAjoLSBE6a9kXOgKCjTkMCJ459QADOj8jpjmbIeg51WmiOUT1qjlEzHs5QO7EORh+EDrkAcs5\r\nOpsnOuz60zl8wQU6f5eXOUK4pTkCVeQ5jGLNOQVlijnDwaU5Dde6ObYDHzqt+vI5hlviOV1stTnP\r\nbAo6WfnHOeKf6DnQJRg6HXwAOqH7vjnisT06dtFSOhGe3TkbAYQ5/7nqObUpzDlsmNw5aD+kOZAk\r\nkjmKY6Y5QWyxOeJsSjn5V4w51n32OVjFtDmgRpo5/ozXOaRbkTnHPAw6RBmuOSsuGjpuAQY6rgHu\r\nOdIeGDoDEQY66qbAOfk7yzmzL5c5PDUXOkQXZDm22P45CMLRObH2mzkCU6E5FOEROgYG8zlAbwI6\r\n4FeCOWcZqzk5ve05F2PmObtTRTm2cus5k1RFOTK8hTkC/pc5TztPOg+r+jnzeiU6e6vSOeidCzou\r\nV8g5TresOX68FDoSGHI5q0XkOW5qgTrM5qc5hLcTOpE9BTr/aBg6CG5mOW8GVTnsyYU5ASFSOQIf\r\naTmchjM5i5XqOWaJgzlsHJo5p89JOffOBTqYiyk5bPqaOWnVzziuyic6lO2dOZfsTDkD1IA5O0Xl\r\nOTJ5aTmdH6Y5pNjYOTO5oDkwCjo5VSoHOmSOujk1GUo5EDalOWP8ODmpFoM5ZDzJObTdmzke7mk5\r\nHlfsOfcpijlsPpg5AAaPOQRakDlHJmY5TCbaORkhmznnz1M5p75kOVi8EzrB0685rAfUOYCArDmq\r\nG5c5+G98OZj8oDnKO4c5RnIjObwUkDmUgoU5MM9bORDFtDlKxLg5E54tOVCVmzkUXms5tphNOSLe\r\nZDkgqbk5bhGzObobjjlKlBU5XIpwOf6kKzlJP3U5ekZZOQgBVTn3MWk585ePOX+LfzlRZ1A5SDPg\r\nOFZXezleDpE55rhROatjsDm1hxM53vJjOQYm2ji+Yug5YpGLOe1R5znatUI5IgkPOfx3iTknIaE5\r\nGzheOWn3hzmQLcs5LEBLOf/caDltr5Q5kkwrOSNdszlXLoM5/AyROaJLSjnaw8E5zuaJOW0zYDlJ\r\n8Ek5xymfOW2iCTrqZEc58L/XOWsfzjkSzo45AeZDOQkryDkwv5M5WCtfObsO3jn3tBI5CTLDOGwT\r\nNTk4sfY4PNfTORRq7jk+pLM5aJ6SOcpTpjk7BEU5WDJMOdYmsznJzzI5YlFXOZI4BjnaDDE5vF9l\r\nOWiOgDkWX5o5XB81Oahlbjnrf/w4OI/XOQ8gZjm5kRs5EyxeORAI1TgYAVg5e0utOQumRDnWP/85\r\nwfYyOVHbrzl5nxk5hhGKOcqPQDn10E45SnC5OVu1CTmZWUQ5RwxFOapHuDkfROI4x7yKOapIoTkC\r\n7os5yo0jObzKaznkNsQ5aLcqOYI0mDkbWo05M+ijOYJ8ITmoVzM5ladpOdC1MTkubfc4HWLLOWyZ\r\nKDkmYng5YY4fOS3BDTmcsCE5KvtyOXq6Ujm6d005ix0FOc6zqzhMRVs5AHU+OS5K6DgLHlc57LHx\r\nOPHDVTnviY45mRwtOY97lDm1plY52V2OObxlMDn71kM50VYrOaLC8Tj3Jx85ksCIOX5iYznUEC45\r\n580BOWPTOzlWXdk4xsHJOK9+aTneLl05QiB/OQ45dDnalWI5nqkHOWSDlzkJb9w4SknoOHwXrzgJ\r\nHtk4zfBGOR61djkSL0451I/sOLReajkOpF45VoRHOfwaSTmeOig5Vr1WOYpSeDl4rTE5GkQfOY5t\r\n/DiYlas4XV7dOIrNCzlvOSc5G+C3OdGqAjkX5VU5CvVFOUWBWjn2UfE4Uf6COf5gJTmWBOU4tNYY\r\nOWsHDDmWZ4M5+tMSOcF50TkNq1U55a2JOQf9ETnor+s4fcUwOagQgTnSQFw5jbQQOewOAzmKMiQ5\r\nGZ8pOQ0KbzlkgGo5EjyAOXzWjjlHchE5gWUEORqL+TgK3yM5q/JfOeIQVTnx/xM5SMZFOd1bQTmV\r\nFAI5LRkWOaQqgTkg9X85IAYYOQsHPjnaV9o4fr9zOfLruDjeHjg572c3OcP1Mzn93f041f5AObSA\r\nCjkXOH45vQEZOWnBOTn81Yg41WIpOSHMkTi4qEw55EZDOfD4RzkGaC05VzBNOcU8szkyRVo57lEE\r\nOSSXAzmhy385Qs4iOXYl9zhgPgE5fLtgOZTsETlS41k5jOfxOF0HYTl6Axc5t6g2OX5cfDmUuQU5\r\nyKgZOSZpMjkPqEM5+pBOOfGNTDlHMSU5AsgsOfX6KTkoEA85zcJ1OQ/HaTmXNjA5WHcQOY8Xzjhb\r\njEo52dMHOcoBkDicaAA59bYIOQD0TDkwaSs5n/srOVbDOzluhTk5O/RsOSxBdTkTGAI5qFGxOMu5\r\nMjl9FCk5Z6ShOfljDTmL7WQ5pRwZOSdU1zhPZ804+yIiOQOcEDk5Ooc5V18lOQ7O9Ti8G0s5V0Wq\r\nOLBtfzkRSZI5BEUJObg7NTl7ehY5GXwiOe22RjlOOSE5Z4spOS+dHDnXIQk5GrYcOUK65jibsSM5\r\n9bMEOe4jSjldVms5neLZOJHlXzngs245ockaOarC4DjnvDE5aIu/OeWbMDmFJYk5prBJOcXONznp\r\niTA5a6NSOZ0SkDkJ28o51R/vOCf2Ojmod9A59ie9Ou6vODkuKUY5can3ODp8Azn2Ouw4bcYrOSPv\r\nJznEdgY55lcwOeF/+zhb2gM5KjHwOeQO/TiVbsQ48JYNOdq8PTlY0OU4DWEZOTIRJTmaZCc5cMEQ\r\nOTsD0zhoAvM4DmMROa54hzmtUBI5Ik9AOQSEzzi8gSc5PHgmOfC9RTne1yw5sqY2Oc96TTn1yTA5\r\nQ6g5OZyoAzmdgeU4LW8tOUCBOzlyU4o55SoNOaCCLDnvh0A5JPixOMDQRzn/9io5CTV+ObORIzks\r\n8EA5sxYIOUruKDnUzAQ55uQkOR5SSDl0Css4JfwqORczHTltxhQ5aI4oOYHdTTld50E5MUoAOVjp\r\nzTj+txI5uDVDOUqkLTnMEQI5LewPOdFGMzn5zgA5AvAzOfjMDjmQscg4UV2nOGoesTjuJyc5N9EN\r\nOQRuDTm5GhE5MDQ1OT9tHTmj2Dc55lo0ORbtrzg0DfQ4rpkrOTFhEDmqsRE55kE6OQBkATl+2OpB\r\nG2cQQ6aWbUNsVQZE56kjRKoHdkRog35E+8ByRM3WWkSGGHlEJJ85Q3aCg0JoZaBC80RLQsYVAEKG\r\nbXFBLqh1QHdA+kD2ze4/nHTAQBd4REAyWU1AaeQrQF5pSUBTH+Q+Wu2WPouUAj7bpsQ+e9ZVPktS\r\njz4TpO8+jgCOPgbNAD/vpbw+5e2zPmHf8T7WqvI98rgzPogisz3K8aI93GIwPupvJD69UZw9UWLP\r\nPQLO2D2kUpw9r38QPdLFlT2kuXE96yEaPvDfFD8C6xI/n1LEPtrXXD5GKjY9qprgPFo9hz10frk8\r\nLhSEPPJD+jxcIsY8D3/nPCiMzDw+OaU8rGzvPMXaoTwfzvY80MnJPDh6wDxEOew8m7KFPL4g7Tzd\r\nD408wWhuPKzs1DzJxEw8xAhZPE7CLjy+o308nCGWPNX/szzbFwc9ZNG4PG7JjTxW/gw8UM5IPGH0\r\njDy37h48PdWGPK4hijxUU3Y8/sUVPLQSHTzDoAA8/SoePHfFOjz1fAU8RH1HPMlmFzyK7jg8830t\r\nPDcXijxnCgQ8VYHBO0EF2DvgwFk7uiIxPO9pEjw8SjE80y6LOxNWEzwhot877BP5O8QOmDtxQqw7\r\nhpyzO3yi8Tsl1bE78zytO9LKmDufdKc7Shl/Ow2umju5l7o72Fr6OxnZAjwADmo7FI64O5xwMzuC\r\nB4U7ahO7O1JzuztgYec7wf/COyRIrDs4tY87zTm6O7QJxTvBOs07hO+kO31onDsFhrA7k48/O1WF\r\nmjsWwbc7B5DHO8zTqDtXfIU77cGRO/96mztLJow78SuyO9iCezsHu3w78RFIO4HUPjtsAj87DtWN\r\nO5SvbDvfl2s7pKxZO8jcnTtGlkw7b2pMO0iohDvfJiU7swUiOyY5Sjv+PnQ7p2Q4O5N6czv1oFs7\r\n+ThVOxjYNDu5bDU75LhdOwAxZzvTiR87/CgYO5r4Ozumg287h4gnO1ouPDtcsXY7pNvhO+pmRjtn\r\nsls7XboKO19oFjtrJxE7Go5FOyDACDuJmd46O7JjO2keGTtScBM70DP6OjKENjsqkxM7Kiw9O7bw\r\n9ToiFgA7HusAO0akTTujbyo75Lk7Oxgq3Tq/OQE7p1AVO9ua9DrkbrY6QLoDO8LJATuXlck6J0b2\r\nOvWiFztwTwU7xg3kOhgXCTto2ME6UyrkOufTxjprxcM6HnP7Ogwe/jo0zrY6X6DQOu/1dzo2gqw6\r\nyhjeOhAgnzrZahI7dK7zOrK9ujrhn6U6E4PoOjeW4zq23+Q6YtHTOrsslTrOXbM6Y1ftOiO5jTqs\r\nsb06QNSaOki5lTqNN7U60v+5Ot2OxDoiHrw6CvQAO8Z09Tq1abM68FHUOu0wwDrF5E86VM7/OnjZ\r\nzDqJbac67FCHOmIM2DqEiq466AamOlBClDrMbKI6y52UOjSRtTo0N6I6+SyMOkvwnzpjmVU6V/Xe\r\nOsgzvTqaO6s6pLx7OrFHkDorMZQ6zh96Og58fDpwZ6w6X2WeOmL4BTuh/L86etxiOr/EiTrPHGc6\r\nId+OOhB7rTqWBUQ6imaJOpbhuTrhq1g6Vt2kOp3JXzrW0m861mOHOv72cjq0MLA6F32dOrOlkzpi\r\nXWY6DEttOnQjUjqGk5M6rXtXOnQAqTryarI6pZpzOk4wcjp05Uk62c0kOgZlNTplK2k6pp9fOhne\r\ndjpvb5o6SCVhOu6OIzpN0FM6WAVcOhl9mzqe27A6THNDOtf3ZzrNoZE6ckttOr8LjzrtkJU68mMs\r\nOirBPzqMZ1I6BGNIOogwXjo2iIc6psAJOr7OMTo4fUk6a+AZOtJ/SToFiFk6Yn9lOizSGjru4rI5\r\n1/JaOjbaSTrYDvo5pjWYOUoQBTo4OFU60gALOo2uXzrAoT86OI8rOgwYQTo+qUc6NrciOjqaMTpu\r\npEM6oBRJOnBVTzro6Uc6eM5NOm7ADzpw4X86F30ROlprCzq9sSU6P2gjOj5yDjrG/UM6eqlMOki5\r\nLTpqNzg6oXBEOr5dEDpo8SE6UCnLOTivXzqACRQ6J69gOnVf4DmJoho67SA0Os2dDTqEcCQ64MAx\r\nOnxorDnJBQ86JP06Ok43VzpaDQU6nO80OvyZeTrK5PA5NLlgOiU1FTrSr046XlYsOuShIDpstjM6\r\nik5LOmI+CDqeZiA6dtsdOiA/UDozPfA5qxFKOhgcYDpH1S46vjU1OvO9JTqfCqE52/l1OokoKDrU\r\n+TM64holOiOGNzpfBNs5Qm0dOk5MRDo/3yE6bUtAOn4idDpxq685qKs/OprC5TnBrA46vvbOOf1B\r\nATqjDRE6OaEfOpLY6Dm/UwE6rivROfmqBDqmLho680sfOoxItjkqzzQ6A+FLOuLsoTmay/s5auvH\r\nOfYg4TkKJQ86CMIUOiqLAzrUYjc6i2FFOn/bpjlBZQo6HCAgOmZGDDp5byo6EjdUOjgOrDkeDxs6\r\nhncCOu3knTkCtRg6ovuUORoxtjlId0I6UasAOkbu5jlDmoc6bhvjOdykwzlVTQw6oLsMOro5mTnp\r\n29g5xkPXOUIdmTmvj/s57C36OTwh4jmpUAE6bP4EOnBzBDrkYyE6mF6sOVhXLDqCjJM5i+SjOdVA\r\nuzm6Jyw6uuUfOlrnrjlw4a45xJSrOQIkpjnowNw5qiQjOlxN8TlklPw5rF/BOcWyxjnAXI85QSv3\r\nOZANETq6GCg6DD4uOupCkDlCwLs5Oaf6OSSecjknGhA6KrwHOoSw+Tl0lOE5RAUGOgCUZDlOu5A5\r\nakaXOSRmCDrOigc6jru4OXK16Dn9x9I5ANvUORgRszmbgtM5mMb1OXv1+znkFY858KMEOtatETrB\r\ngOc5OuenOTBP8DmmPKc5RpDkOR8pFTqKEPs5enidOVPg4jkrgMQ5kjxeOcJWuTnSQNc5Jpz/ObfC\r\ntDn/Ncw5zJL+OS/eGzoQcbs59/OQOSNjijn7ysQ5v2jtOdJIgDmq6bU5enyXOSRRjzlENwQ6lJ36\r\nOewtyzk5YNU5mCC/OQzhkzlZt5U5FLrYOf8OwTnQjAg60ozBOdAI1Dk3bAQ6DB/mOcZUBzpz2cQ5\r\n8GZaOeAzsDnu/O05Gnj5Oa0/iTlEyMY5efToOQydsTmqXtA5viJbOVDwvjmkHYw5bnWIOQRShDkW\r\n2KQ532eHOVqWwDmlWp05Wq94OfzxbzkQG/k5tgEfOugerzl+X7Q5C1Q4Oc6bkjk+MZ054Iy2OcYI\r\nxTklsJ45NwxpOdd7vTnuHlk5eFbwOSTSGzrO4os59PiDOTUqGjnYt7s5L57pOQZ/ojnghpM5CVqD\r\nOfpJuDkEqGA5uzqaOSgSXTkH7c45uLDFOZHhkzkTjZA5zoNhOdTshTkYFko50VFnOVQ0vTli16A5\r\nn/lXOb5p7Tl5Y4M5avzaOVa0pTkT9yM5mqDyOb5B4DnGDoo5vs+QOaQPHzlI7pc5VLFPOVHjpDnV\r\nEu04STiEOXiUzzn7lAA6ui+iOWtVSzmKg505VAhqOfQUrjn4Oaw57jqWOU96nDld6505jbsSOcay\r\ntTkudfE5jxUGOXG+IDmsl3s5+cdhOTfiAjlnV1459HTZOaa6JzkgGaI5dsOOOUfmkDnuo8s5JpHX\r\nOf+LAjr6Rac5aduLOZpZtjlbRTY5MDNoOSzLFTlrtfo5BmeqOS7OhDm3LcQ56oOdObRhkzqpUW06\r\n15qnObCj8zkNNC85FBtZOX6aaznD+gg6X7R0Oae4ozlYNYY5aMypOcaFyTndVns56QuSOU7bgjll\r\ncbo5pwmLOfJilzmUpDg5nTiOOfhmgzkAmHc54qu3OakSmDmKH105jQGlOeFsrjkW8uY49B6GORIt\r\nFTlGzJ455AeAOWGzkDkutGA5nhyFOWsmlzl+ym05CS1xOdKgljnA64I5iuZTOWEEkjlSxME5RIFu\r\nOVBhSzkC6mI5KVueOS6aYDnxU485sT2GOYPDHzkCGzI5OC8ROaFnYTm7wQ45eVCEOTWjgznEtZo5\r\nzVNTOWrO1DlElX45nkasOZkMpTm5IHs5Kpw4OY9+8TmaGoY5/qKZOYA2dzn8kxY5YjLMOfu9cjnV\r\nHpE5fCduOUI4bDknv885oFo0OTgLgTmimm45lJ5hOZ63aznzcKs5YLeYOchbWTlS9H05+Zc+Odu4\r\nyDl+hos5yuh1OUoYgDmiJYM5maZpOf0ImjlK9QI5Ti+SOWBzhzkYgas5GyeJOQAZNjnaipk5WZB0\r\nOa4IXDnha0g5V8SDOaY+mjg6Pw05/JGDOWlKeDkcSaM5JbpTObiaDjnFcLw5Ehg0OUxFsznYl505\r\nEQtsOTRkVDm4bUg52IaSOSF7jDn/+bg5rgl8OcJ5jjnbKwY5KbZcOSL1SDmMmH45bzeuOXV+wDmV\r\n+FE5Um9+OYe8KTnI8IA5v8WVOeSjrzmw7Tc53XqDOYRkQzlEH2I5lecaOWyqiTnWrI85aWEbOTbp\r\noDlEhjM5q6B3OcQ8oDkz95854YY4OdoxXzkeqVw5iwOEOYfgUDksCdA5C7YnOTI3HDkLL4M5nbk+\r\nOTUVXTmpt2k5XMiFOeUdZjmjeG45zGqAOSiAUjkSSHc5HiFcOQkPDTl/lJI5pFNiOXNkjjlD3Vg5\r\nwp8tOU3xGDmwVK05/eUiOaZVbTn6DSs5RYc2OaWRCjlt1v04UNI3OcRxkDndv2Y5xFJ4OSGvFzkN\r\nK1Q5DB+POe30Uzmafnc5dU6vOTIbRDk6cGo5iv05OUBQfTm2dkI5JhUDOe9WUzl5j2w5nsJ4OZwO\r\nyjl2XDc5N0d8OV35XTkoY145k5+BOYW2VTnomwM5w7iGOb8vhjkKoZU5Tn5AOeUCSTn8No45ih4m\r\nOQw7JDkcCWI5vDVCOcYvSzm1vRs5h40vOWjDhDlidY45kV6eOROGujlBeBQ5CAV/OWPHUDlGkZQ5\r\nhWiTOalpCDm7ZoM5KX2DOQKiVjlyto45aWh/OYqjmjniN3E5MUGOOSvuQjkeGAU5PmdyOZBLkzkq\r\nBi85TjaFOW3ZhTkio+85STs7OiDF+DnWgx07ypOEORMB9zgxQI05XJDwOCoPMDmCNCc5nFRAOVfl\r\nHzlUYkA5Z1VNOTUIhDnbKSI6wfl0OfWLMTkQt4g5kvGDOUg5rzlT5T05fKKbOcCgoDlwPos54hPF\r\nOLeZOzn6frc5uEoKOYxoHDlE1RU5cs4ZOYIY9ThKk3k5fq8zOaGedTkO+R05AllYOeIYhzm5oE85\r\ns28qOQibezlNdSs5DTUsOZf9RDlEz3w5YQUZOUIdgjlLg0Y5wMx2OT0ZKTntfEA5YmdCOXK1YDnr\r\nsZM50g0gOSXehDlfI105+D9UOd02mzmu9GM55+I2OYK3QTlEzms5o78ZOVBpUTmonyg5BPp+OWGH\r\nRDmMxZM5crhROXQWYzl5mkk56zGIOWg1TDnYGzo5ezd/OUKjXznRxmc5X4RgOds5PDmQrWo5rRFF\r\nOWvjMzkESPg4jW0nOe5acjl4SxM5FZ5ZOYpgLTlzC3k5gq2bOV0kSzko2jo5AOFiOQ==",
                                    "noiseTrainingType" : "default"
                                  }
                                }
                            ],
                            "start" : 0,
                            "duration" : 904,
                            "mediaStart" : 0,
                            "mediaDuration" : 904,
                            "scalar" : 1,
                            "metadata" : {
                              "WinSubProjectDisplayName" : "",
                              "clipSpeedAttribute" : false
                            },
                            "animationTracks" : {

                            }
                          }
                        ],
                          "ident" : "",
                          "audioMuted" : false,
                          "videoHidden" : false,
                          "metadata" : {
                            "IsLocked" : "False",
                            "WinTrackHeight" : "6.07871564617389e-315"
                          }
                      },
                      {
                        "trackIndex" : 2,
                        "medias" : [
                          {
                            "id" : 51,
                            "_type" : "AMFile",
                            "src" : 4,
                            "trackNumber" : 0,
                            "attributes" : {
                              "ident" : "Projector_Screen_Flapping",
                              "sampleRate" : 44100,
                              "bitDepth" : 0,
                              "gain" : 1.0,
                              "mixToMono" : false
                            },
                              "channelNumber" : "0,1",
                            "parameters" : {
                              "volume" : {
                                "type" : "double",
                                "keyframes" : [
                                  {
                                    "time" : -1,
                                    "value" : 1.3265306122449,
                                    "duration" : 0
                                  },
                                  {
                                    "time" : 0,
                                    "value" : 0.0,
                                    "duration" : 0
                                  },
                                  {
                                    "time" : 28,
                                    "value" : 0.329670329670331,
                                    "duration" : 0
                                  }
                                ]
                              }
                            },
                            "effects" : [

                            ],
                            "start" : 0,
                            "duration" : 56,
                            "mediaStart" : 0,
                            "mediaDuration" : 56,
                            "scalar" : 1,
                            "metadata" : {
                              "WinSubProjectDisplayName" : "",
                              "clipSpeedAttribute" : false
                            },
                            "animationTracks" : {

                            }
                          }
                        ],
                          "ident" : "",
                          "audioMuted" : false,
                          "videoHidden" : false,
                          "metadata" : {
                            "IsLocked" : "False",
                            "WinTrackHeight" : "6.07871564617389e-315"
                          }
                      }
                    ],
                    "attributes" : {
                      "ident" : "02_Intro",
                      "gain" : 1.0,
                      "mixToMono" : false
                    },
                    "effects" : [

                    ],
                    "start" : 403,
                    "duration" : 904,
                    "mediaStart" : 0.0,
                    "mediaDuration" : 904.0,
                    "scalar" : 1,
                    "metadata" : {
                      "IsGroupExpanded" : "False",
                      "WinSubProjectDisplayName" : "02_Intro"
                    },
                    "animationTracks" : {

                    }
                  },
                  {
                    "id" : 52,
                    "_type" : "Group",
                    "parameters" : {
                      "volume" : 1.0
                    },
                    "tracks" : [
                      {
                        "trackIndex" : 0,
                        "medias" : [
                          {
                            "id" : 53,
                            "_type" : "IMFile",
                            "src" : 5,
                            "trackNumber" : 0,
                            "trimStartSum" : 0,
                            "attributes" : {
                              "ident" : "Solution-01"
                            },
                            "effects" : [

                            ],
                            "start" : 4,
                            "duration" : 52,
                            "mediaStart" : 0,
                            "mediaDuration" : 1,
                            "scalar" : 1,
                            "metadata" : {
                              "WinSubProjectDisplayName" : "",
                              "clipSpeedAttribute" : false
                            },
                            "animationTracks" : {

                            }
                          },
                          {
                            "id" : 54,
                            "_type" : "IMFile",
                            "src" : 5,
                            "trackNumber" : 0,
                            "trimStartSum" : 86,
                            "attributes" : {
                              "ident" : "Solution-01"
                            },
                            "effects" : [

                            ],
                            "start" : 56,
                            "duration" : 336,
                            "mediaStart" : 0,
                            "mediaDuration" : 1,
                            "scalar" : 1,
                            "metadata" : {
                              "WinSubProjectDisplayName" : "",
                              "clipSpeedAttribute" : false
                            },
                            "animationTracks" : {

                            }
                          },
                          {
                            "id" : 55,
                            "_type" : "IMFile",
                            "src" : 13,
                            "trackNumber" : 0,
                            "trimStartSum" : 0,
                            "attributes" : {
                              "ident" : "Solution-02"
                            },
                            "effects" : [

                            ],
                            "start" : 392,
                            "duration" : 166,
                            "mediaStart" : 0,
                            "mediaDuration" : 1,
                            "scalar" : 1,
                            "metadata" : {
                              "WinSubProjectDisplayName" : "",
                              "clipSpeedAttribute" : false
                            },
                            "animationTracks" : {

                            }
                          },
                          {
                            "id" : 56,
                            "_type" : "IMFile",
                            "src" : 14,
                            "trackNumber" : 0,
                            "trimStartSum" : 0,
                            "attributes" : {
                              "ident" : "Solution-03"
                            },
                            "effects" : [

                            ],
                            "start" : 558,
                            "duration" : 134,
                            "mediaStart" : 0,
                            "mediaDuration" : 1,
                            "scalar" : 1,
                            "metadata" : {
                              "WinSubProjectDisplayName" : "",
                              "clipSpeedAttribute" : false
                            },
                            "animationTracks" : {

                            }
                          },
                          {
                            "id" : 57,
                            "_type" : "IMFile",
                            "src" : 15,
                            "trackNumber" : 0,
                            "trimStartSum" : 0,
                            "attributes" : {
                              "ident" : "Solution-04"
                            },
                            "effects" : [

                            ],
                            "start" : 692,
                            "duration" : 467,
                            "mediaStart" : 0,
                            "mediaDuration" : 1,
                            "scalar" : 1,
                            "metadata" : {
                              "WinSubProjectDisplayName" : "",
                              "clipSpeedAttribute" : false
                            },
                            "animationTracks" : {

                            }
                          },
                          {
                            "id" : 58,
                            "_type" : "IMFile",
                            "src" : 6,
                            "trackNumber" : 0,
                            "trimStartSum" : -21,
                            "attributes" : {
                              "ident" : "Solution-05"
                            },
                            "effects" : [

                            ],
                            "start" : 1159,
                            "duration" : 269,
                            "mediaStart" : 0,
                            "mediaDuration" : 1,
                            "scalar" : 1,
                            "metadata" : {
                              "WinSubProjectDisplayName" : "",
                              "clipSpeedAttribute" : false
                            },
                            "animationTracks" : {

                            }
                          },
                          {
                            "id" : 59,
                            "_type" : "IMFile",
                            "src" : 16,
                            "trackNumber" : 0,
                            "trimStartSum" : 0,
                            "attributes" : {
                              "ident" : "Solution-06"
                            },
                            "effects" : [

                            ],
                            "start" : 1428,
                            "duration" : 1128,
                            "mediaStart" : 0,
                            "mediaDuration" : 1,
                            "scalar" : 1,
                            "metadata" : {
                              "WinSubProjectDisplayName" : "",
                              "clipSpeedAttribute" : false
                            },
                            "animationTracks" : {

                            }
                          }
                        ],
                        "transitions" : [
                          {
                            "name" : "Flip",
                            "duration" : 27,
                            "useAudioPreRoll" : true,
                            "useVisualPreRoll" : true,
                            "rightMedia" : 53
                          },
                          {
                            "name" : "Flip",
                            "duration" : 28,
                            "useAudioPreRoll" : true,
                            "useVisualPreRoll" : true,
                            "leftMedia" : 59
                          }
                        ],
                          "ident" : "",
                          "audioMuted" : false,
                          "videoHidden" : false,
                          "metadata" : {
                            "IsLocked" : "False",
                            "WinTrackHeight" : "0"
                          }
                      },
                      {
                        "trackIndex" : 1,
                        "medias" : [
                          {
                            "id" : 60,
                            "_type" : "StitchedMedia",
                            "minMediaStart" : 0,
                            "attributes" : {
                              "ident" : "03_solution_audio",
                              "gain" : 1.0,
                              "mixToMono" : false
                            },
                            "parameters" : {
                              "volume" : {
                                "type" : "double",
                                "keyframes" : [
                                  {
                                    "time" : -1,
                                    "value" : 1.0,
                                    "duration" : 0
                                  },
                                  {
                                    "time" : 0,
                                    "value" : 0.0,
                                    "duration" : 0
                                  },
                                  {
                                    "time" : 37,
                                    "value" : 0.577777777777778,
                                    "duration" : 0
                                  },
                                  {
                                    "time" : 52,
                                    "value" : 0.955555555555556,
                                    "duration" : 0
                                  },
                                  {
                                    "time" : 56,
                                    "value" : 1.0,
                                    "duration" : 0
                                  },
                                  {
                                    "time" : 2500,
                                    "value" : 1.0,
                                    "duration" : 0
                                  },
                                  {
                                    "time" : 2576,
                                    "value" : 0.0,
                                    "duration" : 0
                                  },
                                  {
                                    "time" : 2577,
                                    "value" : 1.0,
                                    "duration" : 0
                                  }
                                ]
                              },
                              "cursorOpacity" : 1.0,
                              "cursorScale" : 1.0
                            },
                            "medias" : [
                                {
                                  "id" : 61,
                                  "_type" : "AMFile",
                                  "src" : 7,
                                  "trackNumber" : 0,
                                  "attributes" : {
                                    "ident" : "03_solution_audio",
                                    "sampleRate" : 44100,
                                    "bitDepth" : 16,
                                    "gain" : 1.0,
                                    "mixToMono" : false
                                  },
                                    "channelNumber" : "0,1",
                                  "effects" : [

                                  ],
                                  "start" : 0,
                                  "duration" : 52,
                                  "mediaStart" : 0,
                                  "mediaDuration" : 52,
                                  "scalar" : 1,
                                  "metadata" : {
                                    "WinSubProjectDisplayName" : "",
                                    "clipSpeedAttribute" : false
                                  },
                                  "animationTracks" : {

                                  }
                                },
                                {
                                  "id" : 62,
                                  "_type" : "AMFile",
                                  "src" : 7,
                                  "trackNumber" : 0,
                                  "attributes" : {
                                    "ident" : "03_solution_audio",
                                    "sampleRate" : 44100,
                                    "bitDepth" : 16,
                                    "gain" : 1.0,
                                    "mixToMono" : false
                                  },
                                    "channelNumber" : "0,1",
                                  "effects" : [

                                  ],
                                  "start" : 52,
                                  "duration" : 731,
                                  "mediaStart" : 86,
                                  "mediaDuration" : 731,
                                  "scalar" : 1,
                                  "metadata" : {
                                    "WinSubProjectDisplayName" : "",
                                    "clipSpeedAttribute" : false
                                  },
                                  "animationTracks" : {

                                  }
                                },
                                {
                                  "id" : 63,
                                  "_type" : "AMFile",
                                  "src" : 7,
                                  "trackNumber" : 0,
                                  "attributes" : {
                                    "ident" : "03_solution_audio",
                                    "sampleRate" : 44100,
                                    "bitDepth" : 16,
                                    "gain" : 1.0,
                                    "mixToMono" : false
                                  },
                                    "channelNumber" : "0,1",
                                  "effects" : [

                                  ],
                                  "start" : 783,
                                  "duration" : 617,
                                  "mediaStart" : 838,
                                  "mediaDuration" : 617,
                                  "scalar" : 1,
                                  "metadata" : {
                                    "WinSubProjectDisplayName" : "",
                                    "clipSpeedAttribute" : false
                                  },
                                  "animationTracks" : {

                                  }
                                },
                                {
                                  "id" : 64,
                                  "_type" : "AMFile",
                                  "src" : 7,
                                  "trackNumber" : 0,
                                  "attributes" : {
                                    "ident" : "03_solution_audio",
                                    "sampleRate" : 44100,
                                    "bitDepth" : 16,
                                    "gain" : 1.0,
                                    "mixToMono" : false
                                  },
                                    "channelNumber" : "0,1",
                                  "effects" : [

                                  ],
                                  "start" : 1400,
                                  "duration" : 1176,
                                  "mediaStart" : 1473,
                                  "mediaDuration" : 1176,
                                  "scalar" : 1,
                                  "metadata" : {
                                    "WinSubProjectDisplayName" : "",
                                    "clipSpeedAttribute" : false
                                  },
                                  "animationTracks" : {

                                  }
                                }
                            ],
                            "effects" : [
                                {
                                  "effectName" : "NoiseReduction",
                                  "parameters" : {
                                    "denoiserAmount" : 20.0,
                                    "denoiserThreshold" : 0.0,
                                    "noiseProfile" : "TqU2P954w0BLW59C6S+tQLdlrkB/c6VAglKkP7ao5j80tMs/WmoZPpa9jz4/Agg+1ptfPj6hWz7L\r\npSY+fEM3PdiuQz0uM/I8KiGFPUkggz0jzXw81siUPdJIlT7X+sU9t9D4PebMKz2vDOI9Sd4cPXWw\r\njT0mKIc99p2IOztMCjzx+G084+5tPKaJHDwf0EI7uIiWOzxlzDtYOAY8H6BCO8SzeDv6/HI7Ohts\r\nO+qlhDswcTs7u+UzO66XMzu49D87Wj04O4nkBjx1NTQ8gqGPO+d9WTs/xDc7UmQZO7p1yDur5Q07\r\nMDIxO+uoBzuZYb46U6caO5VH5zp/owU7LEdbOwr5FTsfoz07g33sOss6FTvqB7w6ZEQnOyqCpDqt\r\nD/E6Zy5BOwFUsDq9DpA6noNVOqtCrzrzv7Y6Lp37OsJPFDu4Vjk7OmfJOrmNlzpDY/c6TZmWOrGQ\r\nMjrYhWo6sv3iOv1pkzp8njo6/ZVKOpoCgzr3YLE6viGAOndwYzriSwE7iK46Or966zoANlI69O8B\r\nOnIUuzpY+Ds6pZ1JOi9NbDqVLM45xX87OuWjTDpOXP85L0KTOQv6yTlnZps6WMnROd+BbDrGXks6\r\nWnMGOo5wsDpdICg6U7IdOmFOJDq5UWM6sPXVObyaPDo+8QY6KUWLOcZ5Sjp7vw86YKKNOrOhTDoL\r\n5Qg6WVM4OmVtJjrePok6YG0IOlCDRzoSsxk6H+QXOltPAjpCY8w5CwTIOW4q1Dkmu+s56+8SOovq\r\nGDp1hxM67LgoOqxcpzmNKwU6pLPhOfRzIjrcvzM6E3CYOVvS4jpuxa45Lt7VObynmTmgcvs5rSoD\r\nOhQj1zkgPPI5PLRpOfn6nDkmGbg5k1vtOYu6njlweKQ5qe5qOUpTxTlKvGc5k9kiOqMY7jlsu405\r\nAzKeOQ7WkTmqk6E50/WHOeRqgjk+kHM5tStMOTiHpTlCfr45hMCnOQjKgjmakAE6yqOiOfmF9Tkl\r\nlkA5+a1xOYkdCTqMA3c5WDqqOb0lUznAuKs5npfKObLfrzkWdbg5NKu0OT0hiDmoLYA5NJhROdFY\r\n3jmEXXQ5UgfBObiHWTny9qc5daVnObz06TltxIE5hFKPOYSSpDlz4gI685dkOgiikzl04d45i3PU\r\nOb7yRzqapZc6CMCUOdIL4jkbNlw5WiNzOYCqIDm7n205BdCNOdhdwjmjPJY5ytx+OW1lqzlxcr05\r\n1ki7OUSceznsfa85rwevOXVWPjmURkU53hkDOb+mfjkcVIE5QbSHOUzGSzkX3TM5ASBlOTvDCDnu\r\nmok5FhgzOY7hTjlGLj85IROKOZgbKjlg49M52neFOZ764jkFq7A5QPeqOeOA4zi1SFw5cA3UOeqo\r\n4Dm866458+tlORx7XTmso1w5PO8ZOTFqIjmsRB05EDFrOU9TPzlIUR85+ilvOUKoTzmWTGc5rVEq\r\nOeL+rzkH1R05175iOSDU3Djq6Cc5hbY/OUSJgzkYDZo5Oo+VOXLmATm72xk5Oln8OAhYdDlAfiQ5\r\nY4a7OZ595DiiTQ45dYoDOZrS+zgx3wo6jI0COX2MBTls9x05Q6y3OSSUAzklTbc5PBOdOcBx5Din\r\nl0Q5UL3BOMQaBTkz76o5ryVzOYcVuzmtLBA6FYdVOYb5Szn1Qys6sA05OdSdKzlQahc54ckgOaKN\r\nqDmM1nc5UdqeOezdtTmI3TA5tghmOabAJDqB7Q45yr12OdpwFDm46TQ5mOoMOTNHmjhruqw4Wt/p\r\nOCEdGTpdMXQ57mhCOZzc3zg6HyM561kbOUudTjmdYPI4OKSwOCnxmjiffcQ4QhEBOV+H3jjH0oQ5\r\nDRwWOYNL2zhg8fE4JWUgOUIbRzkUxzk5wneZOH7ygzmrt784f4VFOS9zITlODvc46jSpOa6KxziG\r\n6OI4FWqWOFwbkDiIu+k4OwgyOQ9SDDmHYRA54tSiODvaYzkpKUg5EA5HOZXIzzi1Pr841qMMOXVj\r\n4zgYv6Y4nN4iOYrM6Ti/cIc5XT/VOE0cKjmEmZY4KjqsOK6ZYjmGGoo566vwOIOBTznXyqQ5aIHs\r\nOCKNQDkAt+M4HWaVOPr9QjnAvyI5Vn7xOLtz8ziqVu84o+iJOSqldTl2++s4QHMVOVw+Fjl9CxA5\r\n4/KFOT4LNTk4bx85rgqYOc/SiDiczg46B3ooOTS+szhwAUI5OwFOOR7oATlEc7g5ZSQyOa06GznK\r\nTd04ds0xOeScdzm/jRY5kYwJOXwn/zhCA3w5T5gROYRlajn3kVA5afhwOU40BDoCjg85/3p9Obr4\r\nmzjSrp45tQ7NORuYNTka9sY5WDZQOYo9ojlD6cs4p0XxOJ5LEzq1cbQ5+TVYOaDZRTmqo6g5djlm\r\nOTC2cTlU04U5IXmXOYCAlTn0aHE5ffJPOS0qnzl+20M50rGyOeDOxDmFTtw4pW8vOYvDxDll2pU5\r\ng1XEOcvqDDkRlnA5Mo4/Od7xOzlko54592WVOWbIETnjv/g400vKObKjIjni7QE5Aas7OatHVjmi\r\n94c51rGCOQLqKzmmpls5JKtqOVWLQjn+j4A5yUCEOQKGbznv3LE5jR3sOcz7ijkWlko5+AAPOV2u\r\nlDnPWfw48h57OZcKFTlpxJs5C7tXOURbUjmfpek4Dxc9OScC0jliIjY5NMEZOVY5djnk/k45hhsb\r\nOYU2XjnYE4o5C1hrOQMXIznGX/44dX+eOaXqhTneckE5di8JObBiRznriEg5kQ+JOD4WOjlA7EE5\r\nIWOQOBTLgTkuDws5vd6hOUk9bzm8bKQ5YDF+OdDNPDnqzJg5xADnOCanJTlMyWE5ho5QOXKVzDi2\r\nAAQ5euRlOf6pYDkEsaI5w5BIORyWCjncPDQ5mz0SOexBATkHjyM52mlKOSJPATkFaVM5by2aONue\r\nCDkcg/U4ROy+OBMU3TgKbOQ4aYSwOO4cAjnqGjQ5rXqVOAlpFDlul1A5Prc0OdOdzjjX2784yY08\r\nONT5oDg5GwE5kV6pOOH0nDlMyVo4MiG/OMUhHzlT1Xs4sbOwOQcCNTlYSUQ50zQDOXfcujisxMQ4\r\nCB45OeiKczhLwp44TVnvOMmqBTn7nb04+JcEOfYgIDks1fY4TcuOOQbCIzmwFb84bazKOIIBOTkH\r\nhsE4jCGOOAOgDjn0oE85iOLUOJKPjjh1mjU502wrOaqO3zj9gdA4t9m0OPjlPjnzhyw4e1JMOfJ+\r\nGTk5ULo40FfCOKqhdjjwxU84iGaBOGBI4zikSdU4D5NYOMi5szhUqv44hjfSOKd/szjqXM84NKAg\r\nOFSqkzjYOd84KVzhOHDJcDlSjIA43fyQOIxQODk+ARc5zgK7OB4ikTgqd4w4tM6iOOm1Vzh00Og4\r\nk7sDOSNDuji46pg4zaHfN7CknjjobcE4Okm6OHFkxDg6t9o4nNKEOI/qVzkAVSk44L+nOHU1tTho\r\nhWU4VoidOC1UIzkLnQ45toOrODfJ8DiEAuM4ybrqOB3xvjiEjoo4dAWBONwUgTjAsow4Em7jOC6P\r\nxzh1T2k4fyKgOAiEgDiXspQ41YW+OE7KiDjqoGU46i+FON6Hujg0AFI42T4zOC77rDgg8KE4zLhX\r\nOC5MKzi+Hlo4+qwLOLBBtDiKpLY3h+CYOFrveDhx8hY4kZDzNwBWRDh9NpE4uGxuOKAfhzjWAfE3\r\n3x8nOFK4ZzjXNS05JRMEOOS65zi7ZYY4S8n7OFaFBjjdcJU4ykOZODHYnTgghAg5d/osOC/rkziG\r\nVTE4aJp6OE4Z/TelRTo4Al5QOL7xVzhIQI849lKtOK1JlDheOKE4dtWBOEJCgzgmCPY3bhdQOCTM\r\nMzhrCi04wN1UOMspmTglhF84evotONlVRDjKfsw30jRDOGCVejhfJho4ipCDOEcXaDhxXyI4pkT/\r\nOI4VGTh6ZgU4raZZOJhTUDjImYU4dMeSOBDgPzi3mW84M7YMOAgREDiYDRc46XPbN8jrIziWFC44\r\np5KuOE3IADhfa4c4fiWHOKqtKDh2/Io4kQO/OFv2lTgNh+I45mxVOPPgazhUWk041HwiOCOa/zfH\r\nrB84flj1ODWIFzgkVvI3viBWOLLSCTgUDs03VqrxN400eDiPaRI40h4uOK44wTi4/Fk44GGHOL+H\r\nlji01gk4Ot0nOIbWijjHubg4MUKTOCefEjgOaEA4xSPQOF3LrTh1VHo4reJrOM9qEjhbL3Q4DNO6\r\nN1FhqDjayVQ4D7kFOEhwwjdZXmo44BXGN2ecZDh0Fsk3aSD+N11yTTgFJP43brkHOOQgDziew0w4\r\nIDYlOJA5/zd9cf03v2knOKDwazh2yR44zdG8N+zGQjjRKr43ul4lOLBdMDhAZIo3tuP4Nz0EDji8\r\nbNI3Bj03ODkaCzhxUDw4fKTVN/olUTeWD9M3ghEXOF/iHTi9UGM4OFwvODdAKjjhxpw300HjN6oB\r\niDh0Nrg3gONRODM3ADg6W6A3LzykN8IfjTeq7lE4Ge+aN15s5DdxRUw4s2VKOHfxfTiU36U3ecTW\r\nNx+MCDgCdtU3eBYSOJc7gjf0iNc3N9FpOK0V3zcA6+c3TDF9OOaLwzd308k3JMs4ODTQtjeyqGQ4\r\nCkrLN6VpvTcWwho4wVIXOIeZMDjGMBk4TKUIOHSvxjfqWrU3cASuNw5dJTgygLE3s7K9N4xVwzf5\r\nk2U4BIMuOE7uPjh4edQ3CgX6N6K96jfGWZ4379ApOGX6DDh23P03iLwAOHI+vzfvCgM4K1wfOA5m\r\ntTcGsV84HF6iOAqYMjeA6q833IouOAen3Te4PFY35gwUOB6BGThUaiI4YfMFOEn57zf8ryw4zdhy\r\nOGpGhTc+VYQ4+p5YOKpoHDgEuuU3hRwQOBiKETieZRg4qdrrN7w1KzlXyik4PBbXNysTCDiM+NY3\r\nRrHRNzrcejjGnvI3dyRLOHArLTgBORI4dfWXN3oPyDc6LIk6wt0JOAjSzzdO4nA3lwzsN3xX3jcr\r\n5Z83qgrKNxD1YDcB/Tg4w8l0OKZBrjh83M05wnHLO1rUMTlnOd04a3DjONsEQzimC0Q4WfqLONWs\r\nwDcNNzM4ly3eN29C5ze8rX44jaLKOHO+szkYyxw4VuoUODLpFzjltJQ3jvLlN87kcjc1Nl43QjM4\r\nN6WxhTehfZo3Ew45OBSyeDik2yU45GfrN/eKsTekNKo35E6GN4ax0jfNyA44Hc7ANykmXzeQEKM3\r\nuYy0N6EbSTeai5g3ie0NOIPmzTem+i04zMszOC+NPDeJ7NA3z9UkOOcbwDd5T443gbjWN/DD8zca\r\nZZw3qyiBN9JCvzfwNNo3yArvNzFxLDj0ScQ3xb2CNxbk6zdUjNs3VTMROIXpCThMpRQ4uG+0N6Rq\r\nsDfq5fM3khbAN6sShzdlTvA3DNV4NzZPljcS5RU3++raNziMOzd07gA4hnN1N8KPozdasds3XPuN\r\nN2jFizczGmg3Im2ZNyz82Tdhw3M3rqTrN3/PhDfGLKU3k1qCN+hgpzdxxXE3BjXZNwD5IDjh5Ro/\r\n+IGUP4KtKkJxMBFBPldbQQgxPD8Joug+IgIaPjg6AT9wDEU+AYogP6jhqT5b9s89Ntf8PC1NZT08\r\n7RY9FM4vPv6nDD6vI089ECamPcVjej2Or9Q8w60gPokqnz37JOI9mc6XPXDzOT1Uyjo9dNikPFrp\r\nbz02nCs8LkadO5SfQTzd1bo7kr3oO34vhzvA7X478YTEOwyMpTs2cJ47UiYhPF79TDv8/KQ7H9Xj\r\nO5ApGDsfdsg7SPMmO3IdPjt9gbQ6fiybO3h8FDuoE9A6MWGpOgphjTqmKGE6yrD1OuClEzuPlQc6\r\nd15YOqzcvzoDgcs6YXuAOkv2ljpAs0g6KpchOkj8Lzp8EwI6CLIsOjR7xjn53WQ6BkLwOnLtXDrw\r\nTkg6VU7iOsTu2zqCVGA6OoCnOt04GDo26gc6XU7uOcwbhjqNnyU66h1rOkp9pDoBdN06hGhfOgSe\r\nrjo2n7o6E/R7OvS7yzrtgHg6uZU5OvSPLDt1Mo86vFUqOuwj/Tnf1PQ6OEySOphonTk7+7Y6K7Cf\r\nOhOxwzoKSPY5HzFVOqjDqzlSql46NKcyOlU87zkwx0Y6BNEVO7aqEzpzQJg56esmOnKc1zkQFZU6\r\n3JLjOaD9WTpW9CU6QEorOgZ9pDmfHrY6HqXCOTGhjTmCi9Q5ZzaJOkhcmDo/txk6eCGQOVmpvDlH\r\nQQU6anovOUZL0jkEIgM5aoJXOdVFkjk6yMw5SDpqOaLDQzqEMM45MhItOY1r0TnIXgA6NF2UOUZ7\r\nbTkyihE6/YHGOWq6qDl24fY5Igj2OR9vlDmSlX8558xaOtwmLTrmYv85ViIEOqybHTq2LII5xR3E\r\nOX74dDn4jYM5yGQKOh9gHjoAibU5nxE9OZJNpDmopqA5KVGiOgxFiDkw0F056/cvOr+KnDkGTlM5\r\ntFo4Ob95BDrDYrg5XXFuObTPQDmzCds5efafORiFAjoMQjk5wb6POTKtdTqGyuQ5aFwLOkH/ETpW\r\n52Y5yzQ1Oqf42TlxEeI5hvejOWmugTlQoPs51w7uOY4EqjkXJF45WkE0Oh7wODrMMwY6GdLIOjeh\r\nujkwEok5PgP3OVGCIzrZwwI6GPMlOgYrRzqvtc452d4+OmjBkzrwzng60K2cOda8xDnlFAk6iN0A\r\nOyDDzjp5jCk6Ea8jOszo2TnnNQE69mR+ORoCNDrR2vQ5CTfEOqHR9TlBnQA6jm+VOaHcqDnXVE05\r\nb6XHOV+mMjrzWCI6LTIgOrbpnznx1XY6WKKvOe6CgDoPqjo5Oe6GOVCUNDp02745X3+AORacIzpS\r\nerw5U2XxOIS2ljn3y4E553xLOS7lZDkaNi461SQ1ORS7OzlLm4M5+ks5OTylrDkUDfk5hxNpOWPm\r\nxjn4yvw4muRKOXZ+wDjXrK45+E0cOZo9jTlUl8g5CTGIOdh2DTkY4us5qApEOVbQijlatI45fJCf\r\nOXPzFDo3Gps5CIShOefyUTkuYic5V+3bONPIATn8/1E5WrQ+OQbbHjl5cHU6B3h+OdQQiznWFas5\r\n+ta/OZ7gpjiIsnw5lMTCOQs51TkzQ1E5hkH4OYKGaTlr0t45cutrOYaNkTlZMH054S9FOUgNSjnj\r\nvo45/glBOYgB2zmKhh85ldbTObJcqDle8885dt/ZOF0pwDn9qVc5v0xhOSp1TjlMS9Y5f+cHOWHX\r\nhDkWVYE5XtOTOVSKljhQVaQ5Vo9yOktPjDkQsTs5ndkyOfYPSDn0XWQ5sbwSOp7HGjmj8d85aY33\r\nOXrvlzltoBU6+NxbOsYBjjk1D5E5/6BkOXFqWzm1dNo4+ORQOdq6ODn5sng5Na7OOBLlWzkBGG05\r\nAvolOattxTn4xNs5G7o1ObiGkjk4d8Y56zs0OfNyPjmRe1s5d5X8OPBn6ThYKOQ5Pgn8OJQonjmH\r\n9M44ygCSOMIgoznQ+wY5oGiuOduyVjn058Q4049ZOQCRUzksMIE5V2x7OXiVczkgvQE5WMDUOBAU\r\nfjm5IPg4+9P9ODJXqDh+DlM50Yn2OAbp2zg4SsE4TE2YOeSDljkxSBU5eGglOTJ+ZDlBmpQ5ETiV\r\nOOQBhDhDeEc57wETOV8NDTkeh005qnxQOStKwDigTXo535fVOeoiDTkJzoA5tKJFOd8qhDkcFBs5\r\nFnwKOgpxXTnL+DA5DnrcOHoTDjpw5U06OuSOOfV/IDnwPbY4ZN7COVDShjnS/hc5Q+foOYdijznQ\r\n4II5cO43OSiGKzlaQ7Q4apzoOSFTQDnyFmQ5UWdnOpo/lzl5tZA5w5CWOZQv8DiSfS45gcItORi7\r\n3jmOgoc5C44HOQ4p7jiqMYo5wNw2Oej7Mzn1a0w5Sf9jOmV8oTlf5YY5v+kJOU7XNTlUhcA5jqMx\r\nOXPBiTnOpp45EmONOawZCjphzhA5zZJ0OSje2jnmu8o5VdOCOSjoRzlQ7Ek5Hp0FOvUTpjnpiAk5\r\nwnp2Obb4JzmEJy45Y5mOOCd66zjsDaA5zB4XOeQ25jhxux45yMGMORKDHznvATc5osznOWKrJDnP\r\nod05EkzPOLakpjm+ucY5udqDOJpZeDmoGSA5CtXoOHmRDDlkhgk5Nh2aOOChETlHb5A4IJeHOeLA\r\n3jhM65c5OW71ODNhXzlfxQA6eXmoOcrGWjl0Hpw5HvvcOUbxEjnHzEg5PoPyOXpBlzkjwFM527jR\r\nODHv7TkwNEY5GDScOUy0LzllZhc6GUSvOV8NMDn6lo05cD69ODCiizkld5c5uqRcOSDOjjl9+js5\r\n884MOVRMpjnq2TA5bSyGOW5KiDk6IEk6+jKNOde2jTkDrTo5utcvOQqbRTnaFKA5rKTcOKN2STln\r\naMQ58NbAOZrcCDp6TEI5ADMTOV4KFTnKxEk5iwWKOfBujThziLU5eSDfOFLDezntGZY53zrOOOYX\r\ngzgV3GE5BFUTORB6nTh+TzQ5pFmfORbFTzkrWkI5IwViOQSwSTm+TU852mu0OGihgDgNT3U5M49Z\r\nOa056DkAu3o5YbC0ODVs+zg5Q1g5DUUzOV2XiDjQm6M4Ki17OYKygTh6UAE5t5oPOTugCTnwHcY4\r\n+6ANOdyeRjme8i05LHveOPtv0Di3LjY51980Ofgr0jgx9kA5J423OAqgyziYnZA4Uk6BOMVjizim\r\nqc04/dwEOSb+vTgsG245v5iOOHKQBjkrESk5ciiMOA7SwDi7hE04DgSgOB98qTcndfc4AFkbOYPr\r\n9Dgrvxw5cuNIOTsC8zgbzY44+tm9ODsL4Tjp0Es4YaPAOFNXNTk9+Go4ufoAObzJCjmOvYo4phUF\r\nObhsJzlLy4U4wb1KOaDHGzkwBhc5TZGROIDiGzmkFko45QaSOArTuTi3R8s4gOhaONuXNjnTYnU4\r\nlDMeOdnpBDkG0VU4O8uVOCamwziCoV04Y3QyOdPFmzhI2+84yocKObWkjjggK9E4/ruKOKr+dzj0\r\n/jk4pevCONL1nzhF6GU45wzROBV//DiW9/k4BqaROJcKOTjMDGs4hp2VOBezYDiKA5o4Rr1/OA74\r\nRDj+W284wO9KOAYQ5ThJzpU47boQOOJfvzfXc6I4FrgdONiTFTig0R84NKV2OKVufTjkqns4ErUV\r\nOLojDDiyEzE4l4OgODP+JTjUkIE4rVEHOT/yQjiANV04CgxQOAkN0zjsxac4Jn2KOMNqozj44DI5\r\nNhZHOPh3pzhI+7E4VCpAOJjYFzjGxFw4SSQ5OAZB+TcE+gw4O1QhOGmudzh2mR44CTjBOF83uTg6\r\n16k4ciUZOEeWMDh70CU42S3mNxCFEzgY7ow4bySUOMU5Kji0QSE4g2mPOGVcJjiAne03r3I3OHrR\r\nMzjm/FY42DZtOFrWJDiu6wY4ez6RONAaRzj8RSY45GNfOFCuNTijqZA4ey2GODuklji+NxQ4E+IP\r\nOOVJZDjSpck3dzHoN9l3NTiytik4KnlNOFAAojjzBEE4KwiiODgGfTi4whA4IsEEOLp6zzcYR4E4\r\nGHqmN9TYkjiTMJQ42dRaOBYd+Df0Dmk45MmfOLgbSTjk9mM4UI28OEALLDg+Xcc3FhWeOGgqkTj0\r\nvN047sqiN4IrCzi/4zk4CjH5N+kbTjhe8jc45VkZOFRVtDiC9ws4ccNeOMYIRziHNg84wKznN3Sm\r\nzTcYshk4WCjrNxgL4jdPPWk4iEQeOPkWNDiUbhE4cmdeOCBtTTg/tkQ4jh/gN/p1Uzgm0yo4+fb9\r\nN0WohTi8Uoc4Ob1VOIgrDTgvfP039giSOECvxjergL035B1LOPMCMTh4hL43mjpaOJvdcziuw5s4\r\nKsrNN4q1FzhHDCA4srMjONkbUjh1ooo4k910NzE2njcmXXE4WrL7NxW0uzfwjAE4GnzoN8V1hjdk\r\nJxU4dWX/N9ky+jeZQOg30CzGN3KrCziqCug3YAUYONuGzTeNuuw3aZrJN8MKuzcTyAA4cjzlNyfQ\r\nuzggEw44+5jLN+GY1jd+G3U4HKa5N0Bh8TcpnLU3mO1XNyZNFTgETdw3VBRaN8A7DjiS8Hw3mDtA\r\nOEV6KjdDlqY3xCX1N4B0Fjhnm244Ts1yN/MsADjYA/U31HRZN0qskDdi15c3TPhSN4B9+zfEp8A3\r\nIvCpN7wbTTdu43I3sZ/AN1IL+DegtCE4Ki1hN8GaADgQCrg329qDN+nYEjhFzAE4SLVuN5YIpzeX\r\nIeQ3GR8BOC5ddjdUqoE3Pr+DNyl9wjcJhNM3h9hnNzT2KjifNMA3yP+VN1Hu2TdZQLQ3HZyVN8rF\r\nEzhqvJk3tINoN/fCUjcydAE45sDZN1KEKTiEpV03szRiN1wYvjehikw45nnAN8zRuDc0zY837SYQ\r\nODxOyjdjM8E3oE/+N8aZpTekwvg3rvFZNxGh1DclfVc38suIOfhzzDcWnO83zXu7N4kaqjcrZ/A3\r\nSNPGN+DhvTeId8I3lLuPN11J/jdC79E3s74XOC0NZDoqZ3M4MroDOAfB6TcTZfI3LSUkONUmhTf+\r\n9v83qMsLOCoE4jfABzM4U4T2ODbxhDrT3eM7uxuyOegB9jjMZ6A4TEocOHBrBjgcv403/ArpN845\r\nvTe7WDg4JsgSON5lnTcgrXU4fEUjOQyUmjdVGLM3jR0XOCB84DeFIM43zyCJNw+W4jfrv883XkmL\r\nN+l9RTdU4sA3t6YKOIwpYDguFA84o2NYOE5UojdRacY377N8Nwm7tjcCaII3oiWdN1ssTzfp9JA3\r\nkBdDN1fICTcCfVo3q7KZN9pSuDeSGYo3Nq9jNyUPTzeydCA3jyfNNvNIhTfLYms3LIT/NuvXPTc9\r\nnAo3xv4zNzXOXjdw7i03FlNbN5AnbjdW+AI32wM0N57lBjfaoDc38+iTN68ELTdnJEc3vZIWN0XO\r\nTDcaqLA22IphN6lfFjcMsO82Zc13Nx6YoTZhHT83YsJEN/zlBze9fmM3AXotN17eJjeHDHM3ROqB\r\nNzzuKTcSgS037F6UNzX+/jYoeHQ3OM/3NpOe4jY4QIE3M8sYN/1OXjeWcSM3AAKCNw==",
                                    "noiseTrainingType" : "default"
                                  }
                                }
                            ],
                            "start" : 4,
                            "duration" : 2552,
                            "mediaStart" : 0,
                            "mediaDuration" : 2552,
                            "scalar" : 1,
                            "metadata" : {
                              "WinSubProjectDisplayName" : "",
                              "clipSpeedAttribute" : false
                            },
                            "animationTracks" : {

                            }
                          }
                        ],
                          "ident" : "",
                          "audioMuted" : false,
                          "videoHidden" : false,
                          "metadata" : {
                            "IsLocked" : "False",
                            "WinTrackHeight" : "6.08016053127384e-315"
                          }
                      },
                      {
                        "trackIndex" : 2,
                        "medias" : [
                          {
                            "id" : 65,
                            "_type" : "AMFile",
                            "src" : 4,
                            "trackNumber" : 0,
                            "attributes" : {
                              "ident" : "Projector_Screen_Flapping",
                              "sampleRate" : 44100,
                              "bitDepth" : 0,
                              "gain" : 1.0,
                              "mixToMono" : false
                            },
                              "channelNumber" : "0,1",
                            "parameters" : {
                              "volume" : {
                                "type" : "double",
                                "keyframes" : [
                                  {
                                    "time" : -1,
                                    "value" : 1.3265306122449,
                                    "duration" : 0
                                  },
                                  {
                                    "time" : 0,
                                    "value" : 0.0,
                                    "duration" : 0
                                  },
                                  {
                                    "time" : 28,
                                    "value" : 0.384615384615386,
                                    "duration" : 0
                                  }
                                ]
                              }
                            },
                            "effects" : [

                            ],
                            "start" : 0,
                            "duration" : 56,
                            "mediaStart" : 0,
                            "mediaDuration" : 56,
                            "scalar" : 1,
                            "metadata" : {
                              "WinSubProjectDisplayName" : "",
                              "clipSpeedAttribute" : false
                            },
                            "animationTracks" : {

                            }
                          }
                        ],
                          "ident" : "",
                          "audioMuted" : false,
                          "videoHidden" : false,
                          "metadata" : {
                            "IsLocked" : "False",
                            "WinTrackHeight" : "6.08016053127384e-315"
                          }
                      }
                    ],
                    "attributes" : {
                      "ident" : "03_Solution",
                      "gain" : 1.0,
                      "mixToMono" : false
                    },
                    "effects" : [

                    ],
                    "start" : 1307,
                    "duration" : 2556,
                    "mediaStart" : 0.0,
                    "mediaDuration" : 2556.0,
                    "scalar" : 1,
                    "metadata" : {
                      "IsGroupExpanded" : "False",
                      "WinSubProjectDisplayName" : "03_Solution"
                    },
                    "animationTracks" : {

                    }
                  },
                  {
                    "id" : 66,
                    "_type" : "Group",
                    "parameters" : {
                      "translation0" : 760.075217390135,
                      "translation1" : -386.306584134988,
                      "volume" : 1.0
                    },
                    "tracks" : [
                      {
                        "trackIndex" : 0,
                        "medias" : [
                          {
                            "id" : 67,
                            "_type" : "StitchedMedia",
                            "minMediaStart" : 0,
                            "attributes" : {
                              "ident" : "Rec 05-22-17 8",
                              "gain" : 1.0,
                              "mixToMono" : false
                            },
                            "parameters" : {
                              "translation0" : -760.075217390135,
                              "translation1" : 386.306584134988,
                              "scale0" : 0.572792362768496,
                              "scale1" : 0.572792362768496,
                              "cursorOpacity" : 1.0,
                              "cursorScale" : 1.0
                            },
                            "medias" : [
                                {
                                  "id" : 68,
                                  "_type" : "ScreenVMFile",
                                  "src" : 2,
                                  "trackNumber" : 0,
                                  "attributes" : {
                                    "ident" : "Rec 05-22-17 8"
                                  },
                                  "parameters" : {
                                    "cursorScale" : {
                                      "type" : "double",
                                      "defaultValue" : 0.0,
                                      "interp" : "linr"
                                    },
                                    "cursorOpacity" : {
                                      "type" : "double",
                                      "defaultValue" : 0.0,
                                      "interp" : "linr"
                                    }
                                  },
                                  "effects" : [

                                  ],
                                  "start" : 0,
                                  "duration" : 331,
                                  "mediaStart" : 0,
                                  "mediaDuration" : 331,
                                  "scalar" : 1,
                                  "metadata" : {
                                    "AutoAppliedSmartFocus" : "False",
                                    "WinSubProjectDisplayName" : "",
                                    "clipSpeedAttribute" : false
                                  },
                                  "animationTracks" : {

                                  }
                                },
                                {
                                  "id" : 69,
                                  "_type" : "ScreenVMFile",
                                  "src" : 2,
                                  "trackNumber" : 0,
                                  "attributes" : {
                                    "ident" : "Rec 05-22-17 8"
                                  },
                                  "parameters" : {
                                    "cursorScale" : {
                                      "type" : "double",
                                      "defaultValue" : 0.0,
                                      "interp" : "linr"
                                    },
                                    "cursorOpacity" : {
                                      "type" : "double",
                                      "defaultValue" : 0.0,
                                      "interp" : "linr"
                                    }
                                  },
                                  "effects" : [

                                  ],
                                  "start" : 331,
                                  "duration" : 111,
                                  "mediaStart" : 331,
                                  "mediaDuration" : 111,
                                  "scalar" : 1,
                                  "metadata" : {
                                    "AutoAppliedSmartFocus" : "False",
                                    "WinSubProjectDisplayName" : "",
                                    "clipSpeedAttribute" : false
                                  },
                                  "animationTracks" : {

                                  }
                                },
                                {
                                  "id" : 70,
                                  "_type" : "ScreenVMFile",
                                  "src" : 2,
                                  "trackNumber" : 0,
                                  "attributes" : {
                                    "ident" : "Rec 05-22-17 8"
                                  },
                                  "parameters" : {
                                    "cursorScale" : {
                                      "type" : "double",
                                      "defaultValue" : 0.0,
                                      "interp" : "linr"
                                    },
                                    "cursorOpacity" : {
                                      "type" : "double",
                                      "defaultValue" : 0.0,
                                      "interp" : "linr"
                                    }
                                  },
                                  "effects" : [

                                  ],
                                  "start" : 442,
                                  "duration" : 312,
                                  "mediaStart" : 442,
                                  "mediaDuration" : 312,
                                  "scalar" : 1,
                                  "metadata" : {
                                    "AutoAppliedSmartFocus" : "False",
                                    "WinSubProjectDisplayName" : "",
                                    "clipSpeedAttribute" : false
                                  },
                                  "animationTracks" : {

                                  }
                                },
                                {
                                  "id" : 71,
                                  "_type" : "ScreenVMFile",
                                  "src" : 2,
                                  "trackNumber" : 0,
                                  "attributes" : {
                                    "ident" : "Rec 05-22-17 8"
                                  },
                                  "parameters" : {
                                    "cursorScale" : {
                                      "type" : "double",
                                      "defaultValue" : 0.0,
                                      "interp" : "linr"
                                    },
                                    "cursorOpacity" : {
                                      "type" : "double",
                                      "defaultValue" : 0.0,
                                      "interp" : "linr"
                                    }
                                  },
                                  "effects" : [

                                  ],
                                  "start" : 754,
                                  "duration" : 164,
                                  "mediaStart" : 802,
                                  "mediaDuration" : 164,
                                  "scalar" : 1,
                                  "metadata" : {
                                    "AutoAppliedSmartFocus" : "False",
                                    "WinSubProjectDisplayName" : "",
                                    "clipSpeedAttribute" : false
                                  },
                                  "animationTracks" : {

                                  }
                                },
                                {
                                  "id" : 72,
                                  "_type" : "ScreenVMFile",
                                  "src" : 2,
                                  "trackNumber" : 0,
                                  "attributes" : {
                                    "ident" : "Rec 05-22-17 8"
                                  },
                                  "parameters" : {
                                    "cursorScale" : {
                                      "type" : "double",
                                      "defaultValue" : 0.0,
                                      "interp" : "linr"
                                    },
                                    "cursorOpacity" : {
                                      "type" : "double",
                                      "defaultValue" : 0.0,
                                      "interp" : "linr"
                                    }
                                  },
                                  "effects" : [

                                  ],
                                  "start" : 918,
                                  "duration" : 4232,
                                  "mediaStart" : 1085,
                                  "mediaDuration" : 4232,
                                  "scalar" : 1,
                                  "metadata" : {
                                    "AutoAppliedSmartFocus" : "False",
                                    "WinSubProjectDisplayName" : "",
                                    "clipSpeedAttribute" : false
                                  },
                                  "animationTracks" : {

                                  }
                                }
                            ],
                            "effects" : [
                                {
                                  "effectName" : "CursorHilight",
                                  "parameters" : {
                                    "blur" : 0.1,
                                    "color-alpha" : 0.75,
                                    "color-blue" : 0.0,
                                    "color-green" : 1.0,
                                    "color-red" : 1.0,
                                    "radius" : 50.0
                                  }
                                }
                            ],
                            "start" : 0,
                            "duration" : 995,
                            "mediaStart" : 8,
                            "mediaDuration" : 995,
                            "scalar" : 1,
                            "metadata" : {
                              "AutoAppliedSmartFocus" : "False",
                              "WinSubProjectDisplayName" : "",
                              "clipSpeedAttribute" : false
                            },
                            "animationTracks" : {

                            }
                          },
                          {
                            "id" : 73,
                            "_type" : "StitchedMedia",
                            "minMediaStart" : 0,
                            "attributes" : {
                              "ident" : "Rec 05-22-17 8",
                              "gain" : 1.0,
                              "mixToMono" : false
                            },
                            "parameters" : {
                              "translation0" : {
                                "type" : "double",
                                "defaultValue" : -760.075217390135,
                                "keyframes" : [
                                  {
                                    "time" : "79969/46",
                                    "value" : 16.9247151890499,
                                    "duration" : "1668/23"
                                  }
                                ]
                              },
                              "translation1" : {
                                "type" : "double",
                                "defaultValue" : 386.306584134988,
                                "keyframes" : [
                                  {
                                    "time" : "79969/46",
                                    "value" : -12.6933744750955,
                                    "duration" : "1668/23"
                                  }
                                ]
                              },
                              "scale0" : {
                                "type" : "double",
                                "defaultValue" : 0.572792362768496,
                                "keyframes" : [
                                  {
                                    "time" : "79969/46",
                                    "value" : 1.49999991954574,
                                    "duration" : "1668/23"
                                  }
                                ]
                              },
                              "scale1" : {
                                "type" : "double",
                                "defaultValue" : 0.572792362768496,
                                "keyframes" : [
                                  {
                                    "time" : "79969/46",
                                    "value" : 1.49999991820163,
                                    "duration" : "1668/23"
                                  }
                                ]
                              },
                              "cursorOpacity" : 1.0,
                              "cursorScale" : 1.0
                            },
                            "medias" : [
                                {
                                  "id" : 74,
                                  "_type" : "ScreenVMFile",
                                  "src" : 2,
                                  "trackNumber" : 0,
                                  "attributes" : {
                                    "ident" : "Rec 05-22-17 8"
                                  },
                                  "parameters" : {
                                    "cursorScale" : {
                                      "type" : "double",
                                      "defaultValue" : 0.0,
                                      "interp" : "linr"
                                    },
                                    "cursorOpacity" : {
                                      "type" : "double",
                                      "defaultValue" : 0.0,
                                      "interp" : "linr"
                                    }
                                  },
                                  "effects" : [

                                  ],
                                  "start" : 0,
                                  "duration" : 331,
                                  "mediaStart" : 0,
                                  "mediaDuration" : 331,
                                  "scalar" : 1,
                                  "metadata" : {
                                    "AutoAppliedSmartFocus" : "False",
                                    "WinSubProjectDisplayName" : "",
                                    "clipSpeedAttribute" : false
                                  },
                                  "animationTracks" : {

                                  }
                                },
                                {
                                  "id" : 75,
                                  "_type" : "ScreenVMFile",
                                  "src" : 2,
                                  "trackNumber" : 0,
                                  "attributes" : {
                                    "ident" : "Rec 05-22-17 8"
                                  },
                                  "parameters" : {
                                    "cursorScale" : {
                                      "type" : "double",
                                      "defaultValue" : 0.0,
                                      "interp" : "linr"
                                    },
                                    "cursorOpacity" : {
                                      "type" : "double",
                                      "defaultValue" : 0.0,
                                      "interp" : "linr"
                                    }
                                  },
                                  "effects" : [

                                  ],
                                  "start" : 331,
                                  "duration" : 111,
                                  "mediaStart" : 331,
                                  "mediaDuration" : 111,
                                  "scalar" : 1,
                                  "metadata" : {
                                    "AutoAppliedSmartFocus" : "False",
                                    "WinSubProjectDisplayName" : "",
                                    "clipSpeedAttribute" : false
                                  },
                                  "animationTracks" : {

                                  }
                                },
                                {
                                  "id" : 76,
                                  "_type" : "ScreenVMFile",
                                  "src" : 2,
                                  "trackNumber" : 0,
                                  "attributes" : {
                                    "ident" : "Rec 05-22-17 8"
                                  },
                                  "parameters" : {
                                    "cursorScale" : {
                                      "type" : "double",
                                      "defaultValue" : 0.0,
                                      "interp" : "linr"
                                    },
                                    "cursorOpacity" : {
                                      "type" : "double",
                                      "defaultValue" : 0.0,
                                      "interp" : "linr"
                                    }
                                  },
                                  "effects" : [

                                  ],
                                  "start" : 442,
                                  "duration" : 524,
                                  "mediaStart" : 442,
                                  "mediaDuration" : 524,
                                  "scalar" : 1,
                                  "metadata" : {
                                    "AutoAppliedSmartFocus" : "False",
                                    "WinSubProjectDisplayName" : "",
                                    "clipSpeedAttribute" : false
                                  },
                                  "animationTracks" : {

                                  }
                                },
                                {
                                  "id" : 77,
                                  "_type" : "ScreenVMFile",
                                  "src" : 2,
                                  "trackNumber" : 0,
                                  "attributes" : {
                                    "ident" : "Rec 05-22-17 8"
                                  },
                                  "parameters" : {
                                    "cursorScale" : {
                                      "type" : "double",
                                      "defaultValue" : 0.0,
                                      "interp" : "linr"
                                    },
                                    "cursorOpacity" : {
                                      "type" : "double",
                                      "defaultValue" : 0.0,
                                      "interp" : "linr"
                                    }
                                  },
                                  "effects" : [

                                  ],
                                  "start" : 966,
                                  "duration" : 700,
                                  "mediaStart" : 1085,
                                  "mediaDuration" : 700,
                                  "scalar" : 1,
                                  "metadata" : {
                                    "AutoAppliedSmartFocus" : "False",
                                    "WinSubProjectDisplayName" : "",
                                    "clipSpeedAttribute" : false
                                  },
                                  "animationTracks" : {

                                  }
                                },
                                {
                                  "id" : 78,
                                  "_type" : "ScreenVMFile",
                                  "src" : 2,
                                  "trackNumber" : 0,
                                  "attributes" : {
                                    "ident" : "Rec 05-22-17 8"
                                  },
                                  "parameters" : {
                                    "cursorScale" : {
                                      "type" : "double",
                                      "defaultValue" : 0.0,
                                      "interp" : "linr"
                                    },
                                    "cursorOpacity" : {
                                      "type" : "double",
                                      "defaultValue" : 0.0,
                                      "interp" : "linr"
                                    }
                                  },
                                  "effects" : [

                                  ],
                                  "start" : 1666,
                                  "duration" : 104,
                                  "mediaStart" : 1785,
                                  "mediaDuration" : 104,
                                  "scalar" : 1,
                                  "metadata" : {
                                    "AutoAppliedSmartFocus" : "False",
                                    "WinSubProjectDisplayName" : "",
                                    "clipSpeedAttribute" : false
                                  },
                                  "animationTracks" : {

                                  }
                                },
                                {
                                  "id" : 79,
                                  "_type" : "ScreenVMFile",
                                  "src" : 2,
                                  "trackNumber" : 0,
                                  "attributes" : {
                                    "ident" : "Rec 05-22-17 8"
                                  },
                                  "parameters" : {
                                    "cursorScale" : {
                                      "type" : "double",
                                      "defaultValue" : 0.0,
                                      "interp" : "linr"
                                    },
                                    "cursorOpacity" : {
                                      "type" : "double",
                                      "defaultValue" : 0.0,
                                      "interp" : "linr"
                                    }
                                  },
                                  "effects" : [

                                  ],
                                  "start" : 1770,
                                  "duration" : 12,
                                  "mediaStart" : 1889,
                                  "mediaDuration" : 12,
                                  "scalar" : 1,
                                  "metadata" : {
                                    "AutoAppliedSmartFocus" : "False",
                                    "WinSubProjectDisplayName" : "",
                                    "clipSpeedAttribute" : false
                                  },
                                  "animationTracks" : {

                                  }
                                },
                                {
                                  "id" : 80,
                                  "_type" : "ScreenVMFile",
                                  "src" : 2,
                                  "trackNumber" : 0,
                                  "attributes" : {
                                    "ident" : "Rec 05-22-17 8"
                                  },
                                  "parameters" : {
                                    "cursorScale" : {
                                      "type" : "double",
                                      "defaultValue" : 0.0,
                                      "interp" : "linr"
                                    },
                                    "cursorOpacity" : {
                                      "type" : "double",
                                      "defaultValue" : 0.0,
                                      "interp" : "linr"
                                    }
                                  },
                                  "effects" : [

                                  ],
                                  "start" : 1782,
                                  "duration" : 63,
                                  "mediaStart" : 1901,
                                  "mediaDuration" : 63,
                                  "scalar" : 1,
                                  "metadata" : {
                                    "AutoAppliedSmartFocus" : "False",
                                    "WinSubProjectDisplayName" : "",
                                    "clipSpeedAttribute" : false
                                  },
                                  "animationTracks" : {

                                  }
                                },
                                {
                                  "id" : 81,
                                  "_type" : "ScreenVMFile",
                                  "src" : 2,
                                  "trackNumber" : 0,
                                  "attributes" : {
                                    "ident" : "Rec 05-22-17 8"
                                  },
                                  "parameters" : {
                                    "cursorScale" : {
                                      "type" : "double",
                                      "defaultValue" : 0.0,
                                      "interp" : "linr"
                                    },
                                    "cursorOpacity" : {
                                      "type" : "double",
                                      "defaultValue" : 0.0,
                                      "interp" : "linr"
                                    }
                                  },
                                  "effects" : [

                                  ],
                                  "start" : 1845,
                                  "duration" : 8,
                                  "mediaStart" : 2083,
                                  "mediaDuration" : 8,
                                  "scalar" : 1,
                                  "metadata" : {
                                    "AutoAppliedSmartFocus" : "False",
                                    "WinSubProjectDisplayName" : "",
                                    "clipSpeedAttribute" : false
                                  },
                                  "animationTracks" : {

                                  }
                                },
                                {
                                  "id" : 82,
                                  "_type" : "ScreenVMFile",
                                  "src" : 2,
                                  "trackNumber" : 0,
                                  "attributes" : {
                                    "ident" : "Rec 05-22-17 8"
                                  },
                                  "parameters" : {
                                    "cursorScale" : {
                                      "type" : "double",
                                      "defaultValue" : 0.0,
                                      "interp" : "linr"
                                    },
                                    "cursorOpacity" : {
                                      "type" : "double",
                                      "defaultValue" : 0.0,
                                      "interp" : "linr"
                                    }
                                  },
                                  "effects" : [

                                  ],
                                  "start" : 1853,
                                  "duration" : 3174,
                                  "mediaStart" : 2143,
                                  "mediaDuration" : 3174,
                                  "scalar" : 1,
                                  "metadata" : {
                                    "AutoAppliedSmartFocus" : "False",
                                    "WinSubProjectDisplayName" : "",
                                    "clipSpeedAttribute" : false
                                  },
                                  "animationTracks" : {

                                  }
                                }
                            ],
                            "effects" : [
                                {
                                  "effectName" : "CursorHilight",
                                  "parameters" : {
                                    "blur" : 0.1,
                                    "color-alpha" : 0.75,
                                    "color-blue" : 0.0,
                                    "color-green" : 1.0,
                                    "color-red" : 1.0,
                                    "radius" : 50.0
                                  },
                                  "start" : 0,
                                  "duration" : 1666
                                }
                            ],
                            "start" : 995,
                            "duration" : 92,
                            "mediaStart" : 1397,
                            "mediaDuration" : 278,
                            "scalar" : "46/139",
                            "metadata" : {
                              "AutoAppliedSmartFocus" : "False",
                              "WinSubProjectDisplayName" : "",
                              "clipSpeedAttribute" : true
                            },
                            "animationTracks" : {
                              "visual" : [
                                {
                                  "range" : [ "79969/46", "1668/23"]
                                }
                              ]
                            }
                          },
                          {
                            "id" : 83,
                            "_type" : "StitchedMedia",
                            "minMediaStart" : 0,
                            "attributes" : {
                              "ident" : "Rec 05-22-17 8",
                              "gain" : 1.0,
                              "mixToMono" : false
                            },
                            "parameters" : {
                              "translation0" : {
                                "type" : "double",
                                "defaultValue" : -760.075217390135,
                                "keyframes" : [
                                  {
                                    "time" : "79969/46",
                                    "value" : 16.9247151890499,
                                    "duration" : "1668/23"
                                  }
                                ]
                              },
                              "translation1" : {
                                "type" : "double",
                                "defaultValue" : 386.306584134988,
                                "keyframes" : [
                                  {
                                    "time" : "79969/46",
                                    "value" : -12.6933744750955,
                                    "duration" : "1668/23"
                                  }
                                ]
                              },
                              "scale0" : {
                                "type" : "double",
                                "defaultValue" : 0.572792362768496,
                                "keyframes" : [
                                  {
                                    "time" : "79969/46",
                                    "value" : 1.49999991954574,
                                    "duration" : "1668/23"
                                  }
                                ]
                              },
                              "scale1" : {
                                "type" : "double",
                                "defaultValue" : 0.572792362768496,
                                "keyframes" : [
                                  {
                                    "time" : "79969/46",
                                    "value" : 1.49999991820163,
                                    "duration" : "1668/23"
                                  }
                                ]
                              },
                              "cursorOpacity" : 1.0,
                              "cursorScale" : 1.0
                            },
                            "medias" : [
                                {
                                  "id" : 84,
                                  "_type" : "ScreenVMFile",
                                  "src" : 2,
                                  "trackNumber" : 0,
                                  "attributes" : {
                                    "ident" : "Rec 05-22-17 8"
                                  },
                                  "parameters" : {
                                    "cursorScale" : {
                                      "type" : "double",
                                      "defaultValue" : 0.0,
                                      "interp" : "linr"
                                    },
                                    "cursorOpacity" : {
                                      "type" : "double",
                                      "defaultValue" : 0.0,
                                      "interp" : "linr"
                                    }
                                  },
                                  "effects" : [

                                  ],
                                  "start" : 0,
                                  "duration" : 331,
                                  "mediaStart" : 0,
                                  "mediaDuration" : 331,
                                  "scalar" : 1,
                                  "metadata" : {
                                    "AutoAppliedSmartFocus" : "False",
                                    "WinSubProjectDisplayName" : "",
                                    "clipSpeedAttribute" : false
                                  },
                                  "animationTracks" : {

                                  }
                                },
                                {
                                  "id" : 85,
                                  "_type" : "ScreenVMFile",
                                  "src" : 2,
                                  "trackNumber" : 0,
                                  "attributes" : {
                                    "ident" : "Rec 05-22-17 8"
                                  },
                                  "parameters" : {
                                    "cursorScale" : {
                                      "type" : "double",
                                      "defaultValue" : 0.0,
                                      "interp" : "linr"
                                    },
                                    "cursorOpacity" : {
                                      "type" : "double",
                                      "defaultValue" : 0.0,
                                      "interp" : "linr"
                                    }
                                  },
                                  "effects" : [

                                  ],
                                  "start" : 331,
                                  "duration" : 111,
                                  "mediaStart" : 331,
                                  "mediaDuration" : 111,
                                  "scalar" : 1,
                                  "metadata" : {
                                    "AutoAppliedSmartFocus" : "False",
                                    "WinSubProjectDisplayName" : "",
                                    "clipSpeedAttribute" : false
                                  },
                                  "animationTracks" : {

                                  }
                                },
                                {
                                  "id" : 86,
                                  "_type" : "ScreenVMFile",
                                  "src" : 2,
                                  "trackNumber" : 0,
                                  "attributes" : {
                                    "ident" : "Rec 05-22-17 8"
                                  },
                                  "parameters" : {
                                    "cursorScale" : {
                                      "type" : "double",
                                      "defaultValue" : 0.0,
                                      "interp" : "linr"
                                    },
                                    "cursorOpacity" : {
                                      "type" : "double",
                                      "defaultValue" : 0.0,
                                      "interp" : "linr"
                                    }
                                  },
                                  "effects" : [

                                  ],
                                  "start" : 442,
                                  "duration" : 524,
                                  "mediaStart" : 442,
                                  "mediaDuration" : 524,
                                  "scalar" : 1,
                                  "metadata" : {
                                    "AutoAppliedSmartFocus" : "False",
                                    "WinSubProjectDisplayName" : "",
                                    "clipSpeedAttribute" : false
                                  },
                                  "animationTracks" : {

                                  }
                                },
                                {
                                  "id" : 87,
                                  "_type" : "ScreenVMFile",
                                  "src" : 2,
                                  "trackNumber" : 0,
                                  "attributes" : {
                                    "ident" : "Rec 05-22-17 8"
                                  },
                                  "parameters" : {
                                    "cursorScale" : {
                                      "type" : "double",
                                      "defaultValue" : 0.0,
                                      "interp" : "linr"
                                    },
                                    "cursorOpacity" : {
                                      "type" : "double",
                                      "defaultValue" : 0.0,
                                      "interp" : "linr"
                                    }
                                  },
                                  "effects" : [

                                  ],
                                  "start" : 966,
                                  "duration" : 700,
                                  "mediaStart" : 1085,
                                  "mediaDuration" : 700,
                                  "scalar" : 1,
                                  "metadata" : {
                                    "AutoAppliedSmartFocus" : "False",
                                    "WinSubProjectDisplayName" : "",
                                    "clipSpeedAttribute" : false
                                  },
                                  "animationTracks" : {

                                  }
                                },
                                {
                                  "id" : 88,
                                  "_type" : "ScreenVMFile",
                                  "src" : 2,
                                  "trackNumber" : 0,
                                  "attributes" : {
                                    "ident" : "Rec 05-22-17 8"
                                  },
                                  "parameters" : {
                                    "cursorScale" : {
                                      "type" : "double",
                                      "defaultValue" : 0.0,
                                      "interp" : "linr"
                                    },
                                    "cursorOpacity" : {
                                      "type" : "double",
                                      "defaultValue" : 0.0,
                                      "interp" : "linr"
                                    }
                                  },
                                  "effects" : [

                                  ],
                                  "start" : 1666,
                                  "duration" : 104,
                                  "mediaStart" : 1785,
                                  "mediaDuration" : 104,
                                  "scalar" : 1,
                                  "metadata" : {
                                    "AutoAppliedSmartFocus" : "False",
                                    "WinSubProjectDisplayName" : "",
                                    "clipSpeedAttribute" : false
                                  },
                                  "animationTracks" : {

                                  }
                                },
                                {
                                  "id" : 89,
                                  "_type" : "ScreenVMFile",
                                  "src" : 2,
                                  "trackNumber" : 0,
                                  "attributes" : {
                                    "ident" : "Rec 05-22-17 8"
                                  },
                                  "parameters" : {
                                    "cursorScale" : {
                                      "type" : "double",
                                      "defaultValue" : 0.0,
                                      "interp" : "linr"
                                    },
                                    "cursorOpacity" : {
                                      "type" : "double",
                                      "defaultValue" : 0.0,
                                      "interp" : "linr"
                                    }
                                  },
                                  "effects" : [

                                  ],
                                  "start" : 1770,
                                  "duration" : 12,
                                  "mediaStart" : 1889,
                                  "mediaDuration" : 12,
                                  "scalar" : 1,
                                  "metadata" : {
                                    "AutoAppliedSmartFocus" : "False",
                                    "WinSubProjectDisplayName" : "",
                                    "clipSpeedAttribute" : false
                                  },
                                  "animationTracks" : {

                                  }
                                },
                                {
                                  "id" : 90,
                                  "_type" : "ScreenVMFile",
                                  "src" : 2,
                                  "trackNumber" : 0,
                                  "attributes" : {
                                    "ident" : "Rec 05-22-17 8"
                                  },
                                  "parameters" : {
                                    "cursorScale" : {
                                      "type" : "double",
                                      "defaultValue" : 0.0,
                                      "interp" : "linr"
                                    },
                                    "cursorOpacity" : {
                                      "type" : "double",
                                      "defaultValue" : 0.0,
                                      "interp" : "linr"
                                    }
                                  },
                                  "effects" : [

                                  ],
                                  "start" : 1782,
                                  "duration" : 63,
                                  "mediaStart" : 1901,
                                  "mediaDuration" : 63,
                                  "scalar" : 1,
                                  "metadata" : {
                                    "AutoAppliedSmartFocus" : "False",
                                    "WinSubProjectDisplayName" : "",
                                    "clipSpeedAttribute" : false
                                  },
                                  "animationTracks" : {

                                  }
                                },
                                {
                                  "id" : 91,
                                  "_type" : "ScreenVMFile",
                                  "src" : 2,
                                  "trackNumber" : 0,
                                  "attributes" : {
                                    "ident" : "Rec 05-22-17 8"
                                  },
                                  "parameters" : {
                                    "cursorScale" : {
                                      "type" : "double",
                                      "defaultValue" : 0.0,
                                      "interp" : "linr"
                                    },
                                    "cursorOpacity" : {
                                      "type" : "double",
                                      "defaultValue" : 0.0,
                                      "interp" : "linr"
                                    }
                                  },
                                  "effects" : [

                                  ],
                                  "start" : 1845,
                                  "duration" : 8,
                                  "mediaStart" : 2083,
                                  "mediaDuration" : 8,
                                  "scalar" : 1,
                                  "metadata" : {
                                    "AutoAppliedSmartFocus" : "False",
                                    "WinSubProjectDisplayName" : "",
                                    "clipSpeedAttribute" : false
                                  },
                                  "animationTracks" : {

                                  }
                                },
                                {
                                  "id" : 92,
                                  "_type" : "ScreenVMFile",
                                  "src" : 2,
                                  "trackNumber" : 0,
                                  "attributes" : {
                                    "ident" : "Rec 05-22-17 8"
                                  },
                                  "parameters" : {
                                    "cursorScale" : {
                                      "type" : "double",
                                      "defaultValue" : 0.0,
                                      "interp" : "linr"
                                    },
                                    "cursorOpacity" : {
                                      "type" : "double",
                                      "defaultValue" : 0.0,
                                      "interp" : "linr"
                                    }
                                  },
                                  "effects" : [

                                  ],
                                  "start" : 1853,
                                  "duration" : 3174,
                                  "mediaStart" : 2143,
                                  "mediaDuration" : 3174,
                                  "scalar" : 1,
                                  "metadata" : {
                                    "AutoAppliedSmartFocus" : "False",
                                    "WinSubProjectDisplayName" : "",
                                    "clipSpeedAttribute" : false
                                  },
                                  "animationTracks" : {

                                  }
                                }
                            ],
                            "effects" : [
                                {
                                  "effectName" : "CursorHilight",
                                  "parameters" : {
                                    "blur" : 0.1,
                                    "color-alpha" : 0.75,
                                    "color-blue" : 0.0,
                                    "color-green" : 1.0,
                                    "color-red" : 1.0,
                                    "radius" : 50.0
                                  },
                                  "start" : 0,
                                  "duration" : 1666
                                }
                            ],
                            "start" : 1087,
                            "duration" : 74,
                            "mediaStart" : "85529/46",
                            "mediaDuration" : "3475/23",
                            "scalar" : "1702/3475",
                            "metadata" : {
                              "AutoAppliedSmartFocus" : "False",
                              "WinSubProjectDisplayName" : "",
                              "clipSpeedAttribute" : true
                            },
                            "animationTracks" : {
                              "visual" : [
                                {
                                  "range" : [ "79969/46", "1668/23"]
                                }
                              ]
                            }
                          },
                          {
                            "id" : 93,
                            "_type" : "StitchedMedia",
                            "minMediaStart" : 0,
                            "attributes" : {
                              "ident" : "Rec 05-22-17 8",
                              "gain" : 1.0,
                              "mixToMono" : false
                            },
                            "parameters" : {
                              "translation0" : {
                                "type" : "double",
                                "defaultValue" : -760.075217390135,
                                "keyframes" : [
                                  {
                                    "time" : 1859,
                                    "value" : 16.9247151890499,
                                    "duration" : 30
                                  }
                                ]
                              },
                              "translation1" : {
                                "type" : "double",
                                "defaultValue" : 386.306584134988,
                                "keyframes" : [
                                  {
                                    "time" : 1859,
                                    "value" : -12.6933744750955,
                                    "duration" : 30
                                  }
                                ]
                              },
                              "scale0" : {
                                "type" : "double",
                                "defaultValue" : 0.572792362768496,
                                "keyframes" : [
                                  {
                                    "time" : 1859,
                                    "value" : 1.49999991954574,
                                    "duration" : 30
                                  }
                                ]
                              },
                              "scale1" : {
                                "type" : "double",
                                "defaultValue" : 0.572792362768496,
                                "keyframes" : [
                                  {
                                    "time" : 1859,
                                    "value" : 1.49999991820163,
                                    "duration" : 30
                                  }
                                ]
                              },
                              "cursorOpacity" : 1.0,
                              "cursorScale" : 1.0
                            },
                            "medias" : [
                                {
                                  "id" : 94,
                                  "_type" : "ScreenVMFile",
                                  "src" : 2,
                                  "trackNumber" : 0,
                                  "attributes" : {
                                    "ident" : "Rec 05-22-17 8"
                                  },
                                  "parameters" : {
                                    "cursorScale" : {
                                      "type" : "double",
                                      "defaultValue" : 0.0,
                                      "interp" : "linr"
                                    },
                                    "cursorOpacity" : {
                                      "type" : "double",
                                      "defaultValue" : 0.0,
                                      "interp" : "linr"
                                    }
                                  },
                                  "effects" : [

                                  ],
                                  "start" : 0,
                                  "duration" : 331,
                                  "mediaStart" : 0,
                                  "mediaDuration" : 331,
                                  "scalar" : 1,
                                  "metadata" : {
                                    "AutoAppliedSmartFocus" : "False",
                                    "WinSubProjectDisplayName" : "",
                                    "clipSpeedAttribute" : false
                                  },
                                  "animationTracks" : {

                                  }
                                },
                                {
                                  "id" : 95,
                                  "_type" : "ScreenVMFile",
                                  "src" : 2,
                                  "trackNumber" : 0,
                                  "attributes" : {
                                    "ident" : "Rec 05-22-17 8"
                                  },
                                  "parameters" : {
                                    "cursorScale" : {
                                      "type" : "double",
                                      "defaultValue" : 0.0,
                                      "interp" : "linr"
                                    },
                                    "cursorOpacity" : {
                                      "type" : "double",
                                      "defaultValue" : 0.0,
                                      "interp" : "linr"
                                    }
                                  },
                                  "effects" : [

                                  ],
                                  "start" : 331,
                                  "duration" : 111,
                                  "mediaStart" : 331,
                                  "mediaDuration" : 111,
                                  "scalar" : 1,
                                  "metadata" : {
                                    "AutoAppliedSmartFocus" : "False",
                                    "WinSubProjectDisplayName" : "",
                                    "clipSpeedAttribute" : false
                                  },
                                  "animationTracks" : {

                                  }
                                },
                                {
                                  "id" : 96,
                                  "_type" : "ScreenVMFile",
                                  "src" : 2,
                                  "trackNumber" : 0,
                                  "attributes" : {
                                    "ident" : "Rec 05-22-17 8"
                                  },
                                  "parameters" : {
                                    "cursorScale" : {
                                      "type" : "double",
                                      "defaultValue" : 0.0,
                                      "interp" : "linr"
                                    },
                                    "cursorOpacity" : {
                                      "type" : "double",
                                      "defaultValue" : 0.0,
                                      "interp" : "linr"
                                    }
                                  },
                                  "effects" : [

                                  ],
                                  "start" : 442,
                                  "duration" : 1459,
                                  "mediaStart" : 442,
                                  "mediaDuration" : 1459,
                                  "scalar" : 1,
                                  "metadata" : {
                                    "AutoAppliedSmartFocus" : "False",
                                    "WinSubProjectDisplayName" : "",
                                    "clipSpeedAttribute" : false
                                  },
                                  "animationTracks" : {

                                  }
                                },
                                {
                                  "id" : 97,
                                  "_type" : "ScreenVMFile",
                                  "src" : 2,
                                  "trackNumber" : 0,
                                  "attributes" : {
                                    "ident" : "Rec 05-22-17 8"
                                  },
                                  "parameters" : {
                                    "cursorScale" : {
                                      "type" : "double",
                                      "defaultValue" : 0.0,
                                      "interp" : "linr"
                                    },
                                    "cursorOpacity" : {
                                      "type" : "double",
                                      "defaultValue" : 0.0,
                                      "interp" : "linr"
                                    }
                                  },
                                  "effects" : [

                                  ],
                                  "start" : 1901,
                                  "duration" : 63,
                                  "mediaStart" : 1901,
                                  "mediaDuration" : 63,
                                  "scalar" : 1,
                                  "metadata" : {
                                    "AutoAppliedSmartFocus" : "False",
                                    "WinSubProjectDisplayName" : "",
                                    "clipSpeedAttribute" : false
                                  },
                                  "animationTracks" : {

                                  }
                                },
                                {
                                  "id" : 98,
                                  "_type" : "ScreenVMFile",
                                  "src" : 2,
                                  "trackNumber" : 0,
                                  "attributes" : {
                                    "ident" : "Rec 05-22-17 8"
                                  },
                                  "parameters" : {
                                    "cursorScale" : {
                                      "type" : "double",
                                      "defaultValue" : 0.0,
                                      "interp" : "linr"
                                    },
                                    "cursorOpacity" : {
                                      "type" : "double",
                                      "defaultValue" : 0.0,
                                      "interp" : "linr"
                                    }
                                  },
                                  "effects" : [

                                  ],
                                  "start" : 1964,
                                  "duration" : 8,
                                  "mediaStart" : 2083,
                                  "mediaDuration" : 8,
                                  "scalar" : 1,
                                  "metadata" : {
                                    "AutoAppliedSmartFocus" : "False",
                                    "WinSubProjectDisplayName" : "",
                                    "clipSpeedAttribute" : false
                                  },
                                  "animationTracks" : {

                                  }
                                },
                                {
                                  "id" : 99,
                                  "_type" : "ScreenVMFile",
                                  "src" : 2,
                                  "trackNumber" : 0,
                                  "attributes" : {
                                    "ident" : "Rec 05-22-17 8"
                                  },
                                  "parameters" : {
                                    "cursorScale" : {
                                      "type" : "double",
                                      "defaultValue" : 0.0,
                                      "interp" : "linr"
                                    },
                                    "cursorOpacity" : {
                                      "type" : "double",
                                      "defaultValue" : 0.0,
                                      "interp" : "linr"
                                    }
                                  },
                                  "effects" : [

                                  ],
                                  "start" : 1972,
                                  "duration" : 3174,
                                  "mediaStart" : 2143,
                                  "mediaDuration" : 3174,
                                  "scalar" : 1,
                                  "metadata" : {
                                    "AutoAppliedSmartFocus" : "False",
                                    "WinSubProjectDisplayName" : "",
                                    "clipSpeedAttribute" : false
                                  },
                                  "animationTracks" : {

                                  }
                                }
                            ],
                            "effects" : [

                            ],
                            "start" : 1161,
                            "duration" : 299,
                            "mediaStart" : 2072,
                            "mediaDuration" : 299,
                            "scalar" : 1,
                            "metadata" : {
                              "AutoAppliedSmartFocus" : "False",
                              "WinSubProjectDisplayName" : "",
                              "clipSpeedAttribute" : false
                            },
                            "animationTracks" : {
                              "visual" : [
                                {
                                  "range" : [ 1859, 30]
                                }
                              ]
                            }
                          },
                          {
                            "id" : 100,
                            "_type" : "StitchedMedia",
                            "minMediaStart" : 0,
                            "attributes" : {
                              "ident" : "Rec 05-22-17 8",
                              "gain" : 1.0,
                              "mixToMono" : false
                            },
                            "parameters" : {
                              "translation0" : {
                                "type" : "double",
                                "defaultValue" : -760.075217390135,
                                "keyframes" : [
                                  {
                                    "time" : 1859,
                                    "value" : 16.9247151890499,
                                    "duration" : 30
                                  }
                                ]
                              },
                              "translation1" : {
                                "type" : "double",
                                "defaultValue" : 386.306584134988,
                                "keyframes" : [
                                  {
                                    "time" : 1859,
                                    "value" : -12.6933744750955,
                                    "duration" : 30
                                  }
                                ]
                              },
                              "scale0" : {
                                "type" : "double",
                                "defaultValue" : 0.572792362768496,
                                "keyframes" : [
                                  {
                                    "time" : 1859,
                                    "value" : 1.49999991954574,
                                    "duration" : 30
                                  }
                                ]
                              },
                              "scale1" : {
                                "type" : "double",
                                "defaultValue" : 0.572792362768496,
                                "keyframes" : [
                                  {
                                    "time" : 1859,
                                    "value" : 1.49999991820163,
                                    "duration" : 30
                                  }
                                ]
                              },
                              "cursorOpacity" : 1.0,
                              "cursorScale" : 1.0
                            },
                            "medias" : [
                                {
                                  "id" : 101,
                                  "_type" : "ScreenVMFile",
                                  "src" : 2,
                                  "trackNumber" : 0,
                                  "attributes" : {
                                    "ident" : "Rec 05-22-17 8"
                                  },
                                  "parameters" : {
                                    "cursorScale" : {
                                      "type" : "double",
                                      "defaultValue" : 0.0,
                                      "interp" : "linr"
                                    },
                                    "cursorOpacity" : {
                                      "type" : "double",
                                      "defaultValue" : 0.0,
                                      "interp" : "linr"
                                    }
                                  },
                                  "effects" : [

                                  ],
                                  "start" : 0,
                                  "duration" : 331,
                                  "mediaStart" : 0,
                                  "mediaDuration" : 331,
                                  "scalar" : 1,
                                  "metadata" : {
                                    "AutoAppliedSmartFocus" : "False",
                                    "WinSubProjectDisplayName" : "",
                                    "clipSpeedAttribute" : false
                                  },
                                  "animationTracks" : {

                                  }
                                },
                                {
                                  "id" : 102,
                                  "_type" : "ScreenVMFile",
                                  "src" : 2,
                                  "trackNumber" : 0,
                                  "attributes" : {
                                    "ident" : "Rec 05-22-17 8"
                                  },
                                  "parameters" : {
                                    "cursorScale" : {
                                      "type" : "double",
                                      "defaultValue" : 0.0,
                                      "interp" : "linr"
                                    },
                                    "cursorOpacity" : {
                                      "type" : "double",
                                      "defaultValue" : 0.0,
                                      "interp" : "linr"
                                    }
                                  },
                                  "effects" : [

                                  ],
                                  "start" : 331,
                                  "duration" : 111,
                                  "mediaStart" : 331,
                                  "mediaDuration" : 111,
                                  "scalar" : 1,
                                  "metadata" : {
                                    "AutoAppliedSmartFocus" : "False",
                                    "WinSubProjectDisplayName" : "",
                                    "clipSpeedAttribute" : false
                                  },
                                  "animationTracks" : {

                                  }
                                },
                                {
                                  "id" : 103,
                                  "_type" : "ScreenVMFile",
                                  "src" : 2,
                                  "trackNumber" : 0,
                                  "attributes" : {
                                    "ident" : "Rec 05-22-17 8"
                                  },
                                  "parameters" : {
                                    "cursorScale" : {
                                      "type" : "double",
                                      "defaultValue" : 0.0,
                                      "interp" : "linr"
                                    },
                                    "cursorOpacity" : {
                                      "type" : "double",
                                      "defaultValue" : 0.0,
                                      "interp" : "linr"
                                    }
                                  },
                                  "effects" : [

                                  ],
                                  "start" : 442,
                                  "duration" : 1459,
                                  "mediaStart" : 442,
                                  "mediaDuration" : 1459,
                                  "scalar" : 1,
                                  "metadata" : {
                                    "AutoAppliedSmartFocus" : "False",
                                    "WinSubProjectDisplayName" : "",
                                    "clipSpeedAttribute" : false
                                  },
                                  "animationTracks" : {

                                  }
                                },
                                {
                                  "id" : 104,
                                  "_type" : "ScreenVMFile",
                                  "src" : 2,
                                  "trackNumber" : 0,
                                  "attributes" : {
                                    "ident" : "Rec 05-22-17 8"
                                  },
                                  "parameters" : {
                                    "cursorScale" : {
                                      "type" : "double",
                                      "defaultValue" : 0.0,
                                      "interp" : "linr"
                                    },
                                    "cursorOpacity" : {
                                      "type" : "double",
                                      "defaultValue" : 0.0,
                                      "interp" : "linr"
                                    }
                                  },
                                  "effects" : [

                                  ],
                                  "start" : 1901,
                                  "duration" : 63,
                                  "mediaStart" : 1901,
                                  "mediaDuration" : 63,
                                  "scalar" : 1,
                                  "metadata" : {
                                    "AutoAppliedSmartFocus" : "False",
                                    "WinSubProjectDisplayName" : "",
                                    "clipSpeedAttribute" : false
                                  },
                                  "animationTracks" : {

                                  }
                                },
                                {
                                  "id" : 105,
                                  "_type" : "ScreenVMFile",
                                  "src" : 2,
                                  "trackNumber" : 0,
                                  "attributes" : {
                                    "ident" : "Rec 05-22-17 8"
                                  },
                                  "parameters" : {
                                    "cursorScale" : {
                                      "type" : "double",
                                      "defaultValue" : 0.0,
                                      "interp" : "linr"
                                    },
                                    "cursorOpacity" : {
                                      "type" : "double",
                                      "defaultValue" : 0.0,
                                      "interp" : "linr"
                                    }
                                  },
                                  "effects" : [

                                  ],
                                  "start" : 1964,
                                  "duration" : 8,
                                  "mediaStart" : 2083,
                                  "mediaDuration" : 8,
                                  "scalar" : 1,
                                  "metadata" : {
                                    "AutoAppliedSmartFocus" : "False",
                                    "WinSubProjectDisplayName" : "",
                                    "clipSpeedAttribute" : false
                                  },
                                  "animationTracks" : {

                                  }
                                },
                                {
                                  "id" : 106,
                                  "_type" : "ScreenVMFile",
                                  "src" : 2,
                                  "trackNumber" : 0,
                                  "attributes" : {
                                    "ident" : "Rec 05-22-17 8"
                                  },
                                  "parameters" : {
                                    "cursorScale" : {
                                      "type" : "double",
                                      "defaultValue" : 0.0,
                                      "interp" : "linr"
                                    },
                                    "cursorOpacity" : {
                                      "type" : "double",
                                      "defaultValue" : 0.0,
                                      "interp" : "linr"
                                    }
                                  },
                                  "effects" : [

                                  ],
                                  "start" : 1972,
                                  "duration" : 3174,
                                  "mediaStart" : 2143,
                                  "mediaDuration" : 3174,
                                  "scalar" : 1,
                                  "metadata" : {
                                    "AutoAppliedSmartFocus" : "False",
                                    "WinSubProjectDisplayName" : "",
                                    "clipSpeedAttribute" : false
                                  },
                                  "animationTracks" : {

                                  }
                                }
                            ],
                            "effects" : [

                            ],
                            "start" : 1460,
                            "duration" : 104,
                            "mediaStart" : 2482,
                            "mediaDuration" : 315,
                            "scalar" : "104/315",
                            "metadata" : {
                              "AutoAppliedSmartFocus" : "False",
                              "WinSubProjectDisplayName" : "",
                              "clipSpeedAttribute" : true
                            },
                            "animationTracks" : {
                              "visual" : [
                                {
                                  "range" : [ 1859, 30]
                                }
                              ]
                            }
                          },
                          {
                            "id" : 107,
                            "_type" : "StitchedMedia",
                            "minMediaStart" : 0,
                            "attributes" : {
                              "ident" : "Rec 05-22-17 8",
                              "gain" : 1.0,
                              "mixToMono" : false
                            },
                            "parameters" : {
                              "translation0" : {
                                "type" : "double",
                                "defaultValue" : -760.075217390135,
                                "keyframes" : [
                                  {
                                    "time" : 1859,
                                    "value" : 16.9247151890499,
                                    "duration" : 30
                                  }
                                ]
                              },
                              "translation1" : {
                                "type" : "double",
                                "defaultValue" : 386.306584134988,
                                "keyframes" : [
                                  {
                                    "time" : 1859,
                                    "value" : -12.6933744750955,
                                    "duration" : 30
                                  }
                                ]
                              },
                              "scale0" : {
                                "type" : "double",
                                "defaultValue" : 0.572792362768496,
                                "keyframes" : [
                                  {
                                    "time" : 1859,
                                    "value" : 1.49999991954574,
                                    "duration" : 30
                                  }
                                ]
                              },
                              "scale1" : {
                                "type" : "double",
                                "defaultValue" : 0.572792362768496,
                                "keyframes" : [
                                  {
                                    "time" : 1859,
                                    "value" : 1.49999991820163,
                                    "duration" : 30
                                  }
                                ]
                              },
                              "cursorOpacity" : 1.0,
                              "cursorScale" : 1.0
                            },
                            "medias" : [
                                {
                                  "id" : 108,
                                  "_type" : "ScreenVMFile",
                                  "src" : 2,
                                  "trackNumber" : 0,
                                  "attributes" : {
                                    "ident" : "Rec 05-22-17 8"
                                  },
                                  "parameters" : {
                                    "cursorScale" : {
                                      "type" : "double",
                                      "defaultValue" : 0.0,
                                      "interp" : "linr"
                                    },
                                    "cursorOpacity" : {
                                      "type" : "double",
                                      "defaultValue" : 0.0,
                                      "interp" : "linr"
                                    }
                                  },
                                  "effects" : [

                                  ],
                                  "start" : 0,
                                  "duration" : 331,
                                  "mediaStart" : 0,
                                  "mediaDuration" : 331,
                                  "scalar" : 1,
                                  "metadata" : {
                                    "AutoAppliedSmartFocus" : "False",
                                    "WinSubProjectDisplayName" : "",
                                    "clipSpeedAttribute" : false
                                  },
                                  "animationTracks" : {

                                  }
                                },
                                {
                                  "id" : 109,
                                  "_type" : "ScreenVMFile",
                                  "src" : 2,
                                  "trackNumber" : 0,
                                  "attributes" : {
                                    "ident" : "Rec 05-22-17 8"
                                  },
                                  "parameters" : {
                                    "cursorScale" : {
                                      "type" : "double",
                                      "defaultValue" : 0.0,
                                      "interp" : "linr"
                                    },
                                    "cursorOpacity" : {
                                      "type" : "double",
                                      "defaultValue" : 0.0,
                                      "interp" : "linr"
                                    }
                                  },
                                  "effects" : [

                                  ],
                                  "start" : 331,
                                  "duration" : 111,
                                  "mediaStart" : 331,
                                  "mediaDuration" : 111,
                                  "scalar" : 1,
                                  "metadata" : {
                                    "AutoAppliedSmartFocus" : "False",
                                    "WinSubProjectDisplayName" : "",
                                    "clipSpeedAttribute" : false
                                  },
                                  "animationTracks" : {

                                  }
                                },
                                {
                                  "id" : 110,
                                  "_type" : "ScreenVMFile",
                                  "src" : 2,
                                  "trackNumber" : 0,
                                  "attributes" : {
                                    "ident" : "Rec 05-22-17 8"
                                  },
                                  "parameters" : {
                                    "cursorScale" : {
                                      "type" : "double",
                                      "defaultValue" : 0.0,
                                      "interp" : "linr"
                                    },
                                    "cursorOpacity" : {
                                      "type" : "double",
                                      "defaultValue" : 0.0,
                                      "interp" : "linr"
                                    }
                                  },
                                  "effects" : [

                                  ],
                                  "start" : 442,
                                  "duration" : 1459,
                                  "mediaStart" : 442,
                                  "mediaDuration" : 1459,
                                  "scalar" : 1,
                                  "metadata" : {
                                    "AutoAppliedSmartFocus" : "False",
                                    "WinSubProjectDisplayName" : "",
                                    "clipSpeedAttribute" : false
                                  },
                                  "animationTracks" : {

                                  }
                                },
                                {
                                  "id" : 111,
                                  "_type" : "ScreenVMFile",
                                  "src" : 2,
                                  "trackNumber" : 0,
                                  "attributes" : {
                                    "ident" : "Rec 05-22-17 8"
                                  },
                                  "parameters" : {
                                    "cursorScale" : {
                                      "type" : "double",
                                      "defaultValue" : 0.0,
                                      "interp" : "linr"
                                    },
                                    "cursorOpacity" : {
                                      "type" : "double",
                                      "defaultValue" : 0.0,
                                      "interp" : "linr"
                                    }
                                  },
                                  "effects" : [

                                  ],
                                  "start" : 1901,
                                  "duration" : 63,
                                  "mediaStart" : 1901,
                                  "mediaDuration" : 63,
                                  "scalar" : 1,
                                  "metadata" : {
                                    "AutoAppliedSmartFocus" : "False",
                                    "WinSubProjectDisplayName" : "",
                                    "clipSpeedAttribute" : false
                                  },
                                  "animationTracks" : {

                                  }
                                },
                                {
                                  "id" : 112,
                                  "_type" : "ScreenVMFile",
                                  "src" : 2,
                                  "trackNumber" : 0,
                                  "attributes" : {
                                    "ident" : "Rec 05-22-17 8"
                                  },
                                  "parameters" : {
                                    "cursorScale" : {
                                      "type" : "double",
                                      "defaultValue" : 0.0,
                                      "interp" : "linr"
                                    },
                                    "cursorOpacity" : {
                                      "type" : "double",
                                      "defaultValue" : 0.0,
                                      "interp" : "linr"
                                    }
                                  },
                                  "effects" : [

                                  ],
                                  "start" : 1964,
                                  "duration" : 8,
                                  "mediaStart" : 2083,
                                  "mediaDuration" : 8,
                                  "scalar" : 1,
                                  "metadata" : {
                                    "AutoAppliedSmartFocus" : "False",
                                    "WinSubProjectDisplayName" : "",
                                    "clipSpeedAttribute" : false
                                  },
                                  "animationTracks" : {

                                  }
                                },
                                {
                                  "id" : 113,
                                  "_type" : "ScreenVMFile",
                                  "src" : 2,
                                  "trackNumber" : 0,
                                  "attributes" : {
                                    "ident" : "Rec 05-22-17 8"
                                  },
                                  "parameters" : {
                                    "cursorScale" : {
                                      "type" : "double",
                                      "defaultValue" : 0.0,
                                      "interp" : "linr"
                                    },
                                    "cursorOpacity" : {
                                      "type" : "double",
                                      "defaultValue" : 0.0,
                                      "interp" : "linr"
                                    }
                                  },
                                  "effects" : [

                                  ],
                                  "start" : 1972,
                                  "duration" : 3174,
                                  "mediaStart" : 2143,
                                  "mediaDuration" : 3174,
                                  "scalar" : 1,
                                  "metadata" : {
                                    "AutoAppliedSmartFocus" : "False",
                                    "WinSubProjectDisplayName" : "",
                                    "clipSpeedAttribute" : false
                                  },
                                  "animationTracks" : {

                                  }
                                }
                            ],
                            "effects" : [

                            ],
                            "start" : 1564,
                            "duration" : 30,
                            "mediaStart" : 2797,
                            "mediaDuration" : 30,
                            "scalar" : 1,
                            "metadata" : {
                              "AutoAppliedSmartFocus" : "False",
                              "WinSubProjectDisplayName" : "",
                              "clipSpeedAttribute" : false
                            },
                            "animationTracks" : {
                              "visual" : [
                                {
                                  "range" : [ 1859, 30]
                                }
                              ]
                            }
                          },
                          {
                            "id" : 114,
                            "_type" : "StitchedMedia",
                            "minMediaStart" : 0,
                            "attributes" : {
                              "ident" : "Rec 05-22-17 8",
                              "gain" : 1.0,
                              "mixToMono" : false
                            },
                            "parameters" : {
                              "translation0" : {
                                "type" : "double",
                                "defaultValue" : -760.075217390135,
                                "keyframes" : [
                                  {
                                    "time" : 1859,
                                    "value" : 16.9247151890499,
                                    "duration" : 30
                                  }
                                ]
                              },
                              "translation1" : {
                                "type" : "double",
                                "defaultValue" : 386.306584134988,
                                "keyframes" : [
                                  {
                                    "time" : 1859,
                                    "value" : -12.6933744750955,
                                    "duration" : 30
                                  }
                                ]
                              },
                              "scale0" : {
                                "type" : "double",
                                "defaultValue" : 0.572792362768496,
                                "keyframes" : [
                                  {
                                    "time" : 1859,
                                    "value" : 1.49999991954574,
                                    "duration" : 30
                                  }
                                ]
                              },
                              "scale1" : {
                                "type" : "double",
                                "defaultValue" : 0.572792362768496,
                                "keyframes" : [
                                  {
                                    "time" : 1859,
                                    "value" : 1.49999991820163,
                                    "duration" : 30
                                  }
                                ]
                              },
                              "cursorOpacity" : 1.0,
                              "cursorScale" : 1.0
                            },
                            "medias" : [
                                {
                                  "id" : 115,
                                  "_type" : "ScreenVMFile",
                                  "src" : 2,
                                  "trackNumber" : 0,
                                  "attributes" : {
                                    "ident" : "Rec 05-22-17 8"
                                  },
                                  "parameters" : {
                                    "cursorScale" : {
                                      "type" : "double",
                                      "defaultValue" : 0.0,
                                      "interp" : "linr"
                                    },
                                    "cursorOpacity" : {
                                      "type" : "double",
                                      "defaultValue" : 0.0,
                                      "interp" : "linr"
                                    }
                                  },
                                  "effects" : [

                                  ],
                                  "start" : 0,
                                  "duration" : 331,
                                  "mediaStart" : 0,
                                  "mediaDuration" : 331,
                                  "scalar" : 1,
                                  "metadata" : {
                                    "AutoAppliedSmartFocus" : "False",
                                    "WinSubProjectDisplayName" : "",
                                    "clipSpeedAttribute" : false
                                  },
                                  "animationTracks" : {

                                  }
                                },
                                {
                                  "id" : 116,
                                  "_type" : "ScreenVMFile",
                                  "src" : 2,
                                  "trackNumber" : 0,
                                  "attributes" : {
                                    "ident" : "Rec 05-22-17 8"
                                  },
                                  "parameters" : {
                                    "cursorScale" : {
                                      "type" : "double",
                                      "defaultValue" : 0.0,
                                      "interp" : "linr"
                                    },
                                    "cursorOpacity" : {
                                      "type" : "double",
                                      "defaultValue" : 0.0,
                                      "interp" : "linr"
                                    }
                                  },
                                  "effects" : [

                                  ],
                                  "start" : 331,
                                  "duration" : 111,
                                  "mediaStart" : 331,
                                  "mediaDuration" : 111,
                                  "scalar" : 1,
                                  "metadata" : {
                                    "AutoAppliedSmartFocus" : "False",
                                    "WinSubProjectDisplayName" : "",
                                    "clipSpeedAttribute" : false
                                  },
                                  "animationTracks" : {

                                  }
                                },
                                {
                                  "id" : 117,
                                  "_type" : "ScreenVMFile",
                                  "src" : 2,
                                  "trackNumber" : 0,
                                  "attributes" : {
                                    "ident" : "Rec 05-22-17 8"
                                  },
                                  "parameters" : {
                                    "cursorScale" : {
                                      "type" : "double",
                                      "defaultValue" : 0.0,
                                      "interp" : "linr"
                                    },
                                    "cursorOpacity" : {
                                      "type" : "double",
                                      "defaultValue" : 0.0,
                                      "interp" : "linr"
                                    }
                                  },
                                  "effects" : [

                                  ],
                                  "start" : 442,
                                  "duration" : 1459,
                                  "mediaStart" : 442,
                                  "mediaDuration" : 1459,
                                  "scalar" : 1,
                                  "metadata" : {
                                    "AutoAppliedSmartFocus" : "False",
                                    "WinSubProjectDisplayName" : "",
                                    "clipSpeedAttribute" : false
                                  },
                                  "animationTracks" : {

                                  }
                                },
                                {
                                  "id" : 118,
                                  "_type" : "ScreenVMFile",
                                  "src" : 2,
                                  "trackNumber" : 0,
                                  "attributes" : {
                                    "ident" : "Rec 05-22-17 8"
                                  },
                                  "parameters" : {
                                    "cursorScale" : {
                                      "type" : "double",
                                      "defaultValue" : 0.0,
                                      "interp" : "linr"
                                    },
                                    "cursorOpacity" : {
                                      "type" : "double",
                                      "defaultValue" : 0.0,
                                      "interp" : "linr"
                                    }
                                  },
                                  "effects" : [

                                  ],
                                  "start" : 1901,
                                  "duration" : 63,
                                  "mediaStart" : 1901,
                                  "mediaDuration" : 63,
                                  "scalar" : 1,
                                  "metadata" : {
                                    "AutoAppliedSmartFocus" : "False",
                                    "WinSubProjectDisplayName" : "",
                                    "clipSpeedAttribute" : false
                                  },
                                  "animationTracks" : {

                                  }
                                },
                                {
                                  "id" : 119,
                                  "_type" : "ScreenVMFile",
                                  "src" : 2,
                                  "trackNumber" : 0,
                                  "attributes" : {
                                    "ident" : "Rec 05-22-17 8"
                                  },
                                  "parameters" : {
                                    "cursorScale" : {
                                      "type" : "double",
                                      "defaultValue" : 0.0,
                                      "interp" : "linr"
                                    },
                                    "cursorOpacity" : {
                                      "type" : "double",
                                      "defaultValue" : 0.0,
                                      "interp" : "linr"
                                    }
                                  },
                                  "effects" : [

                                  ],
                                  "start" : 1964,
                                  "duration" : 8,
                                  "mediaStart" : 2083,
                                  "mediaDuration" : 8,
                                  "scalar" : 1,
                                  "metadata" : {
                                    "AutoAppliedSmartFocus" : "False",
                                    "WinSubProjectDisplayName" : "",
                                    "clipSpeedAttribute" : false
                                  },
                                  "animationTracks" : {

                                  }
                                },
                                {
                                  "id" : 120,
                                  "_type" : "ScreenVMFile",
                                  "src" : 2,
                                  "trackNumber" : 0,
                                  "attributes" : {
                                    "ident" : "Rec 05-22-17 8"
                                  },
                                  "parameters" : {
                                    "cursorScale" : {
                                      "type" : "double",
                                      "defaultValue" : 0.0,
                                      "interp" : "linr"
                                    },
                                    "cursorOpacity" : {
                                      "type" : "double",
                                      "defaultValue" : 0.0,
                                      "interp" : "linr"
                                    }
                                  },
                                  "effects" : [

                                  ],
                                  "start" : 1972,
                                  "duration" : 3174,
                                  "mediaStart" : 2143,
                                  "mediaDuration" : 3174,
                                  "scalar" : 1,
                                  "metadata" : {
                                    "AutoAppliedSmartFocus" : "False",
                                    "WinSubProjectDisplayName" : "",
                                    "clipSpeedAttribute" : false
                                  },
                                  "animationTracks" : {

                                  }
                                }
                            ],
                            "effects" : [

                            ],
                            "start" : 1594,
                            "duration" : 92,
                            "mediaStart" : 2960,
                            "mediaDuration" : 278,
                            "scalar" : "46/139",
                            "metadata" : {
                              "AutoAppliedSmartFocus" : "False",
                              "WinSubProjectDisplayName" : "",
                              "clipSpeedAttribute" : true
                            },
                            "animationTracks" : {
                              "visual" : [
                                {
                                  "range" : [ 1859, 30]
                                }
                              ]
                            }
                          },
                          {
                            "id" : 121,
                            "_type" : "StitchedMedia",
                            "minMediaStart" : 0,
                            "attributes" : {
                              "ident" : "Rec 05-22-17 8",
                              "gain" : 1.0,
                              "mixToMono" : false
                            },
                            "parameters" : {
                              "translation0" : {
                                "type" : "double",
                                "defaultValue" : -760.075217390135,
                                "keyframes" : [
                                  {
                                    "time" : 1859,
                                    "value" : 16.9247151890499,
                                    "duration" : 30
                                  }
                                ]
                              },
                              "translation1" : {
                                "type" : "double",
                                "defaultValue" : 386.306584134988,
                                "keyframes" : [
                                  {
                                    "time" : 1859,
                                    "value" : -12.6933744750955,
                                    "duration" : 30
                                  }
                                ]
                              },
                              "scale0" : {
                                "type" : "double",
                                "defaultValue" : 0.572792362768496,
                                "keyframes" : [
                                  {
                                    "time" : 1859,
                                    "value" : 1.49999991954574,
                                    "duration" : 30
                                  }
                                ]
                              },
                              "scale1" : {
                                "type" : "double",
                                "defaultValue" : 0.572792362768496,
                                "keyframes" : [
                                  {
                                    "time" : 1859,
                                    "value" : 1.49999991820163,
                                    "duration" : 30
                                  }
                                ]
                              },
                              "cursorOpacity" : 1.0,
                              "cursorScale" : 1.0
                            },
                            "medias" : [
                                {
                                  "id" : 122,
                                  "_type" : "ScreenVMFile",
                                  "src" : 2,
                                  "trackNumber" : 0,
                                  "attributes" : {
                                    "ident" : "Rec 05-22-17 8"
                                  },
                                  "parameters" : {
                                    "cursorScale" : {
                                      "type" : "double",
                                      "defaultValue" : 0.0,
                                      "interp" : "linr"
                                    },
                                    "cursorOpacity" : {
                                      "type" : "double",
                                      "defaultValue" : 0.0,
                                      "interp" : "linr"
                                    }
                                  },
                                  "effects" : [

                                  ],
                                  "start" : 0,
                                  "duration" : 331,
                                  "mediaStart" : 0,
                                  "mediaDuration" : 331,
                                  "scalar" : 1,
                                  "metadata" : {
                                    "AutoAppliedSmartFocus" : "False",
                                    "WinSubProjectDisplayName" : "",
                                    "clipSpeedAttribute" : false
                                  },
                                  "animationTracks" : {

                                  }
                                },
                                {
                                  "id" : 123,
                                  "_type" : "ScreenVMFile",
                                  "src" : 2,
                                  "trackNumber" : 0,
                                  "attributes" : {
                                    "ident" : "Rec 05-22-17 8"
                                  },
                                  "parameters" : {
                                    "cursorScale" : {
                                      "type" : "double",
                                      "defaultValue" : 0.0,
                                      "interp" : "linr"
                                    },
                                    "cursorOpacity" : {
                                      "type" : "double",
                                      "defaultValue" : 0.0,
                                      "interp" : "linr"
                                    }
                                  },
                                  "effects" : [

                                  ],
                                  "start" : 331,
                                  "duration" : 111,
                                  "mediaStart" : 331,
                                  "mediaDuration" : 111,
                                  "scalar" : 1,
                                  "metadata" : {
                                    "AutoAppliedSmartFocus" : "False",
                                    "WinSubProjectDisplayName" : "",
                                    "clipSpeedAttribute" : false
                                  },
                                  "animationTracks" : {

                                  }
                                },
                                {
                                  "id" : 124,
                                  "_type" : "ScreenVMFile",
                                  "src" : 2,
                                  "trackNumber" : 0,
                                  "attributes" : {
                                    "ident" : "Rec 05-22-17 8"
                                  },
                                  "parameters" : {
                                    "cursorScale" : {
                                      "type" : "double",
                                      "defaultValue" : 0.0,
                                      "interp" : "linr"
                                    },
                                    "cursorOpacity" : {
                                      "type" : "double",
                                      "defaultValue" : 0.0,
                                      "interp" : "linr"
                                    }
                                  },
                                  "effects" : [

                                  ],
                                  "start" : 442,
                                  "duration" : 1459,
                                  "mediaStart" : 442,
                                  "mediaDuration" : 1459,
                                  "scalar" : 1,
                                  "metadata" : {
                                    "AutoAppliedSmartFocus" : "False",
                                    "WinSubProjectDisplayName" : "",
                                    "clipSpeedAttribute" : false
                                  },
                                  "animationTracks" : {

                                  }
                                },
                                {
                                  "id" : 125,
                                  "_type" : "ScreenVMFile",
                                  "src" : 2,
                                  "trackNumber" : 0,
                                  "attributes" : {
                                    "ident" : "Rec 05-22-17 8"
                                  },
                                  "parameters" : {
                                    "cursorScale" : {
                                      "type" : "double",
                                      "defaultValue" : 0.0,
                                      "interp" : "linr"
                                    },
                                    "cursorOpacity" : {
                                      "type" : "double",
                                      "defaultValue" : 0.0,
                                      "interp" : "linr"
                                    }
                                  },
                                  "effects" : [

                                  ],
                                  "start" : 1901,
                                  "duration" : 63,
                                  "mediaStart" : 1901,
                                  "mediaDuration" : 63,
                                  "scalar" : 1,
                                  "metadata" : {
                                    "AutoAppliedSmartFocus" : "False",
                                    "WinSubProjectDisplayName" : "",
                                    "clipSpeedAttribute" : false
                                  },
                                  "animationTracks" : {

                                  }
                                },
                                {
                                  "id" : 126,
                                  "_type" : "ScreenVMFile",
                                  "src" : 2,
                                  "trackNumber" : 0,
                                  "attributes" : {
                                    "ident" : "Rec 05-22-17 8"
                                  },
                                  "parameters" : {
                                    "cursorScale" : {
                                      "type" : "double",
                                      "defaultValue" : 0.0,
                                      "interp" : "linr"
                                    },
                                    "cursorOpacity" : {
                                      "type" : "double",
                                      "defaultValue" : 0.0,
                                      "interp" : "linr"
                                    }
                                  },
                                  "effects" : [

                                  ],
                                  "start" : 1964,
                                  "duration" : 8,
                                  "mediaStart" : 2083,
                                  "mediaDuration" : 8,
                                  "scalar" : 1,
                                  "metadata" : {
                                    "AutoAppliedSmartFocus" : "False",
                                    "WinSubProjectDisplayName" : "",
                                    "clipSpeedAttribute" : false
                                  },
                                  "animationTracks" : {

                                  }
                                },
                                {
                                  "id" : 127,
                                  "_type" : "ScreenVMFile",
                                  "src" : 2,
                                  "trackNumber" : 0,
                                  "attributes" : {
                                    "ident" : "Rec 05-22-17 8"
                                  },
                                  "parameters" : {
                                    "cursorScale" : {
                                      "type" : "double",
                                      "defaultValue" : 0.0,
                                      "interp" : "linr"
                                    },
                                    "cursorOpacity" : {
                                      "type" : "double",
                                      "defaultValue" : 0.0,
                                      "interp" : "linr"
                                    }
                                  },
                                  "effects" : [

                                  ],
                                  "start" : 1972,
                                  "duration" : 3174,
                                  "mediaStart" : 2143,
                                  "mediaDuration" : 3174,
                                  "scalar" : 1,
                                  "metadata" : {
                                    "AutoAppliedSmartFocus" : "False",
                                    "WinSubProjectDisplayName" : "",
                                    "clipSpeedAttribute" : false
                                  },
                                  "animationTracks" : {

                                  }
                                }
                            ],
                            "effects" : [

                            ],
                            "start" : 1686,
                            "duration" : 116,
                            "mediaStart" : 3238,
                            "mediaDuration" : 116,
                            "scalar" : 1,
                            "metadata" : {
                              "AutoAppliedSmartFocus" : "False",
                              "WinSubProjectDisplayName" : "",
                              "clipSpeedAttribute" : false
                            },
                            "animationTracks" : {
                              "visual" : [
                                {
                                  "range" : [ 1859, 30]
                                }
                              ]
                            }
                          },
                          {
                            "id" : 128,
                            "_type" : "StitchedMedia",
                            "minMediaStart" : 0,
                            "attributes" : {
                              "ident" : "Rec 05-22-17 8",
                              "gain" : 1.0,
                              "mixToMono" : false
                            },
                            "parameters" : {
                              "translation0" : {
                                "type" : "double",
                                "defaultValue" : -760.075217390135,
                                "keyframes" : [
                                  {
                                    "time" : 1859,
                                    "value" : 16.9247151890499,
                                    "duration" : 30
                                  }
                                ]
                              },
                              "translation1" : {
                                "type" : "double",
                                "defaultValue" : 386.306584134988,
                                "keyframes" : [
                                  {
                                    "time" : 1859,
                                    "value" : -12.6933744750955,
                                    "duration" : 30
                                  }
                                ]
                              },
                              "scale0" : {
                                "type" : "double",
                                "defaultValue" : 0.572792362768496,
                                "keyframes" : [
                                  {
                                    "time" : 1859,
                                    "value" : 1.49999991954574,
                                    "duration" : 30
                                  }
                                ]
                              },
                              "scale1" : {
                                "type" : "double",
                                "defaultValue" : 0.572792362768496,
                                "keyframes" : [
                                  {
                                    "time" : 1859,
                                    "value" : 1.49999991820163,
                                    "duration" : 30
                                  }
                                ]
                              },
                              "cursorOpacity" : 1.0,
                              "cursorScale" : 1.0
                            },
                            "medias" : [
                                {
                                  "id" : 129,
                                  "_type" : "ScreenVMFile",
                                  "src" : 2,
                                  "trackNumber" : 0,
                                  "attributes" : {
                                    "ident" : "Rec 05-22-17 8"
                                  },
                                  "parameters" : {
                                    "cursorScale" : {
                                      "type" : "double",
                                      "defaultValue" : 0.0,
                                      "interp" : "linr"
                                    },
                                    "cursorOpacity" : {
                                      "type" : "double",
                                      "defaultValue" : 0.0,
                                      "interp" : "linr"
                                    }
                                  },
                                  "effects" : [

                                  ],
                                  "start" : 0,
                                  "duration" : 331,
                                  "mediaStart" : 0,
                                  "mediaDuration" : 331,
                                  "scalar" : 1,
                                  "metadata" : {
                                    "AutoAppliedSmartFocus" : "False",
                                    "WinSubProjectDisplayName" : "",
                                    "clipSpeedAttribute" : false
                                  },
                                  "animationTracks" : {

                                  }
                                },
                                {
                                  "id" : 130,
                                  "_type" : "ScreenVMFile",
                                  "src" : 2,
                                  "trackNumber" : 0,
                                  "attributes" : {
                                    "ident" : "Rec 05-22-17 8"
                                  },
                                  "parameters" : {
                                    "cursorScale" : {
                                      "type" : "double",
                                      "defaultValue" : 0.0,
                                      "interp" : "linr"
                                    },
                                    "cursorOpacity" : {
                                      "type" : "double",
                                      "defaultValue" : 0.0,
                                      "interp" : "linr"
                                    }
                                  },
                                  "effects" : [

                                  ],
                                  "start" : 331,
                                  "duration" : 111,
                                  "mediaStart" : 331,
                                  "mediaDuration" : 111,
                                  "scalar" : 1,
                                  "metadata" : {
                                    "AutoAppliedSmartFocus" : "False",
                                    "WinSubProjectDisplayName" : "",
                                    "clipSpeedAttribute" : false
                                  },
                                  "animationTracks" : {

                                  }
                                },
                                {
                                  "id" : 131,
                                  "_type" : "ScreenVMFile",
                                  "src" : 2,
                                  "trackNumber" : 0,
                                  "attributes" : {
                                    "ident" : "Rec 05-22-17 8"
                                  },
                                  "parameters" : {
                                    "cursorScale" : {
                                      "type" : "double",
                                      "defaultValue" : 0.0,
                                      "interp" : "linr"
                                    },
                                    "cursorOpacity" : {
                                      "type" : "double",
                                      "defaultValue" : 0.0,
                                      "interp" : "linr"
                                    }
                                  },
                                  "effects" : [

                                  ],
                                  "start" : 442,
                                  "duration" : 1459,
                                  "mediaStart" : 442,
                                  "mediaDuration" : 1459,
                                  "scalar" : 1,
                                  "metadata" : {
                                    "AutoAppliedSmartFocus" : "False",
                                    "WinSubProjectDisplayName" : "",
                                    "clipSpeedAttribute" : false
                                  },
                                  "animationTracks" : {

                                  }
                                },
                                {
                                  "id" : 132,
                                  "_type" : "ScreenVMFile",
                                  "src" : 2,
                                  "trackNumber" : 0,
                                  "attributes" : {
                                    "ident" : "Rec 05-22-17 8"
                                  },
                                  "parameters" : {
                                    "cursorScale" : {
                                      "type" : "double",
                                      "defaultValue" : 0.0,
                                      "interp" : "linr"
                                    },
                                    "cursorOpacity" : {
                                      "type" : "double",
                                      "defaultValue" : 0.0,
                                      "interp" : "linr"
                                    }
                                  },
                                  "effects" : [

                                  ],
                                  "start" : 1901,
                                  "duration" : 63,
                                  "mediaStart" : 1901,
                                  "mediaDuration" : 63,
                                  "scalar" : 1,
                                  "metadata" : {
                                    "AutoAppliedSmartFocus" : "False",
                                    "WinSubProjectDisplayName" : "",
                                    "clipSpeedAttribute" : false
                                  },
                                  "animationTracks" : {

                                  }
                                },
                                {
                                  "id" : 133,
                                  "_type" : "ScreenVMFile",
                                  "src" : 2,
                                  "trackNumber" : 0,
                                  "attributes" : {
                                    "ident" : "Rec 05-22-17 8"
                                  },
                                  "parameters" : {
                                    "cursorScale" : {
                                      "type" : "double",
                                      "defaultValue" : 0.0,
                                      "interp" : "linr"
                                    },
                                    "cursorOpacity" : {
                                      "type" : "double",
                                      "defaultValue" : 0.0,
                                      "interp" : "linr"
                                    }
                                  },
                                  "effects" : [

                                  ],
                                  "start" : 1964,
                                  "duration" : 8,
                                  "mediaStart" : 2083,
                                  "mediaDuration" : 8,
                                  "scalar" : 1,
                                  "metadata" : {
                                    "AutoAppliedSmartFocus" : "False",
                                    "WinSubProjectDisplayName" : "",
                                    "clipSpeedAttribute" : false
                                  },
                                  "animationTracks" : {

                                  }
                                },
                                {
                                  "id" : 134,
                                  "_type" : "ScreenVMFile",
                                  "src" : 2,
                                  "trackNumber" : 0,
                                  "attributes" : {
                                    "ident" : "Rec 05-22-17 8"
                                  },
                                  "parameters" : {
                                    "cursorScale" : {
                                      "type" : "double",
                                      "defaultValue" : 0.0,
                                      "interp" : "linr"
                                    },
                                    "cursorOpacity" : {
                                      "type" : "double",
                                      "defaultValue" : 0.0,
                                      "interp" : "linr"
                                    }
                                  },
                                  "effects" : [

                                  ],
                                  "start" : 1972,
                                  "duration" : 3174,
                                  "mediaStart" : 2143,
                                  "mediaDuration" : 3174,
                                  "scalar" : 1,
                                  "metadata" : {
                                    "AutoAppliedSmartFocus" : "False",
                                    "WinSubProjectDisplayName" : "",
                                    "clipSpeedAttribute" : false
                                  },
                                  "animationTracks" : {

                                  }
                                }
                            ],
                            "effects" : [

                            ],
                            "start" : 1802,
                            "duration" : 61,
                            "mediaStart" : 3354,
                            "mediaDuration" : 184,
                            "scalar" : "61/184",
                            "metadata" : {
                              "AutoAppliedSmartFocus" : "False",
                              "WinSubProjectDisplayName" : "",
                              "clipSpeedAttribute" : true
                            },
                            "animationTracks" : {
                              "visual" : [
                                {
                                  "range" : [ 1859, 30]
                                }
                              ]
                            }
                          },
                          {
                            "id" : 135,
                            "_type" : "StitchedMedia",
                            "minMediaStart" : 0,
                            "attributes" : {
                              "ident" : "Rec 05-22-17 8",
                              "gain" : 1.0,
                              "mixToMono" : false
                            },
                            "parameters" : {
                              "translation0" : {
                                "type" : "double",
                                "defaultValue" : -760.075217390135,
                                "keyframes" : [
                                  {
                                    "time" : 1859,
                                    "value" : 16.9247151890499,
                                    "duration" : 30
                                  }
                                ]
                              },
                              "translation1" : {
                                "type" : "double",
                                "defaultValue" : 386.306584134988,
                                "keyframes" : [
                                  {
                                    "time" : 1859,
                                    "value" : -12.6933744750955,
                                    "duration" : 30
                                  }
                                ]
                              },
                              "scale0" : {
                                "type" : "double",
                                "defaultValue" : 0.572792362768496,
                                "keyframes" : [
                                  {
                                    "time" : 1859,
                                    "value" : 1.49999991954574,
                                    "duration" : 30
                                  }
                                ]
                              },
                              "scale1" : {
                                "type" : "double",
                                "defaultValue" : 0.572792362768496,
                                "keyframes" : [
                                  {
                                    "time" : 1859,
                                    "value" : 1.49999991820163,
                                    "duration" : 30
                                  }
                                ]
                              },
                              "cursorOpacity" : 1.0,
                              "cursorScale" : 1.0
                            },
                            "medias" : [
                                {
                                  "id" : 136,
                                  "_type" : "ScreenVMFile",
                                  "src" : 2,
                                  "trackNumber" : 0,
                                  "attributes" : {
                                    "ident" : "Rec 05-22-17 8"
                                  },
                                  "parameters" : {
                                    "cursorScale" : {
                                      "type" : "double",
                                      "defaultValue" : 0.0,
                                      "interp" : "linr"
                                    },
                                    "cursorOpacity" : {
                                      "type" : "double",
                                      "defaultValue" : 0.0,
                                      "interp" : "linr"
                                    }
                                  },
                                  "effects" : [

                                  ],
                                  "start" : 0,
                                  "duration" : 331,
                                  "mediaStart" : 0,
                                  "mediaDuration" : 331,
                                  "scalar" : 1,
                                  "metadata" : {
                                    "AutoAppliedSmartFocus" : "False",
                                    "WinSubProjectDisplayName" : "",
                                    "clipSpeedAttribute" : false
                                  },
                                  "animationTracks" : {

                                  }
                                },
                                {
                                  "id" : 137,
                                  "_type" : "ScreenVMFile",
                                  "src" : 2,
                                  "trackNumber" : 0,
                                  "attributes" : {
                                    "ident" : "Rec 05-22-17 8"
                                  },
                                  "parameters" : {
                                    "cursorScale" : {
                                      "type" : "double",
                                      "defaultValue" : 0.0,
                                      "interp" : "linr"
                                    },
                                    "cursorOpacity" : {
                                      "type" : "double",
                                      "defaultValue" : 0.0,
                                      "interp" : "linr"
                                    }
                                  },
                                  "effects" : [

                                  ],
                                  "start" : 331,
                                  "duration" : 111,
                                  "mediaStart" : 331,
                                  "mediaDuration" : 111,
                                  "scalar" : 1,
                                  "metadata" : {
                                    "AutoAppliedSmartFocus" : "False",
                                    "WinSubProjectDisplayName" : "",
                                    "clipSpeedAttribute" : false
                                  },
                                  "animationTracks" : {

                                  }
                                },
                                {
                                  "id" : 138,
                                  "_type" : "ScreenVMFile",
                                  "src" : 2,
                                  "trackNumber" : 0,
                                  "attributes" : {
                                    "ident" : "Rec 05-22-17 8"
                                  },
                                  "parameters" : {
                                    "cursorScale" : {
                                      "type" : "double",
                                      "defaultValue" : 0.0,
                                      "interp" : "linr"
                                    },
                                    "cursorOpacity" : {
                                      "type" : "double",
                                      "defaultValue" : 0.0,
                                      "interp" : "linr"
                                    }
                                  },
                                  "effects" : [

                                  ],
                                  "start" : 442,
                                  "duration" : 1459,
                                  "mediaStart" : 442,
                                  "mediaDuration" : 1459,
                                  "scalar" : 1,
                                  "metadata" : {
                                    "AutoAppliedSmartFocus" : "False",
                                    "WinSubProjectDisplayName" : "",
                                    "clipSpeedAttribute" : false
                                  },
                                  "animationTracks" : {

                                  }
                                },
                                {
                                  "id" : 139,
                                  "_type" : "ScreenVMFile",
                                  "src" : 2,
                                  "trackNumber" : 0,
                                  "attributes" : {
                                    "ident" : "Rec 05-22-17 8"
                                  },
                                  "parameters" : {
                                    "cursorScale" : {
                                      "type" : "double",
                                      "defaultValue" : 0.0,
                                      "interp" : "linr"
                                    },
                                    "cursorOpacity" : {
                                      "type" : "double",
                                      "defaultValue" : 0.0,
                                      "interp" : "linr"
                                    }
                                  },
                                  "effects" : [

                                  ],
                                  "start" : 1901,
                                  "duration" : 63,
                                  "mediaStart" : 1901,
                                  "mediaDuration" : 63,
                                  "scalar" : 1,
                                  "metadata" : {
                                    "AutoAppliedSmartFocus" : "False",
                                    "WinSubProjectDisplayName" : "",
                                    "clipSpeedAttribute" : false
                                  },
                                  "animationTracks" : {

                                  }
                                },
                                {
                                  "id" : 140,
                                  "_type" : "ScreenVMFile",
                                  "src" : 2,
                                  "trackNumber" : 0,
                                  "attributes" : {
                                    "ident" : "Rec 05-22-17 8"
                                  },
                                  "parameters" : {
                                    "cursorScale" : {
                                      "type" : "double",
                                      "defaultValue" : 0.0,
                                      "interp" : "linr"
                                    },
                                    "cursorOpacity" : {
                                      "type" : "double",
                                      "defaultValue" : 0.0,
                                      "interp" : "linr"
                                    }
                                  },
                                  "effects" : [

                                  ],
                                  "start" : 1964,
                                  "duration" : 8,
                                  "mediaStart" : 2083,
                                  "mediaDuration" : 8,
                                  "scalar" : 1,
                                  "metadata" : {
                                    "AutoAppliedSmartFocus" : "False",
                                    "WinSubProjectDisplayName" : "",
                                    "clipSpeedAttribute" : false
                                  },
                                  "animationTracks" : {

                                  }
                                },
                                {
                                  "id" : 141,
                                  "_type" : "ScreenVMFile",
                                  "src" : 2,
                                  "trackNumber" : 0,
                                  "attributes" : {
                                    "ident" : "Rec 05-22-17 8"
                                  },
                                  "parameters" : {
                                    "cursorScale" : {
                                      "type" : "double",
                                      "defaultValue" : 0.0,
                                      "interp" : "linr"
                                    },
                                    "cursorOpacity" : {
                                      "type" : "double",
                                      "defaultValue" : 0.0,
                                      "interp" : "linr"
                                    }
                                  },
                                  "effects" : [

                                  ],
                                  "start" : 1972,
                                  "duration" : 1933,
                                  "mediaStart" : 2143,
                                  "mediaDuration" : 1933,
                                  "scalar" : 1,
                                  "metadata" : {
                                    "AutoAppliedSmartFocus" : "False",
                                    "WinSubProjectDisplayName" : "",
                                    "clipSpeedAttribute" : false
                                  },
                                  "animationTracks" : {

                                  }
                                },
                                {
                                  "id" : 142,
                                  "_type" : "ScreenVMFile",
                                  "src" : 2,
                                  "trackNumber" : 0,
                                  "attributes" : {
                                    "ident" : "Rec 05-22-17 8"
                                  },
                                  "parameters" : {
                                    "cursorScale" : {
                                      "type" : "double",
                                      "defaultValue" : 0.0,
                                      "interp" : "linr"
                                    },
                                    "cursorOpacity" : {
                                      "type" : "double",
                                      "defaultValue" : 0.0,
                                      "interp" : "linr"
                                    }
                                  },
                                  "effects" : [

                                  ],
                                  "start" : 3905,
                                  "duration" : 1202,
                                  "mediaStart" : 4115,
                                  "mediaDuration" : 1202,
                                  "scalar" : 1,
                                  "metadata" : {
                                    "AutoAppliedSmartFocus" : "False",
                                    "WinSubProjectDisplayName" : "",
                                    "clipSpeedAttribute" : false
                                  },
                                  "animationTracks" : {

                                  }
                                }
                            ],
                            "effects" : [

                            ],
                            "start" : 1863,
                            "duration" : 409,
                            "mediaStart" : 3538,
                            "mediaDuration" : 409,
                            "scalar" : 1,
                            "metadata" : {
                              "AutoAppliedSmartFocus" : "False",
                              "WinSubProjectDisplayName" : "",
                              "clipSpeedAttribute" : false
                            },
                            "animationTracks" : {
                              "visual" : [
                                {
                                  "range" : [ 1859, 30]
                                }
                              ]
                            }
                          },
                          {
                            "id" : 143,
                            "_type" : "StitchedMedia",
                            "minMediaStart" : 0,
                            "attributes" : {
                              "ident" : "Rec 05-22-17 8",
                              "gain" : 1.0,
                              "mixToMono" : false
                            },
                            "parameters" : {
                              "translation0" : {
                                "type" : "double",
                                "defaultValue" : -760.075217390135,
                                "keyframes" : [
                                  {
                                    "time" : 1859,
                                    "value" : 16.9247151890499,
                                    "duration" : 30
                                  }
                                ]
                              },
                              "translation1" : {
                                "type" : "double",
                                "defaultValue" : 386.306584134988,
                                "keyframes" : [
                                  {
                                    "time" : 1859,
                                    "value" : -12.6933744750955,
                                    "duration" : 30
                                  }
                                ]
                              },
                              "scale0" : {
                                "type" : "double",
                                "defaultValue" : 0.572792362768496,
                                "keyframes" : [
                                  {
                                    "time" : 1859,
                                    "value" : 1.49999991954574,
                                    "duration" : 30
                                  }
                                ]
                              },
                              "scale1" : {
                                "type" : "double",
                                "defaultValue" : 0.572792362768496,
                                "keyframes" : [
                                  {
                                    "time" : 1859,
                                    "value" : 1.49999991820163,
                                    "duration" : 30
                                  }
                                ]
                              },
                              "cursorOpacity" : 1.0,
                              "cursorScale" : 1.0
                            },
                            "medias" : [
                                {
                                  "id" : 144,
                                  "_type" : "ScreenVMFile",
                                  "src" : 2,
                                  "trackNumber" : 0,
                                  "attributes" : {
                                    "ident" : "Rec 05-22-17 8"
                                  },
                                  "parameters" : {
                                    "cursorScale" : {
                                      "type" : "double",
                                      "defaultValue" : 0.0,
                                      "interp" : "linr"
                                    },
                                    "cursorOpacity" : {
                                      "type" : "double",
                                      "defaultValue" : 0.0,
                                      "interp" : "linr"
                                    }
                                  },
                                  "effects" : [

                                  ],
                                  "start" : 0,
                                  "duration" : 331,
                                  "mediaStart" : 0,
                                  "mediaDuration" : 331,
                                  "scalar" : 1,
                                  "metadata" : {
                                    "AutoAppliedSmartFocus" : "False",
                                    "WinSubProjectDisplayName" : "",
                                    "clipSpeedAttribute" : false
                                  },
                                  "animationTracks" : {

                                  }
                                },
                                {
                                  "id" : 145,
                                  "_type" : "ScreenVMFile",
                                  "src" : 2,
                                  "trackNumber" : 0,
                                  "attributes" : {
                                    "ident" : "Rec 05-22-17 8"
                                  },
                                  "parameters" : {
                                    "cursorScale" : {
                                      "type" : "double",
                                      "defaultValue" : 0.0,
                                      "interp" : "linr"
                                    },
                                    "cursorOpacity" : {
                                      "type" : "double",
                                      "defaultValue" : 0.0,
                                      "interp" : "linr"
                                    }
                                  },
                                  "effects" : [

                                  ],
                                  "start" : 331,
                                  "duration" : 111,
                                  "mediaStart" : 331,
                                  "mediaDuration" : 111,
                                  "scalar" : 1,
                                  "metadata" : {
                                    "AutoAppliedSmartFocus" : "False",
                                    "WinSubProjectDisplayName" : "",
                                    "clipSpeedAttribute" : false
                                  },
                                  "animationTracks" : {

                                  }
                                },
                                {
                                  "id" : 146,
                                  "_type" : "ScreenVMFile",
                                  "src" : 2,
                                  "trackNumber" : 0,
                                  "attributes" : {
                                    "ident" : "Rec 05-22-17 8"
                                  },
                                  "parameters" : {
                                    "cursorScale" : {
                                      "type" : "double",
                                      "defaultValue" : 0.0,
                                      "interp" : "linr"
                                    },
                                    "cursorOpacity" : {
                                      "type" : "double",
                                      "defaultValue" : 0.0,
                                      "interp" : "linr"
                                    }
                                  },
                                  "effects" : [

                                  ],
                                  "start" : 442,
                                  "duration" : 1459,
                                  "mediaStart" : 442,
                                  "mediaDuration" : 1459,
                                  "scalar" : 1,
                                  "metadata" : {
                                    "AutoAppliedSmartFocus" : "False",
                                    "WinSubProjectDisplayName" : "",
                                    "clipSpeedAttribute" : false
                                  },
                                  "animationTracks" : {

                                  }
                                },
                                {
                                  "id" : 147,
                                  "_type" : "ScreenVMFile",
                                  "src" : 2,
                                  "trackNumber" : 0,
                                  "attributes" : {
                                    "ident" : "Rec 05-22-17 8"
                                  },
                                  "parameters" : {
                                    "cursorScale" : {
                                      "type" : "double",
                                      "defaultValue" : 0.0,
                                      "interp" : "linr"
                                    },
                                    "cursorOpacity" : {
                                      "type" : "double",
                                      "defaultValue" : 0.0,
                                      "interp" : "linr"
                                    }
                                  },
                                  "effects" : [

                                  ],
                                  "start" : 1901,
                                  "duration" : 63,
                                  "mediaStart" : 1901,
                                  "mediaDuration" : 63,
                                  "scalar" : 1,
                                  "metadata" : {
                                    "AutoAppliedSmartFocus" : "False",
                                    "WinSubProjectDisplayName" : "",
                                    "clipSpeedAttribute" : false
                                  },
                                  "animationTracks" : {

                                  }
                                },
                                {
                                  "id" : 148,
                                  "_type" : "ScreenVMFile",
                                  "src" : 2,
                                  "trackNumber" : 0,
                                  "attributes" : {
                                    "ident" : "Rec 05-22-17 8"
                                  },
                                  "parameters" : {
                                    "cursorScale" : {
                                      "type" : "double",
                                      "defaultValue" : 0.0,
                                      "interp" : "linr"
                                    },
                                    "cursorOpacity" : {
                                      "type" : "double",
                                      "defaultValue" : 0.0,
                                      "interp" : "linr"
                                    }
                                  },
                                  "effects" : [

                                  ],
                                  "start" : 1964,
                                  "duration" : 8,
                                  "mediaStart" : 2083,
                                  "mediaDuration" : 8,
                                  "scalar" : 1,
                                  "metadata" : {
                                    "AutoAppliedSmartFocus" : "False",
                                    "WinSubProjectDisplayName" : "",
                                    "clipSpeedAttribute" : false
                                  },
                                  "animationTracks" : {

                                  }
                                },
                                {
                                  "id" : 149,
                                  "_type" : "ScreenVMFile",
                                  "src" : 2,
                                  "trackNumber" : 0,
                                  "attributes" : {
                                    "ident" : "Rec 05-22-17 8"
                                  },
                                  "parameters" : {
                                    "cursorScale" : {
                                      "type" : "double",
                                      "defaultValue" : 0.0,
                                      "interp" : "linr"
                                    },
                                    "cursorOpacity" : {
                                      "type" : "double",
                                      "defaultValue" : 0.0,
                                      "interp" : "linr"
                                    }
                                  },
                                  "effects" : [

                                  ],
                                  "start" : 1972,
                                  "duration" : 1933,
                                  "mediaStart" : 2143,
                                  "mediaDuration" : 1933,
                                  "scalar" : 1,
                                  "metadata" : {
                                    "AutoAppliedSmartFocus" : "False",
                                    "WinSubProjectDisplayName" : "",
                                    "clipSpeedAttribute" : false
                                  },
                                  "animationTracks" : {

                                  }
                                },
                                {
                                  "id" : 150,
                                  "_type" : "ScreenVMFile",
                                  "src" : 2,
                                  "trackNumber" : 0,
                                  "attributes" : {
                                    "ident" : "Rec 05-22-17 8"
                                  },
                                  "parameters" : {
                                    "cursorScale" : {
                                      "type" : "double",
                                      "defaultValue" : 0.0,
                                      "interp" : "linr"
                                    },
                                    "cursorOpacity" : {
                                      "type" : "double",
                                      "defaultValue" : 0.0,
                                      "interp" : "linr"
                                    }
                                  },
                                  "effects" : [

                                  ],
                                  "start" : 3905,
                                  "duration" : 1202,
                                  "mediaStart" : 4115,
                                  "mediaDuration" : 1202,
                                  "scalar" : 1,
                                  "metadata" : {
                                    "AutoAppliedSmartFocus" : "False",
                                    "WinSubProjectDisplayName" : "",
                                    "clipSpeedAttribute" : false
                                  },
                                  "animationTracks" : {

                                  }
                                }
                            ],
                            "effects" : [

                            ],
                            "start" : 2272,
                            "duration" : 204,
                            "mediaStart" : 4120,
                            "mediaDuration" : 204,
                            "scalar" : 1,
                            "metadata" : {
                              "AutoAppliedSmartFocus" : "False",
                              "WinSubProjectDisplayName" : "",
                              "clipSpeedAttribute" : false
                            },
                            "animationTracks" : {
                              "visual" : [
                                {
                                  "range" : [ 1859, 30]
                                }
                              ]
                            }
                          },
                          {
                            "id" : 151,
                            "_type" : "StitchedMedia",
                            "minMediaStart" : 0,
                            "attributes" : {
                              "ident" : "Rec 05-22-17 8",
                              "gain" : 1.0,
                              "mixToMono" : false
                            },
                            "parameters" : {
                              "translation0" : {
                                "type" : "double",
                                "defaultValue" : -760.075217390135,
                                "keyframes" : [
                                  {
                                    "time" : 1898,
                                    "value" : -21.0609504694,
                                    "duration" : 30
                                  },
                                  {
                                    "time" : 4543,
                                    "value" : -402.075085015679,
                                    "duration" : 30
                                  }
                                ]
                              },
                              "translation1" : {
                                "type" : "double",
                                "defaultValue" : 386.306584134988,
                                "keyframes" : [
                                  {
                                    "time" : 1898,
                                    "value" : 15.7957131915835,
                                    "duration" : 30
                                  },
                                  {
                                    "time" : 4543,
                                    "value" : 240.306458777621,
                                    "duration" : 30
                                  }
                                ]
                              },
                              "scale0" : {
                                "type" : "double",
                                "defaultValue" : 0.572792362768496,
                                "keyframes" : [
                                  {
                                    "time" : 1898,
                                    "value" : 1.49999989496849,
                                    "duration" : 30
                                  },
                                  {
                                    "time" : 4543,
                                    "value" : 1.00000015796483,
                                    "duration" : 30
                                  }
                                ]
                              },
                              "scale1" : {
                                "type" : "double",
                                "defaultValue" : 0.572792362768496,
                                "keyframes" : [
                                  {
                                    "time" : 1898,
                                    "value" : 1.50000025634002,
                                    "duration" : 30
                                  },
                                  {
                                    "time" : 4543,
                                    "value" : 1.00000024774203,
                                    "duration" : 30
                                  }
                                ]
                              },
                              "cursorOpacity" : 1.0,
                              "cursorScale" : 1.0
                            },
                            "medias" : [
                                {
                                  "id" : 152,
                                  "_type" : "ScreenVMFile",
                                  "src" : 2,
                                  "trackNumber" : 0,
                                  "attributes" : {
                                    "ident" : "Rec 05-22-17 8"
                                  },
                                  "parameters" : {
                                    "cursorScale" : {
                                      "type" : "double",
                                      "defaultValue" : 0.0,
                                      "interp" : "linr"
                                    },
                                    "cursorOpacity" : {
                                      "type" : "double",
                                      "defaultValue" : 0.0,
                                      "interp" : "linr"
                                    }
                                  },
                                  "effects" : [

                                  ],
                                  "start" : 0,
                                  "duration" : 331,
                                  "mediaStart" : 0,
                                  "mediaDuration" : 331,
                                  "scalar" : 1,
                                  "metadata" : {
                                    "AutoAppliedSmartFocus" : "False",
                                    "WinSubProjectDisplayName" : "",
                                    "clipSpeedAttribute" : false
                                  },
                                  "animationTracks" : {

                                  }
                                },
                                {
                                  "id" : 153,
                                  "_type" : "ScreenVMFile",
                                  "src" : 2,
                                  "trackNumber" : 0,
                                  "attributes" : {
                                    "ident" : "Rec 05-22-17 8"
                                  },
                                  "parameters" : {
                                    "cursorScale" : {
                                      "type" : "double",
                                      "defaultValue" : 0.0,
                                      "interp" : "linr"
                                    },
                                    "cursorOpacity" : {
                                      "type" : "double",
                                      "defaultValue" : 0.0,
                                      "interp" : "linr"
                                    }
                                  },
                                  "effects" : [

                                  ],
                                  "start" : 331,
                                  "duration" : 111,
                                  "mediaStart" : 331,
                                  "mediaDuration" : 111,
                                  "scalar" : 1,
                                  "metadata" : {
                                    "AutoAppliedSmartFocus" : "False",
                                    "WinSubProjectDisplayName" : "",
                                    "clipSpeedAttribute" : false
                                  },
                                  "animationTracks" : {

                                  }
                                },
                                {
                                  "id" : 154,
                                  "_type" : "ScreenVMFile",
                                  "src" : 2,
                                  "trackNumber" : 0,
                                  "attributes" : {
                                    "ident" : "Rec 05-22-17 8"
                                  },
                                  "parameters" : {
                                    "cursorScale" : {
                                      "type" : "double",
                                      "defaultValue" : 0.0,
                                      "interp" : "linr"
                                    },
                                    "cursorOpacity" : {
                                      "type" : "double",
                                      "defaultValue" : 0.0,
                                      "interp" : "linr"
                                    }
                                  },
                                  "effects" : [

                                  ],
                                  "start" : 442,
                                  "duration" : 1459,
                                  "mediaStart" : 442,
                                  "mediaDuration" : 1459,
                                  "scalar" : 1,
                                  "metadata" : {
                                    "AutoAppliedSmartFocus" : "False",
                                    "WinSubProjectDisplayName" : "",
                                    "clipSpeedAttribute" : false
                                  },
                                  "animationTracks" : {

                                  }
                                },
                                {
                                  "id" : 155,
                                  "_type" : "ScreenVMFile",
                                  "src" : 2,
                                  "trackNumber" : 0,
                                  "attributes" : {
                                    "ident" : "Rec 05-22-17 8"
                                  },
                                  "parameters" : {
                                    "cursorScale" : {
                                      "type" : "double",
                                      "defaultValue" : 0.0,
                                      "interp" : "linr"
                                    },
                                    "cursorOpacity" : {
                                      "type" : "double",
                                      "defaultValue" : 0.0,
                                      "interp" : "linr"
                                    }
                                  },
                                  "effects" : [

                                  ],
                                  "start" : 1901,
                                  "duration" : 3416,
                                  "mediaStart" : 1901,
                                  "mediaDuration" : 3416,
                                  "scalar" : 1,
                                  "metadata" : {
                                    "AutoAppliedSmartFocus" : "False",
                                    "WinSubProjectDisplayName" : "",
                                    "clipSpeedAttribute" : false
                                  },
                                  "animationTracks" : {

                                  }
                                }
                            ],
                            "effects" : [

                            ],
                            "start" : 2476,
                            "duration" : 94,
                            "mediaStart" : 4550,
                            "mediaDuration" : 94,
                            "scalar" : 1,
                            "metadata" : {
                              "AutoAppliedSmartFocus" : "False",
                              "WinSubProjectDisplayName" : "",
                              "clipSpeedAttribute" : false
                            },
                            "animationTracks" : {
                              "visual" : [
                                {
                                  "range" : [ 1898, 30]
                                },
                                {
                                  "range" : [ 4543, 30]
                                }
                              ]
                            }
                          },
                          {
                            "id" : 156,
                            "_type" : "ScreenVMFile",
                            "src" : 2,
                            "trackNumber" : 0,
                            "attributes" : {
                              "ident" : "Rec 05-22-17 8"
                            },
                            "parameters" : {
                              "translation0" : {
                                "type" : "double",
                                "defaultValue" : -117.155299552931,
                                "interp" : "eioe",
                                "keyframes" : [
                                  {
                                    "time" : 4781,
                                    "value" : 16.9245994883619,
                                    "duration" : 12
                                  }
                                ]
                              },
                              "translation1" : {
                                "type" : "double",
                                "defaultValue" : 68.2664538371015,
                                "interp" : "eioe",
                                "keyframes" : [
                                  {
                                    "time" : 4781,
                                    "value" : -12.6935484878485,
                                    "duration" : 12
                                  }
                                ]
                              },
                              "scale0" : {
                                "type" : "double",
                                "defaultValue" : 1.33999990335314,
                                "interp" : "eioe",
                                "keyframes" : [
                                  {
                                    "time" : 4781,
                                    "value" : 1.49999978353587,
                                    "duration" : 12
                                  }
                                ]
                              },
                              "scale1" : {
                                "type" : "double",
                                "defaultValue" : 1.34000025489437,
                                "interp" : "eioe",
                                "keyframes" : [
                                  {
                                    "time" : 4781,
                                    "value" : 1.50000025826017,
                                    "duration" : 12
                                  }
                                ]
                              },
                              "cursorScale" : {
                                "type" : "double",
                                "defaultValue" : 1.0,
                                "interp" : "linr"
                              },
                              "cursorOpacity" : {
                                "type" : "double",
                                "defaultValue" : 1.0,
                                "interp" : "linr"
                              }
                            },
                            "effects" : [

                            ],
                            "start" : 2570,
                            "duration" : 318,
                            "mediaStart" : 4867,
                            "mediaDuration" : 318,
                            "scalar" : 1,
                            "metadata" : {
                              "AutoAppliedSmartFocus" : "False",
                              "WinSubProjectDisplayName" : "",
                              "clipSpeedAttribute" : false
                            },
                            "animationTracks" : {
                              "visual" : [
                                {
                                  "range" : [ 4781, 12]
                                }
                              ]
                            }
                          }
                        ],
                        "transitions" : [
                          {
                            "name" : "Flip",
                            "duration" : 28,
                            "useAudioPreRoll" : true,
                            "useVisualPreRoll" : true,
                            "rightMedia" : 67
                          },
                          {
                            "name" : "FadeThroughBlack",
                            "duration" : 15,
                            "useAudioPreRoll" : true,
                            "useVisualPreRoll" : true,
                            "leftMedia" : 73,
                            "rightMedia" : 83
                          },
                          {
                            "name" : "FadeThroughBlack",
                            "duration" : 40,
                            "useAudioPreRoll" : true,
                            "useVisualPreRoll" : true,
                            "leftMedia" : 143,
                            "rightMedia" : 151
                          },
                          {
                            "name" : "FadeThroughBlack",
                            "duration" : 15,
                            "useAudioPreRoll" : true,
                            "useVisualPreRoll" : true,
                            "leftMedia" : 151,
                            "rightMedia" : 156
                          },
                          {
                            "name" : "FadeThroughBlack",
                            "duration" : 35,
                            "useAudioPreRoll" : true,
                            "useVisualPreRoll" : true,
                            "leftMedia" : 156
                          }
                        ],
                          "ident" : "",
                          "audioMuted" : false,
                          "videoHidden" : false,
                          "metadata" : {
                            "IsLocked" : "False",
                            "WinTrackHeight" : "0"
                          }
                      },
                      {
                        "trackIndex" : 1,
                        "medias" : [
                          {
                            "id" : 157,
                            "_type" : "StitchedMedia",
                            "minMediaStart" : 0,
                            "attributes" : {
                              "ident" : "04_Instalation_audio",
                              "gain" : 1.0,
                              "mixToMono" : false
                            },
                            "parameters" : {
                              "volume" : 1.0,
                              "cursorOpacity" : 1.0,
                              "cursorScale" : 1.0
                            },
                            "medias" : [
                                {
                                  "id" : 158,
                                  "_type" : "AMFile",
                                  "src" : 12,
                                  "trackNumber" : 0,
                                  "attributes" : {
                                    "ident" : "04_Instalation_audio",
                                    "sampleRate" : 44100,
                                    "bitDepth" : 16,
                                    "gain" : 1.0,
                                    "mixToMono" : false
                                  },
                                    "channelNumber" : "0,1",
                                  "effects" : [

                                  ],
                                  "start" : 0,
                                  "duration" : 731,
                                  "mediaStart" : 0,
                                  "mediaDuration" : 731,
                                  "scalar" : 1,
                                  "metadata" : {
                                    "WinSubProjectDisplayName" : "",
                                    "clipSpeedAttribute" : false
                                  },
                                  "animationTracks" : {

                                  }
                                },
                                {
                                  "id" : 159,
                                  "_type" : "AMFile",
                                  "src" : 12,
                                  "trackNumber" : 0,
                                  "attributes" : {
                                    "ident" : "04_Instalation_audio",
                                    "sampleRate" : 44100,
                                    "bitDepth" : 16,
                                    "gain" : 1.0,
                                    "mixToMono" : false
                                  },
                                    "channelNumber" : "0,1",
                                  "effects" : [

                                  ],
                                  "start" : 731,
                                  "duration" : 341,
                                  "mediaStart" : 779,
                                  "mediaDuration" : 341,
                                  "scalar" : 1,
                                  "metadata" : {
                                    "WinSubProjectDisplayName" : "",
                                    "clipSpeedAttribute" : false
                                  },
                                  "animationTracks" : {

                                  }
                                },
                                {
                                  "id" : 160,
                                  "_type" : "AMFile",
                                  "src" : 12,
                                  "trackNumber" : 0,
                                  "attributes" : {
                                    "ident" : "04_Instalation_audio",
                                    "sampleRate" : 44100,
                                    "bitDepth" : 16,
                                    "gain" : 1.0,
                                    "mixToMono" : false
                                  },
                                    "channelNumber" : "0,1",
                                  "effects" : [

                                  ],
                                  "start" : 1072,
                                  "duration" : 1143,
                                  "mediaStart" : 1181,
                                  "mediaDuration" : 1143,
                                  "scalar" : 1,
                                  "metadata" : {
                                    "WinSubProjectDisplayName" : "",
                                    "clipSpeedAttribute" : false
                                  },
                                  "animationTracks" : {

                                  }
                                },
                                {
                                  "id" : 161,
                                  "_type" : "AMFile",
                                  "src" : 12,
                                  "trackNumber" : 0,
                                  "attributes" : {
                                    "ident" : "04_Instalation_audio",
                                    "sampleRate" : 44100,
                                    "bitDepth" : 16,
                                    "gain" : 1.0,
                                    "mixToMono" : false
                                  },
                                    "channelNumber" : "0,1",
                                  "effects" : [

                                  ],
                                  "start" : 2215,
                                  "duration" : 579,
                                  "mediaStart" : 2363,
                                  "mediaDuration" : 579,
                                  "scalar" : 1,
                                  "metadata" : {
                                    "WinSubProjectDisplayName" : "",
                                    "clipSpeedAttribute" : false
                                  },
                                  "animationTracks" : {

                                  }
                                }
                            ],
                            "effects" : [

                            ],
                            "start" : 15,
                            "duration" : 2476,
                            "mediaStart" : 0,
                            "mediaDuration" : 2476,
                            "scalar" : 1,
                            "metadata" : {
                              "WinSubProjectDisplayName" : "",
                              "clipSpeedAttribute" : false
                            },
                            "animationTracks" : {

                            }
                          },
                          {
                            "id" : 162,
                            "_type" : "StitchedMedia",
                            "minMediaStart" : 0,
                            "attributes" : {
                              "ident" : "04_Instalation_audio",
                              "gain" : 1.0,
                              "mixToMono" : false
                            },
                            "parameters" : {
                              "volume" : 1.0,
                              "cursorOpacity" : 1.0,
                              "cursorScale" : 1.0
                            },
                            "medias" : [
                                {
                                  "id" : 163,
                                  "_type" : "AMFile",
                                  "src" : 12,
                                  "trackNumber" : 0,
                                  "attributes" : {
                                    "ident" : "04_Instalation_audio",
                                    "sampleRate" : 44100,
                                    "bitDepth" : 16,
                                    "gain" : 1.0,
                                    "mixToMono" : false
                                  },
                                    "channelNumber" : "0,1",
                                  "effects" : [

                                  ],
                                  "start" : 0,
                                  "duration" : 731,
                                  "mediaStart" : 0,
                                  "mediaDuration" : 731,
                                  "scalar" : 1,
                                  "metadata" : {
                                    "WinSubProjectDisplayName" : "",
                                    "clipSpeedAttribute" : false
                                  },
                                  "animationTracks" : {

                                  }
                                },
                                {
                                  "id" : 164,
                                  "_type" : "AMFile",
                                  "src" : 12,
                                  "trackNumber" : 0,
                                  "attributes" : {
                                    "ident" : "04_Instalation_audio",
                                    "sampleRate" : 44100,
                                    "bitDepth" : 16,
                                    "gain" : 1.0,
                                    "mixToMono" : false
                                  },
                                    "channelNumber" : "0,1",
                                  "effects" : [

                                  ],
                                  "start" : 731,
                                  "duration" : 341,
                                  "mediaStart" : 779,
                                  "mediaDuration" : 341,
                                  "scalar" : 1,
                                  "metadata" : {
                                    "WinSubProjectDisplayName" : "",
                                    "clipSpeedAttribute" : false
                                  },
                                  "animationTracks" : {

                                  }
                                },
                                {
                                  "id" : 165,
                                  "_type" : "AMFile",
                                  "src" : 12,
                                  "trackNumber" : 0,
                                  "attributes" : {
                                    "ident" : "04_Instalation_audio",
                                    "sampleRate" : 44100,
                                    "bitDepth" : 16,
                                    "gain" : 1.0,
                                    "mixToMono" : false
                                  },
                                    "channelNumber" : "0,1",
                                  "effects" : [

                                  ],
                                  "start" : 1072,
                                  "duration" : 1143,
                                  "mediaStart" : 1181,
                                  "mediaDuration" : 1143,
                                  "scalar" : 1,
                                  "metadata" : {
                                    "WinSubProjectDisplayName" : "",
                                    "clipSpeedAttribute" : false
                                  },
                                  "animationTracks" : {

                                  }
                                },
                                {
                                  "id" : 166,
                                  "_type" : "AMFile",
                                  "src" : 12,
                                  "trackNumber" : 0,
                                  "attributes" : {
                                    "ident" : "04_Instalation_audio",
                                    "sampleRate" : 44100,
                                    "bitDepth" : 16,
                                    "gain" : 1.0,
                                    "mixToMono" : false
                                  },
                                    "channelNumber" : "0,1",
                                  "effects" : [

                                  ],
                                  "start" : 2215,
                                  "duration" : 579,
                                  "mediaStart" : 2363,
                                  "mediaDuration" : 579,
                                  "scalar" : 1,
                                  "metadata" : {
                                    "WinSubProjectDisplayName" : "",
                                    "clipSpeedAttribute" : false
                                  },
                                  "animationTracks" : {

                                  }
                                }
                            ],
                            "effects" : [

                            ],
                            "start" : 2570,
                            "duration" : 318,
                            "mediaStart" : 2476,
                            "mediaDuration" : 318,
                            "scalar" : 1,
                            "metadata" : {
                              "WinSubProjectDisplayName" : "",
                              "clipSpeedAttribute" : false
                            },
                            "animationTracks" : {

                            }
                          }
                        ],
                          "ident" : "",
                          "audioMuted" : false,
                          "videoHidden" : false,
                          "metadata" : {
                            "IsLocked" : "False",
                            "WinTrackHeight" : "6.08016685531411e-315"
                          }
                      },
                      {
                        "trackIndex" : 2,
                        "medias" : [
                          {
                            "id" : 167,
                            "_type" : "Callout",
                            "def" : {
                              "kind" : "TypeWinSVG",
                              "shape" : "",
                              "style" : "",
                              "DrawTime" : 1.0,
                              "borderColorBlue" : 0.0,
                              "borderColorGreen" : 0.0,
                              "borderColorRed" : 1.0,
                              "borderWidth" : 5.0,
                              "flipOnXAxis" : 0.0,
                              "flipOnYAxis" : 0.0,
                              "height" : 180.0,
                              "width" : 240.0,
                              "filename" : "C:\\Program Files\\TechSmith\\Camtasia 9\\Media\\Studio\\Callouts\\anim_arrow.svg",
                              "horizontal-alignment" : "center",
                              "name" : "Sketch Motion Arrow",
                              "vertical-alignment" : "center",
                              "xmlContent" : "﻿<?xml version=\"1.0\" encoding=\"utf-8\"?>\n<!-- Generator: Adobe Illustrator 13.0.2, SVG Export Plug-In . SVG Version: 6.00 Build 14948)  -->\n<!DOCTYPE svg PUBLIC \"-//W3C//DTD SVG 1.1//EN\" \"http://www.w3.org/Graphics/SVG/1.1/DTD/svg11.dtd\">\n<svg version=\"1.1\" id=\"Layer_1\" xmlns=\"http://www.w3.org/2000/svg\" xmlns:xlink=\"http://www.w3.org/1999/xlink\" x=\"0px\" y=\"0px\"\n\t width=\"151.268px\" height=\"53px\" viewBox=\"0 0 151.268 53\" enable-background=\"new 0 0 151.268 53\" xml:space=\"preserve\">\n<path fill=\"none\" d=\"M12.852,24.926c0,0,85.25-8.838,118.688-2.996\"/>\n<path fill=\"none\" d=\"M93.169,2.713c0,0,46.52,8.657,49.944,18.729c3.424,10.071-43.753,26.022-43.753,26.022\"/>\n</svg>\n",
                              "textAttributes" : {
                                "type" : "textAttributeList",
                                "keyframes" : [
                                  {
                                    "time" : 0,
                                    "value" : null,
                                    "duration" : 0
                                  }
                                ]
                              }
                            },
                            "attributes" : {
                              "autoRotateText" : true
                            },
                            "parameters" : {
                              "translation0" : -672.181129713333,
                              "translation1" : 626.841105293112,
                              "rotation2" : 3.14159265358979
                            },
                            "leftEdgeMods" : [
                              {
                                "group" : "DrawPercentageFade",
                                "duration" : 30,
                                "parameters" : [
                                  {
                                    "name" : "DrawTime",
                                      "func" : "FadeInFunc"
                                    }
                                ]
                              }
                            ],
                            "effects" : [
                                {
                                  "effectName" : "DropShadow",
                                  "parameters" : {
                                    "angle" : 5.49778714378214,
                                    "blur" : 10.0,
                                    "color-alpha" : 1.0,
                                    "color-blue" : 0.1216,
                                    "color-green" : 0.1216,
                                    "color-red" : 0.1216,
                                    "enabled" : 1,
                                    "offset" : 10.0,
                                    "opacity" : 0.4
                                  }
                                }
                            ],
                            "start" : 2006,
                            "duration" : 105,
                            "mediaStart" : 0,
                            "mediaDuration" : 105,
                            "scalar" : 1,
                            "metadata" : {
                              "WinSubProjectDisplayName" : "",
                              "clipSpeedAttribute" : false,
                              "default-rotation2" : 0.0,
                              "default-translation0" : 0.0,
                              "default-translation1" : 0.0
                            },
                            "animationTracks" : {

                            }
                          }
                        ],
                          "ident" : "",
                          "audioMuted" : false,
                          "videoHidden" : false,
                          "metadata" : {
                            "IsLocked" : "False",
                            "WinTrackHeight" : "6.08016685531411e-315"
                          }
                      },
                      {
                        "trackIndex" : 3,
                        "medias" : [
                          {
                            "id" : 168,
                            "_type" : "Callout",
                            "def" : {
                              "kind" : "TypeWinLine",
                              "shape" : "",
                              "style" : "",
                              "borderColorBlue" : 0.0,
                              "borderColorGreen" : 0.0,
                              "borderColorRed" : 1.0,
                              "borderWidth" : 5.0,
                              "endCapStyle" : 0.0,
                              "height" : 20.0,
                              "startCapStyle" : 0.0,
                              "width" : 240.0,
                              "filename" : "C:\\Program Files\\TechSmith\\Camtasia 9\\Media\\Studio\\Callouts\\line.xml",
                              "horizontal-alignment" : "center",
                              "name" : "Line",
                              "vertical-alignment" : "center",
                              "xmlContent" : "﻿<?xml version=\"1.0\"?>\n\n<Overlay version=\"1.0.1\">\n\n<Overlay_Filename>line.png</Overlay_Filename>\n<Overlay_Name>Line</Overlay_Name>\n<Text_Top>0</Text_Top>\n<Text_Left>0</Text_Left>\n<Text_Bottom>0</Text_Bottom>\n<Text_Right>0</Text_Right>\n<Style>5</Style>\n<Initial_Fill_Color>0xffd8a57c</Initial_Fill_Color>\n<Initial_Border_Color>0xff017b34</Initial_Border_Color>\n<UseDefaultSpec>1</UseDefaultSpec>\n</Overlay>",
                              "textAttributes" : {
                                "type" : "textAttributeList",
                                "keyframes" : [
                                  {
                                    "time" : 0,
                                    "value" : null,
                                    "duration" : 0
                                  }
                                ]
                              }
                            },
                            "attributes" : {
                              "autoRotateText" : true
                            },
                            "parameters" : {
                              "translation0" : -1042.60686295981,
                              "translation1" : 596.686330970424,
                              "rotation2" : 0.0038461348809431,
                              "scale0" : 1.64558179158097
                            },
                            "effects" : [
                                {
                                  "effectName" : "DropShadow",
                                  "parameters" : {
                                    "angle" : 5.49778714378214,
                                    "blur" : 10.0,
                                    "color-alpha" : 1.0,
                                    "color-blue" : 0.1216,
                                    "color-green" : 0.1216,
                                    "color-red" : 0.1216,
                                    "enabled" : 1,
                                    "offset" : 10.0,
                                    "opacity" : 0.4
                                  }
                                }
                            ],
                            "start" : 2032,
                            "duration" : 79,
                            "mediaStart" : 0,
                            "mediaDuration" : 79,
                            "scalar" : 1,
                            "metadata" : {
                              "WinSubProjectDisplayName" : "",
                              "clipSpeedAttribute" : false,
                              "default-rotation2" : 0.0,
                              "default-scale0" : 1.0,
                              "default-stroke-color-blue" : 0.00392156862745098,
                              "default-stroke-color-green" : 0.482352941176471,
                              "default-stroke-color-red" : 0.203921568627451,
                              "default-translation0" : 0.0,
                              "default-translation1" : 0.0
                            },
                            "animationTracks" : {

                            }
                          }
                        ],
                          "ident" : "",
                          "audioMuted" : false,
                          "videoHidden" : false,
                          "metadata" : {
                            "IsLocked" : "False",
                            "WinTrackHeight" : "6.08016685531411e-315"
                          }
                      },
                      {
                        "trackIndex" : 4,
                        "medias" : [
                          {
                            "id" : 169,
                            "_type" : "Callout",
                            "def" : {
                              "kind" : "TypeWinSVG",
                              "shape" : "",
                              "style" : "",
                              "DrawTime" : 1.0,
                              "borderColorBlue" : 0.0,
                              "borderColorGreen" : 0.0,
                              "borderColorRed" : 1.0,
                              "borderWidth" : 5.0,
                              "flipOnXAxis" : 0.0,
                              "flipOnYAxis" : 0.0,
                              "height" : 180.0,
                              "width" : 240.0,
                              "filename" : "C:\\Program Files\\TechSmith\\Camtasia 9\\Media\\Studio\\Callouts\\anim_arrow.svg",
                              "horizontal-alignment" : "center",
                              "name" : "Sketch Motion Arrow",
                              "vertical-alignment" : "center",
                              "xmlContent" : "﻿<?xml version=\"1.0\" encoding=\"utf-8\"?>\n<!-- Generator: Adobe Illustrator 13.0.2, SVG Export Plug-In . SVG Version: 6.00 Build 14948)  -->\n<!DOCTYPE svg PUBLIC \"-//W3C//DTD SVG 1.1//EN\" \"http://www.w3.org/Graphics/SVG/1.1/DTD/svg11.dtd\">\n<svg version=\"1.1\" id=\"Layer_1\" xmlns=\"http://www.w3.org/2000/svg\" xmlns:xlink=\"http://www.w3.org/1999/xlink\" x=\"0px\" y=\"0px\"\n\t width=\"151.268px\" height=\"53px\" viewBox=\"0 0 151.268 53\" enable-background=\"new 0 0 151.268 53\" xml:space=\"preserve\">\n<path fill=\"none\" d=\"M12.852,24.926c0,0,85.25-8.838,118.688-2.996\"/>\n<path fill=\"none\" d=\"M93.169,2.713c0,0,46.52,8.657,49.944,18.729c3.424,10.071-43.753,26.022-43.753,26.022\"/>\n</svg>\n",
                              "textAttributes" : {
                                "type" : "textAttributeList",
                                "keyframes" : [
                                  {
                                    "time" : 0,
                                    "value" : null,
                                    "duration" : 0
                                  }
                                ]
                              }
                            },
                            "attributes" : {
                              "autoRotateText" : true
                            },
                            "parameters" : {
                              "translation0" : -701.045272252313,
                              "translation1" : 370.270949391103,
                              "rotation2" : 3.14159265358979
                            },
                            "leftEdgeMods" : [
                              {
                                "group" : "DrawPercentageFade",
                                "duration" : 30,
                                "parameters" : [
                                  {
                                    "name" : "DrawTime",
                                      "func" : "FadeInFunc"
                                    }
                                ]
                              }
                            ],
                            "effects" : [
                                {
                                  "effectName" : "DropShadow",
                                  "parameters" : {
                                    "angle" : 5.49778714378214,
                                    "blur" : 10.0,
                                    "color-alpha" : 1.0,
                                    "color-blue" : 0.1216,
                                    "color-green" : 0.1216,
                                    "color-red" : 0.1216,
                                    "enabled" : 1,
                                    "offset" : 10.0,
                                    "opacity" : 0.4
                                  }
                                }
                            ],
                            "start" : 1943,
                            "duration" : 168,
                            "mediaStart" : 0,
                            "mediaDuration" : 168,
                            "scalar" : 1,
                            "metadata" : {
                              "WinSubProjectDisplayName" : "",
                              "clipSpeedAttribute" : false,
                              "default-rotation2" : 0.0,
                              "default-translation0" : 0.0,
                              "default-translation1" : 0.0
                            },
                            "animationTracks" : {

                            }
                          }
                        ],
                          "ident" : "",
                          "audioMuted" : false,
                          "videoHidden" : false,
                          "metadata" : {
                            "IsLocked" : "False",
                            "WinTrackHeight" : "6.08016685531411e-315"
                          }
                      },
                      {
                        "trackIndex" : 5,
                        "medias" : [
                          {
                            "id" : 170,
                            "_type" : "Callout",
                            "def" : {
                              "kind" : "TypeWinLine",
                              "shape" : "",
                              "style" : "",
                              "borderColorBlue" : 0.0,
                              "borderColorGreen" : 0.0,
                              "borderColorRed" : 1.0,
                              "borderWidth" : 5.0,
                              "endCapStyle" : 0.0,
                              "height" : 20.0,
                              "startCapStyle" : 0.0,
                              "width" : 240.0,
                              "filename" : "C:\\Program Files\\TechSmith\\Camtasia 9\\Media\\Studio\\Callouts\\line.xml",
                              "horizontal-alignment" : "center",
                              "name" : "Line",
                              "vertical-alignment" : "center",
                              "xmlContent" : "﻿<?xml version=\"1.0\"?>\n\n<Overlay version=\"1.0.1\">\n\n<Overlay_Filename>line.png</Overlay_Filename>\n<Overlay_Name>Line</Overlay_Name>\n<Text_Top>0</Text_Top>\n<Text_Left>0</Text_Left>\n<Text_Bottom>0</Text_Bottom>\n<Text_Right>0</Text_Right>\n<Style>5</Style>\n<Initial_Fill_Color>0xffd8a57c</Initial_Fill_Color>\n<Initial_Border_Color>0xff017b34</Initial_Border_Color>\n<UseDefaultSpec>1</UseDefaultSpec>\n</Overlay>",
                              "textAttributes" : {
                                "type" : "textAttributeList",
                                "keyframes" : [
                                  {
                                    "time" : 0,
                                    "value" : null,
                                    "duration" : 0
                                  }
                                ]
                              }
                            },
                            "attributes" : {
                              "autoRotateText" : true
                            },
                            "parameters" : {
                              "translation0" : -1042.60686295998,
                              "translation1" : 346.053419577946,
                              "rotation2" : 0.0038461348809431,
                              "scale0" : 1.64558179158097
                            },
                            "effects" : [
                                {
                                  "effectName" : "DropShadow",
                                  "parameters" : {
                                    "angle" : 5.49778714378214,
                                    "blur" : 10.0,
                                    "color-alpha" : 1.0,
                                    "color-blue" : 0.1216,
                                    "color-green" : 0.1216,
                                    "color-red" : 0.1216,
                                    "enabled" : 1,
                                    "offset" : 10.0,
                                    "opacity" : 0.4
                                  }
                                }
                            ],
                            "start" : 1979,
                            "duration" : 132,
                            "mediaStart" : 0,
                            "mediaDuration" : 132,
                            "scalar" : 1,
                            "metadata" : {
                              "WinSubProjectDisplayName" : "",
                              "clipSpeedAttribute" : false,
                              "default-rotation2" : 0.0,
                              "default-scale0" : 1.0,
                              "default-stroke-color-blue" : 0.00392156862745098,
                              "default-stroke-color-green" : 0.482352941176471,
                              "default-stroke-color-red" : 0.203921568627451,
                              "default-translation0" : 0.0,
                              "default-translation1" : 0.0
                            },
                            "animationTracks" : {

                            }
                          }
                        ],
                          "ident" : "",
                          "audioMuted" : false,
                          "videoHidden" : false,
                          "metadata" : {
                            "IsLocked" : "False",
                            "WinTrackHeight" : "6.08016685531411e-315"
                          }
                      }
                    ],
                    "attributes" : {
                      "ident" : "04_Installation",
                      "gain" : 1.0,
                      "mixToMono" : false
                    },
                    "effects" : [

                    ],
                    "start" : 3863,
                    "duration" : 2888,
                    "mediaStart" : 0.0,
                    "mediaDuration" : 2888.0,
                    "scalar" : 1,
                    "metadata" : {
                      "IsGroupExpanded" : "False",
                      "WinSubProjectDisplayName" : "04_Installation"
                    },
                    "animationTracks" : {

                    }
                  },
                  {
                    "id" : 171,
                    "_type" : "Group",
                    "parameters" : {
                      "translation0" : 507.699698250945,
                      "translation1" : -235.059204672933,
                      "volume" : 1.0
                    },
                    "tracks" : [
                      {
                        "trackIndex" : 0,
                        "medias" : [
                          {
                            "id" : 172,
                            "_type" : "IMFile",
                            "src" : 34,
                            "trackNumber" : 0,
                            "trimStartSum" : 0,
                            "attributes" : {
                              "ident" : "Configuration"
                            },
                            "parameters" : {
                              "translation0" : {
                                "type" : "double",
                                "defaultValue" : -507.699698250945,
                                "interp" : "eioe"
                              },
                              "translation1" : {
                                "type" : "double",
                                "defaultValue" : 235.059204672933,
                                "interp" : "eioe"
                              }
                            },
                            "effects" : [

                            ],
                            "start" : 0,
                            "duration" : 129,
                            "mediaStart" : 0,
                            "mediaDuration" : 1,
                            "scalar" : 1,
                            "metadata" : {
                              "WinSubProjectDisplayName" : "",
                              "clipSpeedAttribute" : false,
                              "default-scale0" : 1.0,
                              "default-scale1" : 1.0,
                              "default-translation0" : 0.0,
                              "default-translation1" : 0.0
                            },
                            "animationTracks" : {

                            }
                          },
                          {
                            "id" : 173,
                            "_type" : "StitchedMedia",
                            "minMediaStart" : 0,
                            "attributes" : {
                              "ident" : "Rec 05-23-17 6",
                              "gain" : 1.0,
                              "mixToMono" : false
                            },
                            "parameters" : {
                              "translation0" : {
                                "type" : "double",
                                "defaultValue" : -507.699698250945,
                                "keyframes" : [
                                  {
                                    "time" : 34,
                                    "value" : 269.300423660069,
                                    "duration" : 30
                                  }
                                ]
                              },
                              "translation1" : {
                                "type" : "double",
                                "defaultValue" : 235.059204672933,
                                "keyframes" : [
                                  {
                                    "time" : 34,
                                    "value" : -163.941100019637,
                                    "duration" : 30
                                  }
                                ]
                              },
                              "scale0" : {
                                "type" : "double",
                                "defaultValue" : 0.572792362768496,
                                "keyframes" : [
                                  {
                                    "time" : 34,
                                    "value" : 1.50000013297838,
                                    "duration" : 30
                                  }
                                ]
                              },
                              "scale1" : {
                                "type" : "double",
                                "defaultValue" : 0.572792362768496,
                                "keyframes" : [
                                  {
                                    "time" : 34,
                                    "value" : 1.5000005983188,
                                    "duration" : 30
                                  }
                                ]
                              },
                              "cursorOpacity" : 1.0,
                              "cursorScale" : 1.0
                            },
                            "medias" : [
                                {
                                  "id" : 174,
                                  "_type" : "ScreenVMFile",
                                  "src" : 3,
                                  "trackNumber" : 0,
                                  "attributes" : {
                                    "ident" : "Rec 05-23-17 6"
                                  },
                                  "parameters" : {
                                    "cursorScale" : {
                                      "type" : "double",
                                      "defaultValue" : 0.0,
                                      "interp" : "linr"
                                    },
                                    "cursorOpacity" : {
                                      "type" : "double",
                                      "defaultValue" : 0.0,
                                      "interp" : "linr"
                                    }
                                  },
                                  "effects" : [

                                  ],
                                  "start" : 0,
                                  "duration" : 413,
                                  "mediaStart" : 0,
                                  "mediaDuration" : 413,
                                  "scalar" : 1,
                                  "metadata" : {
                                    "AutoAppliedSmartFocus" : "False",
                                    "WinSubProjectDisplayName" : "",
                                    "clipSpeedAttribute" : false,
                                    "default-scale0" : 0.572792362768496,
                                    "default-scale1" : 0.572792362768496,
                                    "default-translation0" : 0.0,
                                    "default-translation1" : 0.0
                                  },
                                  "animationTracks" : {

                                  }
                                },
                                {
                                  "id" : 175,
                                  "_type" : "ScreenVMFile",
                                  "src" : 3,
                                  "trackNumber" : 0,
                                  "attributes" : {
                                    "ident" : "Rec 05-23-17 6"
                                  },
                                  "parameters" : {
                                    "cursorScale" : {
                                      "type" : "double",
                                      "defaultValue" : 0.0,
                                      "interp" : "linr"
                                    },
                                    "cursorOpacity" : {
                                      "type" : "double",
                                      "defaultValue" : 0.0,
                                      "interp" : "linr"
                                    }
                                  },
                                  "effects" : [

                                  ],
                                  "start" : 413,
                                  "duration" : 210,
                                  "mediaStart" : 586,
                                  "mediaDuration" : 210,
                                  "scalar" : 1,
                                  "metadata" : {
                                    "AutoAppliedSmartFocus" : "False",
                                    "WinSubProjectDisplayName" : "",
                                    "clipSpeedAttribute" : false,
                                    "default-scale0" : 0.572792362768496,
                                    "default-scale1" : 0.572792362768496,
                                    "default-translation0" : 0.0,
                                    "default-translation1" : 0.0
                                  },
                                  "animationTracks" : {

                                  }
                                },
                                {
                                  "id" : 176,
                                  "_type" : "ScreenVMFile",
                                  "src" : 3,
                                  "trackNumber" : 0,
                                  "attributes" : {
                                    "ident" : "Rec 05-23-17 6"
                                  },
                                  "parameters" : {
                                    "cursorScale" : {
                                      "type" : "double",
                                      "defaultValue" : 0.0,
                                      "interp" : "linr"
                                    },
                                    "cursorOpacity" : {
                                      "type" : "double",
                                      "defaultValue" : 0.0,
                                      "interp" : "linr"
                                    }
                                  },
                                  "effects" : [

                                  ],
                                  "start" : 623,
                                  "duration" : 202,
                                  "mediaStart" : 850,
                                  "mediaDuration" : 202,
                                  "scalar" : 1,
                                  "metadata" : {
                                    "AutoAppliedSmartFocus" : "False",
                                    "WinSubProjectDisplayName" : "",
                                    "clipSpeedAttribute" : false,
                                    "default-scale0" : 0.572792362768496,
                                    "default-scale1" : 0.572792362768496,
                                    "default-translation0" : 0.0,
                                    "default-translation1" : 0.0
                                  },
                                  "animationTracks" : {

                                  }
                                },
                                {
                                  "id" : 177,
                                  "_type" : "ScreenVMFile",
                                  "src" : 3,
                                  "trackNumber" : 0,
                                  "attributes" : {
                                    "ident" : "Rec 05-23-17 6"
                                  },
                                  "parameters" : {
                                    "cursorScale" : {
                                      "type" : "double",
                                      "defaultValue" : 0.0,
                                      "interp" : "linr"
                                    },
                                    "cursorOpacity" : {
                                      "type" : "double",
                                      "defaultValue" : 0.0,
                                      "interp" : "linr"
                                    }
                                  },
                                  "effects" : [

                                  ],
                                  "start" : 825,
                                  "duration" : 989,
                                  "mediaStart" : 1083,
                                  "mediaDuration" : 989,
                                  "scalar" : 1,
                                  "metadata" : {
                                    "AutoAppliedSmartFocus" : "False",
                                    "WinSubProjectDisplayName" : "",
                                    "clipSpeedAttribute" : false,
                                    "default-scale0" : 0.572792362768496,
                                    "default-scale1" : 0.572792362768496,
                                    "default-translation0" : 0.0,
                                    "default-translation1" : 0.0
                                  },
                                  "animationTracks" : {

                                  }
                                },
                                {
                                  "id" : 178,
                                  "_type" : "ScreenVMFile",
                                  "src" : 3,
                                  "trackNumber" : 0,
                                  "attributes" : {
                                    "ident" : "Rec 05-23-17 6"
                                  },
                                  "parameters" : {
                                    "cursorScale" : {
                                      "type" : "double",
                                      "defaultValue" : 0.0,
                                      "interp" : "linr"
                                    },
                                    "cursorOpacity" : {
                                      "type" : "double",
                                      "defaultValue" : 0.0,
                                      "interp" : "linr"
                                    }
                                  },
                                  "effects" : [

                                  ],
                                  "start" : 1814,
                                  "duration" : 165,
                                  "mediaStart" : 2121,
                                  "mediaDuration" : 165,
                                  "scalar" : 1,
                                  "metadata" : {
                                    "AutoAppliedSmartFocus" : "False",
                                    "WinSubProjectDisplayName" : "",
                                    "clipSpeedAttribute" : false,
                                    "default-scale0" : 0.572792362768496,
                                    "default-scale1" : 0.572792362768496,
                                    "default-translation0" : 0.0,
                                    "default-translation1" : 0.0
                                  },
                                  "animationTracks" : {

                                  }
                                },
                                {
                                  "id" : 179,
                                  "_type" : "ScreenVMFile",
                                  "src" : 3,
                                  "trackNumber" : 0,
                                  "attributes" : {
                                    "ident" : "Rec 05-23-17 6"
                                  },
                                  "parameters" : {
                                    "cursorScale" : {
                                      "type" : "double",
                                      "defaultValue" : 0.0,
                                      "interp" : "linr"
                                    },
                                    "cursorOpacity" : {
                                      "type" : "double",
                                      "defaultValue" : 0.0,
                                      "interp" : "linr"
                                    }
                                  },
                                  "effects" : [

                                  ],
                                  "start" : 1979,
                                  "duration" : 1737,
                                  "mediaStart" : 2319,
                                  "mediaDuration" : 1737,
                                  "scalar" : 1,
                                  "metadata" : {
                                    "AutoAppliedSmartFocus" : "False",
                                    "WinSubProjectDisplayName" : "",
                                    "clipSpeedAttribute" : false,
                                    "default-scale0" : 0.572792362768496,
                                    "default-scale1" : 0.572792362768496,
                                    "default-translation0" : 0.0,
                                    "default-translation1" : 0.0
                                  },
                                  "animationTracks" : {

                                  }
                                }
                            ],
                            "effects" : [

                            ],
                            "start" : 129,
                            "duration" : 287,
                            "mediaStart" : 0,
                            "mediaDuration" : 287,
                            "scalar" : 1,
                            "metadata" : {
                              "AutoAppliedSmartFocus" : "False",
                              "WinSubProjectDisplayName" : "",
                              "clipSpeedAttribute" : false
                            },
                            "animationTracks" : {
                              "visual" : [
                                {
                                  "range" : [ 34, 30]
                                }
                              ]
                            }
                          },
                          {
                            "id" : 180,
                            "_type" : "StitchedMedia",
                            "minMediaStart" : 0,
                            "attributes" : {
                              "ident" : "Rec 05-23-17 6",
                              "gain" : 1.0,
                              "mixToMono" : false
                            },
                            "parameters" : {
                              "translation0" : {
                                "type" : "double",
                                "defaultValue" : -507.699698250945,
                                "keyframes" : [
                                  {
                                    "time" : 34,
                                    "value" : 269.300423660069,
                                    "duration" : 30
                                  }
                                ]
                              },
                              "translation1" : {
                                "type" : "double",
                                "defaultValue" : 235.059204672933,
                                "keyframes" : [
                                  {
                                    "time" : 34,
                                    "value" : -163.941100019637,
                                    "duration" : 30
                                  }
                                ]
                              },
                              "scale0" : {
                                "type" : "double",
                                "defaultValue" : 0.572792362768496,
                                "keyframes" : [
                                  {
                                    "time" : 34,
                                    "value" : 1.50000013297838,
                                    "duration" : 30
                                  }
                                ]
                              },
                              "scale1" : {
                                "type" : "double",
                                "defaultValue" : 0.572792362768496,
                                "keyframes" : [
                                  {
                                    "time" : 34,
                                    "value" : 1.5000005983188,
                                    "duration" : 30
                                  }
                                ]
                              },
                              "cursorOpacity" : 1.0,
                              "cursorScale" : 1.0
                            },
                            "medias" : [
                                {
                                  "id" : 181,
                                  "_type" : "ScreenVMFile",
                                  "src" : 3,
                                  "trackNumber" : 0,
                                  "attributes" : {
                                    "ident" : "Rec 05-23-17 6"
                                  },
                                  "parameters" : {
                                    "cursorScale" : {
                                      "type" : "double",
                                      "defaultValue" : 0.0,
                                      "interp" : "linr"
                                    },
                                    "cursorOpacity" : {
                                      "type" : "double",
                                      "defaultValue" : 0.0,
                                      "interp" : "linr"
                                    }
                                  },
                                  "effects" : [

                                  ],
                                  "start" : 0,
                                  "duration" : 413,
                                  "mediaStart" : 0,
                                  "mediaDuration" : 413,
                                  "scalar" : 1,
                                  "metadata" : {
                                    "AutoAppliedSmartFocus" : "False",
                                    "WinSubProjectDisplayName" : "",
                                    "clipSpeedAttribute" : false,
                                    "default-scale0" : 0.572792362768496,
                                    "default-scale1" : 0.572792362768496,
                                    "default-translation0" : 0.0,
                                    "default-translation1" : 0.0
                                  },
                                  "animationTracks" : {

                                  }
                                },
                                {
                                  "id" : 182,
                                  "_type" : "ScreenVMFile",
                                  "src" : 3,
                                  "trackNumber" : 0,
                                  "attributes" : {
                                    "ident" : "Rec 05-23-17 6"
                                  },
                                  "parameters" : {
                                    "cursorScale" : {
                                      "type" : "double",
                                      "defaultValue" : 0.0,
                                      "interp" : "linr"
                                    },
                                    "cursorOpacity" : {
                                      "type" : "double",
                                      "defaultValue" : 0.0,
                                      "interp" : "linr"
                                    }
                                  },
                                  "effects" : [

                                  ],
                                  "start" : 413,
                                  "duration" : 210,
                                  "mediaStart" : 586,
                                  "mediaDuration" : 210,
                                  "scalar" : 1,
                                  "metadata" : {
                                    "AutoAppliedSmartFocus" : "False",
                                    "WinSubProjectDisplayName" : "",
                                    "clipSpeedAttribute" : false,
                                    "default-scale0" : 0.572792362768496,
                                    "default-scale1" : 0.572792362768496,
                                    "default-translation0" : 0.0,
                                    "default-translation1" : 0.0
                                  },
                                  "animationTracks" : {

                                  }
                                },
                                {
                                  "id" : 183,
                                  "_type" : "ScreenVMFile",
                                  "src" : 3,
                                  "trackNumber" : 0,
                                  "attributes" : {
                                    "ident" : "Rec 05-23-17 6"
                                  },
                                  "parameters" : {
                                    "cursorScale" : {
                                      "type" : "double",
                                      "defaultValue" : 0.0,
                                      "interp" : "linr"
                                    },
                                    "cursorOpacity" : {
                                      "type" : "double",
                                      "defaultValue" : 0.0,
                                      "interp" : "linr"
                                    }
                                  },
                                  "effects" : [

                                  ],
                                  "start" : 623,
                                  "duration" : 202,
                                  "mediaStart" : 850,
                                  "mediaDuration" : 202,
                                  "scalar" : 1,
                                  "metadata" : {
                                    "AutoAppliedSmartFocus" : "False",
                                    "WinSubProjectDisplayName" : "",
                                    "clipSpeedAttribute" : false,
                                    "default-scale0" : 0.572792362768496,
                                    "default-scale1" : 0.572792362768496,
                                    "default-translation0" : 0.0,
                                    "default-translation1" : 0.0
                                  },
                                  "animationTracks" : {

                                  }
                                },
                                {
                                  "id" : 184,
                                  "_type" : "ScreenVMFile",
                                  "src" : 3,
                                  "trackNumber" : 0,
                                  "attributes" : {
                                    "ident" : "Rec 05-23-17 6"
                                  },
                                  "parameters" : {
                                    "cursorScale" : {
                                      "type" : "double",
                                      "defaultValue" : 0.0,
                                      "interp" : "linr"
                                    },
                                    "cursorOpacity" : {
                                      "type" : "double",
                                      "defaultValue" : 0.0,
                                      "interp" : "linr"
                                    }
                                  },
                                  "effects" : [

                                  ],
                                  "start" : 825,
                                  "duration" : 989,
                                  "mediaStart" : 1083,
                                  "mediaDuration" : 989,
                                  "scalar" : 1,
                                  "metadata" : {
                                    "AutoAppliedSmartFocus" : "False",
                                    "WinSubProjectDisplayName" : "",
                                    "clipSpeedAttribute" : false,
                                    "default-scale0" : 0.572792362768496,
                                    "default-scale1" : 0.572792362768496,
                                    "default-translation0" : 0.0,
                                    "default-translation1" : 0.0
                                  },
                                  "animationTracks" : {

                                  }
                                },
                                {
                                  "id" : 185,
                                  "_type" : "ScreenVMFile",
                                  "src" : 3,
                                  "trackNumber" : 0,
                                  "attributes" : {
                                    "ident" : "Rec 05-23-17 6"
                                  },
                                  "parameters" : {
                                    "cursorScale" : {
                                      "type" : "double",
                                      "defaultValue" : 0.0,
                                      "interp" : "linr"
                                    },
                                    "cursorOpacity" : {
                                      "type" : "double",
                                      "defaultValue" : 0.0,
                                      "interp" : "linr"
                                    }
                                  },
                                  "effects" : [

                                  ],
                                  "start" : 1814,
                                  "duration" : 165,
                                  "mediaStart" : 2121,
                                  "mediaDuration" : 165,
                                  "scalar" : 1,
                                  "metadata" : {
                                    "AutoAppliedSmartFocus" : "False",
                                    "WinSubProjectDisplayName" : "",
                                    "clipSpeedAttribute" : false,
                                    "default-scale0" : 0.572792362768496,
                                    "default-scale1" : 0.572792362768496,
                                    "default-translation0" : 0.0,
                                    "default-translation1" : 0.0
                                  },
                                  "animationTracks" : {

                                  }
                                },
                                {
                                  "id" : 186,
                                  "_type" : "ScreenVMFile",
                                  "src" : 3,
                                  "trackNumber" : 0,
                                  "attributes" : {
                                    "ident" : "Rec 05-23-17 6"
                                  },
                                  "parameters" : {
                                    "cursorScale" : {
                                      "type" : "double",
                                      "defaultValue" : 0.0,
                                      "interp" : "linr"
                                    },
                                    "cursorOpacity" : {
                                      "type" : "double",
                                      "defaultValue" : 0.0,
                                      "interp" : "linr"
                                    }
                                  },
                                  "effects" : [

                                  ],
                                  "start" : 1979,
                                  "duration" : 1737,
                                  "mediaStart" : 2319,
                                  "mediaDuration" : 1737,
                                  "scalar" : 1,
                                  "metadata" : {
                                    "AutoAppliedSmartFocus" : "False",
                                    "WinSubProjectDisplayName" : "",
                                    "clipSpeedAttribute" : false,
                                    "default-scale0" : 0.572792362768496,
                                    "default-scale1" : 0.572792362768496,
                                    "default-translation0" : 0.0,
                                    "default-translation1" : 0.0
                                  },
                                  "animationTracks" : {

                                  }
                                }
                            ],
                            "effects" : [

                            ],
                            "start" : 416,
                            "duration" : 112,
                            "mediaStart" : 417,
                            "mediaDuration" : 217,
                            "scalar" : "16/31",
                            "metadata" : {
                              "AutoAppliedSmartFocus" : "False",
                              "WinSubProjectDisplayName" : "",
                              "clipSpeedAttribute" : true
                            },
                            "animationTracks" : {
                              "visual" : [
                                {
                                  "range" : [ 34, 30]
                                }
                              ]
                            }
                          },
                          {
                            "id" : 187,
                            "_type" : "StitchedMedia",
                            "minMediaStart" : 0,
                            "attributes" : {
                              "ident" : "Rec 05-23-17 6",
                              "gain" : 1.0,
                              "mixToMono" : false
                            },
                            "parameters" : {
                              "translation0" : {
                                "type" : "double",
                                "defaultValue" : -507.699698250945,
                                "keyframes" : [
                                  {
                                    "time" : 34,
                                    "value" : 269.300423660069,
                                    "duration" : 30
                                  }
                                ]
                              },
                              "translation1" : {
                                "type" : "double",
                                "defaultValue" : 235.059204672933,
                                "keyframes" : [
                                  {
                                    "time" : 34,
                                    "value" : -163.941100019637,
                                    "duration" : 30
                                  }
                                ]
                              },
                              "scale0" : {
                                "type" : "double",
                                "defaultValue" : 0.572792362768496,
                                "keyframes" : [
                                  {
                                    "time" : 34,
                                    "value" : 1.50000013297838,
                                    "duration" : 30
                                  }
                                ]
                              },
                              "scale1" : {
                                "type" : "double",
                                "defaultValue" : 0.572792362768496,
                                "keyframes" : [
                                  {
                                    "time" : 34,
                                    "value" : 1.5000005983188,
                                    "duration" : 30
                                  }
                                ]
                              },
                              "cursorOpacity" : 1.0,
                              "cursorScale" : 1.0
                            },
                            "medias" : [
                                {
                                  "id" : 188,
                                  "_type" : "ScreenVMFile",
                                  "src" : 3,
                                  "trackNumber" : 0,
                                  "attributes" : {
                                    "ident" : "Rec 05-23-17 6"
                                  },
                                  "parameters" : {
                                    "cursorScale" : {
                                      "type" : "double",
                                      "defaultValue" : 0.0,
                                      "interp" : "linr"
                                    },
                                    "cursorOpacity" : {
                                      "type" : "double",
                                      "defaultValue" : 0.0,
                                      "interp" : "linr"
                                    }
                                  },
                                  "effects" : [

                                  ],
                                  "start" : 0,
                                  "duration" : 413,
                                  "mediaStart" : 0,
                                  "mediaDuration" : 413,
                                  "scalar" : 1,
                                  "metadata" : {
                                    "AutoAppliedSmartFocus" : "False",
                                    "WinSubProjectDisplayName" : "",
                                    "clipSpeedAttribute" : false,
                                    "default-scale0" : 0.572792362768496,
                                    "default-scale1" : 0.572792362768496,
                                    "default-translation0" : 0.0,
                                    "default-translation1" : 0.0
                                  },
                                  "animationTracks" : {

                                  }
                                },
                                {
                                  "id" : 189,
                                  "_type" : "ScreenVMFile",
                                  "src" : 3,
                                  "trackNumber" : 0,
                                  "attributes" : {
                                    "ident" : "Rec 05-23-17 6"
                                  },
                                  "parameters" : {
                                    "cursorScale" : {
                                      "type" : "double",
                                      "defaultValue" : 0.0,
                                      "interp" : "linr"
                                    },
                                    "cursorOpacity" : {
                                      "type" : "double",
                                      "defaultValue" : 0.0,
                                      "interp" : "linr"
                                    }
                                  },
                                  "effects" : [

                                  ],
                                  "start" : 413,
                                  "duration" : 210,
                                  "mediaStart" : 586,
                                  "mediaDuration" : 210,
                                  "scalar" : 1,
                                  "metadata" : {
                                    "AutoAppliedSmartFocus" : "False",
                                    "WinSubProjectDisplayName" : "",
                                    "clipSpeedAttribute" : false,
                                    "default-scale0" : 0.572792362768496,
                                    "default-scale1" : 0.572792362768496,
                                    "default-translation0" : 0.0,
                                    "default-translation1" : 0.0
                                  },
                                  "animationTracks" : {

                                  }
                                },
                                {
                                  "id" : 190,
                                  "_type" : "ScreenVMFile",
                                  "src" : 3,
                                  "trackNumber" : 0,
                                  "attributes" : {
                                    "ident" : "Rec 05-23-17 6"
                                  },
                                  "parameters" : {
                                    "cursorScale" : {
                                      "type" : "double",
                                      "defaultValue" : 0.0,
                                      "interp" : "linr"
                                    },
                                    "cursorOpacity" : {
                                      "type" : "double",
                                      "defaultValue" : 0.0,
                                      "interp" : "linr"
                                    }
                                  },
                                  "effects" : [

                                  ],
                                  "start" : 623,
                                  "duration" : 190,
                                  "mediaStart" : 850,
                                  "mediaDuration" : 190,
                                  "scalar" : 1,
                                  "metadata" : {
                                    "AutoAppliedSmartFocus" : "False",
                                    "WinSubProjectDisplayName" : "",
                                    "clipSpeedAttribute" : false,
                                    "default-scale0" : 0.572792362768496,
                                    "default-scale1" : 0.572792362768496,
                                    "default-translation0" : 0.0,
                                    "default-translation1" : 0.0
                                  },
                                  "animationTracks" : {

                                  }
                                },
                                {
                                  "id" : 191,
                                  "_type" : "ScreenVMFile",
                                  "src" : 3,
                                  "trackNumber" : 0,
                                  "attributes" : {
                                    "ident" : "Rec 05-23-17 6"
                                  },
                                  "parameters" : {
                                    "cursorScale" : {
                                      "type" : "double",
                                      "defaultValue" : 0.0,
                                      "interp" : "linr"
                                    },
                                    "cursorOpacity" : {
                                      "type" : "double",
                                      "defaultValue" : 0.0,
                                      "interp" : "linr"
                                    }
                                  },
                                  "effects" : [

                                  ],
                                  "start" : 813,
                                  "duration" : 869,
                                  "mediaStart" : 1203,
                                  "mediaDuration" : 869,
                                  "scalar" : 1,
                                  "metadata" : {
                                    "AutoAppliedSmartFocus" : "False",
                                    "WinSubProjectDisplayName" : "",
                                    "clipSpeedAttribute" : false,
                                    "default-scale0" : 0.572792362768496,
                                    "default-scale1" : 0.572792362768496,
                                    "default-translation0" : 0.0,
                                    "default-translation1" : 0.0
                                  },
                                  "animationTracks" : {

                                  }
                                },
                                {
                                  "id" : 192,
                                  "_type" : "ScreenVMFile",
                                  "src" : 3,
                                  "trackNumber" : 0,
                                  "attributes" : {
                                    "ident" : "Rec 05-23-17 6"
                                  },
                                  "parameters" : {
                                    "cursorScale" : {
                                      "type" : "double",
                                      "defaultValue" : 0.0,
                                      "interp" : "linr"
                                    },
                                    "cursorOpacity" : {
                                      "type" : "double",
                                      "defaultValue" : 0.0,
                                      "interp" : "linr"
                                    }
                                  },
                                  "effects" : [

                                  ],
                                  "start" : 1682,
                                  "duration" : 165,
                                  "mediaStart" : 2121,
                                  "mediaDuration" : 165,
                                  "scalar" : 1,
                                  "metadata" : {
                                    "AutoAppliedSmartFocus" : "False",
                                    "WinSubProjectDisplayName" : "",
                                    "clipSpeedAttribute" : false,
                                    "default-scale0" : 0.572792362768496,
                                    "default-scale1" : 0.572792362768496,
                                    "default-translation0" : 0.0,
                                    "default-translation1" : 0.0
                                  },
                                  "animationTracks" : {

                                  }
                                },
                                {
                                  "id" : 193,
                                  "_type" : "ScreenVMFile",
                                  "src" : 3,
                                  "trackNumber" : 0,
                                  "attributes" : {
                                    "ident" : "Rec 05-23-17 6"
                                  },
                                  "parameters" : {
                                    "cursorScale" : {
                                      "type" : "double",
                                      "defaultValue" : 0.0,
                                      "interp" : "linr"
                                    },
                                    "cursorOpacity" : {
                                      "type" : "double",
                                      "defaultValue" : 0.0,
                                      "interp" : "linr"
                                    }
                                  },
                                  "effects" : [

                                  ],
                                  "start" : 1847,
                                  "duration" : 1737,
                                  "mediaStart" : 2319,
                                  "mediaDuration" : 1737,
                                  "scalar" : 1,
                                  "metadata" : {
                                    "AutoAppliedSmartFocus" : "False",
                                    "WinSubProjectDisplayName" : "",
                                    "clipSpeedAttribute" : false,
                                    "default-scale0" : 0.572792362768496,
                                    "default-scale1" : 0.572792362768496,
                                    "default-translation0" : 0.0,
                                    "default-translation1" : 0.0
                                  },
                                  "animationTracks" : {

                                  }
                                }
                            ],
                            "effects" : [

                            ],
                            "start" : 528,
                            "duration" : 202,
                            "mediaStart" : 680,
                            "mediaDuration" : 202,
                            "scalar" : 1,
                            "metadata" : {
                              "AutoAppliedSmartFocus" : "False",
                              "WinSubProjectDisplayName" : "",
                              "clipSpeedAttribute" : false
                            },
                            "animationTracks" : {
                              "visual" : [
                                {
                                  "range" : [ 34, 30]
                                }
                              ]
                            }
                          },
                          {
                            "id" : 194,
                            "_type" : "StitchedMedia",
                            "minMediaStart" : 0,
                            "attributes" : {
                              "ident" : "Rec 05-23-17 6",
                              "gain" : 1.0,
                              "mixToMono" : false
                            },
                            "parameters" : {
                              "translation0" : {
                                "type" : "double",
                                "defaultValue" : -507.699698250945,
                                "keyframes" : [
                                  {
                                    "time" : 34,
                                    "value" : 269.300423660069,
                                    "duration" : 30
                                  }
                                ]
                              },
                              "translation1" : {
                                "type" : "double",
                                "defaultValue" : 235.059204672933,
                                "keyframes" : [
                                  {
                                    "time" : 34,
                                    "value" : -163.941100019637,
                                    "duration" : 30
                                  }
                                ]
                              },
                              "scale0" : {
                                "type" : "double",
                                "defaultValue" : 0.572792362768496,
                                "keyframes" : [
                                  {
                                    "time" : 34,
                                    "value" : 1.50000013297838,
                                    "duration" : 30
                                  }
                                ]
                              },
                              "scale1" : {
                                "type" : "double",
                                "defaultValue" : 0.572792362768496,
                                "keyframes" : [
                                  {
                                    "time" : 34,
                                    "value" : 1.5000005983188,
                                    "duration" : 30
                                  }
                                ]
                              },
                              "cursorOpacity" : 1.0,
                              "cursorScale" : 1.0
                            },
                            "medias" : [
                                {
                                  "id" : 195,
                                  "_type" : "ScreenVMFile",
                                  "src" : 3,
                                  "trackNumber" : 0,
                                  "attributes" : {
                                    "ident" : "Rec 05-23-17 6"
                                  },
                                  "parameters" : {
                                    "cursorScale" : {
                                      "type" : "double",
                                      "defaultValue" : 0.0,
                                      "interp" : "linr"
                                    },
                                    "cursorOpacity" : {
                                      "type" : "double",
                                      "defaultValue" : 0.0,
                                      "interp" : "linr"
                                    }
                                  },
                                  "effects" : [

                                  ],
                                  "start" : 0,
                                  "duration" : 413,
                                  "mediaStart" : 0,
                                  "mediaDuration" : 413,
                                  "scalar" : 1,
                                  "metadata" : {
                                    "AutoAppliedSmartFocus" : "False",
                                    "WinSubProjectDisplayName" : "",
                                    "clipSpeedAttribute" : false,
                                    "default-scale0" : 0.572792362768496,
                                    "default-scale1" : 0.572792362768496,
                                    "default-translation0" : 0.0,
                                    "default-translation1" : 0.0
                                  },
                                  "animationTracks" : {

                                  }
                                },
                                {
                                  "id" : 196,
                                  "_type" : "ScreenVMFile",
                                  "src" : 3,
                                  "trackNumber" : 0,
                                  "attributes" : {
                                    "ident" : "Rec 05-23-17 6"
                                  },
                                  "parameters" : {
                                    "cursorScale" : {
                                      "type" : "double",
                                      "defaultValue" : 0.0,
                                      "interp" : "linr"
                                    },
                                    "cursorOpacity" : {
                                      "type" : "double",
                                      "defaultValue" : 0.0,
                                      "interp" : "linr"
                                    }
                                  },
                                  "effects" : [

                                  ],
                                  "start" : 413,
                                  "duration" : 210,
                                  "mediaStart" : 586,
                                  "mediaDuration" : 210,
                                  "scalar" : 1,
                                  "metadata" : {
                                    "AutoAppliedSmartFocus" : "False",
                                    "WinSubProjectDisplayName" : "",
                                    "clipSpeedAttribute" : false,
                                    "default-scale0" : 0.572792362768496,
                                    "default-scale1" : 0.572792362768496,
                                    "default-translation0" : 0.0,
                                    "default-translation1" : 0.0
                                  },
                                  "animationTracks" : {

                                  }
                                },
                                {
                                  "id" : 197,
                                  "_type" : "ScreenVMFile",
                                  "src" : 3,
                                  "trackNumber" : 0,
                                  "attributes" : {
                                    "ident" : "Rec 05-23-17 6"
                                  },
                                  "parameters" : {
                                    "cursorScale" : {
                                      "type" : "double",
                                      "defaultValue" : 0.0,
                                      "interp" : "linr"
                                    },
                                    "cursorOpacity" : {
                                      "type" : "double",
                                      "defaultValue" : 0.0,
                                      "interp" : "linr"
                                    }
                                  },
                                  "effects" : [

                                  ],
                                  "start" : 623,
                                  "duration" : 190,
                                  "mediaStart" : 850,
                                  "mediaDuration" : 190,
                                  "scalar" : 1,
                                  "metadata" : {
                                    "AutoAppliedSmartFocus" : "False",
                                    "WinSubProjectDisplayName" : "",
                                    "clipSpeedAttribute" : false,
                                    "default-scale0" : 0.572792362768496,
                                    "default-scale1" : 0.572792362768496,
                                    "default-translation0" : 0.0,
                                    "default-translation1" : 0.0
                                  },
                                  "animationTracks" : {

                                  }
                                },
                                {
                                  "id" : 198,
                                  "_type" : "ScreenVMFile",
                                  "src" : 3,
                                  "trackNumber" : 0,
                                  "attributes" : {
                                    "ident" : "Rec 05-23-17 6"
                                  },
                                  "parameters" : {
                                    "cursorScale" : {
                                      "type" : "double",
                                      "defaultValue" : 0.0,
                                      "interp" : "linr"
                                    },
                                    "cursorOpacity" : {
                                      "type" : "double",
                                      "defaultValue" : 0.0,
                                      "interp" : "linr"
                                    }
                                  },
                                  "effects" : [

                                  ],
                                  "start" : 813,
                                  "duration" : 869,
                                  "mediaStart" : 1203,
                                  "mediaDuration" : 869,
                                  "scalar" : 1,
                                  "metadata" : {
                                    "AutoAppliedSmartFocus" : "False",
                                    "WinSubProjectDisplayName" : "",
                                    "clipSpeedAttribute" : false,
                                    "default-scale0" : 0.572792362768496,
                                    "default-scale1" : 0.572792362768496,
                                    "default-translation0" : 0.0,
                                    "default-translation1" : 0.0
                                  },
                                  "animationTracks" : {

                                  }
                                },
                                {
                                  "id" : 199,
                                  "_type" : "ScreenVMFile",
                                  "src" : 3,
                                  "trackNumber" : 0,
                                  "attributes" : {
                                    "ident" : "Rec 05-23-17 6"
                                  },
                                  "parameters" : {
                                    "cursorScale" : {
                                      "type" : "double",
                                      "defaultValue" : 0.0,
                                      "interp" : "linr"
                                    },
                                    "cursorOpacity" : {
                                      "type" : "double",
                                      "defaultValue" : 0.0,
                                      "interp" : "linr"
                                    }
                                  },
                                  "effects" : [

                                  ],
                                  "start" : 1682,
                                  "duration" : 165,
                                  "mediaStart" : 2121,
                                  "mediaDuration" : 165,
                                  "scalar" : 1,
                                  "metadata" : {
                                    "AutoAppliedSmartFocus" : "False",
                                    "WinSubProjectDisplayName" : "",
                                    "clipSpeedAttribute" : false,
                                    "default-scale0" : 0.572792362768496,
                                    "default-scale1" : 0.572792362768496,
                                    "default-translation0" : 0.0,
                                    "default-translation1" : 0.0
                                  },
                                  "animationTracks" : {

                                  }
                                },
                                {
                                  "id" : 200,
                                  "_type" : "ScreenVMFile",
                                  "src" : 3,
                                  "trackNumber" : 0,
                                  "attributes" : {
                                    "ident" : "Rec 05-23-17 6"
                                  },
                                  "parameters" : {
                                    "cursorScale" : {
                                      "type" : "double",
                                      "defaultValue" : 0.0,
                                      "interp" : "linr"
                                    },
                                    "cursorOpacity" : {
                                      "type" : "double",
                                      "defaultValue" : 0.0,
                                      "interp" : "linr"
                                    }
                                  },
                                  "effects" : [

                                  ],
                                  "start" : 1847,
                                  "duration" : 1737,
                                  "mediaStart" : 2319,
                                  "mediaDuration" : 1737,
                                  "scalar" : 1,
                                  "metadata" : {
                                    "AutoAppliedSmartFocus" : "False",
                                    "WinSubProjectDisplayName" : "",
                                    "clipSpeedAttribute" : false,
                                    "default-scale0" : 0.572792362768496,
                                    "default-scale1" : 0.572792362768496,
                                    "default-translation0" : 0.0,
                                    "default-translation1" : 0.0
                                  },
                                  "animationTracks" : {

                                  }
                                }
                            ],
                            "effects" : [

                            ],
                            "start" : 730,
                            "duration" : 69,
                            "mediaStart" : 1064,
                            "mediaDuration" : 206,
                            "scalar" : "69/206",
                            "metadata" : {
                              "AutoAppliedSmartFocus" : "False",
                              "WinSubProjectDisplayName" : "",
                              "clipSpeedAttribute" : true
                            },
                            "animationTracks" : {
                              "visual" : [
                                {
                                  "range" : [ 34, 30]
                                }
                              ]
                            }
                          },
                          {
                            "id" : 201,
                            "_type" : "StitchedMedia",
                            "minMediaStart" : 0,
                            "attributes" : {
                              "ident" : "Rec 05-23-17 6",
                              "gain" : 1.0,
                              "mixToMono" : false
                            },
                            "parameters" : {
                              "translation0" : {
                                "type" : "double",
                                "defaultValue" : -507.699698250945,
                                "keyframes" : [
                                  {
                                    "time" : 34,
                                    "value" : 269.300423660069,
                                    "duration" : 30
                                  }
                                ]
                              },
                              "translation1" : {
                                "type" : "double",
                                "defaultValue" : 235.059204672933,
                                "keyframes" : [
                                  {
                                    "time" : 34,
                                    "value" : -163.941100019637,
                                    "duration" : 30
                                  }
                                ]
                              },
                              "scale0" : {
                                "type" : "double",
                                "defaultValue" : 0.572792362768496,
                                "keyframes" : [
                                  {
                                    "time" : 34,
                                    "value" : 1.50000013297838,
                                    "duration" : 30
                                  }
                                ]
                              },
                              "scale1" : {
                                "type" : "double",
                                "defaultValue" : 0.572792362768496,
                                "keyframes" : [
                                  {
                                    "time" : 34,
                                    "value" : 1.5000005983188,
                                    "duration" : 30
                                  }
                                ]
                              },
                              "cursorOpacity" : 1.0,
                              "cursorScale" : 1.0
                            },
                            "medias" : [
                                {
                                  "id" : 202,
                                  "_type" : "ScreenVMFile",
                                  "src" : 3,
                                  "trackNumber" : 0,
                                  "attributes" : {
                                    "ident" : "Rec 05-23-17 6"
                                  },
                                  "parameters" : {
                                    "cursorScale" : {
                                      "type" : "double",
                                      "defaultValue" : 0.0,
                                      "interp" : "linr"
                                    },
                                    "cursorOpacity" : {
                                      "type" : "double",
                                      "defaultValue" : 0.0,
                                      "interp" : "linr"
                                    }
                                  },
                                  "effects" : [

                                  ],
                                  "start" : 0,
                                  "duration" : 413,
                                  "mediaStart" : 0,
                                  "mediaDuration" : 413,
                                  "scalar" : 1,
                                  "metadata" : {
                                    "AutoAppliedSmartFocus" : "False",
                                    "WinSubProjectDisplayName" : "",
                                    "clipSpeedAttribute" : false,
                                    "default-scale0" : 0.572792362768496,
                                    "default-scale1" : 0.572792362768496,
                                    "default-translation0" : 0.0,
                                    "default-translation1" : 0.0
                                  },
                                  "animationTracks" : {

                                  }
                                },
                                {
                                  "id" : 203,
                                  "_type" : "ScreenVMFile",
                                  "src" : 3,
                                  "trackNumber" : 0,
                                  "attributes" : {
                                    "ident" : "Rec 05-23-17 6"
                                  },
                                  "parameters" : {
                                    "cursorScale" : {
                                      "type" : "double",
                                      "defaultValue" : 0.0,
                                      "interp" : "linr"
                                    },
                                    "cursorOpacity" : {
                                      "type" : "double",
                                      "defaultValue" : 0.0,
                                      "interp" : "linr"
                                    }
                                  },
                                  "effects" : [

                                  ],
                                  "start" : 413,
                                  "duration" : 210,
                                  "mediaStart" : 586,
                                  "mediaDuration" : 210,
                                  "scalar" : 1,
                                  "metadata" : {
                                    "AutoAppliedSmartFocus" : "False",
                                    "WinSubProjectDisplayName" : "",
                                    "clipSpeedAttribute" : false,
                                    "default-scale0" : 0.572792362768496,
                                    "default-scale1" : 0.572792362768496,
                                    "default-translation0" : 0.0,
                                    "default-translation1" : 0.0
                                  },
                                  "animationTracks" : {

                                  }
                                },
                                {
                                  "id" : 204,
                                  "_type" : "ScreenVMFile",
                                  "src" : 3,
                                  "trackNumber" : 0,
                                  "attributes" : {
                                    "ident" : "Rec 05-23-17 6"
                                  },
                                  "parameters" : {
                                    "cursorScale" : {
                                      "type" : "double",
                                      "defaultValue" : 0.0,
                                      "interp" : "linr"
                                    },
                                    "cursorOpacity" : {
                                      "type" : "double",
                                      "defaultValue" : 0.0,
                                      "interp" : "linr"
                                    }
                                  },
                                  "effects" : [

                                  ],
                                  "start" : 623,
                                  "duration" : 190,
                                  "mediaStart" : 850,
                                  "mediaDuration" : 190,
                                  "scalar" : 1,
                                  "metadata" : {
                                    "AutoAppliedSmartFocus" : "False",
                                    "WinSubProjectDisplayName" : "",
                                    "clipSpeedAttribute" : false,
                                    "default-scale0" : 0.572792362768496,
                                    "default-scale1" : 0.572792362768496,
                                    "default-translation0" : 0.0,
                                    "default-translation1" : 0.0
                                  },
                                  "animationTracks" : {

                                  }
                                },
                                {
                                  "id" : 205,
                                  "_type" : "ScreenVMFile",
                                  "src" : 3,
                                  "trackNumber" : 0,
                                  "attributes" : {
                                    "ident" : "Rec 05-23-17 6"
                                  },
                                  "parameters" : {
                                    "cursorScale" : {
                                      "type" : "double",
                                      "defaultValue" : 0.0,
                                      "interp" : "linr"
                                    },
                                    "cursorOpacity" : {
                                      "type" : "double",
                                      "defaultValue" : 0.0,
                                      "interp" : "linr"
                                    }
                                  },
                                  "effects" : [

                                  ],
                                  "start" : 813,
                                  "duration" : 869,
                                  "mediaStart" : 1203,
                                  "mediaDuration" : 869,
                                  "scalar" : 1,
                                  "metadata" : {
                                    "AutoAppliedSmartFocus" : "False",
                                    "WinSubProjectDisplayName" : "",
                                    "clipSpeedAttribute" : false,
                                    "default-scale0" : 0.572792362768496,
                                    "default-scale1" : 0.572792362768496,
                                    "default-translation0" : 0.0,
                                    "default-translation1" : 0.0
                                  },
                                  "animationTracks" : {

                                  }
                                },
                                {
                                  "id" : 206,
                                  "_type" : "ScreenVMFile",
                                  "src" : 3,
                                  "trackNumber" : 0,
                                  "attributes" : {
                                    "ident" : "Rec 05-23-17 6"
                                  },
                                  "parameters" : {
                                    "cursorScale" : {
                                      "type" : "double",
                                      "defaultValue" : 0.0,
                                      "interp" : "linr"
                                    },
                                    "cursorOpacity" : {
                                      "type" : "double",
                                      "defaultValue" : 0.0,
                                      "interp" : "linr"
                                    }
                                  },
                                  "effects" : [

                                  ],
                                  "start" : 1682,
                                  "duration" : 165,
                                  "mediaStart" : 2121,
                                  "mediaDuration" : 165,
                                  "scalar" : 1,
                                  "metadata" : {
                                    "AutoAppliedSmartFocus" : "False",
                                    "WinSubProjectDisplayName" : "",
                                    "clipSpeedAttribute" : false,
                                    "default-scale0" : 0.572792362768496,
                                    "default-scale1" : 0.572792362768496,
                                    "default-translation0" : 0.0,
                                    "default-translation1" : 0.0
                                  },
                                  "animationTracks" : {

                                  }
                                },
                                {
                                  "id" : 207,
                                  "_type" : "ScreenVMFile",
                                  "src" : 3,
                                  "trackNumber" : 0,
                                  "attributes" : {
                                    "ident" : "Rec 05-23-17 6"
                                  },
                                  "parameters" : {
                                    "cursorScale" : {
                                      "type" : "double",
                                      "defaultValue" : 0.0,
                                      "interp" : "linr"
                                    },
                                    "cursorOpacity" : {
                                      "type" : "double",
                                      "defaultValue" : 0.0,
                                      "interp" : "linr"
                                    }
                                  },
                                  "effects" : [

                                  ],
                                  "start" : 1847,
                                  "duration" : 1737,
                                  "mediaStart" : 2319,
                                  "mediaDuration" : 1737,
                                  "scalar" : 1,
                                  "metadata" : {
                                    "AutoAppliedSmartFocus" : "False",
                                    "WinSubProjectDisplayName" : "",
                                    "clipSpeedAttribute" : false,
                                    "default-scale0" : 0.572792362768496,
                                    "default-scale1" : 0.572792362768496,
                                    "default-translation0" : 0.0,
                                    "default-translation1" : 0.0
                                  },
                                  "animationTracks" : {

                                  }
                                }
                            ],
                            "effects" : [

                            ],
                            "start" : 799,
                            "duration" : 428,
                            "mediaStart" : 1270,
                            "mediaDuration" : 428,
                            "scalar" : 1,
                            "metadata" : {
                              "AutoAppliedSmartFocus" : "False",
                              "WinSubProjectDisplayName" : "",
                              "clipSpeedAttribute" : false
                            },
                            "animationTracks" : {
                              "visual" : [
                                {
                                  "range" : [ 34, 30]
                                }
                              ]
                            }
                          },
                          {
                            "id" : 208,
                            "_type" : "StitchedMedia",
                            "minMediaStart" : 0,
                            "attributes" : {
                              "ident" : "Rec 05-23-17 6",
                              "gain" : 1.0,
                              "mixToMono" : false
                            },
                            "parameters" : {
                              "translation0" : {
                                "type" : "double",
                                "defaultValue" : -507.699698250945,
                                "keyframes" : [
                                  {
                                    "time" : 34,
                                    "value" : 269.300423660069,
                                    "duration" : 30
                                  }
                                ]
                              },
                              "translation1" : {
                                "type" : "double",
                                "defaultValue" : 235.059204672933,
                                "keyframes" : [
                                  {
                                    "time" : 34,
                                    "value" : -163.941100019637,
                                    "duration" : 30
                                  }
                                ]
                              },
                              "scale0" : {
                                "type" : "double",
                                "defaultValue" : 0.572792362768496,
                                "keyframes" : [
                                  {
                                    "time" : 34,
                                    "value" : 1.50000013297838,
                                    "duration" : 30
                                  }
                                ]
                              },
                              "scale1" : {
                                "type" : "double",
                                "defaultValue" : 0.572792362768496,
                                "keyframes" : [
                                  {
                                    "time" : 34,
                                    "value" : 1.5000005983188,
                                    "duration" : 30
                                  }
                                ]
                              },
                              "cursorOpacity" : 1.0,
                              "cursorScale" : 1.0
                            },
                            "medias" : [
                                {
                                  "id" : 209,
                                  "_type" : "ScreenVMFile",
                                  "src" : 3,
                                  "trackNumber" : 0,
                                  "attributes" : {
                                    "ident" : "Rec 05-23-17 6"
                                  },
                                  "parameters" : {
                                    "cursorScale" : {
                                      "type" : "double",
                                      "defaultValue" : 0.0,
                                      "interp" : "linr"
                                    },
                                    "cursorOpacity" : {
                                      "type" : "double",
                                      "defaultValue" : 0.0,
                                      "interp" : "linr"
                                    }
                                  },
                                  "effects" : [

                                  ],
                                  "start" : 0,
                                  "duration" : 413,
                                  "mediaStart" : 0,
                                  "mediaDuration" : 413,
                                  "scalar" : 1,
                                  "metadata" : {
                                    "AutoAppliedSmartFocus" : "False",
                                    "WinSubProjectDisplayName" : "",
                                    "clipSpeedAttribute" : false,
                                    "default-scale0" : 0.572792362768496,
                                    "default-scale1" : 0.572792362768496,
                                    "default-translation0" : 0.0,
                                    "default-translation1" : 0.0
                                  },
                                  "animationTracks" : {

                                  }
                                },
                                {
                                  "id" : 210,
                                  "_type" : "ScreenVMFile",
                                  "src" : 3,
                                  "trackNumber" : 0,
                                  "attributes" : {
                                    "ident" : "Rec 05-23-17 6"
                                  },
                                  "parameters" : {
                                    "cursorScale" : {
                                      "type" : "double",
                                      "defaultValue" : 0.0,
                                      "interp" : "linr"
                                    },
                                    "cursorOpacity" : {
                                      "type" : "double",
                                      "defaultValue" : 0.0,
                                      "interp" : "linr"
                                    }
                                  },
                                  "effects" : [

                                  ],
                                  "start" : 413,
                                  "duration" : 210,
                                  "mediaStart" : 586,
                                  "mediaDuration" : 210,
                                  "scalar" : 1,
                                  "metadata" : {
                                    "AutoAppliedSmartFocus" : "False",
                                    "WinSubProjectDisplayName" : "",
                                    "clipSpeedAttribute" : false,
                                    "default-scale0" : 0.572792362768496,
                                    "default-scale1" : 0.572792362768496,
                                    "default-translation0" : 0.0,
                                    "default-translation1" : 0.0
                                  },
                                  "animationTracks" : {

                                  }
                                },
                                {
                                  "id" : 211,
                                  "_type" : "ScreenVMFile",
                                  "src" : 3,
                                  "trackNumber" : 0,
                                  "attributes" : {
                                    "ident" : "Rec 05-23-17 6"
                                  },
                                  "parameters" : {
                                    "cursorScale" : {
                                      "type" : "double",
                                      "defaultValue" : 0.0,
                                      "interp" : "linr"
                                    },
                                    "cursorOpacity" : {
                                      "type" : "double",
                                      "defaultValue" : 0.0,
                                      "interp" : "linr"
                                    }
                                  },
                                  "effects" : [

                                  ],
                                  "start" : 623,
                                  "duration" : 190,
                                  "mediaStart" : 850,
                                  "mediaDuration" : 190,
                                  "scalar" : 1,
                                  "metadata" : {
                                    "AutoAppliedSmartFocus" : "False",
                                    "WinSubProjectDisplayName" : "",
                                    "clipSpeedAttribute" : false,
                                    "default-scale0" : 0.572792362768496,
                                    "default-scale1" : 0.572792362768496,
                                    "default-translation0" : 0.0,
                                    "default-translation1" : 0.0
                                  },
                                  "animationTracks" : {

                                  }
                                },
                                {
                                  "id" : 212,
                                  "_type" : "ScreenVMFile",
                                  "src" : 3,
                                  "trackNumber" : 0,
                                  "attributes" : {
                                    "ident" : "Rec 05-23-17 6"
                                  },
                                  "parameters" : {
                                    "cursorScale" : {
                                      "type" : "double",
                                      "defaultValue" : 0.0,
                                      "interp" : "linr"
                                    },
                                    "cursorOpacity" : {
                                      "type" : "double",
                                      "defaultValue" : 0.0,
                                      "interp" : "linr"
                                    }
                                  },
                                  "effects" : [

                                  ],
                                  "start" : 813,
                                  "duration" : 869,
                                  "mediaStart" : 1203,
                                  "mediaDuration" : 869,
                                  "scalar" : 1,
                                  "metadata" : {
                                    "AutoAppliedSmartFocus" : "False",
                                    "WinSubProjectDisplayName" : "",
                                    "clipSpeedAttribute" : false,
                                    "default-scale0" : 0.572792362768496,
                                    "default-scale1" : 0.572792362768496,
                                    "default-translation0" : 0.0,
                                    "default-translation1" : 0.0
                                  },
                                  "animationTracks" : {

                                  }
                                },
                                {
                                  "id" : 213,
                                  "_type" : "ScreenVMFile",
                                  "src" : 3,
                                  "trackNumber" : 0,
                                  "attributes" : {
                                    "ident" : "Rec 05-23-17 6"
                                  },
                                  "parameters" : {
                                    "cursorScale" : {
                                      "type" : "double",
                                      "defaultValue" : 0.0,
                                      "interp" : "linr"
                                    },
                                    "cursorOpacity" : {
                                      "type" : "double",
                                      "defaultValue" : 0.0,
                                      "interp" : "linr"
                                    }
                                  },
                                  "effects" : [

                                  ],
                                  "start" : 1682,
                                  "duration" : 165,
                                  "mediaStart" : 2121,
                                  "mediaDuration" : 165,
                                  "scalar" : 1,
                                  "metadata" : {
                                    "AutoAppliedSmartFocus" : "False",
                                    "WinSubProjectDisplayName" : "",
                                    "clipSpeedAttribute" : false,
                                    "default-scale0" : 0.572792362768496,
                                    "default-scale1" : 0.572792362768496,
                                    "default-translation0" : 0.0,
                                    "default-translation1" : 0.0
                                  },
                                  "animationTracks" : {

                                  }
                                },
                                {
                                  "id" : 214,
                                  "_type" : "ScreenVMFile",
                                  "src" : 3,
                                  "trackNumber" : 0,
                                  "attributes" : {
                                    "ident" : "Rec 05-23-17 6"
                                  },
                                  "parameters" : {
                                    "cursorScale" : {
                                      "type" : "double",
                                      "defaultValue" : 0.0,
                                      "interp" : "linr"
                                    },
                                    "cursorOpacity" : {
                                      "type" : "double",
                                      "defaultValue" : 0.0,
                                      "interp" : "linr"
                                    }
                                  },
                                  "effects" : [

                                  ],
                                  "start" : 1847,
                                  "duration" : 1737,
                                  "mediaStart" : 2319,
                                  "mediaDuration" : 1737,
                                  "scalar" : 1,
                                  "metadata" : {
                                    "AutoAppliedSmartFocus" : "False",
                                    "WinSubProjectDisplayName" : "",
                                    "clipSpeedAttribute" : false,
                                    "default-scale0" : 0.572792362768496,
                                    "default-scale1" : 0.572792362768496,
                                    "default-translation0" : 0.0,
                                    "default-translation1" : 0.0
                                  },
                                  "animationTracks" : {

                                  }
                                }
                            ],
                            "effects" : [

                            ],
                            "start" : 1227,
                            "duration" : 124,
                            "mediaStart" : "32131/19",
                            "mediaDuration" : "5394/19",
                            "scalar" : "38/87",
                            "metadata" : {
                              "AutoAppliedSmartFocus" : "False",
                              "WinSubProjectDisplayName" : "",
                              "clipSpeedAttribute" : true
                            },
                            "animationTracks" : {
                              "visual" : [
                                {
                                  "range" : [ 34, 30]
                                }
                              ]
                            }
                          },
                          {
                            "id" : 215,
                            "_type" : "StitchedMedia",
                            "minMediaStart" : 0,
                            "attributes" : {
                              "ident" : "Rec 05-23-17 6",
                              "gain" : 1.0,
                              "mixToMono" : false
                            },
                            "parameters" : {
                              "translation0" : {
                                "type" : "double",
                                "defaultValue" : -507.699698250945,
                                "keyframes" : [
                                  {
                                    "time" : 34,
                                    "value" : 269.300423660069,
                                    "duration" : 30
                                  }
                                ]
                              },
                              "translation1" : {
                                "type" : "double",
                                "defaultValue" : 235.059204672933,
                                "keyframes" : [
                                  {
                                    "time" : 34,
                                    "value" : -163.941100019637,
                                    "duration" : 30
                                  }
                                ]
                              },
                              "scale0" : {
                                "type" : "double",
                                "defaultValue" : 0.572792362768496,
                                "keyframes" : [
                                  {
                                    "time" : 34,
                                    "value" : 1.50000013297838,
                                    "duration" : 30
                                  }
                                ]
                              },
                              "scale1" : {
                                "type" : "double",
                                "defaultValue" : 0.572792362768496,
                                "keyframes" : [
                                  {
                                    "time" : 34,
                                    "value" : 1.5000005983188,
                                    "duration" : 30
                                  }
                                ]
                              },
                              "cursorOpacity" : 1.0,
                              "cursorScale" : 1.0
                            },
                            "medias" : [
                                {
                                  "id" : 216,
                                  "_type" : "ScreenVMFile",
                                  "src" : 3,
                                  "trackNumber" : 0,
                                  "attributes" : {
                                    "ident" : "Rec 05-23-17 6"
                                  },
                                  "parameters" : {
                                    "cursorScale" : {
                                      "type" : "double",
                                      "defaultValue" : 0.0,
                                      "interp" : "linr"
                                    },
                                    "cursorOpacity" : {
                                      "type" : "double",
                                      "defaultValue" : 0.0,
                                      "interp" : "linr"
                                    }
                                  },
                                  "effects" : [

                                  ],
                                  "start" : 0,
                                  "duration" : 413,
                                  "mediaStart" : 0,
                                  "mediaDuration" : 413,
                                  "scalar" : 1,
                                  "metadata" : {
                                    "AutoAppliedSmartFocus" : "False",
                                    "WinSubProjectDisplayName" : "",
                                    "clipSpeedAttribute" : false,
                                    "default-scale0" : 0.572792362768496,
                                    "default-scale1" : 0.572792362768496,
                                    "default-translation0" : 0.0,
                                    "default-translation1" : 0.0
                                  },
                                  "animationTracks" : {

                                  }
                                },
                                {
                                  "id" : 217,
                                  "_type" : "ScreenVMFile",
                                  "src" : 3,
                                  "trackNumber" : 0,
                                  "attributes" : {
                                    "ident" : "Rec 05-23-17 6"
                                  },
                                  "parameters" : {
                                    "cursorScale" : {
                                      "type" : "double",
                                      "defaultValue" : 0.0,
                                      "interp" : "linr"
                                    },
                                    "cursorOpacity" : {
                                      "type" : "double",
                                      "defaultValue" : 0.0,
                                      "interp" : "linr"
                                    }
                                  },
                                  "effects" : [

                                  ],
                                  "start" : 413,
                                  "duration" : 210,
                                  "mediaStart" : 586,
                                  "mediaDuration" : 210,
                                  "scalar" : 1,
                                  "metadata" : {
                                    "AutoAppliedSmartFocus" : "False",
                                    "WinSubProjectDisplayName" : "",
                                    "clipSpeedAttribute" : false,
                                    "default-scale0" : 0.572792362768496,
                                    "default-scale1" : 0.572792362768496,
                                    "default-translation0" : 0.0,
                                    "default-translation1" : 0.0
                                  },
                                  "animationTracks" : {

                                  }
                                },
                                {
                                  "id" : 218,
                                  "_type" : "ScreenVMFile",
                                  "src" : 3,
                                  "trackNumber" : 0,
                                  "attributes" : {
                                    "ident" : "Rec 05-23-17 6"
                                  },
                                  "parameters" : {
                                    "cursorScale" : {
                                      "type" : "double",
                                      "defaultValue" : 0.0,
                                      "interp" : "linr"
                                    },
                                    "cursorOpacity" : {
                                      "type" : "double",
                                      "defaultValue" : 0.0,
                                      "interp" : "linr"
                                    }
                                  },
                                  "effects" : [

                                  ],
                                  "start" : 623,
                                  "duration" : 190,
                                  "mediaStart" : 850,
                                  "mediaDuration" : 190,
                                  "scalar" : 1,
                                  "metadata" : {
                                    "AutoAppliedSmartFocus" : "False",
                                    "WinSubProjectDisplayName" : "",
                                    "clipSpeedAttribute" : false,
                                    "default-scale0" : 0.572792362768496,
                                    "default-scale1" : 0.572792362768496,
                                    "default-translation0" : 0.0,
                                    "default-translation1" : 0.0
                                  },
                                  "animationTracks" : {

                                  }
                                },
                                {
                                  "id" : 219,
                                  "_type" : "ScreenVMFile",
                                  "src" : 3,
                                  "trackNumber" : 0,
                                  "attributes" : {
                                    "ident" : "Rec 05-23-17 6"
                                  },
                                  "parameters" : {
                                    "cursorScale" : {
                                      "type" : "double",
                                      "defaultValue" : 0.0,
                                      "interp" : "linr"
                                    },
                                    "cursorOpacity" : {
                                      "type" : "double",
                                      "defaultValue" : 0.0,
                                      "interp" : "linr"
                                    }
                                  },
                                  "effects" : [

                                  ],
                                  "start" : 813,
                                  "duration" : 869,
                                  "mediaStart" : 1203,
                                  "mediaDuration" : 869,
                                  "scalar" : 1,
                                  "metadata" : {
                                    "AutoAppliedSmartFocus" : "False",
                                    "WinSubProjectDisplayName" : "",
                                    "clipSpeedAttribute" : false,
                                    "default-scale0" : 0.572792362768496,
                                    "default-scale1" : 0.572792362768496,
                                    "default-translation0" : 0.0,
                                    "default-translation1" : 0.0
                                  },
                                  "animationTracks" : {

                                  }
                                },
                                {
                                  "id" : 220,
                                  "_type" : "ScreenVMFile",
                                  "src" : 3,
                                  "trackNumber" : 0,
                                  "attributes" : {
                                    "ident" : "Rec 05-23-17 6"
                                  },
                                  "parameters" : {
                                    "cursorScale" : {
                                      "type" : "double",
                                      "defaultValue" : 0.0,
                                      "interp" : "linr"
                                    },
                                    "cursorOpacity" : {
                                      "type" : "double",
                                      "defaultValue" : 0.0,
                                      "interp" : "linr"
                                    }
                                  },
                                  "effects" : [

                                  ],
                                  "start" : 1682,
                                  "duration" : 165,
                                  "mediaStart" : 2121,
                                  "mediaDuration" : 165,
                                  "scalar" : 1,
                                  "metadata" : {
                                    "AutoAppliedSmartFocus" : "False",
                                    "WinSubProjectDisplayName" : "",
                                    "clipSpeedAttribute" : false,
                                    "default-scale0" : 0.572792362768496,
                                    "default-scale1" : 0.572792362768496,
                                    "default-translation0" : 0.0,
                                    "default-translation1" : 0.0
                                  },
                                  "animationTracks" : {

                                  }
                                },
                                {
                                  "id" : 221,
                                  "_type" : "ScreenVMFile",
                                  "src" : 3,
                                  "trackNumber" : 0,
                                  "attributes" : {
                                    "ident" : "Rec 05-23-17 6"
                                  },
                                  "parameters" : {
                                    "cursorScale" : {
                                      "type" : "double",
                                      "defaultValue" : 0.0,
                                      "interp" : "linr"
                                    },
                                    "cursorOpacity" : {
                                      "type" : "double",
                                      "defaultValue" : 0.0,
                                      "interp" : "linr"
                                    }
                                  },
                                  "effects" : [

                                  ],
                                  "start" : 1847,
                                  "duration" : 1737,
                                  "mediaStart" : 2319,
                                  "mediaDuration" : 1737,
                                  "scalar" : 1,
                                  "metadata" : {
                                    "AutoAppliedSmartFocus" : "False",
                                    "WinSubProjectDisplayName" : "",
                                    "clipSpeedAttribute" : false,
                                    "default-scale0" : 0.572792362768496,
                                    "default-scale1" : 0.572792362768496,
                                    "default-translation0" : 0.0,
                                    "default-translation1" : 0.0
                                  },
                                  "animationTracks" : {

                                  }
                                }
                            ],
                            "effects" : [

                            ],
                            "start" : 1351,
                            "duration" : 14,
                            "mediaStart" : 1962,
                            "mediaDuration" : 14,
                            "scalar" : 1,
                            "metadata" : {
                              "AutoAppliedSmartFocus" : "False",
                              "WinSubProjectDisplayName" : "",
                              "clipSpeedAttribute" : false
                            },
                            "animationTracks" : {
                              "visual" : [
                                {
                                  "range" : [ 34, 30]
                                }
                              ]
                            }
                          },
                          {
                            "id" : 222,
                            "_type" : "StitchedMedia",
                            "minMediaStart" : 0,
                            "attributes" : {
                              "ident" : "Rec 05-23-17 6",
                              "gain" : 1.0,
                              "mixToMono" : false
                            },
                            "parameters" : {
                              "translation0" : {
                                "type" : "double",
                                "defaultValue" : -507.699698250945,
                                "keyframes" : [
                                  {
                                    "time" : 83,
                                    "value" : 269.300413184906,
                                    "duration" : 30
                                  },
                                  {
                                    "time" : 2465,
                                    "value" : -269.300281175448,
                                    "duration" : 30
                                  }
                                ]
                              },
                              "translation1" : {
                                "type" : "double",
                                "defaultValue" : 235.059204672933,
                                "keyframes" : [
                                  {
                                    "time" : 83,
                                    "value" : -163.941098076424,
                                    "duration" : 30
                                  },
                                  {
                                    "time" : 2465,
                                    "value" : 163.941100019638,
                                    "duration" : 30
                                  }
                                ]
                              },
                              "scale0" : {
                                "type" : "double",
                                "defaultValue" : 0.572792362768496,
                                "keyframes" : [
                                  {
                                    "time" : 83,
                                    "value" : 1.50000013297838,
                                    "duration" : 30
                                  },
                                  {
                                    "time" : 2465,
                                    "value" : 1.50000030300776,
                                    "duration" : 30
                                  }
                                ]
                              },
                              "scale1" : {
                                "type" : "double",
                                "defaultValue" : 0.572792362768496,
                                "keyframes" : [
                                  {
                                    "time" : 83,
                                    "value" : 1.5000005983188,
                                    "duration" : 30
                                  }
                                ]
                              },
                              "cursorOpacity" : 1.0,
                              "cursorScale" : 1.0
                            },
                            "medias" : [
                                {
                                  "id" : 223,
                                  "_type" : "ScreenVMFile",
                                  "src" : 3,
                                  "trackNumber" : 0,
                                  "attributes" : {
                                    "ident" : "Rec 05-23-17 6"
                                  },
                                  "parameters" : {
                                    "cursorScale" : {
                                      "type" : "double",
                                      "defaultValue" : 0.0,
                                      "interp" : "linr"
                                    },
                                    "cursorOpacity" : {
                                      "type" : "double",
                                      "defaultValue" : 0.0,
                                      "interp" : "linr"
                                    }
                                  },
                                  "effects" : [

                                  ],
                                  "start" : 0,
                                  "duration" : 2531,
                                  "mediaStart" : 0,
                                  "mediaDuration" : 2531,
                                  "scalar" : 1,
                                  "metadata" : {
                                    "AutoAppliedSmartFocus" : "False",
                                    "WinSubProjectDisplayName" : "",
                                    "clipSpeedAttribute" : false,
                                    "default-scale0" : 0.572792362768496,
                                    "default-scale1" : 0.572792362768496,
                                    "default-translation0" : 0.0,
                                    "default-translation1" : 0.0
                                  },
                                  "animationTracks" : {

                                  }
                                },
                                {
                                  "id" : 224,
                                  "_type" : "ScreenVMFile",
                                  "src" : 3,
                                  "trackNumber" : 0,
                                  "attributes" : {
                                    "ident" : "Rec 05-23-17 6"
                                  },
                                  "parameters" : {
                                    "cursorScale" : {
                                      "type" : "double",
                                      "defaultValue" : 0.0,
                                      "interp" : "linr"
                                    },
                                    "cursorOpacity" : {
                                      "type" : "double",
                                      "defaultValue" : 0.0,
                                      "interp" : "linr"
                                    }
                                  },
                                  "effects" : [

                                  ],
                                  "start" : 2531,
                                  "duration" : 1414,
                                  "mediaStart" : 2642,
                                  "mediaDuration" : 1414,
                                  "scalar" : 1,
                                  "metadata" : {
                                    "AutoAppliedSmartFocus" : "False",
                                    "WinSubProjectDisplayName" : "",
                                    "clipSpeedAttribute" : false,
                                    "default-scale0" : 0.572792362768496,
                                    "default-scale1" : 0.572792362768496,
                                    "default-translation0" : 0.0,
                                    "default-translation1" : 0.0
                                  },
                                  "animationTracks" : {

                                  }
                                }
                            ],
                            "effects" : [

                            ],
                            "start" : 1365,
                            "duration" : 94,
                            "mediaStart" : 2474,
                            "mediaDuration" : 94,
                            "scalar" : 1,
                            "metadata" : {
                              "AutoAppliedSmartFocus" : "False",
                              "WinSubProjectDisplayName" : "",
                              "clipSpeedAttribute" : false
                            },
                            "animationTracks" : {
                              "visual" : [
                                {
                                  "range" : [ 83, 30]
                                },
                                {
                                  "range" : [ 2465, 30]
                                }
                              ]
                            }
                          },
                          {
                            "id" : 225,
                            "_type" : "StitchedMedia",
                            "minMediaStart" : 0,
                            "attributes" : {
                              "ident" : "Rec 05-23-17 6",
                              "gain" : 1.0,
                              "mixToMono" : false
                            },
                            "parameters" : {
                              "translation0" : -269.300281175448,
                              "translation1" : 163.941100019638,
                              "scale0" : 1.50000030300776,
                              "scale1" : 1.5000005983188,
                              "cursorOpacity" : 1.0,
                              "cursorScale" : 1.0
                            },
                            "medias" : [
                                {
                                  "id" : 226,
                                  "_type" : "ScreenVMFile",
                                  "src" : 3,
                                  "trackNumber" : 0,
                                  "attributes" : {
                                    "ident" : "Rec 05-23-17 6"
                                  },
                                  "parameters" : {
                                    "cursorScale" : {
                                      "type" : "double",
                                      "defaultValue" : 0.0,
                                      "interp" : "linr"
                                    },
                                    "cursorOpacity" : {
                                      "type" : "double",
                                      "defaultValue" : 0.0,
                                      "interp" : "linr"
                                    }
                                  },
                                  "effects" : [

                                  ],
                                  "start" : 0,
                                  "duration" : 2865,
                                  "mediaStart" : 0,
                                  "mediaDuration" : 2865,
                                  "scalar" : 1,
                                  "metadata" : {
                                    "AutoAppliedSmartFocus" : "False",
                                    "WinSubProjectDisplayName" : "",
                                    "clipSpeedAttribute" : false,
                                    "default-scale0" : 0.572792362768496,
                                    "default-scale1" : 0.572792362768496,
                                    "default-translation0" : 0.0,
                                    "default-translation1" : 0.0
                                  },
                                  "animationTracks" : {

                                  }
                                },
                                {
                                  "id" : 227,
                                  "_type" : "ScreenVMFile",
                                  "src" : 3,
                                  "trackNumber" : 0,
                                  "attributes" : {
                                    "ident" : "Rec 05-23-17 6"
                                  },
                                  "parameters" : {
                                    "cursorScale" : {
                                      "type" : "double",
                                      "defaultValue" : 0.0,
                                      "interp" : "linr"
                                    },
                                    "cursorOpacity" : {
                                      "type" : "double",
                                      "defaultValue" : 0.0,
                                      "interp" : "linr"
                                    }
                                  },
                                  "effects" : [

                                  ],
                                  "start" : 2865,
                                  "duration" : 1126,
                                  "mediaStart" : 2930,
                                  "mediaDuration" : 1126,
                                  "scalar" : 1,
                                  "metadata" : {
                                    "AutoAppliedSmartFocus" : "False",
                                    "WinSubProjectDisplayName" : "",
                                    "clipSpeedAttribute" : false,
                                    "default-scale0" : 0.572792362768496,
                                    "default-scale1" : 0.572792362768496,
                                    "default-translation0" : 0.0,
                                    "default-translation1" : 0.0
                                  },
                                  "animationTracks" : {

                                  }
                                }
                            ],
                            "effects" : [

                            ],
                            "start" : 1459,
                            "duration" : 28,
                            "mediaStart" : 2830,
                            "mediaDuration" : 28,
                            "scalar" : 1,
                            "metadata" : {
                              "AutoAppliedSmartFocus" : "False",
                              "WinSubProjectDisplayName" : "",
                              "clipSpeedAttribute" : false
                            },
                            "animationTracks" : {

                            }
                          },
                          {
                            "id" : 228,
                            "_type" : "StitchedMedia",
                            "minMediaStart" : 0,
                            "attributes" : {
                              "ident" : "Rec 05-23-17 6",
                              "gain" : 1.0,
                              "mixToMono" : false
                            },
                            "parameters" : {
                              "translation0" : {
                                "type" : "double",
                                "defaultValue" : -507.699698250945,
                                "keyframes" : [
                                  {
                                    "time" : 83,
                                    "value" : 269.300413184906,
                                    "duration" : 30
                                  },
                                  {
                                    "time" : 2465,
                                    "value" : -269.300281175448,
                                    "duration" : 30
                                  }
                                ]
                              },
                              "translation1" : {
                                "type" : "double",
                                "defaultValue" : 235.059204672933,
                                "keyframes" : [
                                  {
                                    "time" : 83,
                                    "value" : -163.941098076424,
                                    "duration" : 30
                                  },
                                  {
                                    "time" : 2465,
                                    "value" : 163.941100019638,
                                    "duration" : 30
                                  }
                                ]
                              },
                              "scale0" : {
                                "type" : "double",
                                "defaultValue" : 0.572792362768496,
                                "keyframes" : [
                                  {
                                    "time" : 83,
                                    "value" : 1.50000013297838,
                                    "duration" : 30
                                  },
                                  {
                                    "time" : 2465,
                                    "value" : 1.50000030300776,
                                    "duration" : 30
                                  }
                                ]
                              },
                              "scale1" : {
                                "type" : "double",
                                "defaultValue" : 0.572792362768496,
                                "keyframes" : [
                                  {
                                    "time" : 83,
                                    "value" : 1.5000005983188,
                                    "duration" : 30
                                  }
                                ]
                              },
                              "cursorOpacity" : 1.0,
                              "cursorScale" : 1.0
                            },
                            "medias" : [
                                {
                                  "id" : 229,
                                  "_type" : "ScreenVMFile",
                                  "src" : 3,
                                  "trackNumber" : 0,
                                  "attributes" : {
                                    "ident" : "Rec 05-23-17 6"
                                  },
                                  "parameters" : {
                                    "cursorScale" : {
                                      "type" : "double",
                                      "defaultValue" : 0.0,
                                      "interp" : "linr"
                                    },
                                    "cursorOpacity" : {
                                      "type" : "double",
                                      "defaultValue" : 0.0,
                                      "interp" : "linr"
                                    }
                                  },
                                  "effects" : [

                                  ],
                                  "start" : 0,
                                  "duration" : 2531,
                                  "mediaStart" : 0,
                                  "mediaDuration" : 2531,
                                  "scalar" : 1,
                                  "metadata" : {
                                    "AutoAppliedSmartFocus" : "False",
                                    "WinSubProjectDisplayName" : "",
                                    "clipSpeedAttribute" : false,
                                    "default-scale0" : 0.572792362768496,
                                    "default-scale1" : 0.572792362768496,
                                    "default-translation0" : 0.0,
                                    "default-translation1" : 0.0
                                  },
                                  "animationTracks" : {

                                  }
                                },
                                {
                                  "id" : 230,
                                  "_type" : "ScreenVMFile",
                                  "src" : 3,
                                  "trackNumber" : 0,
                                  "attributes" : {
                                    "ident" : "Rec 05-23-17 6"
                                  },
                                  "parameters" : {
                                    "cursorScale" : {
                                      "type" : "double",
                                      "defaultValue" : 0.0,
                                      "interp" : "linr"
                                    },
                                    "cursorOpacity" : {
                                      "type" : "double",
                                      "defaultValue" : 0.0,
                                      "interp" : "linr"
                                    }
                                  },
                                  "effects" : [

                                  ],
                                  "start" : 2531,
                                  "duration" : 100,
                                  "mediaStart" : 2642,
                                  "mediaDuration" : 100,
                                  "scalar" : 1,
                                  "metadata" : {
                                    "AutoAppliedSmartFocus" : "False",
                                    "WinSubProjectDisplayName" : "",
                                    "clipSpeedAttribute" : false,
                                    "default-scale0" : 0.572792362768496,
                                    "default-scale1" : 0.572792362768496,
                                    "default-translation0" : 0.0,
                                    "default-translation1" : 0.0
                                  },
                                  "animationTracks" : {

                                  }
                                },
                                {
                                  "id" : 231,
                                  "_type" : "ScreenVMFile",
                                  "src" : 3,
                                  "trackNumber" : 0,
                                  "attributes" : {
                                    "ident" : "Rec 05-23-17 6"
                                  },
                                  "parameters" : {
                                    "cursorScale" : {
                                      "type" : "double",
                                      "defaultValue" : 0.0,
                                      "interp" : "linr"
                                    },
                                    "cursorOpacity" : {
                                      "type" : "double",
                                      "defaultValue" : 0.0,
                                      "interp" : "linr"
                                    }
                                  },
                                  "effects" : [

                                  ],
                                  "start" : 2631,
                                  "duration" : 35,
                                  "mediaStart" : 2830,
                                  "mediaDuration" : 35,
                                  "scalar" : 1,
                                  "metadata" : {
                                    "AutoAppliedSmartFocus" : "False",
                                    "WinSubProjectDisplayName" : "",
                                    "clipSpeedAttribute" : false,
                                    "default-scale0" : 0.572792362768496,
                                    "default-scale1" : 0.572792362768496,
                                    "default-translation0" : 0.0,
                                    "default-translation1" : 0.0
                                  },
                                  "animationTracks" : {

                                  }
                                },
                                {
                                  "id" : 232,
                                  "_type" : "ScreenVMFile",
                                  "src" : 3,
                                  "trackNumber" : 0,
                                  "attributes" : {
                                    "ident" : "Rec 05-23-17 6"
                                  },
                                  "parameters" : {
                                    "cursorScale" : {
                                      "type" : "double",
                                      "defaultValue" : 0.0,
                                      "interp" : "linr"
                                    },
                                    "cursorOpacity" : {
                                      "type" : "double",
                                      "defaultValue" : 0.0,
                                      "interp" : "linr"
                                    }
                                  },
                                  "effects" : [

                                  ],
                                  "start" : 2666,
                                  "duration" : 1126,
                                  "mediaStart" : 2930,
                                  "mediaDuration" : 1126,
                                  "scalar" : 1,
                                  "metadata" : {
                                    "AutoAppliedSmartFocus" : "False",
                                    "WinSubProjectDisplayName" : "",
                                    "clipSpeedAttribute" : false,
                                    "default-scale0" : 0.572792362768496,
                                    "default-scale1" : 0.572792362768496,
                                    "default-translation0" : 0.0,
                                    "default-translation1" : 0.0
                                  },
                                  "animationTracks" : {

                                  }
                                }
                            ],
                            "effects" : [

                            ],
                            "start" : 1487,
                            "duration" : 31,
                            "mediaStart" : 2638,
                            "mediaDuration" : 31,
                            "scalar" : 1,
                            "metadata" : {
                              "AutoAppliedSmartFocus" : "False",
                              "WinSubProjectDisplayName" : "",
                              "clipSpeedAttribute" : false
                            },
                            "animationTracks" : {
                              "visual" : [
                                {
                                  "range" : [ 83, 30]
                                },
                                {
                                  "range" : [ 2465, 30]
                                }
                              ]
                            }
                          },
                          {
                            "id" : 233,
                            "_type" : "ScreenVMFile",
                            "src" : 3,
                            "trackNumber" : 0,
                            "attributes" : {
                              "ident" : "Rec 05-23-17 6"
                            },
                            "parameters" : {
                              "translation0" : {
                                "type" : "double",
                                "defaultValue" : -507.699698250945,
                                "interp" : "eioe",
                                "keyframes" : [
                                  {
                                    "time" : 83,
                                    "value" : 269.300413184906,
                                    "duration" : 30
                                  },
                                  {
                                    "time" : 2465,
                                    "value" : -269.300281175448,
                                    "duration" : 30
                                  },
                                  {
                                    "time" : 2976,
                                    "value" : -507.699698250945,
                                    "duration" : 30
                                  },
                                  {
                                    "time" : 3619,
                                    "value" : -507.699698250945,
                                    "duration" : 30
                                  }
                                ]
                              },
                              "translation1" : {
                                "type" : "double",
                                "defaultValue" : 235.059204672933,
                                "interp" : "eioe",
                                "keyframes" : [
                                  {
                                    "time" : 83,
                                    "value" : -163.941098076424,
                                    "duration" : 30
                                  },
                                  {
                                    "time" : 2465,
                                    "value" : 163.941100019638,
                                    "duration" : 30
                                  },
                                  {
                                    "time" : 2976,
                                    "value" : 235.059204672933,
                                    "duration" : 30
                                  },
                                  {
                                    "time" : 3619,
                                    "value" : 235.059236774184,
                                    "duration" : 30
                                  }
                                ]
                              },
                              "scale0" : {
                                "type" : "double",
                                "defaultValue" : 0.572792362768496,
                                "interp" : "eioe",
                                "keyframes" : [
                                  {
                                    "time" : 83,
                                    "value" : 1.50000013297838,
                                    "duration" : 30
                                  },
                                  {
                                    "time" : 2465,
                                    "value" : 1.50000030300776,
                                    "duration" : 30
                                  },
                                  {
                                    "time" : 2976,
                                    "value" : 0.572792362768496,
                                    "duration" : 30
                                  },
                                  {
                                    "time" : 3619,
                                    "value" : 0.949999943554965,
                                    "duration" : 30
                                  }
                                ]
                              },
                              "scale1" : {
                                "type" : "double",
                                "defaultValue" : 0.572792362768496,
                                "interp" : "eioe",
                                "keyframes" : [
                                  {
                                    "time" : 83,
                                    "value" : 1.5000005983188,
                                    "duration" : 30
                                  },
                                  {
                                    "time" : 2976,
                                    "value" : 0.572792475536412,
                                    "duration" : 30
                                  },
                                  {
                                    "time" : 3619,
                                    "value" : 0.950000130585241,
                                    "duration" : 30
                                  }
                                ]
                              },
                              "cursorScale" : {
                                "type" : "double",
                                "defaultValue" : 1.0,
                                "interp" : "linr"
                              },
                              "cursorOpacity" : {
                                "type" : "double",
                                "defaultValue" : 1.0,
                                "interp" : "linr"
                              }
                            },
                            "effects" : [

                            ],
                            "start" : 1518,
                            "duration" : 164,
                            "mediaStart" : 2993,
                            "mediaDuration" : 164,
                            "scalar" : 1,
                            "metadata" : {
                              "AutoAppliedSmartFocus" : "False",
                              "WinSubProjectDisplayName" : "",
                              "clipSpeedAttribute" : false,
                              "default-scale0" : 0.572792362768496,
                              "default-scale1" : 0.572792362768496,
                              "default-translation0" : 0.0,
                              "default-translation1" : 0.0
                            },
                            "animationTracks" : {
                              "visual" : [
                                {
                                  "range" : [ 83, 30]
                                },
                                {
                                  "range" : [ 2465, 30]
                                },
                                {
                                  "range" : [ 2976, 30]
                                },
                                {
                                  "range" : [ 3619, 30]
                                }
                              ]
                            }
                          },
                          {
                            "id" : 234,
                            "_type" : "ScreenVMFile",
                            "src" : 20,
                            "trackNumber" : 0,
                            "attributes" : {
                              "ident" : "Rec 06-27-17 1"
                            },
                            "parameters" : {
                              "translation0" : {
                                "type" : "double",
                                "defaultValue" : -507.699698250945,
                                "interp" : "eioe"
                              },
                              "translation1" : {
                                "type" : "double",
                                "defaultValue" : 235.059204672933,
                                "interp" : "eioe"
                              },
                              "scale0" : {
                                "type" : "double",
                                "defaultValue" : 0.572792362768496,
                                "interp" : "eioe"
                              },
                              "scale1" : {
                                "type" : "double",
                                "defaultValue" : 0.572792362768496,
                                "interp" : "eioe"
                              },
                              "cursorScale" : {
                                "type" : "double",
                                "defaultValue" : 1.0,
                                "interp" : "linr"
                              },
                              "cursorOpacity" : {
                                "type" : "double",
                                "defaultValue" : 1.0,
                                "interp" : "linr"
                              }
                            },
                            "effects" : [

                            ],
                            "start" : 1682,
                            "duration" : 63,
                            "mediaStart" : 0,
                            "mediaDuration" : 63,
                            "scalar" : 1,
                            "metadata" : {
                              "AutoAppliedSmartFocus" : "False",
                              "WinSubProjectDisplayName" : "",
                              "clipSpeedAttribute" : false
                            },
                            "animationTracks" : {

                            }
                          },
                          {
                            "id" : 235,
                            "_type" : "ScreenVMFile",
                            "src" : 20,
                            "trackNumber" : 0,
                            "attributes" : {
                              "ident" : "Rec 06-27-17 1"
                            },
                            "parameters" : {
                              "translation0" : {
                                "type" : "double",
                                "defaultValue" : -507.699698250945,
                                "interp" : "eioe"
                              },
                              "translation1" : {
                                "type" : "double",
                                "defaultValue" : 235.059204672933,
                                "interp" : "eioe"
                              },
                              "scale0" : {
                                "type" : "double",
                                "defaultValue" : 0.572792362768496,
                                "interp" : "eioe"
                              },
                              "scale1" : {
                                "type" : "double",
                                "defaultValue" : 0.572792362768496,
                                "interp" : "eioe"
                              },
                              "cursorScale" : {
                                "type" : "double",
                                "defaultValue" : 1.0,
                                "interp" : "linr"
                              },
                              "cursorOpacity" : {
                                "type" : "double",
                                "defaultValue" : 1.0,
                                "interp" : "linr"
                              }
                            },
                            "effects" : [

                            ],
                            "start" : 1745,
                            "duration" : 133,
                            "mediaStart" : 130,
                            "mediaDuration" : 199,
                            "scalar" : "133/199",
                            "metadata" : {
                              "AutoAppliedSmartFocus" : "False",
                              "WinSubProjectDisplayName" : "",
                              "clipSpeedAttribute" : true
                            },
                            "animationTracks" : {

                            }
                          },
                          {
                            "id" : 236,
                            "_type" : "ScreenVMFile",
                            "src" : 20,
                            "trackNumber" : 0,
                            "attributes" : {
                              "ident" : "Rec 06-27-17 1"
                            },
                            "parameters" : {
                              "translation0" : {
                                "type" : "double",
                                "defaultValue" : -507.699698250945,
                                "interp" : "eioe"
                              },
                              "translation1" : {
                                "type" : "double",
                                "defaultValue" : 235.059204672933,
                                "interp" : "eioe"
                              },
                              "scale0" : {
                                "type" : "double",
                                "defaultValue" : 0.572792362768496,
                                "interp" : "eioe"
                              },
                              "scale1" : {
                                "type" : "double",
                                "defaultValue" : 0.572792362768496,
                                "interp" : "eioe"
                              },
                              "cursorScale" : {
                                "type" : "double",
                                "defaultValue" : 1.0,
                                "interp" : "linr"
                              },
                              "cursorOpacity" : {
                                "type" : "double",
                                "defaultValue" : 1.0,
                                "interp" : "linr"
                              }
                            },
                            "effects" : [

                            ],
                            "start" : 1878,
                            "duration" : 83,
                            "mediaStart" : 329,
                            "mediaDuration" : 251,
                            "scalar" : "83/251",
                            "metadata" : {
                              "AutoAppliedSmartFocus" : "False",
                              "WinSubProjectDisplayName" : "",
                              "clipSpeedAttribute" : true
                            },
                            "animationTracks" : {

                            }
                          },
                          {
                            "id" : 237,
                            "_type" : "ScreenVMFile",
                            "src" : 20,
                            "trackNumber" : 0,
                            "attributes" : {
                              "ident" : "Rec 06-27-17 1"
                            },
                            "parameters" : {
                              "translation0" : {
                                "type" : "double",
                                "defaultValue" : -507.699698250945,
                                "interp" : "eioe"
                              },
                              "translation1" : {
                                "type" : "double",
                                "defaultValue" : 235.059204672933,
                                "interp" : "eioe"
                              },
                              "scale0" : {
                                "type" : "double",
                                "defaultValue" : 0.572792362768496,
                                "interp" : "eioe"
                              },
                              "scale1" : {
                                "type" : "double",
                                "defaultValue" : 0.572792362768496,
                                "interp" : "eioe"
                              },
                              "cursorScale" : {
                                "type" : "double",
                                "defaultValue" : 1.0,
                                "interp" : "linr"
                              },
                              "cursorOpacity" : {
                                "type" : "double",
                                "defaultValue" : 1.0,
                                "interp" : "linr"
                              }
                            },
                            "effects" : [

                            ],
                            "start" : 1961,
                            "duration" : 125,
                            "mediaStart" : 580,
                            "mediaDuration" : 125,
                            "scalar" : 1,
                            "metadata" : {
                              "AutoAppliedSmartFocus" : "False",
                              "WinSubProjectDisplayName" : "",
                              "clipSpeedAttribute" : false
                            },
                            "animationTracks" : {

                            }
                          }
                        ],
                        "transitions" : [
                          {
                            "name" : "Flip",
                            "duration" : 35,
                            "useAudioPreRoll" : true,
                            "useVisualPreRoll" : true,
                            "rightMedia" : 172
                          },
                          {
                            "name" : "Fold",
                            "duration" : 30,
                            "useAudioPreRoll" : true,
                            "useVisualPreRoll" : true,
                            "leftMedia" : 172
                          },
                          {
                            "name" : "FadeThroughBlack",
                            "duration" : 26,
                            "useAudioPreRoll" : false,
                            "useVisualPreRoll" : false,
                            "leftMedia" : 228
                          },
                          {
                            "name" : "FadeThroughBlack",
                            "duration" : 34,
                            "useAudioPreRoll" : false,
                            "useVisualPreRoll" : false,
                            "rightMedia" : 233
                          }
                        ],
                          "ident" : "",
                          "audioMuted" : false,
                          "videoHidden" : false,
                          "metadata" : {
                            "IsLocked" : "False",
                            "WinTrackHeight" : "0"
                          }
                      },
                      {
                        "trackIndex" : 1,
                        "medias" : [
                          {
                            "id" : 238,
                            "_type" : "AMFile",
                            "src" : 17,
                            "trackNumber" : 0,
                            "attributes" : {
                              "ident" : "05_Configuration_audio",
                              "sampleRate" : 44100,
                              "bitDepth" : 16,
                              "gain" : 1.0,
                              "mixToMono" : false
                            },
                              "channelNumber" : "0,1",
                            "parameters" : {
                              "volume" : {
                                "type" : "double",
                                "keyframes" : [
                                  {
                                    "time" : 0,
                                    "value" : 1.0,
                                    "duration" : 0
                                  },
                                  {
                                    "time" : 1997,
                                    "value" : 1.0,
                                    "duration" : 0
                                  },
                                  {
                                    "time" : 2087,
                                    "value" : 0.0,
                                    "duration" : 0
                                  },
                                  {
                                    "time" : 2088,
                                    "value" : 1.0,
                                    "duration" : 0
                                  }
                                ]
                              }
                            },
                            "effects" : [

                            ],
                            "start" : 37,
                            "duration" : 2052,
                            "mediaStart" : 0,
                            "mediaDuration" : 2052,
                            "scalar" : 1,
                            "metadata" : {
                              "WinSubProjectDisplayName" : "",
                              "clipSpeedAttribute" : false
                            },
                            "animationTracks" : {

                            }
                          }
                        ],
                          "ident" : "",
                          "audioMuted" : false,
                          "videoHidden" : false,
                          "metadata" : {
                            "IsLocked" : "False",
                            "WinTrackHeight" : "6.08490759304959e-315"
                          }
                      },
                      {
                        "trackIndex" : 2,
                        "medias" : [
                          {
                            "id" : 239,
                            "_type" : "AMFile",
                            "src" : 4,
                            "trackNumber" : 0,
                            "attributes" : {
                              "ident" : "Projector_Screen_Flapping",
                              "sampleRate" : 44100,
                              "bitDepth" : 0,
                              "gain" : 1.0,
                              "mixToMono" : false
                            },
                              "channelNumber" : "0,1",
                            "parameters" : {
                              "volume" : {
                                "type" : "double",
                                "keyframes" : [
                                  {
                                    "time" : -1,
                                    "value" : 1.3265306122449,
                                    "duration" : 0
                                  },
                                  {
                                    "time" : 0,
                                    "value" : 0.0,
                                    "duration" : 0
                                  },
                                  {
                                    "time" : 28,
                                    "value" : 0.329670329670331,
                                    "duration" : 0
                                  }
                                ]
                              }
                            },
                            "effects" : [

                            ],
                            "start" : 0,
                            "duration" : 56,
                            "mediaStart" : 0,
                            "mediaDuration" : 56,
                            "scalar" : 1,
                            "metadata" : {
                              "WinSubProjectDisplayName" : "",
                              "clipSpeedAttribute" : false
                            },
                            "animationTracks" : {

                            }
                          }
                        ],
                          "ident" : "",
                          "audioMuted" : false,
                          "videoHidden" : false,
                          "metadata" : {
                            "IsLocked" : "False",
                            "WinTrackHeight" : "6.08490759304959e-315"
                          }
                      }
                    ],
                    "attributes" : {
                      "ident" : "05_Configuration",
                      "gain" : 1.0,
                      "mixToMono" : false
                    },
                    "effects" : [

                    ],
                    "start" : 6751,
                    "duration" : 2089,
                    "mediaStart" : 0.0,
                    "mediaDuration" : 2089.0,
                    "scalar" : 1,
                    "metadata" : {
                      "IsGroupExpanded" : "False",
                      "WinSubProjectDisplayName" : "05_Configuration"
                    },
                    "animationTracks" : {

                    }
                  },
                  {
                    "id" : 240,
                    "_type" : "Group",
                    "parameters" : {
                      "translation0" : 515.656735911673,
                      "translation1" : -221.900382141002,
                      "volume" : 1.0
                    },
                    "tracks" : [
                      {
                        "trackIndex" : 0,
                        "medias" : [
                          {
                            "id" : 241,
                            "_type" : "IMFile",
                            "src" : 19,
                            "trackNumber" : 0,
                            "trimStartSum" : 0,
                            "attributes" : {
                              "ident" : "Vagrantfile-01"
                            },
                            "parameters" : {
                              "translation0" : -515.656735911673,
                              "translation1" : 221.900382141002
                            },
                            "effects" : [

                            ],
                            "start" : 0,
                            "duration" : 59,
                            "mediaStart" : 0,
                            "mediaDuration" : 1,
                            "scalar" : 1,
                            "metadata" : {
                              "WinSubProjectDisplayName" : "",
                              "clipSpeedAttribute" : false
                            },
                            "animationTracks" : {

                            }
                          },
                          {
                            "id" : 242,
                            "_type" : "ScreenVMFile",
                            "src" : 24,
                            "trackNumber" : 0,
                            "attributes" : {
                              "ident" : "Rec 06-27-17 2"
                            },
                            "parameters" : {
                              "translation0" : {
                                "type" : "double",
                                "defaultValue" : -515.656735911692,
                                "interp" : "eioe",
                                "keyframes" : [
                                  {
                                    "time" : -18,
                                    "value" : 31.9567948033632,
                                    "duration" : 30
                                  }
                                ]
                              },
                              "translation1" : {
                                "type" : "double",
                                "defaultValue" : 221.900382141002,
                                "interp" : "eioe",
                                "keyframes" : [
                                  {
                                    "time" : -18,
                                    "value" : -9.66131892710109e-07,
                                    "duration" : 30
                                  }
                                ]
                              },
                              "scale0" : {
                                "type" : "double",
                                "defaultValue" : 0.572792362768496,
                                "interp" : "eioe",
                                "keyframes" : [
                                  {
                                    "time" : -18,
                                    "value" : 1.14999992972352,
                                    "duration" : 30
                                  }
                                ]
                              },
                              "scale1" : {
                                "type" : "double",
                                "defaultValue" : 0.572792362768496,
                                "interp" : "eioe",
                                "keyframes" : [
                                  {
                                    "time" : -18,
                                    "value" : 1.15000075331002,
                                    "duration" : 30
                                  }
                                ]
                              },
                              "cursorScale" : {
                                "type" : "double",
                                "defaultValue" : 1.0,
                                "interp" : "linr"
                              },
                              "cursorOpacity" : {
                                "type" : "double",
                                "defaultValue" : 1.0,
                                "interp" : "linr"
                              }
                            },
                            "effects" : [

                            ],
                            "start" : 59,
                            "duration" : 533,
                            "mediaStart" : 0,
                            "mediaDuration" : 533,
                            "scalar" : 1,
                            "metadata" : {
                              "AutoAppliedSmartFocus" : "False",
                              "WinSubProjectDisplayName" : "",
                              "clipSpeedAttribute" : false,
                              "default-scale0" : 0.572792362768496,
                              "default-scale1" : 0.572792362768496,
                              "default-translation0" : 0.0,
                              "default-translation1" : 0.0
                            },
                            "animationTracks" : {
                              "visual" : [
                                {
                                  "range" : [ -18, 30]
                                }
                              ]
                            }
                          },
                          {
                            "id" : 243,
                            "_type" : "ScreenVMFile",
                            "src" : 25,
                            "trackNumber" : 0,
                            "attributes" : {
                              "ident" : "Rec 06-27-17 3"
                            },
                            "parameters" : {
                              "translation0" : {
                                "type" : "double",
                                "defaultValue" : -515.656735911673,
                                "interp" : "eioe"
                              },
                              "translation1" : {
                                "type" : "double",
                                "defaultValue" : 221.900382141002,
                                "interp" : "eioe"
                              },
                              "scale0" : {
                                "type" : "double",
                                "defaultValue" : 0.572792362768496,
                                "interp" : "eioe"
                              },
                              "scale1" : {
                                "type" : "double",
                                "defaultValue" : 0.572792362768496,
                                "interp" : "eioe"
                              },
                              "cursorScale" : {
                                "type" : "double",
                                "defaultValue" : 1.0,
                                "interp" : "linr"
                              },
                              "cursorOpacity" : {
                                "type" : "double",
                                "defaultValue" : 1.0,
                                "interp" : "linr"
                              }
                            },
                            "effects" : [

                            ],
                            "start" : 592,
                            "duration" : 370,
                            "mediaStart" : 83,
                            "mediaDuration" : 779,
                            "scalar" : "370/779",
                            "metadata" : {
                              "AutoAppliedSmartFocus" : "False",
                              "WinSubProjectDisplayName" : "",
                              "clipSpeedAttribute" : true
                            },
                            "animationTracks" : {

                            }
                          },
                          {
                            "id" : 244,
                            "_type" : "ScreenVMFile",
                            "src" : 26,
                            "trackNumber" : 0,
                            "attributes" : {
                              "ident" : "Rec 06-27-17 4"
                            },
                            "parameters" : {
                              "translation0" : {
                                "type" : "double",
                                "defaultValue" : -515.656735911673,
                                "interp" : "eioe"
                              },
                              "translation1" : {
                                "type" : "double",
                                "defaultValue" : 221.900382141002,
                                "interp" : "eioe"
                              },
                              "scale0" : {
                                "type" : "double",
                                "defaultValue" : 0.572792362768496,
                                "interp" : "eioe"
                              },
                              "scale1" : {
                                "type" : "double",
                                "defaultValue" : 0.572792362768496,
                                "interp" : "eioe"
                              },
                              "cursorScale" : {
                                "type" : "double",
                                "defaultValue" : 1.0,
                                "interp" : "linr"
                              },
                              "cursorOpacity" : {
                                "type" : "double",
                                "defaultValue" : 1.0,
                                "interp" : "linr"
                              }
                            },
                            "effects" : [

                            ],
                            "start" : 962,
                            "duration" : 394,
                            "mediaStart" : 0,
                            "mediaDuration" : 394,
                            "scalar" : 1,
                            "metadata" : {
                              "AutoAppliedSmartFocus" : "False",
                              "WinSubProjectDisplayName" : "",
                              "clipSpeedAttribute" : false
                            },
                            "animationTracks" : {

                            }
                          },
                          {
                            "id" : 245,
                            "_type" : "ScreenVMFile",
                            "src" : 27,
                            "trackNumber" : 0,
                            "attributes" : {
                              "ident" : "Rec 06-27-17 5"
                            },
                            "parameters" : {
                              "translation0" : {
                                "type" : "double",
                                "defaultValue" : -515.656735911673,
                                "interp" : "eioe",
                                "keyframes" : [
                                  {
                                    "time" : 34,
                                    "value" : -37.1299164187284,
                                    "duration" : 30
                                  }
                                ]
                              },
                              "translation1" : {
                                "type" : "double",
                                "defaultValue" : 221.900382141002,
                                "interp" : "eioe",
                                "keyframes" : [
                                  {
                                    "time" : 34,
                                    "value" : -2.52984655953659,
                                    "duration" : 30
                                  }
                                ]
                              },
                              "scale0" : {
                                "type" : "double",
                                "defaultValue" : 0.572792362768496,
                                "interp" : "eioe",
                                "keyframes" : [
                                  {
                                    "time" : 34,
                                    "value" : 1.10000006089631,
                                    "duration" : 30
                                  }
                                ]
                              },
                              "scale1" : {
                                "type" : "double",
                                "defaultValue" : 0.572792362768496,
                                "interp" : "eioe",
                                "keyframes" : [
                                  {
                                    "time" : 34,
                                    "value" : 1.10000043045462,
                                    "duration" : 30
                                  }
                                ]
                              },
                              "cursorScale" : {
                                "type" : "double",
                                "defaultValue" : 1.0,
                                "interp" : "linr"
                              },
                              "cursorOpacity" : {
                                "type" : "double",
                                "defaultValue" : 1.0,
                                "interp" : "linr"
                              }
                            },
                            "effects" : [

                            ],
                            "start" : 1356,
                            "duration" : 1291,
                            "mediaStart" : 0,
                            "mediaDuration" : 1291,
                            "scalar" : 1,
                            "metadata" : {
                              "AutoAppliedSmartFocus" : "False",
                              "WinSubProjectDisplayName" : "",
                              "clipSpeedAttribute" : false,
                              "default-scale0" : 0.572792362768496,
                              "default-scale1" : 0.572792362768496,
                              "default-translation0" : 0.0,
                              "default-translation1" : 0.0
                            },
                            "animationTracks" : {
                              "visual" : [
                                {
                                  "range" : [ 34, 30]
                                }
                              ]
                            }
                          }
                        ],
                        "transitions" : [
                          {
                            "name" : "Flip",
                            "duration" : 25,
                            "useAudioPreRoll" : true,
                            "useVisualPreRoll" : true,
                            "rightMedia" : 241
                          },
                          {
                            "name" : "FadeThroughBlack",
                            "duration" : 15,
                            "useAudioPreRoll" : true,
                            "useVisualPreRoll" : true,
                            "leftMedia" : 241
                          },
                          {
                            "name" : "Flip",
                            "duration" : 23,
                            "useAudioPreRoll" : true,
                            "useVisualPreRoll" : true,
                            "leftMedia" : 242,
                            "rightMedia" : 243
                          },
                          {
                            "name" : "Flip",
                            "duration" : 29,
                            "useAudioPreRoll" : true,
                            "useVisualPreRoll" : true,
                            "leftMedia" : 244,
                            "rightMedia" : 245
                          }
                        ],
                          "ident" : "",
                          "audioMuted" : false,
                          "videoHidden" : false,
                          "metadata" : {
                            "IsLocked" : "False",
                            "WinTrackHeight" : "0"
                          }
                      },
                      {
                        "trackIndex" : 1,
                        "medias" : [
                          {
                            "id" : 246,
                            "_type" : "AMFile",
                            "src" : 18,
                            "trackNumber" : 0,
                            "attributes" : {
                              "ident" : "06_vagrantfile_audio",
                              "sampleRate" : 44100,
                              "bitDepth" : 16,
                              "gain" : 1.0,
                              "mixToMono" : false
                            },
                              "channelNumber" : "0,1",
                            "parameters" : {
                              "volume" : {
                                "type" : "double",
                                "keyframes" : [
                                  {
                                    "time" : -1,
                                    "value" : 1.0,
                                    "duration" : 0
                                  },
                                  {
                                    "time" : 0,
                                    "value" : 0.0,
                                    "duration" : 0
                                  },
                                  {
                                    "time" : 90,
                                    "value" : 1.0,
                                    "duration" : 0
                                  }
                                ]
                              }
                            },
                            "effects" : [
                                {
                                  "effectName" : "NoiseReduction",
                                  "parameters" : {
                                    "denoiserAmount" : 20.0,
                                    "denoiserThreshold" : 0.0,
                                    "noiseProfile" : "TMdgQtE4IEOzJ3tBUN1dQJpc6D9SI4VA3WWZQJwLSkAgkjBAiF/BP9BMQT4PIho+CKdnPi+2mj6X\r\nAiA9GBXfPRuPsz0QX9c8o0+XPfpb8jz0vHg9LO+ZPAG5Dz1t/Hw9WA46PaBM7zwceSM9Lwi8PINy\r\nizweNY08anK+PLy2qDwNdmo8bUhwPA0rPj3Wa2o9eNmEPP8QgDzekbU8qqVdPCRUeTyE9f08Y8iy\r\nPC/FFzzTm0c8MtmLPA8cWjzwHeY75ffpOw9UlTwb3ag8fVlGPEMLhzxumMk7wirrO7JIxTwZESU9\r\n4vm3PIs6CzxQ7mQ9dncXPYcOfDyNR7M782qfO3HAAT2CDAs8TP0FPAo0pDs+3q87PMOtO9fkyTt5\r\n7g48NzVrPI7oaDzlODw86OyEPPiOnDxDv048bhDSPHCddDzgmqc88E5VPAcTWTwwGps7HZInOwbQ\r\nlTswKSY7PMFEO9Q0qTtu9fw7WfJ2PD6IiTusfwA72WkSPNmfKDtUT4c7n/lWO+KxHDxHDZ872DJa\r\nO5JoPzuPma47fp8DPGeLojtY9r87uzACPJjgtztwK/M7R4WRO62jgzv+Ht46+SQZO1m1YjtPcgY7\r\nEwqGO6diDjychlw8cqVyO7XNjDvuVMA7uPpEO7R7ezoqppA7tREOPIgkMzux2387/ro5OyB6yTuU\r\nzRc8D++FO4xHNzt5AwM7L8PLOl/9pToVTSM7InofOyTx/DvsRfM6rKAQO9YfJjsMUh4823RWOzAR\r\nkzvKnx480Nz0O9ruWDy+ZVU8EXKZO0NHhzxbj7o8m3U1PVuZVjzeYYI7TURRO3IXdzu72yA7oBZV\r\nO1zsKzsZUnE6Yl7OOnJSXDqIN506+RLfOk4hUDq/04I6LhFuOqtwnDrLS2g6r1zkOuzA1DoSaTA7\r\nXgjfO+hEPzv0fkc86q0SPARssjvd5CA8/40YPKlSfjsdwX46prWQO1hVIjthvI067EpnOocOCTsy\r\nMl86w5sIOuJ7BDrCFxo68McROg6CtTpOn2g6hs24OnW2DDtocow74XvnO+AGmjuNJ3w6FX2FO9lW\r\nUTtxfbM6AvMyOspMNjrYNYI6o6/cOghJmjqXwIQ6llJxOiDdczo7sm46RoZ2Ohp+pDr6vAA79VHT\r\nOlbYvjoomoc6IBMTO88S6ToWHrU6enSGOg0QEju2LqU6WJvHOvR4qDopjbs6y/a2OguanjqgMQw7\r\ntP5gOq4qHzoicuo621cgO2cfWTvkMyU6J4QdOsq80TqO/es6/2kLOgZPCjqwSI87cZJxO99SmDpp\r\nRA87PNJpOt9ytDms9KI5p1gNOmNllDmQnbE6xHJLOoONbTldjR06PvrCOTzjCjuoScE5eTZZOkq+\r\npzlfGo05gPfnOQMVIjrryz86EhM4OsjNsznCUrU5ys0OOivCBzr/PTs6uT4POjQINzqQ+dw5IPps\r\nOQ5XwjkZRhE6UEm5Od2xDjrndmI6hq1vOpteYzq51Kg6KJgTOsp0nzqnD4k63Xa7Oja/iTrT/sU6\r\nkXu7OX2jCjpHREQ6Z329OYesdDogVws6KALOOTf6JTp+xDo6f5roOeug+TlM1nM6dsNCOpikuDlr\r\nc7w5QRgJOk7JKTqK/I06Te8ROhoShznd4aU5nqCZOT2uKDomkP45BFjJOVT3XTmD+b05d0FVOUjT\r\nbjksMoA5WHeROZkwsznPxV46TZUgOvausDnEw5k5NsPWOUXjGDlSJAk6QCcZObEGgTkXYV05Vqal\r\nOZIGKzk5pbI5JIvBOSvzsTmjCMQ55M6FOcblwjmfGWA5QIZsOaChnjnqDAM6MpcFOuRFBDpC5Go5\r\npFMxOWn8HTrmFYI5Zl+iOUHBljmKS+w5lhTUOaMiuDme8JQ5JzvgOUSqzDmSJ8I5wPqtOQQM5zmi\r\nupc5YKLKOYgBzjl8pEA5oR21OfNIWDpuLEg5LjscOZ/zDDrIjWg5PFp4OXQtmTlqKFo69DCvOeQK\r\ngTlc+T05PG7/OaWTMDn9Ikg5zta6OQ5Rqzlef3Y5US+oOY8XODmSDww6IrGCOTBWEjnA21I5WBGp\r\nOWzpHzky7X85HyzrOULnyTkZ4CM5OJqrOf1UGznqZZc5Ci6dORj2DDp+9V45AKcJOiW2Bzqmstc4\r\nbbVvOZfAqTlqbho5P5QYOd6TEjlIyJM5RCkIOp4qKDn2drM57eFiOcMqYDmFDwg6d4mgOcUq9Dgg\r\npoc50s6gORmeQTmGIOU5aXkIOYzjKDl7JkE5AjTKOaIDsDkXAyU6gh/HOaUbpTlHfQg6QG5/Ob5/\r\npzmWTpE6Lqh4OXpmVDmiZIc6+HtAOhbdQTqCcto5AcGXOaJFgDnIhPU5voZaOSGzjTnWCDM5JC04\r\nOQNbUDmcHFQ5fqRlOpocgTpb1lk5pMEwOUzmgzlwfc05zEbdOXf+njkSr+A4UFKrOf3GNznCtvM5\r\n/cs1OdgNLjkz+og5wVKTOdBzLDmDBCU5CMnbOXNo7Th6bME5NbbOOaTJEjnR4IU52ZqZOfLBgDkQ\r\n3Cc5aGCQOdA6dDl09ao4AX8ZOrIqiTlbgpg5JaObOZQWhDmxcEA692SbOfAneTn/ghI6ypuVOaWS\r\nnTnCl445EimxOKBKbznNTSo5MxYIOTlWmzm6BLs5BsmTOW1XTzkAC6I52Z6COcv6hjkOImQ51Gtc\r\nOYGGiTk79kc5Pij3OGUlmDkxyrA5r0JBOakRPDmZrY45PCpPOR4nXTmz8xo6sHU+ORl1kDkABRo5\r\nMRYEOtj/RznaAmk5t07eOOhHNzlBQCQ5ZCovOUaEjjmM73M5lsU5OQBjTzlMLYQ5so2hOFHeGDkM\r\nlS05whFUORtJPjmqwq85kdCmOaLrgTkBw/g4/TafOSOuVjnYFP84lm4yObm2TTlF/nw5J0U6OXNW\r\nijkFcug4n7tPOeicBzm6mLc521E4OfZfPTkNgDw5t8R6OTmRPTmFiLI5lkAEOXC9ZjmAgSU5hBY0\r\nOTDqVTi4G0I55txQOTP84TiRhFM5+smTOVHYGzkk4f44Ju8UOX4zLDn6YNU4F1IsOegRvzhehH84\r\nYhSsOLCpyzlPeEs5/kpwOZaoLzmpHTo5J1NhOC9s1Tj1/sg4PlRkOTHkAjnuqiE5gqAJORs8LDne\r\nWaw44N/kOGi/wjjloMM4TZczOQaWRjlieiQ54FP+ONs9MDnUITA56vCYOA4oBTmLfiY5YkDPOBnm\r\n+TiAT+U4rp8GOe1BMzmOOAY5nFYzOQ+3Lzmaf8w4Elf8OHarKDm1GTk5tE7aOJjACznZsU45NPlL\r\nOQv1BTl05Nw4Z44oOeGG9TjEgRw5Kj/HOIzYUTnPsfc4u93dOKx7fjhTDvQ4avouOaRThDnAZ6w4\r\nlAUCOZ1+DjnQ81o5s2/ZOMbNITn9zIw5in+8OIQrlDg+rR45T+47OTQJqziOKCs5zBXYOIVsKDlZ\r\n2Ac541BCOFKT1jhnTww59lEXOcwJLTn9yiI5ZlDlOK4GLTlMSTQ5CWtFOY0NwTh3r7U4SvfYONPY\r\nCzlAVwo5EpIYOeG3TTlhpxI5pH3COMxLATks9CE5ZXcmOUQP+TiF3a84oKStODRHpDnaN9U4x6me\r\nOY2JCzkpQ984G5TlOCZ/tDhq38I4JBLYOIiLBDkpQL84WE0QOauF5Tg0N2A4HOCrOHP90Dg2dDA5\r\niYh5OcdKvDgywp84XfGqOE8mMzmjiZo4niltOPVVWjkNeJk4uNDbOJfvGzkdbEc5PKvoOHHVEzkk\r\nMkk4PJLaOLYo6DgQb7s4tN4hOV1n5zi78CU5Uh0QOYszOTm0AJc4JeyaOMacmzgCWPI4R+6qOFLk\r\ntTjQPJc4gFr3OFX96DjhMxM40UAWOcjHrjgau6I4s7KFONxvnzi4dYQ4AT1yOFoN5TjuKN04Umyn\r\nOEGaCTmO1tE410ahOHTuBDkTLqc4XmcYOaQWyji6uos41QrKODZZqzhm2mA4xdjdOOsenDhL4uM4\r\nGgifOOXf9TiLer84bQKVOGYDATjYKL04ru89OWnNEjiqzWo4vBj3OB5hmDhR1oY4fpQ5OMfkkDiG\r\nSlc4vLSWOEbElDh9p5E4nCHHOBIIhzi64Lc43KOjOEb1hTi8hIk4iWqhOOJB1zg90Ug40o2UOJrF\r\n1jjmIac4A2JeOO5L2TiZzp84lv3GOC4DnjgJmz84IsxnOFBhWjgXVXk4/TEnOLRDWDhILXo4TmUx\r\nOIZLmjj6Gao4zhXPOBKXEzio9no4STKnOLBWVTjKUNQ4AbxVOD8WhjjMAoQ4XErWOMBCfTi73eM4\r\n133HOIjgWjgl2jI4uFscOOlrDjjCveI4q8UeOMEzJjjiIl84daz5N+KLkzgKuwQ4kfYtOP73XDj8\r\n82Y4GEDCOKS3pzjASKA4jAgJOGTP5zhWaGY4ma7aOPtFPjjSbCY4FEAbOJrqWDgFjjA4BSinOABg\r\njDjCQGA44uA+OL2oazgtl4g4PsmaOMx2zjhMA4o4GDM2OAYsGThG6zQ4rBAaOIa56TeGeZo4PzAK\r\nOEc5XzgjSis4OzqKOOmWiThmyDo4OvKtOMjmeDgYaws42OsgOJQkMDhYUmM4UzBWOBdaEzgO1hM4\r\nCjaaOPYJczjogtY3jmM8OFeUZjjMa+A3XsbwN7fD8zfxsEc4OoQsOLpOODgQZEI4OnH2N7lWLjhG\r\nDbE405cVOIVTRDhCBuU3ZRmJOJuWPzhpv/g3e9w+OP4TAzh4t1U4I25mOHRJTjgxsiM4sNEtOE4f\r\nujhd9fM3N8qcOE+kGTiGIFE4hOFiOPJzCThQ1hY4YliCOFcHFzhipts3AeKQOO89gDi27V84E7l1\r\nOG1/wjgb4544URTRN+QWijjX2vE3VtZAODILKDif4Gk4LAYHOIAdpDhVZqY3aLFTODc2QjmD03I4\r\n3BQgODPkZDjCTxg4LiTvN6cTNDg7tmY4mfcqOFb9OzjOWAc4FfK0OLifLjqLVoU4L0+SOHNdOThX\r\nlIA4gm/GOCw2yjjbd+M4v/YIOarKaDnl8zw6OnGJO4XXyTuvQQo6WeqDOZriRzmGbUs5+mcvOSbn\r\npzjnt+k48rCdOOqslThqOTM4jdXWOHjYzDhvj4c4C+iTOLEnqDh+F2s4JLKEOPboTzhELTY43/dt\r\nOJr8yzigUw442rXIOE5ElTg4a404ybxiOB6VVTgERYU49mBrOPqqlDgqnzE46jD3NyJpfjiUueY3\r\nThUoOBOqczgGmKo4Crz5N9p7Rzj/HAU4QIyBOMaQsjckN9M3pB0bOF/CVjjhMnI45B9lOG7dJjhF\r\nijk4ES5eONHQiDg0ah845haIOCVZTTgOyTU4UIAMODxQKjijzGY4vY9dOC5FSzjJxz84WQltOAAM\r\nTjglnSw4n7uVOLQzSji9a9c30B3HN9g3GjicXRc4/WQFOLa9IDi1E284Q6BeOAwsNThlLng4K8KH\r\nOCkgMTgz1nQ4pVRKONb+ATiu6xA4ADAOOOfBfThMJD84SHAqOCjD7TfhFi44uokuOADxNzglbUpC\r\nc/7hQomiYkIkY41AQEMiQOKDcUDmW1BA80ldQH2Zmj/l0No+0b2xPk1ngT3ihp4+BRCCPXBHxD3I\r\n5mM99UbEPRa3Cz61Dtw8I1xHPeFT+TygPTM9pomiPIz6ND0fn8w8myYwPWJemjwWsTw92eIWPRj0\r\nRD0fAX08XB7APCqJMTw/zjM8Bvi0PFyB+DxZ5Tk8XhcHPB0iBT3nuho8RO0CPIp4gjxbsZI8Qg14\r\nPJ0uvjz2+DM8YR42PDPo0TuucRE82CcdPCuZxjsErwY8EXZrPDV8hTucOso7QDJJPNwnsztVIj48\r\nPuJrPAmhjDyiz808J70rPMi+0DvFd+47Jmg3PLVxxztFQPo7hA6/O8Bchjv1obs7I0a2O0E2gjvm\r\nmgE8Xn/dO0Xm/zvdX5o7a3myPFzQGjy9Uwo8L1goPAJbjTsLCj88fSBrPM3HLDyLtA47aEIXO8f2\r\nUTuguDg7tHNKO4APzzvS3VU7WiBNOwQVpTp+tII7jWYzO5C3rDsqX1g75dGxPEYWFzzsD007NRWa\r\nOysQqDu7raw7ukZYO2x2CTw+UBM7vBIKO5JlhDtCNdU6BKYpO6aX0zrZJdw6NIl5O0IqsTtXXWc7\r\n9zMUO4vLBTv7Rx47vuAZO8M8MzuWo146llC/OsbdtDuDC1g7D/ROO9pN8Tq+ddQ6rGPAOm/aCzr6\r\nIs06xfWeO7BKnDp7tJ86D/OcOum5YDoQo/E6e2sVPNQzpzqP/wc7K7HZOptWoTt/WKU6F7cvOxXg\r\neDvW5IA64EoaPFrsnTt7ezo7uqvrOxRJ5juCHK886Os8PHluiTtN4ws7qieIO8wk7Tq4JJs7J3r0\r\nOuV5vDowB1o6NV6COl0tgjrzzUE69sB/OmtHIzrEnh46mdiKOmde8TlDbeo6DjjKOj4e+zky7lc6\r\nERbCOvWWLTu36Po72UpGOtd8dTuykIw6LJcsOiP8iTp3Q0A6fBTuOUqZdzptakg60lPKOUHg0TlT\r\n3V863HT2OQD9KTpM1CU6wpMnOjU6Bjp8aY86VmPFOSGaYjpMgF87xuZiO2GBsDrYUOA6jIw2OgQo\r\nHTof+EI6wGcpOri9Cjp3scY6UDJFOtiTnDmQcrI6YlP3Oc2Krjktow469SCROl/AZDpOfow6PymE\r\nOuwDUDowYc06i/xgOtv8ijrMxR86OAd9OtJ4WzrpEfk6YJNSOlnUpTrRU4Y6CEUeOh7lAjrddX06\r\ntq0KOqQGDDqV7i06k4TBOuzP/zrkTsU5MW3+OV0ufDpkn9I5FaNJOQWgLjtyhW864b0COk6+Azqg\r\nVHE6t7CCOQuBeDlz/nM5FjmGOSBDsTmf9rg5ZsHgOfSiozl5iR06x4RgOvivYzohdvs5TtG1Oe6B\r\nFTpVLY853d8EOs48ZzlT2Fk5bMDJOWoChDkGziE6AZO9ObSaVzl0MBI6mfEiOpGq1Tnmtrs5J8OO\r\nOQZ59TmQO4s6q/aSOfJTxDnt3xo6he44OkYxRzqI+W86BoWKOktleTnz/Ac6f3obOvbH8Tn4Njk6\r\nILSiOkq0NzoYnwY6GtnROj37ADpwE/45TFJHOusWkzq0UJA6xOg0Ohurijobx0c6VsZAOhdy4Dkv\r\n40g6GotROlewkDpUMq45FkfrOTGtCDr3Ksc5pLwhOkS+6jkUB2I5frOSORFL4TmKVes5R7+eObqf\r\nnjpLYmU6WEw+OkUrUTo2Ewk6isXzOakxbjklB1A5INorOniUCTnG0zY5tlyaOuFsvzkf5585U9YE\r\nOuroaDk/pJg5LVK4Oevi4jmm8Qw5whYXOjflzjnpnE05RQuFOexuoDntyPw5XMdsOWa4HjnMnkA5\r\nnrtXOjL0VDkgxss5SJXmOZ1+1znCI0I53AUDOnxkCDky55A5JDF8OT4Rmzl1WJw5pesJOe2zfDne\r\n9To54aYjOkFsgjlVNHc5XGx0OWizSzlPREs56g8JOjKGfTkApj85YCoWOYGo8TmaLIM5rb7nOZoR\r\nCDkAe5A5usaxOfBpgznIhJ05KtcuOfO3gTkMRJ05tsZSOQTWcDlzraY5PjqMOfyAXTlDl6M4DW1x\r\nOSsqfDk0TcA5vMegOe/LLjkR44A5HR1lOdjVBDmkco05UmFVOe4bgzm3vOI5wuJeObWU6zhEupM5\r\nyd1OOSrhFTn0/wI53voTOSYQVDnzdsg50ghCOZ0oUzkLgB05+BuIOCIToDhkj3U56VpYOby69Tgi\r\ngyU5cbJ2OZlTbTnr9RY5jawoORUALDmjxQ05kD0nOVWvQjmMAG458h66OdQ9LjnLKik6GQMgOtcB\r\ngjl4GR85ujhxOYYXoTl7KaY5jXv9OLXxHzlatac4gB+SOWcGODmHRgw5MlxbOesnMjmfrmo5tVG3\r\nOMPblTmzqck5nRBFOe6DWzkU+SA5+99BOSY9FDm7wyw5qnA/Oam/SzljKJc5upevOZmLMzkMzjo5\r\n9MkGOfdHEjm0/Gs5Dtw1ORWvjjnmOx85E1WOOdFQATmUPUE5e/QZOVnNSzmiRcM4AsywOTvDhjnK\r\n7wU5OTcEOQlSxTjqytI5jpv7OMS0Wjm4Xhw52Dj4OFf+pjlO6dU44SoTOYvLvTkJhEg5vG0zObcM\r\nJjl578E4+iW+OPx7RTmkFOw5TdTSOPo+cTl+WoE5WiR+OXozGznj3Ac5N4GLOaZZpjmOr1Y5U5Ar\r\nOba2eznDQis5ZDPLOYldATlQO1Q5UO9JOVynLjkWWVY5WMRQOQM1SzmiZwM5SYN3OYDGeDl2tIM5\r\nJOU1OVHrjDm3vjY5RLf3OMj33jmsHQ458oFiOR+6pzlTsGo54grcORL/uDmunPI4Qaq1OBKJOjnx\r\nd5459cW2OcfQCzp/l2g5fjE+OcOX6jhx5W85pjoLOZaBuzgmlZ85JGyEOe40Wjm56Z85FF1fOXCS\r\nszkyIFE5GDx2OU6ITTmf4a45pBfyOY7orjnEhBA5PxeYOdVt/jj8dhY5JKpAOfvJijmXjtE5Xr2r\r\nOe/rHDl1n+45YnrrOTeU3TnXpqc54VmQOakmWDmK0Ro5c3ljOQ5adTk5Mlc5zIr2OHL4TTky2JM5\r\nuvhwObBtyDnU0lA5gvRTOSZ+Qjkgbwg5NcSaOeB9XjlG/6g4Q3osOVygIDnAXng51a44OZpDEzkf\r\nNqc5zFcKOSB3UzmrQx452i+fOVqXdjkG4Ic53nsOOVIiiDktCLA40OIZOeGy6Th4Qhs5qokdOaCQ\r\n8jinJSo5EKgGOcrA0ThuvWQ5FTGJOcVwJTnE+OI4CL+qOVW3iDm9VAk5P949Oeo0QDlSTTs5iI0L\r\nObIV/Dhi6VE5AkpAOb1BIDmUGyg501y9OGcyTDkFkgc5/PU3OYNZWDn2a6Y40h1oOc6UNDlaWZ84\r\nyAU+OUVAmzg14ZY40vNQOajrCTlIls04efq8OJju0jnY0Aw5XlMNOWqyGDlUFFA5WQn6OKV6FDnO\r\ny/84JrhwOat5JzmCuDU582soOSl7gjnql/c4FtaGOcQoKznISZU4zoC+OJhFljhQH+A4wPY6OVtA\r\nljjYyWw5eAeQOBQqmzjrH8M4m0CtOCvaOzn0+xA5lHmFOLL2JTmN0KU4ck/5OMVMBTlU2RA5I9Ax\r\nOWhxDDlWqRY5mUKFOCH7sjizTds42U+0OLExmTjCZMI4MO4KOWKJ5jhFpp84rh/RODoFwzjmDe84\r\n+tCjOOhKvzhIboY5NIG3OKjzBjklauM46ftxOV3WHzmPDMs4mknqOAMnkThICt04CfE/OWAOEjmx\r\nzLc4+xKzOCES7zhGS1o5yEuSORWs/ziH8hY59f+4OJXmvjhyF504XNrfOFnGCzlNp5Y4rWNuOf/V\r\nzDj2phA4Tc8COYQSYDgpOvE4Due0OEDIljh4+qg4KafmOB4hMDjay7A4/524OI55bzg2QIY48SR2\r\nODrGgji5MoQ4RuTpOG2tijj+m7g4jIPVONjg6TiEOLc4/g+KOCkkSThq32U4EhF4OPaRDDndlgU4\r\nFqr9OKIWujguNpQ41JKBOIdYjjjOW3w4x9EWONxJqzhBGOE4BumpOJ4Uuzhlipo4qgvPODDeaDj5\r\nUWY4B29HOKBOQjjg7hI4KO6jOGH9hTg4KqM4eiFUOK6ngThuZaA4FboiOO5MvDjKMIE4YKvpOPK4\r\nbTgcxSc4qw+2ODWEtzgZAXE4C1v4OGLonDiqNik4wF7bOB6ZgTjOtOo3flRUOB7NjzjZ/fk34/C4\r\nOBpIdTg49ys4C+gzOArbnzg02cs4BHoAOWUkUDiDoMQ46qO6OGnfkDhDhEA4smlAOJnXezgQAeg4\r\nQE2OOEo+NzgQCUw4zuENOBuxkjjWhZQ4n6lvOEMcTjjYkjM4IIWmOI/oSTgauyU4bdF/OKCDIThF\r\ncSw4K+KVOCYpxzj0Q3M4cKOsOEZ92Dgz4IQ4kgSdOLyeFDh3JyI41PELOMClmjhX/4A47124OCqn\r\nnjgzIhU4629qOOYqnzjNQXE4WjkjOOAYcjhuLYw4Bb6COCMrXjjdFY84vfM6OAANvjhW22I4F4BF\r\nOC7I4zdkbzw40glWOIn1QDjfkpg4RkKaOKVzADgcORk4YB1mOOaslDhV8oE4U390OJS7Xzj3bbk4\r\nepfhN5I02zdcayw4A4utONlKRjgnO6Y34pK8OHW/ejjFNBU4dBQMOJaMTjgDP1Q4AQWWOOeUqjgp\r\nLBU4BcU7OGBy7jegRoU4nB50OA78YjjqBH449ipeOHJVSjgnm4c4ff7JNxUPzjcyvlc4quwHOAbI\r\nijj1YFs4Jm3TNwFybDiXsj84DwGoOOiuHjg/uLU4hsnPN904OTgtRM04KiEMOPc9lzhItpA4VDDY\r\nOMvZHDhInoI4PFFtOKrPsjckfWA4sIBcOHf7ozcyTYs4kWGNOAQ+HDjsEHU4/xvCOCHnLDhXBAY4\r\nHz0gODdZdjiLRhM4PgLAOK7cSjj5uLI4ULafONQ2DDnXx0g591uiOT0UNjke8K84Q/S3OACTVTgG\r\ngw85hGy0OP+huDiYbhY59eSFORmByjniQjk7OgeNO09JxzltfVk5qfQROdLTpDj6Hnk4S1GVOCy1\r\nVjjw5OE3kAttOHdjSziL7Y84HzVKOPVVJjjtvWY4Ud01OAhmAzih1vA3YbH4N9M/+DdVpOE39E/9\r\nN+xOwjc+8dI48Uq+N46MBziiVRQ4oB8EOBVelDdwOyc4ZeepN/zS2TcOdn44GAyMNzoV0Tc0pIE3\r\n6ZDuN4rdsTfWcJs3JsINOCGALDhmLWI4cP/7N1bxNjhzqc83bkRHOGyvRzgugNI35sokOLkVzzfp\r\nRvo3oOsKOHvsLzhpB4s4YNoCONx0Hzje3LU3ERQ2OG9m/zeI4p83UXSmN1WZzjcP/u836LjYN+Bp\r\nwzeBF843C5o9OB42Sjjges03PVbFN6kunTfPQZg3pWhzNwY0XDgOB+U3gmKfNwsNLTiY3+03vzTY\r\nN76+eDguEaA3P/k0OM4nmzfoszM40TElONECBjhyHgU4Sjr3N5x59TdkdTY4ACCrNw==",
                                    "noiseTrainingType" : "default"
                                  }
                                }
                            ],
                            "start" : 14,
                            "duration" : 2633,
                            "mediaStart" : 0,
                            "mediaDuration" : 2633,
                            "scalar" : 1,
                            "metadata" : {
                              "WinSubProjectDisplayName" : "",
                              "clipSpeedAttribute" : false
                            },
                            "animationTracks" : {

                            }
                          }
                        ],
                          "ident" : "",
                          "audioMuted" : false,
                          "videoHidden" : false,
                          "metadata" : {
                            "IsLocked" : "False",
                            "WinTrackHeight" : "8.39758666826368e-315"
                          }
                      },
                      {
                        "trackIndex" : 2,
                        "medias" : [
                          {
                            "id" : 247,
                            "_type" : "AMFile",
                            "src" : 4,
                            "trackNumber" : 0,
                            "attributes" : {
                              "ident" : "Projector_Screen_Flapping",
                              "sampleRate" : 44100,
                              "bitDepth" : 0,
                              "gain" : 1.0,
                              "mixToMono" : false
                            },
                              "channelNumber" : "0,1",
                            "parameters" : {
                              "volume" : {
                                "type" : "double",
                                "keyframes" : [
                                  {
                                    "time" : -1,
                                    "value" : 1.3265306122449,
                                    "duration" : 0
                                  },
                                  {
                                    "time" : 0,
                                    "value" : 0.0,
                                    "duration" : 0
                                  },
                                  {
                                    "time" : 28,
                                    "value" : 0.329670329670331,
                                    "duration" : 0
                                  }
                                ]
                              }
                            },
                            "effects" : [

                            ],
                            "start" : 0,
                            "duration" : 56,
                            "mediaStart" : 0,
                            "mediaDuration" : 56,
                            "scalar" : 1,
                            "metadata" : {
                              "WinSubProjectDisplayName" : "",
                              "clipSpeedAttribute" : false
                            },
                            "animationTracks" : {

                            }
                          },
                          {
                            "id" : 248,
                            "_type" : "Callout",
                            "def" : {
                              "kind" : "TypeWinSVG",
                              "shape" : "",
                              "style" : "",
                              "DrawTime" : 1.0,
                              "borderColorBlue" : 0.0,
                              "borderColorGreen" : 0.0,
                              "borderColorRed" : 1.0,
                              "borderWidth" : 5.0,
                              "flipOnXAxis" : 0.0,
                              "flipOnYAxis" : 0.0,
                              "height" : 180.0,
                              "width" : 240.0,
                              "filename" : "C:\\Program Files\\TechSmith\\Camtasia 9\\Media\\Studio\\Callouts\\anim_drawnoval.svg",
                              "horizontal-alignment" : "center",
                              "name" : "Sketch Motion Oval",
                              "vertical-alignment" : "center",
                              "xmlContent" : "﻿<?xml version=\"1.0\" encoding=\"utf-8\"?>\n<!-- Generator: Adobe Illustrator 13.0.2, SVG Export Plug-In . SVG Version: 6.00 Build 14948)  -->\n<!DOCTYPE svg PUBLIC \"-//W3C//DTD SVG 1.1//EN\" \"http://www.w3.org/Graphics/SVG/1.1/DTD/svg11.dtd\">\n<svg version=\"1.1\" id=\"Layer_1\" xmlns=\"http://www.w3.org/2000/svg\" xmlns:xlink=\"http://www.w3.org/1999/xlink\" x=\"0px\" y=\"0px\"\n\t width=\"299.75px\" height=\"214.496px\" viewBox=\"0 0 299.75 214.496\" enable-background=\"new 0 0 299.75 214.496\"\n\t xml:space=\"preserve\">\n<path fill=\"none\" d=\"M142.383,0.35c-26-3-55,14-74,24c-69,38-104,133-16,172c54,24,119,23,175,4c40-13,83-43,70-91\n\tc-25-95-141-116-224-99\"/>\n</svg>\n",
                              "textAttributes" : {
                                "type" : "textAttributeList",
                                "keyframes" : [
                                  {
                                    "time" : 0,
                                    "value" : null,
                                    "duration" : 0
                                  }
                                ]
                              }
                            },
                            "attributes" : {
                              "autoRotateText" : true
                            },
                            "parameters" : {
                              "translation0" : -532.855893553119,
                              "translation1" : 471.891356870064,
                              "scale0" : 2.40320397111883,
                              "scale1" : 0.251136515577315
                            },
                            "leftEdgeMods" : [
                              {
                                "group" : "DrawPercentageFade",
                                "duration" : 30,
                                "parameters" : [
                                  {
                                    "name" : "DrawTime",
                                      "func" : "FadeInFunc"
                                    }
                                ]
                              }
                            ],
                            "effects" : [
                                {
                                  "effectName" : "DropShadow",
                                  "parameters" : {
                                    "angle" : 5.49778714378214,
                                    "blur" : 10.0,
                                    "color-alpha" : 1.0,
                                    "color-blue" : 0.1216,
                                    "color-green" : 0.1216,
                                    "color-red" : 0.1216,
                                    "enabled" : 1,
                                    "offset" : 10.0,
                                    "opacity" : 0.4
                                  }
                                }
                            ],
                            "start" : 111,
                            "duration" : 150,
                            "mediaStart" : 0,
                            "mediaDuration" : 150,
                            "scalar" : 1,
                            "metadata" : {
                              "WinSubProjectDisplayName" : "",
                              "clipSpeedAttribute" : false,
                              "default-scale0" : 1.0,
                              "default-scale1" : 1.0,
                              "default-translation0" : 0.0,
                              "default-translation1" : 0.0
                            },
                            "animationTracks" : {

                            }
                          },
                          {
                            "id" : 249,
                            "_type" : "Callout",
                            "def" : {
                              "kind" : "TypeWinLine",
                              "shape" : "",
                              "style" : "",
                              "borderColorBlue" : 0.0823529411764706,
                              "borderColorGreen" : 0.0156862745098039,
                              "borderColorRed" : 0.976470588235294,
                              "borderWidth" : 5.0,
                              "endCapStyle" : 0.0,
                              "height" : 20.0,
                              "startCapStyle" : 0.0,
                              "width" : 240.0,
                              "filename" : "C:\\Program Files\\TechSmith\\Camtasia 9\\Media\\Studio\\Callouts\\line.xml",
                              "name" : "Line",
                              "xmlContent" : "﻿<?xml version=\"1.0\"?>\n\n<Overlay version=\"1.0.1\">\n\n<Overlay_Filename>line.png</Overlay_Filename>\n<Overlay_Name>Line</Overlay_Name>\n<Text_Top>0</Text_Top>\n<Text_Left>0</Text_Left>\n<Text_Bottom>0</Text_Bottom>\n<Text_Right>0</Text_Right>\n<Style>5</Style>\n<Initial_Fill_Color>0xffd8a57c</Initial_Fill_Color>\n<Initial_Border_Color>0xff017b34</Initial_Border_Color>\n<UseDefaultSpec>1</UseDefaultSpec>\n</Overlay>"
                            },
                            "attributes" : {
                              "autoRotateText" : true
                            },
                            "parameters" : {
                              "translation0" : -543.156735911609,
                              "translation1" : 434.40038214097,
                              "rotation2" : 1.15907283770866e-13,
                              "scale0" : 1.53472222222236
                            },
                            "effects" : [
                                {
                                  "effectName" : "DropShadow",
                                  "parameters" : {
                                    "angle" : 5.49778714378214,
                                    "blur" : 10.0,
                                    "color-alpha" : 1.0,
                                    "color-blue" : 0.1216,
                                    "color-green" : 0.1216,
                                    "color-red" : 0.1216,
                                    "enabled" : 1,
                                    "offset" : 10.0,
                                    "opacity" : 0.4
                                  }
                                }
                            ],
                            "start" : 1595,
                            "duration" : 150,
                            "mediaStart" : 0,
                            "mediaDuration" : 150,
                            "scalar" : 1,
                            "metadata" : {
                              "WinSubProjectDisplayName" : "",
                              "clipSpeedAttribute" : false,
                              "default-rotation2" : 0.0,
                              "default-scale0" : 1.0,
                              "default-stroke-color-blue" : 0.00392156862745098,
                              "default-stroke-color-green" : 0.482352941176471,
                              "default-stroke-color-red" : 0.203921568627451,
                              "default-translation0" : 0.0,
                              "default-translation1" : 0.0
                            },
                            "animationTracks" : {

                            }
                          },
                          {
                            "id" : 250,
                            "_type" : "Callout",
                            "def" : {
                              "kind" : "TypeWinLine",
                              "shape" : "",
                              "style" : "",
                              "borderColorBlue" : 0.176470588235294,
                              "borderColorGreen" : 0.0156862745098039,
                              "borderColorRed" : 1.0,
                              "borderWidth" : 5.0,
                              "endCapStyle" : 0.0,
                              "height" : 20.0,
                              "startCapStyle" : 0.0,
                              "width" : 240.0,
                              "filename" : "C:\\Program Files\\TechSmith\\Camtasia 9\\Media\\Studio\\Callouts\\line.xml",
                              "name" : "Line",
                              "xmlContent" : "﻿<?xml version=\"1.0\"?>\n\n<Overlay version=\"1.0.1\">\n\n<Overlay_Filename>line.png</Overlay_Filename>\n<Overlay_Name>Line</Overlay_Name>\n<Text_Top>0</Text_Top>\n<Text_Left>0</Text_Left>\n<Text_Bottom>0</Text_Bottom>\n<Text_Right>0</Text_Right>\n<Style>5</Style>\n<Initial_Fill_Color>0xffd8a57c</Initial_Fill_Color>\n<Initial_Border_Color>0xff017b34</Initial_Border_Color>\n<UseDefaultSpec>1</UseDefaultSpec>\n</Overlay>"
                            },
                            "attributes" : {
                              "autoRotateText" : true
                            },
                            "parameters" : {
                              "translation0" : -802.323402578351,
                              "translation1" : 384.400382140965,
                              "rotation2" : -1.07469588783715e-13,
                              "scale0" : 0.652777777777735
                            },
                            "effects" : [
                                {
                                  "effectName" : "DropShadow",
                                  "parameters" : {
                                    "angle" : 5.49778714378214,
                                    "blur" : 10.0,
                                    "color-alpha" : 1.0,
                                    "color-blue" : 0.1216,
                                    "color-green" : 0.1216,
                                    "color-red" : 0.1216,
                                    "enabled" : 1,
                                    "offset" : 10.0,
                                    "opacity" : 0.4
                                  }
                                }
                            ],
                            "start" : 2056,
                            "duration" : 105,
                            "mediaStart" : 0,
                            "mediaDuration" : 105,
                            "scalar" : 1,
                            "metadata" : {
                              "WinSubProjectDisplayName" : "",
                              "clipSpeedAttribute" : false,
                              "default-rotation2" : 0.0,
                              "default-scale0" : 1.0,
                              "default-stroke-color-blue" : 0.00392156862745098,
                              "default-stroke-color-green" : 0.482352941176471,
                              "default-stroke-color-red" : 0.203921568627451,
                              "default-translation0" : 0.0,
                              "default-translation1" : 0.0
                            },
                            "animationTracks" : {

                            }
                          },
                          {
                            "id" : 251,
                            "_type" : "Callout",
                            "def" : {
                              "kind" : "TypeWinLine",
                              "shape" : "",
                              "style" : "",
                              "borderColorBlue" : {
                                "type" : "double",
                                "defaultValue" : 0.176470588235294,
                                "interp" : "linr"
                              },
                              "borderColorGreen" : {
                                "type" : "double",
                                "defaultValue" : 0.0156862745098039,
                                "interp" : "linr"
                              },
                              "borderColorRed" : {
                                "type" : "double",
                                "defaultValue" : 1.0,
                                "interp" : "linr"
                              },
                              "borderWidth" : {
                                "type" : "double",
                                "defaultValue" : 5.0,
                                "interp" : "linr"
                              },
                              "endCapStyle" : {
                                "type" : "double",
                                "defaultValue" : 0.0,
                                "interp" : "linr"
                              },
                              "height" : {
                                "type" : "double",
                                "defaultValue" : 20.0,
                                "interp" : "linr"
                              },
                              "startCapStyle" : {
                                "type" : "double",
                                "defaultValue" : 0.0,
                                "interp" : "linr"
                              },
                              "width" : {
                                "type" : "double",
                                "defaultValue" : 240.0,
                                "interp" : "linr"
                              },
                              "filename" : "C:\\Program Files\\TechSmith\\Camtasia 9\\Media\\Studio\\Callouts\\line.xml",
                              "name" : "Line",
                              "xmlContent" : "﻿<?xml version=\"1.0\"?>\n\n<Overlay version=\"1.0.1\">\n\n<Overlay_Filename>line.png</Overlay_Filename>\n<Overlay_Name>Line</Overlay_Name>\n<Text_Top>0</Text_Top>\n<Text_Left>0</Text_Left>\n<Text_Bottom>0</Text_Bottom>\n<Text_Right>0</Text_Right>\n<Style>5</Style>\n<Initial_Fill_Color>0xffd8a57c</Initial_Fill_Color>\n<Initial_Border_Color>0xff017b34</Initial_Border_Color>\n<UseDefaultSpec>1</UseDefaultSpec>\n</Overlay>"
                            },
                            "attributes" : {
                              "autoRotateText" : true
                            },
                            "parameters" : {
                              "translation0" : {
                                "type" : "double",
                                "defaultValue" : -584.823402578348,
                                "interp" : "eioe"
                              },
                              "translation1" : {
                                "type" : "double",
                                "defaultValue" : 382.733715474272,
                                "interp" : "eioe"
                              },
                              "rotation2" : {
                                "type" : "double",
                                "defaultValue" : -2.62456723021387e-13,
                                "interp" : "eioe"
                              },
                              "scale0" : {
                                "type" : "double",
                                "defaultValue" : 0.993055555555496,
                                "interp" : "eioe"
                              }
                            },
                            "effects" : [
                                {
                                  "effectName" : "DropShadow",
                                  "parameters" : {
                                    "angle" : {
                                      "type" : "double",
                                      "defaultValue" : 5.49778714378214,
                                      "interp" : "linr",
                                      "uiHints" : {
                                        "userInterfaceType" : 0,
                                        "unitType" : 0
                                      }
                                    },
                                    "blur" : {
                                      "type" : "double",
                                      "defaultValue" : 10.0,
                                      "interp" : "linr",
                                      "uiHints" : {
                                        "userInterfaceType" : 0,
                                        "unitType" : 0
                                      }
                                    },
                                    "color-alpha" : {
                                      "type" : "double",
                                      "defaultValue" : 1.0,
                                      "interp" : "linr",
                                      "uiHints" : {
                                        "userInterfaceType" : 0,
                                        "unitType" : 0
                                      }
                                    },
                                    "color-blue" : {
                                      "type" : "double",
                                      "defaultValue" : 0.1216,
                                      "interp" : "linr",
                                      "uiHints" : {
                                        "userInterfaceType" : 0,
                                        "unitType" : 0
                                      }
                                    },
                                    "color-green" : {
                                      "type" : "double",
                                      "defaultValue" : 0.1216,
                                      "interp" : "linr",
                                      "uiHints" : {
                                        "userInterfaceType" : 0,
                                        "unitType" : 0
                                      }
                                    },
                                    "color-red" : {
                                      "type" : "double",
                                      "defaultValue" : 0.1216,
                                      "interp" : "linr",
                                      "uiHints" : {
                                        "userInterfaceType" : 0,
                                        "unitType" : 0
                                      }
                                    },
                                    "enabled" : 1,
                                    "offset" : {
                                      "type" : "double",
                                      "defaultValue" : 10.0,
                                      "interp" : "linr",
                                      "uiHints" : {
                                        "userInterfaceType" : 0,
                                        "unitType" : 0
                                      }
                                    },
                                    "opacity" : {
                                      "type" : "double",
                                      "defaultValue" : 0.4,
                                      "interp" : "linr",
                                      "uiHints" : {
                                        "userInterfaceType" : 0,
                                        "unitType" : 0
                                      }
                                    }
                                  }
                                }
                            ],
                            "start" : 2170,
                            "duration" : 58,
                            "mediaStart" : 0,
                            "mediaDuration" : 58,
                            "scalar" : 1,
                            "metadata" : {
                              "WinSubProjectDisplayName" : "",
                              "clipSpeedAttribute" : false,
                              "default-rotation2" : 0.0,
                              "default-scale0" : 1.0,
                              "default-stroke-color-blue" : 0.00392156862745098,
                              "default-stroke-color-green" : 0.482352941176471,
                              "default-stroke-color-red" : 0.203921568627451,
                              "default-translation0" : 0.0,
                              "default-translation1" : 0.0
                            },
                            "animationTracks" : {

                            }
                          },
                          {
                            "id" : 252,
                            "_type" : "Callout",
                            "def" : {
                              "kind" : "TypeWinLine",
                              "shape" : "",
                              "style" : "",
                              "borderColorBlue" : {
                                "type" : "double",
                                "defaultValue" : 0.176470588235294,
                                "interp" : "linr"
                              },
                              "borderColorGreen" : {
                                "type" : "double",
                                "defaultValue" : 0.0156862745098039,
                                "interp" : "linr"
                              },
                              "borderColorRed" : {
                                "type" : "double",
                                "defaultValue" : 1.0,
                                "interp" : "linr"
                              },
                              "borderWidth" : {
                                "type" : "double",
                                "defaultValue" : 5.0,
                                "interp" : "linr"
                              },
                              "endCapStyle" : {
                                "type" : "double",
                                "defaultValue" : 0.0,
                                "interp" : "linr"
                              },
                              "height" : {
                                "type" : "double",
                                "defaultValue" : 20.0,
                                "interp" : "linr"
                              },
                              "startCapStyle" : {
                                "type" : "double",
                                "defaultValue" : 0.0,
                                "interp" : "linr"
                              },
                              "width" : {
                                "type" : "double",
                                "defaultValue" : 240.0,
                                "interp" : "linr"
                              },
                              "filename" : "C:\\Program Files\\TechSmith\\Camtasia 9\\Media\\Studio\\Callouts\\line.xml",
                              "name" : "Line",
                              "xmlContent" : "﻿<?xml version=\"1.0\"?>\n\n<Overlay version=\"1.0.1\">\n\n<Overlay_Filename>line.png</Overlay_Filename>\n<Overlay_Name>Line</Overlay_Name>\n<Text_Top>0</Text_Top>\n<Text_Left>0</Text_Left>\n<Text_Bottom>0</Text_Bottom>\n<Text_Right>0</Text_Right>\n<Style>5</Style>\n<Initial_Fill_Color>0xffd8a57c</Initial_Fill_Color>\n<Initial_Border_Color>0xff017b34</Initial_Border_Color>\n<UseDefaultSpec>1</UseDefaultSpec>\n</Overlay>"
                            },
                            "attributes" : {
                              "autoRotateText" : true
                            },
                            "parameters" : {
                              "translation0" : {
                                "type" : "double",
                                "defaultValue" : -319.823402578369,
                                "interp" : "eioe"
                              },
                              "translation1" : {
                                "type" : "double",
                                "defaultValue" : 379.400382140924,
                                "interp" : "eioe"
                              },
                              "rotation2" : {
                                "type" : "double",
                                "defaultValue" : -2.62456723021387e-13,
                                "interp" : "eioe"
                              },
                              "scale0" : {
                                "type" : "double",
                                "defaultValue" : 0.993055555555496,
                                "interp" : "eioe"
                              }
                            },
                            "effects" : [
                                {
                                  "effectName" : "DropShadow",
                                  "parameters" : {
                                    "angle" : {
                                      "type" : "double",
                                      "defaultValue" : 5.49778714378214,
                                      "interp" : "linr",
                                      "uiHints" : {
                                        "userInterfaceType" : 0,
                                        "unitType" : 0
                                      }
                                    },
                                    "blur" : {
                                      "type" : "double",
                                      "defaultValue" : 10.0,
                                      "interp" : "linr",
                                      "uiHints" : {
                                        "userInterfaceType" : 0,
                                        "unitType" : 0
                                      }
                                    },
                                    "color-alpha" : {
                                      "type" : "double",
                                      "defaultValue" : 1.0,
                                      "interp" : "linr",
                                      "uiHints" : {
                                        "userInterfaceType" : 0,
                                        "unitType" : 0
                                      }
                                    },
                                    "color-blue" : {
                                      "type" : "double",
                                      "defaultValue" : 0.1216,
                                      "interp" : "linr",
                                      "uiHints" : {
                                        "userInterfaceType" : 0,
                                        "unitType" : 0
                                      }
                                    },
                                    "color-green" : {
                                      "type" : "double",
                                      "defaultValue" : 0.1216,
                                      "interp" : "linr",
                                      "uiHints" : {
                                        "userInterfaceType" : 0,
                                        "unitType" : 0
                                      }
                                    },
                                    "color-red" : {
                                      "type" : "double",
                                      "defaultValue" : 0.1216,
                                      "interp" : "linr",
                                      "uiHints" : {
                                        "userInterfaceType" : 0,
                                        "unitType" : 0
                                      }
                                    },
                                    "enabled" : 1,
                                    "offset" : {
                                      "type" : "double",
                                      "defaultValue" : 10.0,
                                      "interp" : "linr",
                                      "uiHints" : {
                                        "userInterfaceType" : 0,
                                        "unitType" : 0
                                      }
                                    },
                                    "opacity" : {
                                      "type" : "double",
                                      "defaultValue" : 0.4,
                                      "interp" : "linr",
                                      "uiHints" : {
                                        "userInterfaceType" : 0,
                                        "unitType" : 0
                                      }
                                    }
                                  }
                                }
                            ],
                            "start" : 2228,
                            "duration" : 58,
                            "mediaStart" : 0,
                            "mediaDuration" : 58,
                            "scalar" : 1,
                            "metadata" : {
                              "WinSubProjectDisplayName" : "",
                              "clipSpeedAttribute" : false,
                              "default-rotation2" : 0.0,
                              "default-scale0" : 1.0,
                              "default-stroke-color-blue" : 0.00392156862745098,
                              "default-stroke-color-green" : 0.482352941176471,
                              "default-stroke-color-red" : 0.203921568627451,
                              "default-translation0" : 0.0,
                              "default-translation1" : 0.0
                            },
                            "animationTracks" : {

                            }
                          }
                        ],
                          "ident" : "",
                          "audioMuted" : false,
                          "videoHidden" : false,
                          "metadata" : {
                            "IsLocked" : "False",
                            "WinTrackHeight" : "8.39758666826368e-315"
                          }
                      }
                    ],
                    "attributes" : {
                      "ident" : "06_Vagrant",
                      "gain" : 1.0,
                      "mixToMono" : false
                    },
                    "effects" : [

                    ],
                    "start" : 8840,
                    "duration" : 2647,
                    "mediaStart" : 0.0,
                    "mediaDuration" : 2647.0,
                    "scalar" : 1,
                    "metadata" : {
                      "IsGroupExpanded" : "False",
                      "WinSubProjectDisplayName" : "06_Vagrant"
                    },
                    "animationTracks" : {

                    }
                  },
                  {
                    "id" : 253,
                    "_type" : "Group",
                    "parameters" : {
                      "translation0" : 522.658441440765,
                      "translation1" : -220.272490902822,
                      "volume" : 1.0
                    },
                    "tracks" : [
                      {
                        "trackIndex" : 0,
                        "medias" : [
                          {
                            "id" : 254,
                            "_type" : "IMFile",
                            "src" : 29,
                            "trackNumber" : 0,
                            "trimStartSum" : 0,
                            "attributes" : {
                              "ident" : "07_Spin-Up"
                            },
                            "parameters" : {
                              "translation0" : {
                                "type" : "double",
                                "defaultValue" : -522.658441440765,
                                "interp" : "eioe"
                              },
                              "translation1" : {
                                "type" : "double",
                                "defaultValue" : 220.272490902822,
                                "interp" : "eioe"
                              }
                            },
                            "effects" : [

                            ],
                            "start" : 0,
                            "duration" : 118,
                            "mediaStart" : 0,
                            "mediaDuration" : 1,
                            "scalar" : 1,
                            "metadata" : {
                              "WinSubProjectDisplayName" : "",
                              "clipSpeedAttribute" : false
                            },
                            "animationTracks" : {

                            }
                          },
                          {
                            "id" : 255,
                            "_type" : "ScreenVMFile",
                            "src" : 30,
                            "trackNumber" : 0,
                            "attributes" : {
                              "ident" : "Rec 06-27-17 7"
                            },
                            "parameters" : {
                              "translation0" : {
                                "type" : "double",
                                "defaultValue" : -522.658441440765,
                                "interp" : "eioe",
                                "keyframes" : [
                                  {
                                    "time" : -29,
                                    "value" : 171.647667657157,
                                    "duration" : 30
                                  }
                                ]
                              },
                              "translation1" : {
                                "type" : "double",
                                "defaultValue" : 220.272490902822,
                                "interp" : "eioe",
                                "keyframes" : [
                                  {
                                    "time" : -29,
                                    "value" : 295.201759276027,
                                    "duration" : 30
                                  }
                                ]
                              },
                              "scale0" : {
                                "type" : "double",
                                "defaultValue" : 0.572792362768496,
                                "interp" : "eioe",
                                "keyframes" : [
                                  {
                                    "time" : -29,
                                    "value" : 1.33999990072301,
                                    "duration" : 30
                                  }
                                ]
                              },
                              "scale1" : {
                                "type" : "double",
                                "defaultValue" : 0.572792362768496,
                                "interp" : "eioe",
                                "keyframes" : [
                                  {
                                    "time" : -29,
                                    "value" : 1.34000041095862,
                                    "duration" : 30
                                  }
                                ]
                              },
                              "cursorScale" : {
                                "type" : "double",
                                "defaultValue" : 1.0,
                                "interp" : "linr"
                              },
                              "cursorOpacity" : {
                                "type" : "double",
                                "defaultValue" : 1.0,
                                "interp" : "linr"
                              }
                            },
                            "effects" : [

                            ],
                            "start" : 118,
                            "duration" : 864,
                            "mediaStart" : 0,
                            "mediaDuration" : 2648,
                            "scalar" : "108/331",
                            "metadata" : {
                              "AutoAppliedSmartFocus" : "False",
                              "WinSubProjectDisplayName" : "",
                              "clipSpeedAttribute" : true,
                              "default-scale0" : 0.572792362768496,
                              "default-scale1" : 0.572792362768496,
                              "default-translation0" : 0.0,
                              "default-translation1" : 0.0
                            },
                            "animationTracks" : {
                              "visual" : [
                                {
                                  "range" : [ -29, 30]
                                }
                              ]
                            }
                          },
                          {
                            "id" : 256,
                            "_type" : "ScreenVMFile",
                            "src" : 31,
                            "trackNumber" : 0,
                            "attributes" : {
                              "ident" : "Rec 06-27-17 8"
                            },
                            "parameters" : {
                              "translation0" : {
                                "type" : "double",
                                "defaultValue" : -522.658441440765,
                                "interp" : "eioe",
                                "keyframes" : [
                                  {
                                    "time" : 18,
                                    "value" : -522.65835696378,
                                    "duration" : 30
                                  },
                                  {
                                    "time" : "122210/161",
                                    "value" : 283.74995099556,
                                    "duration" : "7575/161"
                                  }
                                ]
                              },
                              "translation1" : {
                                "type" : "double",
                                "defaultValue" : 220.272490902822,
                                "interp" : "eioe",
                                "keyframes" : [
                                  {
                                    "time" : 18,
                                    "value" : 220.272533141312,
                                    "duration" : 30
                                  },
                                  {
                                    "time" : "122210/161",
                                    "value" : -196.484740147788,
                                    "duration" : "7575/161"
                                  }
                                ]
                              },
                              "scale0" : {
                                "type" : "double",
                                "defaultValue" : 0.572792362768496,
                                "interp" : "eioe",
                                "keyframes" : [
                                  {
                                    "time" : 18,
                                    "value" : 1.25000002252676,
                                    "duration" : 30
                                  },
                                  {
                                    "time" : "122210/161",
                                    "value" : 1.53509358573466,
                                    "duration" : "7575/161"
                                  }
                                ]
                              },
                              "scale1" : {
                                "type" : "double",
                                "defaultValue" : 0.572792362768496,
                                "interp" : "eioe",
                                "keyframes" : [
                                  {
                                    "time" : 18,
                                    "value" : 1.24999994919604,
                                    "duration" : 30
                                  },
                                  {
                                    "time" : "122210/161",
                                    "value" : 1.53509333413696,
                                    "duration" : "7575/161"
                                  }
                                ]
                              },
                              "cursorScale" : {
                                "type" : "double",
                                "defaultValue" : 1.0,
                                "interp" : "linr"
                              },
                              "cursorOpacity" : {
                                "type" : "double",
                                "defaultValue" : 1.0,
                                "interp" : "linr"
                              }
                            },
                            "effects" : [

                            ],
                            "start" : 982,
                            "duration" : 644,
                            "mediaStart" : 0,
                            "mediaDuration" : 1010,
                            "scalar" : "322/505",
                            "metadata" : {
                              "AutoAppliedSmartFocus" : "False",
                              "WinSubProjectDisplayName" : "",
                              "clipSpeedAttribute" : true,
                              "default-scale0" : 0.572792362768496,
                              "default-scale1" : 0.572792362768496,
                              "default-translation0" : 0.0,
                              "default-translation1" : 0.0
                            },
                            "animationTracks" : {
                              "visual" : [
                                {
                                  "range" : [ 18, 30]
                                },
                                {
                                  "range" : [ "122210/161", "7575/161"]
                                }
                              ]
                            }
                          }
                        ],
                        "transitions" : [
                          {
                            "name" : "Flip",
                            "duration" : 33,
                            "useAudioPreRoll" : true,
                            "useVisualPreRoll" : true,
                            "rightMedia" : 254
                          },
                          {
                            "name" : "Flip",
                            "duration" : 29,
                            "useAudioPreRoll" : true,
                            "useVisualPreRoll" : true,
                            "leftMedia" : 255,
                            "rightMedia" : 256
                          }
                        ],
                          "ident" : "",
                          "audioMuted" : false,
                          "videoHidden" : false,
                          "metadata" : {
                            "IsLocked" : "False",
                            "WinTrackHeight" : "0"
                          }
                      },
                      {
                        "trackIndex" : 1,
                        "medias" : [
                          {
                            "id" : 257,
                            "_type" : "AMFile",
                            "src" : 28,
                            "trackNumber" : 0,
                            "attributes" : {
                              "ident" : "07_spin_up_audio",
                              "sampleRate" : 44100,
                              "bitDepth" : 16,
                              "gain" : 1.0,
                              "mixToMono" : false
                            },
                              "channelNumber" : "0,1",
                            "effects" : [

                            ],
                            "start" : 0,
                            "duration" : 1626,
                            "mediaStart" : 0,
                            "mediaDuration" : 1626,
                            "scalar" : 1,
                            "metadata" : {
                              "WinSubProjectDisplayName" : "",
                              "clipSpeedAttribute" : false
                            },
                            "animationTracks" : {

                            }
                          }
                        ],
                          "ident" : "",
                          "audioMuted" : false,
                          "videoHidden" : false,
                          "metadata" : {
                            "IsLocked" : "False",
                            "WinTrackHeight" : "7.93922702807163e-315"
                          }
                      }
                    ],
                    "attributes" : {
                      "ident" : "08_Spin-up",
                      "gain" : 1.0,
                      "mixToMono" : false
                    },
                    "effects" : [

                    ],
                    "start" : 11487,
                    "duration" : 1626,
                    "mediaStart" : 0.0,
                    "mediaDuration" : 1626.0,
                    "scalar" : 1,
                    "metadata" : {
                      "IsGroupExpanded" : "False",
                      "WinSubProjectDisplayName" : "08_Spin-up"
                    },
                    "animationTracks" : {

                    }
                  },
                  {
                    "id" : 258,
                    "_type" : "Group",
                    "parameters" : {
                      "volume" : 1.0
                    },
                    "tracks" : [
                      {
                        "trackIndex" : 0,
                        "medias" : [
                          {
                            "id" : 259,
                            "_type" : "IMFile",
                            "src" : 32,
                            "trackNumber" : 0,
                            "trimStartSum" : 0,
                            "attributes" : {
                              "ident" : "08_TheEnd"
                            },
                            "effects" : [

                            ],
                            "start" : 0,
                            "duration" : 450,
                            "mediaStart" : 0,
                            "mediaDuration" : 1,
                            "scalar" : 1,
                            "metadata" : {
                              "WinSubProjectDisplayName" : "",
                              "clipSpeedAttribute" : false
                            },
                            "animationTracks" : {

                            }
                          }
                        ],
                        "transitions" : [
                          {
                            "name" : "Flip",
                            "duration" : 41,
                            "useAudioPreRoll" : true,
                            "useVisualPreRoll" : true,
                            "rightMedia" : 259
                          }
                        ],
                          "ident" : "",
                          "audioMuted" : false,
                          "videoHidden" : false,
                          "metadata" : {
                            "IsLocked" : "False",
                            "WinTrackHeight" : "0"
                          }
                      },
                      {
                        "trackIndex" : 1,
                        "medias" : [
                          {
                            "id" : 260,
                            "_type" : "AMFile",
                            "src" : 33,
                            "trackNumber" : 0,
                            "attributes" : {
                              "ident" : "08_finish_audio",
                              "sampleRate" : 44100,
                              "bitDepth" : 16,
                              "gain" : 1.0,
                              "mixToMono" : false
                            },
                              "channelNumber" : "0,1",
                            "effects" : [

                            ],
                            "start" : 0,
                            "duration" : 450,
                            "mediaStart" : 0,
                            "mediaDuration" : 450,
                            "scalar" : 1,
                            "metadata" : {
                              "WinSubProjectDisplayName" : "",
                              "clipSpeedAttribute" : false
                            },
                            "animationTracks" : {

                            }
                          }
                        ],
                          "ident" : "",
                          "audioMuted" : false,
                          "videoHidden" : false,
                          "metadata" : {
                            "IsLocked" : "False",
                            "WinTrackHeight" : "7.88525632457647e-315"
                          }
                      }
                    ],
                    "attributes" : {
                      "ident" : "09_End",
                      "gain" : 1.0,
                      "mixToMono" : false
                    },
                    "effects" : [

                    ],
                    "start" : 13113,
                    "duration" : 450,
                    "mediaStart" : 0.0,
                    "mediaDuration" : 450.0,
                    "scalar" : 1,
                    "metadata" : {
                      "IsGroupExpanded" : "False",
                      "WinSubProjectDisplayName" : "09_End"
                    },
                    "animationTracks" : {

                    }
                  }
                ],
                "transitions" : [
                  {
                    "name" : "Flip",
                    "duration" : 33,
                    "useAudioPreRoll" : true,
                    "useVisualPreRoll" : true,
                    "leftMedia" : 240
                  },
                  {
                    "name" : "Flip",
                    "duration" : 41,
                    "useAudioPreRoll" : true,
                    "useVisualPreRoll" : true,
                    "leftMedia" : 253
                  }
                ]
              },
              {
                "trackIndex" : 1,
                "medias" : [
                ]
              },
              {
                "trackIndex" : 2,
                "medias" : [
                ]
              },
              {
                "trackIndex" : 3,
                "medias" : [
                ]
              },
              {
                "trackIndex" : 4,
                "medias" : [
                ]
              },
              {
                "trackIndex" : 5,
                "medias" : [
                ]
              },
              {
                "trackIndex" : 6,
                "medias" : [
                  {
                    "id" : 261,
                    "_type" : "AMFile",
                    "src" : 1,
                    "trackNumber" : 1,
                    "attributes" : {
                      "ident" : "Rec 05-22-17 2",
                      "sampleRate" : 44100,
                      "bitDepth" : 16,
                      "gain" : 1.0,
                      "mixToMono" : false
                    },
                      "channelNumber" : "0,1",
                    "parameters" : {
                      "volume" : {
                        "type" : "double",
                        "keyframes" : [
                          {
                            "time" : -1,
                            "value" : 1.0,
                            "duration" : 0
                          },
                          {
                            "time" : 0,
                            "value" : 0.0,
                            "duration" : 0
                          },
                          {
                            "time" : 90,
                            "value" : 1.0,
                            "duration" : 0
                          }
                        ]
                      }
                    },
                    "effects" : [

                    ],
                    "start" : 15737,
                    "duration" : 3,
                    "mediaStart" : 5218,
                    "mediaDuration" : 3,
                    "scalar" : 1,
                    "metadata" : {
                      "WinSubProjectDisplayName" : "",
                      "clipSpeedAttribute" : false
                    },
                    "animationTracks" : {

                    }
                  }
                ]
              },
              {
                "trackIndex" : 7,
                "medias" : [
                  {
                    "id" : 262,
                    "_type" : "AMFile",
                    "src" : 4,
                    "trackNumber" : 0,
                    "attributes" : {
                      "ident" : "Projector_Screen_Flapping",
                      "sampleRate" : 44100,
                      "bitDepth" : 0,
                      "gain" : 1.0,
                      "mixToMono" : false
                    },
                      "channelNumber" : "0,1",
                    "parameters" : {
                      "volume" : 1.3265306122449
                    },
                    "effects" : [

                    ],
                    "start" : 15954,
                    "duration" : 56,
                    "mediaStart" : 0,
                    "mediaDuration" : 56,
                    "scalar" : 1,
                    "metadata" : {
                      "WinSubProjectDisplayName" : "",
                      "clipSpeedAttribute" : false
                    },
                    "animationTracks" : {

                    }
                  }
                ]
              },
              {
                "trackIndex" : 8,
                "medias" : [
                ]
              },
              {
                "trackIndex" : 9,
                "medias" : [
                ]
              },
              {
                "trackIndex" : 10,
                "medias" : [
                ]
              },
              {
                "trackIndex" : 11,
                "medias" : [
                ]
              },
              {
                "trackIndex" : 12,
                "medias" : [
                ]
              },
              {
                "trackIndex" : 13,
                "medias" : [
                ]
              }
            ]
          }
        }
      ]
    },
    "trackAttributes" : [
      {
        "ident" : "",
        "audioMuted" : false,
        "videoHidden" : false,
        "metadata" : {
          "IsLocked" : "False",
          "WinTrackHeight" : "56"
        }
      },
      {
        "ident" : "",
        "audioMuted" : false,
        "videoHidden" : false,
        "metadata" : {
          "IsLocked" : "False",
          "WinTrackHeight" : "56"
        }
      },
      {
        "ident" : "",
        "audioMuted" : false,
        "videoHidden" : false,
        "metadata" : {
          "IsLocked" : "False",
          "WinTrackHeight" : "56"
        }
      },
      {
        "ident" : "",
        "audioMuted" : false,
        "videoHidden" : false,
        "metadata" : {
          "IsLocked" : "False",
          "WinTrackHeight" : "56"
        }
      },
      {
        "ident" : "",
        "audioMuted" : false,
        "videoHidden" : false,
        "metadata" : {
          "IsLocked" : "False",
          "WinTrackHeight" : "56"
        }
      },
      {
        "ident" : "",
        "audioMuted" : false,
        "videoHidden" : false,
        "metadata" : {
          "IsLocked" : "False",
          "WinTrackHeight" : "56"
        }
      },
      {
        "ident" : "",
        "audioMuted" : false,
        "videoHidden" : false,
        "metadata" : {
          "IsLocked" : "False",
          "WinTrackHeight" : "56"
        }
      },
      {
        "ident" : "",
        "audioMuted" : false,
        "videoHidden" : false,
        "metadata" : {
          "IsLocked" : "False",
          "WinTrackHeight" : "56"
        }
      },
      {
        "ident" : "",
        "audioMuted" : false,
        "videoHidden" : false,
        "metadata" : {
          "IsLocked" : "False",
          "WinTrackHeight" : "56"
        }
      },
      {
        "ident" : "",
        "audioMuted" : false,
        "videoHidden" : false,
        "metadata" : {
          "IsLocked" : "False",
          "WinTrackHeight" : "56"
        }
      },
      {
        "ident" : "",
        "audioMuted" : false,
        "videoHidden" : false,
        "metadata" : {
          "IsLocked" : "False",
          "WinTrackHeight" : "56"
        }
      },
      {
        "ident" : "",
        "audioMuted" : false,
        "videoHidden" : false,
        "metadata" : {
          "IsLocked" : "False",
          "WinTrackHeight" : "56"
        }
      },
      {
        "ident" : "",
        "audioMuted" : false,
        "videoHidden" : false,
        "metadata" : {
          "IsLocked" : "False",
          "WinTrackHeight" : "56.0000000000002"
        }
      },
      {
        "ident" : "",
        "audioMuted" : false,
        "videoHidden" : false,
        "metadata" : {
          "IsLocked" : "False",
          "WinTrackHeight" : "56.0000000000002"
        }
      }
    ],
    "parameters" : {
      "toc" : {
        "type" : "string",
        "keyframes" : [
          {
            "time" : 1693,
            "value" : "Solution-02",
            "duration" : 0,
            "metadata" : {
              "Checked" : "True",
              "IndentLevel" : "0",
              "markerIdentifier" : "72B1198B-7063-41F9-8488-72307F09A888"
            }
          },
          {
            "time" : 1861,
            "value" : "Solution-03",
            "duration" : 0,
            "metadata" : {
              "Checked" : "True",
              "IndentLevel" : "0",
              "markerIdentifier" : "F9562839-7EB6-4936-8501-C19ED0BD4B1F"
            }
          },
          {
            "time" : 1995,
            "value" : "Solution 04",
            "duration" : 0,
            "metadata" : {
              "Checked" : "True",
              "IndentLevel" : "0",
              "markerIdentifier" : "8F01390B-F251-4564-B2E4-4ABDAC3A4CC5"
            }
          },
          {
            "time" : 2465,
            "value" : "Solution 05",
            "duration" : 0,
            "metadata" : {
              "Checked" : "True",
              "IndentLevel" : "0",
              "markerIdentifier" : "3BFA4EA9-B20F-46CA-94FF-945F7EA0B490"
            }
          },
          {
            "time" : 2731,
            "value" : "Solution 06",
            "duration" : 0,
            "metadata" : {
              "Checked" : "True",
              "IndentLevel" : "0",
              "markerIdentifier" : "B6A1675A-DB21-469D-9DA7-DED349DFD41B"
            }
          },
          {
            "time" : 5127,
            "value" : "chocolatey",
            "duration" : 0,
            "metadata" : {
              "Checked" : "True",
              "IndentLevel" : "0",
              "markerIdentifier" : "0F57E6DB-17A1-41FE-8653-5B8A5E5381BC"
            }
          },
          {
            "time" : 5689,
            "value" : "installations",
            "duration" : 0,
            "metadata" : {
              "Checked" : "True",
              "IndentLevel" : "0",
              "markerIdentifier" : "D80009E2-FE2F-40E1-89A7-75554D4C37CF"
            }
          },
          {
            "time" : 5908,
            "value" : "virttualbox-inst",
            "duration" : 0,
            "metadata" : {
              "Checked" : "True",
              "IndentLevel" : "0",
              "markerIdentifier" : "BB2EDAD0-2EC4-4E66-A9DD-FA40FC85C4EB"
            }
          },
          {
            "time" : 8942,
            "value" : "mkdir",
            "duration" : 0,
            "metadata" : {
              "Checked" : "True",
              "IndentLevel" : "0",
              "markerIdentifier" : "346C1C43-3581-4A6A-AED9-9EC9C2514295"
            }
          },
          {
            "time" : 9398,
            "value" : "vagrant init",
            "duration" : 0,
            "metadata" : {
              "Checked" : "True",
              "IndentLevel" : "0",
              "markerIdentifier" : "D26AB05B-476D-4FBF-9F7D-80A6C3580C63"
            }
          },
          {
            "time" : 9998,
            "value" : "open vagrantfile",
            "duration" : 0,
            "metadata" : {
              "Checked" : "True",
              "IndentLevel" : "0",
              "markerIdentifier" : "3DBFC9E9-70A1-4562-869F-C3B02ECDE8DA"
            }
          }
        ]
      }
    },
    "captionAttributes" : {
      "enabled" : true,
      "fontName" : "Arial",
      "fontSize" : 35,
      "backgroundColor" : [ 0, 0, 0, 191],
      "foregroundColor" : [ 255, 255, 255, 255],
      "lang" : "en",
      "alignment" : 0,
      "defaultFontSize" : true,
      "opacity" : 0.5,
      "backgroundEnabled" : true,
      "backgroundOnlyAroundText" : true
    },
    "backgroundColor" : [ 0, 0, 0, 255]
  },
  "metadata" : {
    "AutoSaveFile" : "C:\\Users\\ori.CROW\\AppData\\Local\\TechSmith\\Camtasia Studio\\9.0\\Auto-Saves\\SqlServerVirtualBox-0610c67fb.autosave.tscproj",
    "CanvasZoom" : 60,
    "Date" : "2017-05-22 09:36:29 AM",
    "Fit" : 0,
    "IsAutoSave" : "0",
    "Language" : "ENU",
    "ProfileName" : "MP4 only (up to 720p)",
    "ProjectDimensionsChanged" : "1",
    "Title" : "SqlServerVirtualBox-06",
    "audioNarrationNotes" : "",
    "calloutStyle" : "Legacy",
    "canvasDetached" : "False",
    "canvasPositionHeight" : "0",
    "canvasPositionLeft" : "0",
    "canvasPositionTop" : "0",
    "canvasPositionWidth" : "0"
  }
}
